<svg width="449" height="253" viewBox="0 0 449 253" fill="none" xmlns="http://www.w3.org/2000/svg">
<g filter="url(#filter0_d_1_512)">
<g filter="url(#filter1_d_1_512)">
<path d="M104.219 175.101C101.196 175.667 98.0307 176.279 94.8107 176.913C97.9068 176.296 101.046 175.688 104.219 175.101ZM291.962 168.972C293.066 168.959 294.147 168.966 295.193 168.993C297.078 169.04 298.898 169.149 300.698 169.311C297.748 169.138 294.83 169.017 291.962 168.972ZM107.843 174.443C107.616 174.484 107.394 174.523 107.186 174.559C107.405 174.522 107.624 174.482 107.843 174.443ZM108.603 174.309C114.23 173.313 119.926 172.395 125.612 171.61C118.932 172.542 112.595 173.609 108.603 174.309ZM140.491 169.894C143.085 169.661 145.664 169.461 148.213 169.311C143.472 169.706 143.053 169.68 140.491 169.894ZM150.794 169.121C150.866 169.115 150.937 169.109 151.009 169.106C150.934 169.112 150.868 169.115 150.794 169.121ZM153.788 168.993C153.746 168.995 153.701 168.995 153.661 168.997C153.681 168.995 153.7 168.995 153.72 168.993C153.742 168.993 153.766 168.993 153.788 168.993ZM210.163 184.757C210.523 184.973 210.886 185.188 211.234 185.4C210.871 185.178 210.519 184.971 210.163 184.757ZM182.768 172.636C191.091 175.058 198.577 178.389 204.83 181.735C204.781 181.708 204.727 181.678 204.678 181.652C195.105 176.567 186.948 173.869 182.768 172.636ZM164.054 169.189C161.315 169.021 158.88 168.993 156.95 168.972C159.35 168.937 161.719 169.015 164.054 169.189ZM219.533 190.927C219.548 190.953 219.563 190.98 219.58 191.004C216.876 189.027 214.264 187.28 211.795 185.748C214.9 187.668 217.506 189.456 219.533 190.927ZM420.244 219.734H420.241L412.956 201.332L407.254 199.485L400.022 186.573L379.795 142.754C379.795 142.754 348.324 138.516 306.315 127.744C264.309 116.973 224.456 151.127 224.456 151.127C224.456 151.127 224.288 150.982 223.966 150.719C223.678 149.172 223.272 147.646 222.732 146.159C215.786 127.093 187.585 58.0429 133.122 25.4954C133.122 25.4954 72.9728 71.9007 74.5745 73.9321L74.5024 73.9893C75.3862 74.6156 76.2995 74.9615 77.21 75.4212L79.9493 76.7061L85.4221 79.281C86.1569 79.6292 86.8852 79.9902 87.6177 80.3435C75.6814 93.4677 64.6821 106.04 65.5743 106.862L65.5507 106.951C65.757 107.008 65.9625 107.067 66.1685 107.123C67.8817 107.723 73.1434 109.069 80.909 111.371C88.8907 113.78 96.8165 116.365 104.65 119.204C113.961 122.564 123.159 126.244 132.162 130.34C95.4884 139.2 69.1165 142.754 69.1165 142.754L48.8898 186.573C46.5676 190.718 44.2456 194.864 41.9237 199.009C41.8379 199.032 41.7513 199.049 41.6657 199.072L41.6803 199.164C41.7354 199.16 41.7897 199.154 41.8448 199.15C41.782 199.262 41.7195 199.374 41.6567 199.485L35.9583 201.332L28.6705 219.734C27.1266 219.734 25.8755 220.985 25.8755 222.528C25.8755 224.073 27.1266 225.322 28.6705 225.322H193.993C194.593 226.777 196.458 227.844 198.692 227.844H224.456H250.221C252.455 227.844 254.32 226.777 254.92 225.322H420.244C421.785 225.322 423.038 224.073 423.038 222.528C423.038 220.985 421.785 219.734 420.244 219.734Z" fill="#DAE4DD"/>
<path d="M253.718 219.732H420.242C420.242 219.732 333.612 212.726 305.555 212.393C277.5 212.062 253.718 219.732 253.718 219.732Z" fill="#0C0C2D"/>
<path d="M253.707 219.732H253.719L253.709 219.724C253.709 219.726 253.707 219.73 253.707 219.732Z" fill="#0C0C2D"/>
<path d="M224.57 155.666C224.645 155.6 224.756 155.504 224.899 155.38C224.754 155.504 224.645 155.6 224.57 155.666Z" fill="#DAE4DD"/>
<path d="M245.272 176.352C245.265 176.356 245.258 176.358 245.253 176.363C256.918 170.056 272.561 164.083 289.758 164.31H289.76C290.831 164.299 291.872 164.307 292.886 164.329C294.707 164.367 296.47 164.459 298.213 164.595C332.481 166.345 369.023 176.333 391.532 180.025L376.576 146.887C376.576 146.887 343.121 140.236 302.484 131.184C281.377 126.482 261.148 133.296 246.578 140.933C247.474 140.463 248.392 139.995 249.335 139.534L245.272 176.352Z" fill="#DAE4DD"/>
<path d="M239.113 145.182C239.864 144.721 240.637 144.254 241.435 143.787C240.637 144.256 239.864 144.721 239.113 145.182Z" fill="#DAE4DD"/>
<path d="M307.114 177.128C312.826 177.322 318.517 177.921 324.15 178.839C326.963 179.298 329.773 179.87 332.543 180.436C335.324 180.988 338.113 181.507 340.913 181.991C352.095 183.955 363.369 185.417 374.632 186.94L374.608 187.122C363.316 185.845 352.01 184.627 340.76 182.9C337.95 182.463 335.143 181.985 332.343 181.479C329.539 180.952 326.768 180.436 323.963 180.024C318.367 179.204 312.724 178.703 307.072 178.604C295.767 178.368 284.506 179.889 273.576 182.653C262.613 185.352 252.065 189.623 242.035 194.956L241.941 194.798C251.461 188.536 262.079 183.929 273.105 180.869C284.153 177.823 295.698 176.686 307.114 177.128ZM375.377 196.353C380.641 196.287 385.914 196.441 391.173 196.814C393.802 196.991 396.436 197.164 399.046 197.548C401.653 197.954 404.255 198.391 406.81 199.07L406.794 199.162C404.158 199.004 401.548 198.701 398.932 198.464C396.32 198.201 393.72 197.824 391.108 197.549C385.882 197.015 380.633 196.646 375.377 196.443V196.353ZM410.964 205.878C412.203 206.247 413.422 206.687 414.571 207.31L414.545 207.399C413.248 207.261 411.996 207.019 410.743 206.774C409.493 206.537 408.275 206.153 407.028 205.884C404.534 205.346 402.011 204.928 399.461 204.636L399.467 204.544C402.037 204.569 404.608 204.776 407.16 205.159C408.433 205.351 409.725 205.506 410.964 205.878ZM415.732 213.02C413.085 213.119 410.448 212.988 407.812 212.839C405.176 212.666 402.561 212.297 399.948 211.945C394.715 211.26 389.505 210.413 384.33 209.407L384.346 209.316C389.563 210.06 394.794 210.692 400.032 211.211C402.653 211.463 405.278 211.627 407.894 211.921C410.509 212.237 413.124 212.5 415.737 212.927L415.732 213.02ZM416.895 216.151C415.863 216.286 414.842 216.27 413.827 216.213C412.806 216.162 411.806 215.927 410.801 215.769C408.788 215.455 406.781 215.112 404.779 214.747L404.792 214.655C406.831 214.759 408.862 214.885 410.885 215.037C411.898 215.114 412.916 215.112 413.919 215.295C414.916 215.473 415.913 215.688 416.905 216.059L416.895 216.151ZM329.397 200.732C336.806 201.686 344.178 202.777 351.592 203.468C358.993 204.188 366.46 204.506 373.893 203.853L373.911 204.036C366.492 204.937 358.972 204.866 351.518 204.386C344.057 203.878 336.637 202.965 329.226 202.197C321.817 201.437 314.397 200.944 306.998 200.805C299.592 200.619 292.191 201.153 284.861 202.564L284.811 202.386C291.915 199.939 299.503 199.106 307.001 198.961C314.529 198.857 321.995 199.772 329.397 200.732ZM328.226 192.602C321.714 191.087 315.073 190.16 308.414 189.883C301.755 189.559 295.08 189.924 288.5 190.847C285.213 191.341 281.948 191.959 278.728 192.768C275.502 193.539 272.306 194.431 269.14 195.425C262.779 197.344 256.598 199.817 250.469 202.532L250.383 202.371C253.207 200.551 256.172 198.949 259.208 197.495C262.239 196.023 265.378 194.774 268.567 193.671C270.161 193.114 271.785 192.653 273.4 192.169C275.037 191.746 276.67 191.326 278.323 190.988C281.625 190.278 284.963 189.768 288.31 189.382C295.006 188.634 301.765 188.451 308.467 188.961C315.17 189.488 321.809 190.666 328.27 192.423L328.226 192.602ZM291.959 168.971C255.348 168.414 225.537 193.82 224.504 194.712V194.757C238.412 194.938 250.08 205.054 253.604 218.784C253.685 219.102 253.71 219.416 253.706 219.724L253.715 219.732C253.715 219.732 277.497 212.062 305.551 212.393C333.609 212.726 420.239 219.732 420.239 219.732L412.953 201.33L407.252 199.484L400.022 186.571C376.753 182.181 336.121 171.391 300.697 169.309C297.745 169.136 294.827 169.016 291.959 168.971Z" fill="#A5ABA7"/>
<path d="M195.195 219.732H195.207C195.207 219.73 195.205 219.726 195.205 219.724L195.195 219.732Z" fill="#0C0C2D"/>
<path d="M143.355 212.393C115.3 212.726 28.6683 219.732 28.6683 219.732H195.193C195.193 219.732 171.411 212.062 143.355 212.393Z" fill="#0C0C2D"/>
<path d="M224.446 155.76C224.448 155.819 224.453 155.875 224.453 155.934V155.768C224.453 155.768 224.448 155.762 224.446 155.76Z" fill="#DAE4DD"/>
<path d="M160.134 145.135C154.441 141.354 148.403 138.281 142.314 135.18C140.875 134.458 139.428 133.751 137.977 133.054C101.256 141.136 72.3346 146.887 72.3346 146.887L57.3792 180.025C79.8884 176.333 116.429 166.345 150.698 164.595C152.441 164.459 154.202 164.367 156.025 164.329C157.039 164.307 158.08 164.299 159.15 164.31H159.15C178.186 164.058 195.321 171.401 207.261 178.386C198.082 169.965 187.994 162.658 177.484 156.012C171.758 152.314 165.928 148.761 160.134 145.135Z" fill="#DAE4DD"/>
<path d="M48.527 211.945C45.9128 212.297 43.296 212.666 40.6617 212.839C38.026 212.988 35.3889 213.119 32.742 213.02L32.736 212.927C35.3488 212.5 37.967 212.237 40.5806 211.921C43.1953 211.627 45.8221 211.463 48.4431 211.211C53.6812 210.692 58.9111 210.06 64.1287 209.316L64.1444 209.407C58.9691 210.413 53.7599 211.26 48.527 211.945ZM37.6732 215.769C36.6668 215.927 35.6672 216.162 34.6486 216.213C33.6309 216.27 32.6095 216.286 31.5785 216.151L31.5711 216.059C32.5589 215.688 33.5562 215.474 34.557 215.295C35.5569 215.112 36.5761 215.114 37.5885 215.037C39.6126 214.885 41.6425 214.758 43.6803 214.655L43.6938 214.747C41.6938 215.112 39.6865 215.455 37.6732 215.769ZM37.5099 205.878C38.7485 205.506 40.0392 205.351 41.3132 205.159C43.8647 204.776 46.4373 204.569 49.0067 204.544L49.0121 204.636C46.464 204.928 43.9386 205.346 41.4458 205.884C40.1986 206.153 38.9809 206.537 37.7298 206.774C36.4783 207.019 35.2269 207.261 33.9281 207.399L33.9008 207.31C35.0517 206.687 36.2711 206.247 37.5099 205.878ZM115.931 180.436C118.702 179.87 121.511 179.298 124.324 178.839C129.955 177.921 135.647 177.322 141.36 177.128C152.776 176.686 164.321 177.823 175.368 180.869C186.397 183.929 197.014 188.536 206.532 194.798L206.438 194.956C196.408 189.623 185.861 185.352 174.899 182.653C163.969 179.889 152.709 178.368 141.401 178.604C135.751 178.703 130.107 179.204 124.509 180.024C121.705 180.436 118.936 180.952 116.13 181.479C113.329 181.985 110.523 182.463 107.712 182.9C96.4628 184.627 85.1576 185.845 73.8651 187.122L73.842 186.94C85.1051 185.418 96.3802 183.955 107.563 181.991C110.359 181.507 113.148 180.988 115.931 180.436ZM120.202 192.423C126.666 190.666 133.302 189.488 140.005 188.961C146.71 188.451 153.467 188.634 160.164 189.383C163.511 189.768 166.85 190.278 170.15 190.988C171.803 191.326 173.438 191.746 175.073 192.169C176.689 192.653 178.314 193.114 179.907 193.671C183.095 194.774 186.233 196.023 189.265 197.495C192.304 198.95 195.268 200.551 198.092 202.371L198.004 202.532C191.875 199.817 185.693 197.344 179.334 195.425C176.169 194.431 172.972 193.539 169.745 192.768C166.526 191.959 163.26 191.341 159.974 190.847C153.394 189.924 146.719 189.559 140.062 189.883C133.402 190.16 126.76 191.087 120.247 192.602L120.202 192.423ZM141.471 198.961C148.971 199.106 156.561 199.939 163.662 202.386L163.614 202.564C156.283 201.153 148.88 200.619 141.475 200.805C134.076 200.944 126.66 201.437 119.247 202.198C111.837 202.965 104.418 203.878 96.9573 204.386C89.5 204.866 81.9835 204.937 74.5627 204.036L74.5817 203.853C82.0125 204.506 89.4789 204.188 96.8828 203.468C104.296 202.777 111.669 201.686 119.077 200.732C126.479 199.772 133.944 198.857 141.471 198.961ZM195.193 219.732L195.202 219.724C195.198 219.416 195.223 219.102 195.304 218.784C198.64 205.784 209.28 196.035 222.208 194.879L221.703 194.497L221.679 194.478L221.654 194.439C220.952 193.297 220.266 192.151 219.577 191.003C216.873 189.025 214.261 187.279 211.792 185.747C211.604 185.63 211.416 185.512 211.231 185.399C210.868 185.177 210.516 184.97 210.16 184.755C208.282 183.632 206.493 182.621 204.827 181.733C204.778 181.707 204.724 181.677 204.675 181.65C195.102 176.566 186.945 173.867 182.765 172.635C182.242 172.48 181.774 172.347 181.38 172.236C178.349 171.389 174.218 170.254 168.671 169.594C167.06 169.404 165.515 169.276 164.052 169.187C161.312 169.02 158.877 168.991 156.948 168.971C155.671 168.959 154.592 168.973 153.786 168.991C153.744 168.993 153.699 168.993 153.658 168.995C153.12 169.008 152.714 169.023 152.481 169.033C151.947 169.054 151.463 169.078 151.007 169.104C150.931 169.11 150.865 169.114 150.792 169.119C149.751 169.181 148.894 169.253 148.211 169.309C143.47 169.705 143.051 169.678 140.488 169.893C140.255 169.914 140.009 169.934 139.735 169.957C134.635 170.407 130.608 170.937 127.896 171.297C127.131 171.398 126.369 171.504 125.609 171.609C118.93 172.541 112.592 173.607 108.601 174.307C108.338 174.355 108.082 174.4 107.841 174.441C107.613 174.483 107.391 174.522 107.183 174.558C105.715 174.821 104.738 175.002 104.447 175.056C104.371 175.072 104.293 175.087 104.216 175.1C101.193 175.666 98.0283 176.278 94.8081 176.912C74.4334 180.93 51.8448 185.916 48.8874 186.571C46.5652 190.717 44.2433 194.862 41.9212 199.008C44.395 198.366 46.9094 197.941 49.428 197.548C52.0379 197.164 54.6729 196.991 57.3025 196.814C62.5608 196.441 67.8321 196.287 73.0964 196.353L73.0979 196.443C67.8391 196.646 62.5919 197.015 57.3656 197.549C54.7527 197.824 52.1534 198.201 49.5409 198.464C46.979 198.697 44.4245 198.989 41.8423 199.149C41.7796 199.26 41.717 199.373 41.6543 199.484L35.9559 201.33L28.6683 219.732C28.6683 219.732 115.3 212.726 143.356 212.393C171.411 212.062 195.193 219.732 195.193 219.732Z" fill="#A5ABA7"/>
<path d="M200.784 222.529C200.784 222.408 200.763 222.293 200.748 222.177C200.144 222.773 199.335 223.133 198.473 223.133C196.657 223.133 195.234 221.559 195.206 219.734H195.195H28.6706C27.1266 219.734 25.8755 220.986 25.8755 222.529C25.8755 224.074 27.1266 225.323 28.6706 225.323H193.992H197.989C199.532 225.323 200.784 224.074 200.784 222.529Z" fill="#A09F9C"/>
<path d="M420.245 219.734H420.242H253.718H253.707C253.679 221.56 252.256 223.133 250.44 223.133H250.278C249.46 223.133 248.722 222.781 248.161 222.21C248.148 222.316 248.129 222.419 248.129 222.529C248.129 224.073 249.381 225.323 250.924 225.323H254.921H420.245C421.786 225.323 423.038 224.073 423.038 222.529C423.038 220.985 421.786 219.734 420.245 219.734Z" fill="#A09F9C"/>
<path d="M241.942 194.799L242.036 194.957C252.067 189.624 262.612 185.352 273.576 182.654C284.507 179.889 295.767 178.369 307.074 178.604C312.724 178.704 318.369 179.204 323.965 180.025C326.768 180.437 329.54 180.952 332.345 181.479C335.145 181.985 337.95 182.463 340.762 182.9C352.011 184.628 363.318 185.845 374.609 187.123L374.632 186.94C363.37 185.418 352.093 183.956 340.913 181.991C338.115 181.507 335.326 180.988 332.545 180.437C329.773 179.87 326.963 179.298 324.151 178.839C318.52 177.921 312.827 177.322 307.116 177.129C295.699 176.686 284.154 177.823 273.106 180.87C262.078 183.929 251.462 188.536 241.942 194.799Z" fill="#A09F9C"/>
<path d="M288.312 189.385C284.964 189.77 281.626 190.28 278.325 190.99C276.674 191.329 275.039 191.748 273.404 192.172C271.786 192.655 270.163 193.116 268.57 193.673C265.381 194.776 262.243 196.026 259.211 197.497C256.173 198.952 253.209 200.553 250.386 202.373L250.473 202.535C256.601 199.819 262.783 197.347 269.142 195.427C272.309 194.434 275.506 193.541 278.73 192.77C281.951 191.961 285.216 191.344 288.502 190.849C295.083 189.927 301.759 189.562 308.416 189.885C315.076 190.162 321.716 191.09 328.229 192.604L328.274 192.426C321.811 190.668 315.173 189.49 308.47 188.963C301.767 188.453 295.009 188.636 288.312 189.385Z" fill="#A09F9C"/>
<path d="M284.81 202.388L284.859 202.567C292.188 201.155 299.593 200.621 306.997 200.807C314.396 200.947 321.815 201.44 329.223 202.2C336.637 202.968 344.055 203.88 351.516 204.388C358.972 204.868 366.489 204.94 373.909 204.039L373.89 203.856C366.458 204.509 358.993 204.191 351.589 203.47C344.177 202.779 336.804 201.688 329.395 200.734C321.993 199.774 314.528 198.86 307.001 198.963C299.501 199.108 291.911 199.942 284.81 202.388Z" fill="#A09F9C"/>
<path d="M398.938 198.468C401.555 198.705 404.163 199.008 406.801 199.166L406.816 199.074C404.26 198.394 401.657 197.958 399.053 197.551C396.443 197.167 393.808 196.994 391.177 196.817C385.919 196.445 380.649 196.29 375.383 196.356V196.446C380.641 196.65 385.889 197.019 391.114 197.553C393.726 197.828 396.326 198.204 398.938 198.468Z" fill="#A09F9C"/>
<path d="M399.464 204.636C402.011 204.928 404.537 205.345 407.03 205.884C408.276 206.152 409.496 206.536 410.745 206.774C411.999 207.018 413.25 207.261 414.549 207.398L414.575 207.31C413.424 206.687 412.204 206.247 410.966 205.878C409.727 205.505 408.437 205.351 407.162 205.159C404.61 204.775 402.037 204.568 399.469 204.544L399.464 204.636Z" fill="#A09F9C"/>
<path d="M400.031 211.214C394.793 210.694 389.563 210.062 384.346 209.319L384.33 209.409C389.506 210.416 394.715 211.262 399.948 211.947C402.562 212.299 405.178 212.668 407.813 212.841C410.448 212.99 413.085 213.122 415.733 213.022L415.738 212.93C413.127 212.502 410.508 212.239 407.894 211.923C405.28 211.629 402.653 211.466 400.031 211.214Z" fill="#A09F9C"/>
<path d="M410.89 215.038C408.864 214.885 406.833 214.759 404.796 214.656L404.783 214.748C406.783 215.113 408.791 215.455 410.803 215.77C411.808 215.928 412.808 216.163 413.829 216.214C414.847 216.27 415.865 216.287 416.896 216.152L416.907 216.06C415.917 215.689 414.92 215.474 413.92 215.295C412.921 215.113 411.902 215.115 410.89 215.038Z" fill="#A09F9C"/>
<path d="M73.8669 187.125C85.1593 185.847 96.4646 184.629 107.714 182.902C110.525 182.465 113.331 181.987 116.132 181.481C118.937 180.954 121.707 180.439 124.511 180.027C130.108 179.206 135.753 178.706 141.402 178.606C152.711 178.371 163.971 179.891 174.901 182.655C185.863 185.354 196.41 189.626 206.44 194.959L206.534 194.801C197.016 188.538 186.399 183.931 175.37 180.872C164.323 177.825 152.778 176.688 141.362 177.131C135.649 177.324 129.957 177.923 124.326 178.841C121.513 179.3 118.704 179.872 115.933 180.439C113.15 180.99 110.361 181.509 107.565 181.993C96.382 183.958 85.1068 185.42 73.8438 186.942L73.8669 187.125Z" fill="#A09F9C"/>
<path d="M159.976 190.849C163.263 191.344 166.529 191.961 169.748 192.77C172.975 193.542 176.172 194.434 179.337 195.427C185.696 197.347 191.878 199.819 198.007 202.535L198.095 202.373C195.271 200.553 192.307 198.952 189.268 197.497C186.236 196.026 183.097 194.776 179.909 193.673C178.317 193.116 176.692 192.655 175.075 192.172C173.441 191.748 171.806 191.329 170.153 190.99C166.852 190.28 163.514 189.77 160.167 189.385C153.47 188.636 146.712 188.453 140.008 188.963C133.305 189.49 126.668 190.668 120.204 192.426L120.249 192.604C126.763 191.09 133.405 190.162 140.064 189.885C146.721 189.562 153.396 189.927 159.976 190.849Z" fill="#A09F9C"/>
<path d="M96.8858 203.47C89.4819 204.191 82.0155 204.509 74.5847 203.856L74.5657 204.038C81.9865 204.94 89.5029 204.868 96.9603 204.388C104.421 203.88 111.84 202.968 119.25 202.2C126.662 201.44 134.079 200.947 141.478 200.807C148.883 200.621 156.286 201.156 163.617 202.567L163.664 202.388C156.564 199.942 148.974 199.108 141.474 198.963C133.947 198.86 126.482 199.774 119.08 200.734C111.672 201.688 104.299 202.78 96.8858 203.47Z" fill="#A09F9C"/>
<path d="M57.3679 197.551C62.5942 197.017 67.8414 196.648 73.1002 196.445L73.0987 196.355C67.8344 196.289 62.5631 196.443 57.3048 196.816C54.6752 196.992 52.0402 197.166 49.4303 197.549C46.9117 197.943 44.3973 198.368 41.9235 199.01C41.8378 199.032 41.7513 199.049 41.6656 199.072L41.6801 199.164C41.7353 199.16 41.7897 199.155 41.8446 199.151C44.4268 198.991 46.9813 198.699 49.5432 198.466C52.1557 198.202 54.755 197.826 57.3679 197.551Z" fill="#A09F9C"/>
<path d="M37.7328 206.777C38.9838 206.54 40.2015 206.156 41.4487 205.887C43.9415 205.349 46.4669 204.931 49.015 204.639L49.0096 204.547C46.4402 204.572 43.8676 204.779 41.3161 205.162C40.0421 205.354 38.7514 205.509 37.5128 205.881C36.274 206.25 35.0546 206.691 33.9037 207.313L33.931 207.402C35.2298 207.264 36.4812 207.022 37.7328 206.777Z" fill="#A09F9C"/>
<path d="M48.4478 211.212C45.8268 211.464 43.2 211.627 40.5853 211.921C37.9717 212.237 35.3535 212.501 32.7407 212.928L32.7467 213.02C35.3936 213.12 38.0307 212.988 40.6664 212.839C43.3007 212.666 45.9175 212.297 48.5317 211.945C53.7646 211.26 58.9738 210.414 64.1491 209.407L64.1334 209.317C58.9158 210.06 53.6859 210.692 48.4478 211.212Z" fill="#A09F9C"/>
<path d="M37.5914 215.039C36.579 215.117 35.5598 215.115 34.5598 215.297C33.5591 215.476 32.5617 215.691 31.574 216.061L31.5813 216.154C32.6123 216.289 33.6338 216.272 34.6515 216.216C35.6701 216.165 36.6697 215.93 37.6761 215.771C39.6894 215.457 41.6967 215.115 43.6967 214.75L43.6831 214.657C41.6453 214.761 39.6154 214.887 37.5914 215.039Z" fill="#A09F9C"/>
<path d="M142.316 135.18C148.405 138.281 154.443 141.354 160.136 145.135C165.93 148.761 171.76 152.314 177.486 156.012C187.996 162.658 198.084 169.965 207.263 178.386C208.148 179.196 209.032 180.003 209.898 180.835L209.958 180.774L210.032 180.707C205.468 175.601 200.416 170.933 195.109 166.588C189.804 162.229 184.172 158.3 178.494 154.467C175.634 152.581 172.743 150.747 169.847 148.923L161.093 143.578C155.323 139.887 149.105 136.848 142.966 133.855C130.633 127.88 117.89 122.804 104.959 118.333C92.0087 113.902 78.8439 110.159 65.6004 106.773L65.5767 106.861L65.5532 106.952C65.7594 107.008 65.9649 107.067 66.171 107.123C71.1005 108.484 76.0165 109.894 80.9114 111.371C88.893 113.779 96.8187 116.364 104.652 119.204C113.963 122.564 123.161 126.244 132.165 130.34C134.112 131.226 136.051 132.128 137.979 133.054C139.43 133.752 140.877 134.459 142.316 135.18Z" fill="#A09F9C"/>
<path d="M224.453 193.186C224.47 193.212 224.487 193.239 224.504 193.263V190.548C224.485 190.565 224.453 190.593 224.453 190.593V193.186Z" fill="#DAE4DD"/>
<path d="M157.584 123.088C151.224 118.158 144.691 113.447 138.005 108.958C131.307 104.487 124.46 100.238 117.496 96.1866C110.738 92.2424 103.861 88.5014 96.8911 84.9354C87.9082 94.7169 80.0244 103.736 80.8105 104.459C82.2259 105.763 152.184 118.738 200.059 163.745C197.782 161.014 195.449 158.331 193.019 155.73C182.154 143.899 170.287 132.972 157.584 123.088Z" fill="#DAE4DD"/>
<path d="M224.453 190.593C224.453 190.593 224.485 190.564 224.504 190.548C224.98 190.119 231.899 183.931 242.917 177.659C242.923 177.655 242.929 177.652 242.934 177.65C243.687 177.221 244.46 176.792 245.253 176.365C245.258 176.359 245.264 176.357 245.271 176.353L249.334 139.535C248.393 139.996 247.475 140.464 246.577 140.934C246.574 140.936 246.57 140.938 246.566 140.94C245.672 141.408 244.801 141.879 243.95 142.352C243.945 142.356 243.937 142.359 243.93 142.364C243.083 142.834 242.261 143.305 241.459 143.774C241.449 143.779 241.442 143.784 241.433 143.789C240.635 144.256 239.861 144.722 239.11 145.183C239.099 145.191 239.09 145.196 239.078 145.202C238.329 145.665 237.603 146.12 236.905 146.572C236.897 146.576 236.89 146.581 236.88 146.585C236.18 147.037 235.507 147.481 234.858 147.916C234.85 147.919 234.842 147.925 234.835 147.931C234.188 148.363 233.569 148.789 232.976 149.203C232.968 149.207 232.959 149.212 232.951 149.218C232.359 149.632 231.792 150.034 231.256 150.422C231.252 150.424 231.248 150.428 231.245 150.43C230.706 150.817 230.198 151.192 229.72 151.549C229.715 151.553 229.711 151.557 229.705 151.561C229.227 151.918 228.777 152.259 228.36 152.581C228.358 152.582 228.358 152.584 228.356 152.584C227.936 152.908 227.551 153.211 227.197 153.491C227.195 153.493 227.193 153.495 227.191 153.495C226.837 153.777 226.516 154.035 226.228 154.27C226.226 154.272 226.224 154.274 226.224 154.274C225.652 154.741 225.213 155.112 224.916 155.366C224.91 155.371 224.905 155.375 224.899 155.381C224.756 155.505 224.645 155.601 224.57 155.667C224.57 155.669 224.568 155.669 224.566 155.67C224.493 155.734 224.453 155.77 224.453 155.77V155.936V158.885V190.593Z" fill="#CCD5CF"/>
<path d="M379.798 142.754C379.798 142.754 348.324 138.515 306.317 127.744C264.309 116.973 224.456 151.127 224.456 151.127C224.456 151.127 224.289 150.982 223.967 150.718C223.679 149.172 223.273 147.645 222.733 146.159C215.787 127.093 187.586 58.0425 133.123 25.4957C133.123 25.4957 72.9735 71.9003 74.5752 73.9317L74.6474 73.8743C75.4276 74.393 76.4123 74.7861 77.3073 75.2126L80.0643 76.4556L85.5775 78.9493C89.2483 80.6232 92.8894 82.3623 96.5196 84.125C103.764 87.6815 110.917 91.4327 117.951 95.3983C124.979 99.3744 131.89 103.561 138.66 107.97C145.418 112.398 152.029 117.053 158.474 121.933C171.331 131.719 183.587 142.41 194.402 154.48L198.41 159.042L202.236 163.759C203.534 165.312 204.739 166.939 205.943 168.567C207.134 170.204 208.406 171.78 209.528 173.465C214.114 180.037 218.205 186.937 221.876 194.036C194.829 111.991 91.4885 75.8052 90.0016 73.9322C88.5122 72.0552 136.674 35.6842 136.674 35.6842C187.112 65.8253 216.427 132.174 222.859 149.83C223.918 152.734 224.456 155.794 224.456 158.883V155.935C224.456 155.877 224.451 155.82 224.449 155.762C224.451 155.763 224.456 155.769 224.456 155.769C224.456 155.769 224.496 155.733 224.569 155.669C224.571 155.667 224.573 155.667 224.573 155.666C224.648 155.6 224.757 155.504 224.902 155.38C224.908 155.374 224.914 155.37 224.919 155.365C225.216 155.111 225.655 154.74 226.227 154.273C226.227 154.273 226.229 154.271 226.231 154.269C226.519 154.034 226.841 153.776 227.194 153.494C227.196 153.494 227.198 153.492 227.2 153.49C227.554 153.21 227.939 152.907 228.359 152.583C228.361 152.583 228.361 152.581 228.363 152.58C228.781 152.258 229.23 151.917 229.708 151.56C229.714 151.556 229.718 151.552 229.723 151.548C230.201 151.191 230.71 150.816 231.248 150.429C231.251 150.427 231.255 150.423 231.259 150.421C231.795 150.033 232.362 149.631 232.954 149.217C232.962 149.211 232.971 149.205 232.979 149.202C233.572 148.788 234.191 148.362 234.838 147.93C234.846 147.924 234.853 147.918 234.861 147.914C235.51 147.48 236.184 147.036 236.884 146.584C236.893 146.58 236.901 146.575 236.908 146.571C237.606 146.119 238.333 145.664 239.082 145.201C239.093 145.195 239.102 145.19 239.114 145.182C239.864 144.721 240.638 144.256 241.436 143.788C241.445 143.782 241.453 143.778 241.462 143.773C242.263 143.304 243.085 142.833 243.932 142.362C243.94 142.358 243.947 142.354 243.952 142.351C244.805 141.878 245.675 141.407 246.57 140.939C246.572 140.937 246.577 140.935 246.58 140.933C261.151 133.297 281.38 126.482 302.486 131.183C343.125 140.236 376.579 146.887 376.579 146.887L391.535 180.026C369.025 176.333 332.485 166.345 298.214 164.595C296.472 164.459 294.712 164.367 292.887 164.329C291.877 164.307 290.834 164.299 289.763 164.311C272.565 164.083 256.921 170.056 245.256 176.364C244.464 176.791 243.689 177.22 242.937 177.649C242.932 177.651 242.927 177.654 242.92 177.658C231.902 183.93 224.983 190.118 224.507 190.547V193.262C224.49 193.238 224.473 193.211 224.456 193.185V194.754C224.473 194.756 224.49 194.758 224.507 194.758V194.713C225.54 193.821 255.352 168.415 291.964 168.972C293.067 168.959 294.148 168.966 295.193 168.992C297.079 169.04 298.899 169.149 300.699 169.311C336.123 171.392 376.757 182.182 400.024 186.572L379.798 142.754Z" fill="url(#paint0_linear_1_512)"/>
<path d="M215.285 184.18C214.16 182.511 213.115 180.793 211.926 179.171L208.388 174.286C205.701 170.703 202.927 167.184 200.06 163.746C152.184 118.739 82.2264 105.764 80.8109 104.46C80.0249 103.737 87.9087 94.7178 96.8916 84.9363C96.6848 84.8309 96.48 84.7218 96.2729 84.6164C93.4001 83.1674 90.5144 81.7429 87.6159 80.3447C75.6797 93.4683 64.6804 106.042 65.5726 106.863L65.5963 106.774C78.8398 110.161 92.0046 113.903 104.955 118.335C117.886 122.805 130.629 127.882 142.962 133.857C149.101 136.85 155.319 139.888 161.088 143.58L169.843 148.925C172.739 150.748 175.63 152.583 178.49 154.468C184.168 158.302 189.8 162.231 195.105 166.589C200.412 170.934 205.464 175.603 210.027 180.708L209.954 180.776L209.894 180.836C209.028 180.004 208.144 179.197 207.259 178.388C195.319 171.403 178.184 164.06 159.148 164.312H159.148C158.078 164.301 157.037 164.308 156.023 164.331C154.2 164.369 152.439 164.461 150.696 164.596C116.427 166.346 79.8864 176.335 57.3772 180.027L72.3325 146.889C72.3325 146.889 101.254 141.138 137.975 133.055C136.047 132.129 134.108 131.227 132.16 130.341C95.4865 139.201 69.1149 142.755 69.1149 142.755L48.8881 186.574C51.8455 185.919 74.4341 180.932 94.8088 176.914C97.9047 176.297 101.044 175.689 104.217 175.102C104.293 175.089 104.372 175.074 104.448 175.059C104.738 175.004 105.716 174.824 107.184 174.56C107.403 174.523 107.622 174.483 107.842 174.444C108.083 174.402 108.339 174.357 108.602 174.31C114.228 173.315 119.924 172.396 125.61 171.612C126.369 171.506 127.132 171.401 127.897 171.299C130.608 170.94 134.636 170.409 139.736 169.959C140.01 169.937 140.255 169.916 140.489 169.895C143.084 169.662 145.662 169.463 148.211 169.312C148.895 169.256 149.751 169.184 150.792 169.122C150.864 169.116 150.935 169.111 151.007 169.107C151.464 169.081 151.947 169.056 152.482 169.035C152.714 169.026 153.121 169.011 153.659 168.998C153.679 168.996 153.698 168.996 153.718 168.994C153.74 168.994 153.764 168.994 153.786 168.994C154.593 168.975 155.671 168.962 156.948 168.973C159.348 168.938 161.717 169.017 164.052 169.19C165.515 169.278 167.061 169.406 168.672 169.596C174.218 170.257 178.35 171.391 181.381 172.238C181.774 172.349 182.243 172.483 182.766 172.637C191.089 175.059 198.575 178.39 204.828 181.736C206.493 182.624 208.283 183.634 210.161 184.758C210.52 184.974 210.884 185.189 211.232 185.401C211.416 185.514 211.604 185.633 211.793 185.749C214.898 187.669 217.504 189.457 219.531 190.928C219.324 190.586 219.117 190.241 218.911 189.899C217.743 187.966 216.561 186.045 215.285 184.18Z" fill="url(#paint1_linear_1_512)"/>
<path d="M66.1656 107.122C67.7663 107.683 72.4672 108.895 79.4123 110.929C75.0106 109.614 70.5948 108.343 66.1656 107.122Z" fill="url(#paint2_linear_1_512)"/>
<path d="M79.4146 110.93C79.912 111.079 80.4114 111.221 80.9084 111.371C80.399 111.22 79.902 111.073 79.4146 110.93Z" fill="url(#paint3_linear_1_512)"/>
<path d="M96.8947 84.9347C103.864 88.5007 110.741 92.2417 117.499 96.186C124.463 100.237 131.311 104.487 138.008 108.958C144.694 113.446 151.227 118.157 157.588 123.087C170.29 132.971 182.158 143.899 193.023 155.73C195.452 158.33 197.786 161.014 200.063 163.744C202.931 167.182 205.704 170.701 208.392 174.284L211.929 179.169C213.119 180.791 214.163 182.509 215.288 184.178C216.564 186.043 217.746 187.965 218.915 189.897C219.12 190.24 219.327 190.584 219.534 190.927C219.549 190.953 219.564 190.979 219.581 191.004C220.269 192.152 220.956 193.298 221.658 194.44L221.683 194.479L221.707 194.498L222.211 194.88C222.315 194.871 222.422 194.871 222.526 194.863L222.021 194.459C221.974 194.316 221.923 194.178 221.876 194.035C218.205 186.937 214.114 180.037 209.528 173.465C208.407 171.779 207.135 170.204 205.943 168.567C204.739 166.939 203.535 165.312 202.236 163.759L198.411 159.042L194.402 154.48C183.588 142.409 171.332 131.719 158.474 121.933C152.03 117.053 145.419 112.398 138.661 107.97C131.891 103.561 124.979 99.3737 117.952 95.3975C110.917 91.4325 103.765 87.6821 96.52 84.1255C92.8901 82.3623 89.2488 80.6235 85.5782 78.9488L80.0649 76.4554L77.3081 75.2134C76.4131 74.7862 75.4282 74.3929 74.6482 73.8736L74.5759 73.9319L74.5037 73.9884C75.3875 74.615 76.3008 74.9612 77.2114 75.4204L79.9505 76.7057L85.4235 79.2799C86.1583 79.6281 86.8866 79.9894 87.619 80.3432C90.5175 81.7413 93.4032 83.1658 96.276 84.6148C96.4832 84.7202 96.6879 84.8293 96.8947 84.9347Z" fill="#A09F9C"/>
<path d="M224.454 194.755V158.884C224.454 155.794 223.916 152.734 222.856 149.831C216.424 132.175 187.11 65.8257 136.672 35.685C136.672 35.685 88.5102 72.0563 89.9995 73.9324C91.4867 75.8067 194.827 111.991 221.874 194.036C221.921 194.179 221.972 194.316 222.019 194.459L222.523 194.864C223.163 194.813 223.805 194.762 224.454 194.755Z" fill="#DAE4DD"/>
<path d="M224.458 225.322H205.061C205.262 223.926 205.565 222.571 205.962 221.269C208.71 212.235 215.938 205.75 224.458 205.614C232.981 205.75 240.209 212.235 242.956 221.269C243.353 222.571 243.656 223.926 243.858 225.322H224.458ZM250.926 225.322C249.383 225.322 248.131 224.073 248.131 222.528C248.131 222.419 248.15 222.315 248.163 222.21C247.898 221.943 247.676 221.625 247.505 221.269C247.405 221.058 247.316 220.838 247.256 220.605C244.479 209.864 235.346 201.951 224.458 201.793C213.572 201.951 204.44 209.864 201.662 220.605C201.6 220.84 201.51 221.058 201.406 221.269C201.237 221.612 201.015 221.916 200.751 222.176C200.767 222.293 200.787 222.408 200.787 222.528C200.787 224.073 199.536 225.322 197.993 225.322H193.996C194.596 226.777 196.461 227.844 198.695 227.844H224.458H250.224C252.457 227.844 254.322 226.777 254.923 225.322H250.926Z" fill="#A09F9C"/>
<path d="M224.455 205.615C215.934 205.75 208.706 212.235 205.959 221.27C205.562 222.572 205.259 223.927 205.057 225.323H224.455H243.854C243.653 223.927 243.35 222.572 242.953 221.27C240.205 212.235 232.977 205.75 224.455 205.615Z" fill="#0C0C2D"/>
<path d="M253.604 218.785C250.08 205.055 238.413 194.939 224.504 194.758C224.487 194.758 224.47 194.756 224.454 194.754C223.804 194.762 223.163 194.813 222.523 194.864C222.419 194.871 222.312 194.871 222.209 194.88C209.281 196.036 198.641 205.785 195.305 218.785C195.224 219.103 195.199 219.417 195.203 219.726C195.203 219.728 195.205 219.731 195.205 219.733C195.233 221.559 196.656 223.132 198.472 223.132C199.334 223.132 200.143 222.772 200.747 222.176C201.01 221.916 201.232 221.611 201.402 221.269C201.505 221.058 201.595 220.84 201.658 220.605C204.435 209.863 213.567 201.95 224.454 201.792C235.342 201.95 244.474 209.863 247.251 220.605C247.312 220.838 247.4 221.058 247.5 221.269C247.671 221.624 247.893 221.942 248.158 222.21C248.719 222.78 249.457 223.132 250.275 223.132H250.437C252.253 223.132 253.676 221.559 253.704 219.733C253.704 219.731 253.706 219.728 253.706 219.726C253.71 219.417 253.685 219.103 253.604 218.785Z" fill="#2F2E41"/>
</g>
</g>
<defs>
<filter id="filter0_d_1_512" x="-17" y="-22" width="470" height="288" filterUnits="userSpaceOnUse" color-interpolation-filters="sRGB">
<feFlood flood-opacity="0" result="BackgroundImageFix"/>
<feColorMatrix in="SourceAlpha" type="matrix" values="0 0 0 0 0 0 0 0 0 0 0 0 0 0 0 0 0 0 127 0" result="hardAlpha"/>
<feOffset/>
<feGaussianBlur stdDeviation="12.5"/>
<feComposite in2="hardAlpha" operator="out"/>
<feColorMatrix type="matrix" values="0 0 0 0 0 0 0 0 0 0 0 0 0 0 0 0 0 0 0.25 0"/>
<feBlend mode="normal" in2="BackgroundImageFix" result="effect1_dropShadow_1_512"/>
<feBlend mode="normal" in="SourceGraphic" in2="effect1_dropShadow_1_512" result="shape"/>
</filter>
<filter id="filter1_d_1_512" x="21.8755" y="25.4954" width="405.163" height="210.349" filterUnits="userSpaceOnUse" color-interpolation-filters="sRGB">
<feFlood flood-opacity="0" result="BackgroundImageFix"/>
<feColorMatrix in="SourceAlpha" type="matrix" values="0 0 0 0 0 0 0 0 0 0 0 0 0 0 0 0 0 0 127 0" result="hardAlpha"/>
<feOffset dy="4"/>
<feGaussianBlur stdDeviation="2"/>
<feComposite in2="hardAlpha" operator="out"/>
<feColorMatrix type="matrix" values="0 0 0 0 0 0 0 0 0 0 0 0 0 0 0 0 0 0 0.25 0"/>
<feBlend mode="normal" in2="BackgroundImageFix" result="effect1_dropShadow_1_512"/>
<feBlend mode="normal" in="SourceGraphic" in2="effect1_dropShadow_1_512" result="shape"/>
</filter>
<linearGradient id="paint0_linear_1_512" x1="237.284" y1="194.758" x2="237.284" y2="25.4957" gradientUnits="userSpaceOnUse">
<stop stop-color="#F73E94"/>
<stop offset="0.25" stop-color="#992189"/>
<stop offset="0.5" stop-color="#6649A3"/>
<stop offset="0.75" stop-color="#239BDD"/>
<stop offset="1" stop-color="#22DCD9"/>
</linearGradient>
<linearGradient id="paint1_linear_1_512" x1="134.209" y1="190.928" x2="134.209" y2="80.3447" gradientUnits="userSpaceOnUse">
<stop stop-color="#F73E94"/>
<stop offset="0.25" stop-color="#992189"/>
<stop offset="0.5" stop-color="#6649A3"/>
<stop offset="0.75" stop-color="#239BDD"/>
<stop offset="1" stop-color="#22DCD9"/>
</linearGradient>
<linearGradient id="paint2_linear_1_512" x1="72.789" y1="110.929" x2="72.789" y2="107.122" gradientUnits="userSpaceOnUse">
<stop stop-color="#F73E94"/>
<stop offset="0.25" stop-color="#992189"/>
<stop offset="0.5" stop-color="#6649A3"/>
<stop offset="0.75" stop-color="#239BDD"/>
<stop offset="1" stop-color="#22DCD9"/>
</linearGradient>
<linearGradient id="paint3_linear_1_512" x1="80.1615" y1="111.371" x2="80.1615" y2="110.93" gradientUnits="userSpaceOnUse">
<stop stop-color="#F73E94"/>
<stop offset="0.25" stop-color="#992189"/>
<stop offset="0.5" stop-color="#6649A3"/>
<stop offset="0.75" stop-color="#239BDD"/>
<stop offset="1" stop-color="#22DCD9"/>
</linearGradient>
</defs>
</svg>
