<svg width="450" height="255" viewBox="0 0 450 255" fill="none" xmlns="http://www.w3.org/2000/svg">
<path d="M96.2187 172.101C93.1955 172.667 90.0306 173.279 86.8107 173.913C89.9067 173.296 93.0459 172.688 96.2187 172.101ZM283.962 165.972C285.066 165.959 286.147 165.966 287.193 165.993C289.078 166.04 290.898 166.149 292.698 166.311C289.748 166.138 286.83 166.017 283.962 165.972ZM99.8433 171.443C99.6155 171.484 99.3939 171.523 99.186 171.559C99.4045 171.522 99.624 171.482 99.8433 171.443ZM100.603 171.309C106.23 170.313 111.926 169.395 117.612 168.61C110.932 169.542 104.595 170.609 100.603 171.309ZM132.491 166.894C135.085 166.661 137.664 166.461 140.213 166.311C135.472 166.706 135.053 166.68 132.491 166.894ZM142.794 166.121C142.866 166.115 142.937 166.109 143.009 166.106C142.934 166.112 142.868 166.115 142.794 166.121ZM145.788 165.993C145.746 165.995 145.701 165.995 145.661 165.997C145.681 165.995 145.7 165.995 145.72 165.993C145.742 165.993 145.766 165.993 145.788 165.993ZM202.163 181.757C202.523 181.973 202.886 182.188 203.234 182.4C202.871 182.178 202.519 181.971 202.163 181.757ZM174.768 169.636C183.091 172.058 190.577 175.389 196.83 178.735C196.781 178.708 196.727 178.678 196.678 178.652C187.105 173.567 178.948 170.869 174.768 169.636ZM156.054 166.189C153.315 166.021 150.88 165.993 148.95 165.972C151.35 165.937 153.719 166.015 156.054 166.189ZM211.533 187.927C211.548 187.953 211.563 187.98 211.58 188.004C208.876 186.027 206.264 184.28 203.795 182.748C206.9 184.668 209.506 186.456 211.533 187.927ZM412.244 216.734H412.241L404.956 198.332L399.254 196.485L392.022 183.573L371.795 139.754C371.795 139.754 340.324 135.516 298.315 124.744C256.309 113.973 216.455 148.127 216.455 148.127C216.455 148.127 216.288 147.982 215.966 147.719C215.678 146.172 215.272 144.646 214.732 143.159C207.786 124.093 179.585 55.0429 125.122 22.4954C125.122 22.4954 64.9728 68.9007 66.5744 70.9321L66.5024 70.9893C67.3861 71.6156 68.2995 71.9615 69.2099 72.4212L71.9492 73.7061L77.422 76.281C78.1569 76.6292 78.8851 76.9902 79.6176 77.3435C67.6814 90.4677 56.682 103.04 57.5742 103.862L57.5507 103.951C57.757 104.008 57.9625 104.067 58.1685 104.123C59.8816 104.723 65.1433 106.069 72.9089 108.371C80.8906 110.78 88.8164 113.365 96.6501 116.204C105.961 119.564 115.159 123.244 124.162 127.34C87.4884 136.2 61.1165 139.754 61.1165 139.754L40.8897 183.573C38.5675 187.718 36.2456 191.864 33.9236 196.009C33.8378 196.032 33.7512 196.049 33.6657 196.072L33.6803 196.164C33.7353 196.16 33.7896 196.154 33.8447 196.15C33.7819 196.262 33.7194 196.374 33.6567 196.485L27.9583 198.332L20.6704 216.734C19.1265 216.734 17.8755 217.985 17.8755 219.528C17.8755 221.073 19.1265 222.322 20.6704 222.322H185.993C186.593 223.777 188.458 224.844 190.692 224.844H216.455H242.221C244.455 224.844 246.32 223.777 246.92 222.322H412.244C413.785 222.322 415.038 221.073 415.038 219.528C415.038 217.985 413.785 216.734 412.244 216.734Z" fill="#DAE4DD"/>
<path d="M245.718 216.732H412.242C412.242 216.732 325.612 209.726 297.555 209.393C269.5 209.062 245.718 216.732 245.718 216.732Z" fill="#0C0C2D"/>
<path d="M245.707 216.732H245.718L245.709 216.724C245.709 216.726 245.707 216.73 245.707 216.732Z" fill="#0C0C2D"/>
<path d="M216.57 152.666C216.645 152.6 216.756 152.504 216.899 152.38C216.754 152.504 216.645 152.6 216.57 152.666Z" fill="#DAE4DD"/>
<path d="M237.272 173.352C237.265 173.356 237.257 173.358 237.252 173.363C248.918 167.056 264.561 161.083 281.758 161.31H281.76C282.831 161.299 283.872 161.307 284.885 161.329C286.707 161.367 288.47 161.459 290.213 161.595C324.481 163.345 361.022 173.333 383.532 177.025L368.576 143.887C368.576 143.887 335.121 137.236 294.484 128.184C273.377 123.482 253.148 130.296 238.578 137.933C239.474 137.463 240.392 136.995 241.335 136.534L237.272 173.352Z" fill="#DAE4DD"/>
<path d="M231.113 142.182C231.864 141.721 232.637 141.254 233.435 140.787C232.637 141.256 231.864 141.721 231.113 142.182Z" fill="#DAE4DD"/>
<path d="M299.114 174.128C304.826 174.322 310.517 174.921 316.15 175.839C318.963 176.298 321.772 176.87 324.543 177.436C327.324 177.988 330.113 178.507 332.912 178.991C344.094 180.955 355.368 182.417 366.632 183.94L366.608 184.122C355.316 182.845 344.01 181.627 332.76 179.9C329.95 179.463 327.142 178.985 324.343 178.479C321.538 177.952 318.768 177.436 315.963 177.024C310.367 176.204 304.723 175.703 299.072 175.604C287.766 175.368 276.505 176.889 265.576 179.653C254.612 182.352 244.065 186.623 234.035 191.956L233.941 191.798C243.461 185.536 254.078 180.929 265.105 177.869C276.153 174.823 287.698 173.686 299.114 174.128ZM367.376 193.353C372.641 193.287 377.914 193.441 383.173 193.814C385.802 193.991 388.435 194.164 391.045 194.548C393.653 194.954 396.255 195.391 398.809 196.07L398.794 196.162C396.157 196.004 393.547 195.701 390.932 195.464C388.319 195.201 385.72 194.824 383.107 194.549C377.882 194.015 372.633 193.646 367.376 193.443V193.353ZM402.964 202.878C404.203 203.247 405.421 203.687 406.571 204.31L406.545 204.399C405.248 204.261 403.995 204.019 402.743 203.774C401.493 203.537 400.275 203.153 399.028 202.884C396.534 202.346 394.01 201.928 391.461 201.636L391.466 201.544C394.037 201.569 396.607 201.776 399.159 202.159C400.433 202.351 401.725 202.506 402.964 202.878ZM407.731 210.02C405.084 210.119 402.448 209.988 399.812 209.839C397.176 209.666 394.56 209.297 391.948 208.945C386.715 208.26 381.505 207.413 376.33 206.407L376.346 206.316C381.563 207.06 386.793 207.692 392.032 208.211C394.652 208.463 397.278 208.627 399.893 208.921C402.509 209.237 405.124 209.5 407.737 209.927L407.731 210.02ZM408.894 213.151C407.863 213.286 406.842 213.27 405.826 213.213C404.806 213.162 403.806 212.927 402.801 212.769C400.788 212.455 398.781 212.112 396.778 211.747L396.791 211.655C398.831 211.759 400.862 211.885 402.885 212.037C403.898 212.114 404.916 212.112 405.919 212.295C406.916 212.473 407.913 212.688 408.905 213.059L408.894 213.151ZM321.396 197.732C328.805 198.686 336.177 199.777 343.592 200.468C350.993 201.188 358.46 201.506 365.892 200.853L365.911 201.036C358.491 201.937 350.972 201.866 343.518 201.386C336.056 200.878 328.637 199.965 321.225 199.197C313.816 198.437 306.397 197.944 298.998 197.805C291.592 197.619 284.191 198.153 276.861 199.564L276.811 199.386C283.914 196.939 291.502 196.106 299.001 195.961C306.528 195.857 313.995 196.772 321.396 197.732ZM320.225 189.602C313.714 188.087 307.073 187.16 300.414 186.883C293.754 186.559 287.08 186.924 280.499 187.847C277.213 188.341 273.948 188.959 270.728 189.768C267.502 190.539 264.305 191.431 261.14 192.425C254.778 194.344 248.598 196.817 242.469 199.532L242.382 199.371C245.207 197.551 248.172 195.949 251.208 194.495C254.239 193.023 257.378 191.774 260.567 190.671C262.161 190.114 263.784 189.653 265.4 189.169C267.036 188.746 268.67 188.326 270.322 187.988C273.624 187.278 276.963 186.768 280.31 186.382C287.006 185.634 293.765 185.451 300.466 185.961C307.17 186.488 313.808 187.666 320.27 189.423L320.225 189.602ZM283.959 165.971C247.348 165.414 217.537 190.82 216.504 191.712V191.757C230.412 191.938 242.079 202.054 245.604 215.784C245.685 216.102 245.709 216.416 245.706 216.724L245.715 216.732C245.715 216.732 269.496 209.062 297.551 209.393C325.609 209.726 412.238 216.732 412.238 216.732L404.953 198.33L399.251 196.484L392.021 183.571C368.752 179.181 328.121 168.391 292.697 166.309C289.745 166.136 286.827 166.016 283.959 165.971Z" fill="#A5ABA7"/>
<path d="M187.195 216.732H187.207C187.207 216.73 187.205 216.726 187.205 216.724L187.195 216.732Z" fill="#0C0C2D"/>
<path d="M135.355 209.393C107.299 209.726 20.668 216.732 20.668 216.732H187.192C187.192 216.732 163.411 209.062 135.355 209.393Z" fill="#0C0C2D"/>
<path d="M216.446 152.76C216.448 152.819 216.453 152.875 216.453 152.934V152.768C216.453 152.768 216.448 152.762 216.446 152.76Z" fill="#DAE4DD"/>
<path d="M152.134 142.135C146.441 138.354 140.403 135.281 134.314 132.18C132.875 131.458 131.428 130.751 129.977 130.054C93.2555 138.136 64.3342 143.887 64.3342 143.887L49.3789 177.025C71.8881 173.333 108.429 163.345 142.698 161.595C144.441 161.459 146.202 161.367 148.025 161.329C149.038 161.307 150.08 161.299 151.15 161.31H151.15C170.186 161.058 187.321 168.401 199.261 175.386C190.082 166.965 179.993 159.658 169.484 153.012C163.758 149.314 157.928 145.761 152.134 142.135Z" fill="#DAE4DD"/>
<path d="M40.5267 208.945C37.9125 209.297 35.2957 209.666 32.6614 209.839C30.0257 209.988 27.3886 210.119 24.7417 210.02L24.7356 209.927C27.3485 209.5 29.9666 209.237 32.5803 208.921C35.195 208.627 37.8218 208.463 40.4428 208.211C45.6809 207.692 50.9108 207.06 56.1284 206.316L56.144 206.407C50.9687 207.413 45.7596 208.26 40.5267 208.945ZM29.6729 212.769C28.6665 212.927 27.6669 213.162 26.6483 213.213C25.6306 213.27 24.6092 213.286 23.5782 213.151L23.5708 213.059C24.5586 212.688 25.5559 212.474 26.5567 212.295C27.5566 212.112 28.5758 212.114 29.5882 212.037C31.6123 211.885 33.6422 211.758 35.68 211.655L35.6935 211.747C33.6935 212.112 31.6862 212.455 29.6729 212.769ZM29.5096 202.878C30.7482 202.506 32.0389 202.351 33.3128 202.159C35.8644 201.776 38.437 201.569 41.0064 201.544L41.0118 201.636C38.4637 201.928 35.9383 202.346 33.4455 202.884C32.1983 203.153 30.9806 203.537 29.7295 203.774C28.478 204.019 27.2266 204.261 25.9278 204.399L25.9005 204.31C27.0514 203.687 28.2708 203.247 29.5096 202.878ZM107.931 177.437C110.702 176.87 113.511 176.298 116.324 175.839C121.955 174.921 127.647 174.322 133.36 174.128C144.776 173.686 156.321 174.823 167.368 177.869C178.397 180.929 189.014 185.536 198.532 191.798L198.438 191.956C188.408 186.623 177.861 182.352 166.899 179.653C155.969 176.889 144.709 175.368 133.4 175.604C127.751 175.703 122.106 176.204 116.509 177.024C113.705 177.436 110.935 177.952 108.13 178.479C105.329 178.985 102.523 179.463 99.712 179.9C88.4625 181.627 77.1573 182.845 65.8648 184.122L65.8417 183.94C77.1048 182.418 88.3799 180.955 99.5626 178.991C102.359 178.507 105.148 177.988 107.931 177.437ZM112.201 189.424C118.665 187.666 125.302 186.488 132.005 185.961C138.709 185.451 145.467 185.634 152.164 186.383C155.511 186.768 158.85 187.278 162.15 187.988C163.803 188.326 165.438 188.746 167.072 189.169C168.689 189.653 170.314 190.114 171.907 190.671C175.094 191.774 178.233 193.023 181.265 194.495C184.304 195.95 187.268 197.551 190.092 199.371L190.004 199.532C183.875 196.817 177.693 194.344 171.334 192.425C168.169 191.431 164.972 190.539 161.745 189.768C158.526 188.959 155.26 188.341 151.973 187.847C145.393 186.924 138.719 186.559 132.061 186.883C125.402 187.16 118.76 188.087 112.246 189.602L112.201 189.424ZM133.471 195.961C140.971 196.106 148.56 196.939 155.661 199.386L155.613 199.564C148.282 198.153 140.88 197.619 133.475 197.805C126.076 197.944 118.659 198.437 111.247 199.198C103.837 199.965 96.4181 200.878 88.957 201.386C81.4997 201.866 73.9832 201.937 66.5624 201.036L66.5814 200.853C74.0122 201.506 81.4786 201.188 88.8825 200.468C96.2956 199.777 103.669 198.686 111.077 197.732C118.479 196.772 125.944 195.857 133.471 195.961ZM187.192 216.732L187.202 216.725C187.198 216.416 187.222 216.102 187.303 215.784C190.64 202.784 201.279 193.035 214.207 191.879L213.703 191.497L213.679 191.478L213.654 191.439C212.952 190.297 212.265 189.151 211.577 188.003C208.872 186.025 206.26 184.279 203.792 182.747C203.603 182.63 203.415 182.512 203.231 182.399C202.868 182.177 202.516 181.97 202.16 181.755C200.282 180.632 198.492 179.621 196.827 178.733C196.778 178.707 196.724 178.677 196.675 178.65C187.102 173.566 178.944 170.867 174.765 169.635C174.242 169.48 173.773 169.347 173.38 169.236C170.349 168.389 166.217 167.254 160.671 166.594C159.06 166.404 157.514 166.276 156.051 166.187C153.312 166.02 150.877 165.991 148.947 165.971C147.67 165.959 146.592 165.973 145.785 165.991C145.743 165.993 145.698 165.993 145.658 165.995C145.12 166.008 144.713 166.023 144.481 166.033C143.946 166.054 143.463 166.078 143.006 166.104C142.931 166.11 142.865 166.114 142.791 166.119C141.75 166.182 140.894 166.253 140.21 166.309C135.469 166.705 135.051 166.678 132.488 166.893C132.254 166.914 132.009 166.934 131.735 166.957C126.635 167.407 122.607 167.937 119.896 168.297C119.131 168.398 118.368 168.504 117.609 168.609C110.93 169.541 104.592 170.607 100.601 171.308C100.338 171.355 100.082 171.4 99.8405 171.441C99.6127 171.483 99.3912 171.522 99.183 171.558C97.7147 171.821 96.7375 172.002 96.4469 172.056C96.3707 172.072 96.2922 172.087 96.2158 172.1C93.1926 172.666 90.0279 173.278 86.8078 173.912C66.4331 177.93 43.8445 182.916 40.8871 183.571C38.5649 187.717 36.243 191.862 33.9209 196.008C36.3947 195.366 38.9091 194.941 41.4277 194.548C44.0375 194.164 46.6726 193.991 49.3022 193.814C54.5605 193.441 59.8318 193.287 65.0961 193.353L65.0976 193.443C59.8388 193.646 54.5916 194.015 49.3653 194.549C46.7524 194.824 44.1531 195.201 41.5406 195.464C38.9787 195.697 36.4242 195.989 33.842 196.149C33.7793 196.26 33.7167 196.373 33.654 196.484L27.9556 198.33L20.668 216.732C20.668 216.732 107.299 209.726 135.355 209.393C163.411 209.062 187.192 216.732 187.192 216.732Z" fill="#A5ABA7"/>
<path d="M192.784 219.529C192.784 219.408 192.763 219.293 192.748 219.177C192.144 219.773 191.335 220.133 190.473 220.133C188.657 220.133 187.234 218.559 187.206 216.734H187.195H20.6705C19.1265 216.734 17.8755 217.986 17.8755 219.529C17.8755 221.074 19.1265 222.323 20.6705 222.323H185.992H189.989C191.532 222.323 192.784 221.074 192.784 219.529Z" fill="#A09F9C"/>
<path d="M412.244 216.734H412.242H245.718H245.707C245.678 218.56 244.256 220.133 242.44 220.133H242.278C241.459 220.133 240.722 219.781 240.161 219.21C240.148 219.316 240.129 219.419 240.129 219.529C240.129 221.073 241.38 222.323 242.924 222.323H246.92H412.244C413.786 222.323 415.038 221.073 415.038 219.529C415.038 217.985 413.786 216.734 412.244 216.734Z" fill="#A09F9C"/>
<path d="M233.942 191.799L234.036 191.957C244.067 186.624 254.612 182.352 265.576 179.654C276.507 176.889 287.767 175.369 299.074 175.604C304.724 175.704 310.369 176.204 315.965 177.025C318.768 177.437 321.54 177.952 324.345 178.479C327.146 178.985 329.951 179.463 332.763 179.9C344.011 181.628 355.318 182.845 366.609 184.123L366.632 183.94C355.37 182.418 344.093 180.956 332.913 178.991C330.115 178.507 327.327 177.988 324.545 177.437C321.773 176.87 318.963 176.298 316.151 175.839C310.52 174.921 304.828 174.322 299.116 174.129C287.699 173.686 276.154 174.823 265.106 177.87C254.078 180.929 243.463 185.536 233.942 191.799Z" fill="#A09F9C"/>
<path d="M280.312 186.385C276.964 186.77 273.626 187.28 270.325 187.99C268.674 188.329 267.039 188.748 265.404 189.172C263.786 189.655 262.163 190.116 260.57 190.673C257.381 191.776 254.243 193.026 251.211 194.497C248.173 195.952 245.209 197.553 242.386 199.373L242.473 199.535C248.601 196.819 254.783 194.347 261.142 192.427C264.309 191.434 267.506 190.541 270.73 189.77C273.95 188.961 277.216 188.344 280.502 187.849C287.083 186.927 293.759 186.562 300.416 186.885C307.075 187.162 313.716 188.09 320.229 189.604L320.274 189.426C313.811 187.668 307.173 186.49 300.47 185.963C293.767 185.453 287.009 185.636 280.312 186.385Z" fill="#A09F9C"/>
<path d="M276.81 199.388L276.859 199.567C284.188 198.155 291.593 197.621 298.997 197.807C306.396 197.947 313.815 198.44 321.224 199.2C328.637 199.968 336.055 200.88 343.516 201.388C350.972 201.868 358.489 201.94 365.909 201.039L365.891 200.856C358.458 201.509 350.993 201.191 343.589 200.47C336.178 199.779 328.804 198.688 321.395 197.734C313.993 196.774 306.528 195.86 299.002 195.963C291.501 196.108 283.912 196.942 276.81 199.388Z" fill="#A09F9C"/>
<path d="M390.938 195.468C393.555 195.705 396.163 196.008 398.801 196.166L398.816 196.074C396.26 195.394 393.657 194.958 391.053 194.551C388.443 194.167 385.808 193.994 383.177 193.817C377.919 193.445 372.649 193.29 367.383 193.356V193.446C372.641 193.65 377.889 194.019 383.114 194.553C385.726 194.828 388.326 195.204 390.938 195.468Z" fill="#A09F9C"/>
<path d="M391.464 201.636C394.011 201.928 396.537 202.345 399.029 202.884C400.276 203.152 401.496 203.536 402.745 203.774C403.999 204.018 405.25 204.261 406.548 204.398L406.574 204.31C405.424 203.687 404.204 203.247 402.965 202.878C401.727 202.505 400.437 202.351 399.162 202.159C396.61 201.775 394.037 201.568 391.469 201.544L391.464 201.636Z" fill="#A09F9C"/>
<path d="M392.031 208.214C386.793 207.694 381.563 207.062 376.346 206.319L376.33 206.409C381.506 207.416 386.715 208.262 391.948 208.947C394.562 209.299 397.178 209.668 399.813 209.841C402.448 209.99 405.085 210.122 407.733 210.022L407.738 209.93C405.127 209.502 402.507 209.239 399.894 208.923C397.28 208.629 394.653 208.466 392.031 208.214Z" fill="#A09F9C"/>
<path d="M402.889 212.038C400.864 211.885 398.833 211.759 396.796 211.656L396.783 211.748C398.783 212.113 400.79 212.455 402.803 212.77C403.808 212.928 404.808 213.163 405.829 213.214C406.847 213.27 407.865 213.287 408.896 213.152L408.907 213.06C407.917 212.689 406.92 212.474 405.92 212.295C404.92 212.113 403.902 212.115 402.889 212.038Z" fill="#A09F9C"/>
<path d="M65.8669 184.125C77.1593 182.847 88.4646 181.629 99.7141 179.902C102.525 179.465 105.331 178.987 108.132 178.481C110.937 177.954 113.707 177.439 116.511 177.027C122.108 176.206 127.753 175.706 133.402 175.606C144.711 175.371 155.971 176.891 166.901 179.655C177.863 182.354 188.41 186.626 198.44 191.959L198.534 191.801C189.016 185.538 178.399 180.931 167.37 177.872C156.323 174.825 144.778 173.688 133.362 174.131C127.649 174.324 121.957 174.923 116.326 175.841C113.513 176.3 110.704 176.872 107.933 177.439C105.15 177.99 102.361 178.509 99.5647 178.993C88.382 180.958 77.1068 182.42 65.8438 183.942L65.8669 184.125Z" fill="#A09F9C"/>
<path d="M151.976 187.849C155.262 188.344 158.529 188.961 161.748 189.77C164.975 190.542 168.172 191.434 171.337 192.427C177.696 194.347 183.878 196.819 190.007 199.535L190.095 199.373C187.27 197.553 184.307 195.952 181.268 194.497C178.236 193.026 175.097 191.776 171.909 190.673C170.317 190.116 168.692 189.655 167.075 189.172C165.441 188.748 163.806 188.329 162.152 187.99C158.852 187.28 155.514 186.77 152.167 186.385C145.47 185.636 138.712 185.453 132.008 185.963C125.305 186.49 118.668 187.668 112.204 189.426L112.249 189.604C118.763 188.09 125.404 187.162 132.064 186.885C138.721 186.562 145.396 186.927 151.976 187.849Z" fill="#A09F9C"/>
<path d="M88.8855 200.47C81.4816 201.191 74.0152 201.509 66.5844 200.856L66.5654 201.038C73.9863 201.94 81.5027 201.868 88.96 201.388C96.4212 200.88 103.84 199.968 111.25 199.2C118.662 198.44 126.079 197.947 133.478 197.807C140.883 197.621 148.285 198.156 155.616 199.567L155.664 199.388C148.563 196.942 140.974 196.108 133.474 195.963C125.947 195.86 118.482 196.774 111.08 197.734C103.672 198.688 96.2987 199.779 88.8855 200.47Z" fill="#A09F9C"/>
<path d="M49.3678 194.551C54.594 194.017 59.8412 193.648 65.1001 193.445L65.0986 193.355C59.8343 193.289 54.563 193.443 49.3047 193.816C46.6751 193.992 44.04 194.166 41.4302 194.549C38.9116 194.943 36.3971 195.368 33.9233 196.01C33.8377 196.032 33.7511 196.049 33.6655 196.072L33.68 196.164C33.7352 196.16 33.7895 196.155 33.8445 196.151C36.4267 195.991 38.9812 195.699 41.5431 195.466C44.1556 195.202 46.7549 194.826 49.3678 194.551Z" fill="#A09F9C"/>
<path d="M29.7329 203.777C30.9839 203.54 32.2016 203.156 33.4488 202.887C35.9417 202.349 38.467 201.931 41.0152 201.639L41.0097 201.547C38.4403 201.572 35.8677 201.779 33.3162 202.162C32.0422 202.354 30.7515 202.509 29.5129 202.881C28.2741 203.25 27.0547 203.691 25.9038 204.313L25.9311 204.402C27.2299 204.264 28.4813 204.022 29.7329 203.777Z" fill="#A09F9C"/>
<path d="M40.4478 208.212C37.8269 208.464 35.2001 208.627 32.5853 208.921C29.9717 209.237 27.3536 209.501 24.7407 209.928L24.7467 210.02C27.3937 210.12 30.0308 209.988 32.6664 209.839C35.3008 209.666 37.9176 209.297 40.5318 208.945C45.7646 208.26 50.9738 207.414 56.1491 206.407L56.1335 206.317C50.9159 207.06 45.686 207.692 40.4478 208.212Z" fill="#A09F9C"/>
<path d="M29.5911 212.039C28.5787 212.117 27.5596 212.115 26.5596 212.297C25.5588 212.476 24.5615 212.691 23.5737 213.061L23.5811 213.154C24.6121 213.289 25.6335 213.272 26.6512 213.216C27.6698 213.165 28.6694 212.93 29.6758 212.771C31.6891 212.457 33.6964 212.115 35.6964 211.75L35.6829 211.657C33.6451 211.761 31.6152 211.887 29.5911 212.039Z" fill="#A09F9C"/>
<path d="M134.316 132.18C140.405 135.281 146.443 138.354 152.136 142.135C157.931 145.761 163.76 149.314 169.486 153.012C179.996 159.658 190.084 166.965 199.264 175.386C200.148 176.196 201.032 177.003 201.898 177.835L201.958 177.774L202.032 177.707C197.468 172.601 192.416 167.933 187.109 163.588C181.804 159.229 176.172 155.3 170.495 151.467C167.634 149.581 164.743 147.747 161.847 145.923L153.093 140.578C147.323 136.887 141.105 133.848 134.966 130.855C122.633 124.88 109.89 119.804 96.9589 115.333C84.0087 110.902 70.8439 107.159 57.6005 103.773L57.5767 103.861L57.5532 103.952C57.7595 104.008 57.965 104.067 58.171 104.123C63.1006 105.484 68.0165 106.894 72.9115 108.371C80.8931 110.779 88.8188 113.364 96.6525 116.204C105.963 119.564 115.161 123.244 124.165 127.34C126.112 128.226 128.051 129.128 129.979 130.054C131.43 130.752 132.877 131.459 134.316 132.18Z" fill="#A09F9C"/>
<path d="M216.453 190.186C216.47 190.212 216.487 190.239 216.504 190.263V187.548C216.485 187.565 216.453 187.593 216.453 187.593V190.186Z" fill="#DAE4DD"/>
<path d="M149.584 120.088C143.224 115.158 136.691 110.447 130.005 105.958C123.307 101.487 116.46 97.2381 109.496 93.1866C102.738 89.2424 95.8608 85.5014 88.8912 81.9354C79.9083 91.7169 72.0245 100.736 72.8105 101.459C74.226 102.763 144.184 115.738 192.059 160.745C189.782 158.014 187.449 155.331 185.019 152.73C174.154 140.899 162.287 129.972 149.584 120.088Z" fill="#DAE4DD"/>
<path d="M216.453 187.593C216.453 187.593 216.485 187.564 216.504 187.548C216.98 187.119 223.899 180.931 234.917 174.659C234.923 174.655 234.929 174.652 234.934 174.65C235.687 174.221 236.46 173.792 237.253 173.365C237.258 173.359 237.264 173.357 237.271 173.353L241.334 136.535C240.393 136.996 239.475 137.464 238.577 137.934C238.574 137.936 238.57 137.938 238.566 137.94C237.672 138.408 236.801 138.879 235.95 139.352C235.945 139.356 235.937 139.359 235.93 139.364C235.083 139.834 234.261 140.305 233.459 140.774C233.449 140.779 233.442 140.784 233.433 140.789C232.635 141.256 231.861 141.722 231.11 142.183C231.099 142.191 231.09 142.196 231.078 142.202C230.329 142.665 229.603 143.12 228.905 143.572C228.897 143.576 228.89 143.581 228.88 143.585C228.18 144.037 227.507 144.481 226.858 144.916C226.85 144.919 226.842 144.925 226.835 144.931C226.188 145.363 225.569 145.789 224.976 146.203C224.968 146.207 224.959 146.212 224.951 146.218C224.359 146.632 223.792 147.034 223.256 147.422C223.252 147.424 223.248 147.428 223.245 147.43C222.706 147.817 222.198 148.192 221.72 148.549C221.715 148.553 221.711 148.557 221.705 148.561C221.227 148.918 220.777 149.259 220.36 149.581C220.358 149.582 220.358 149.584 220.356 149.584C219.936 149.908 219.551 150.211 219.197 150.491C219.195 150.493 219.193 150.495 219.191 150.495C218.837 150.777 218.516 151.035 218.228 151.27C218.226 151.272 218.224 151.274 218.224 151.274C217.652 151.741 217.213 152.112 216.916 152.366C216.91 152.371 216.905 152.375 216.899 152.381C216.756 152.505 216.645 152.601 216.57 152.667C216.57 152.669 216.568 152.669 216.566 152.67C216.493 152.734 216.453 152.77 216.453 152.77V152.936V155.885V187.593Z" fill="#CCD5CF"/>
<path d="M371.798 139.754C371.798 139.754 340.325 135.515 298.317 124.744C256.31 113.973 216.457 148.127 216.457 148.127C216.457 148.127 216.289 147.982 215.967 147.718C215.679 146.172 215.273 144.645 214.733 143.159C207.787 124.093 179.586 55.0425 125.123 22.4957C125.123 22.4957 64.9736 68.9003 66.5754 70.9317L66.6476 70.8743C67.4278 71.393 68.4125 71.7861 69.3075 72.2126L72.0645 73.4556L77.5777 75.9493C81.2484 77.6232 84.8896 79.3623 88.5198 81.125C95.7646 84.6815 102.917 88.4327 109.952 92.3983C116.979 96.3744 123.891 100.561 130.66 104.97C137.418 109.398 144.029 114.053 150.474 118.933C163.331 128.719 175.588 139.41 186.402 151.48L190.41 156.042L194.236 160.759C195.535 162.312 196.739 163.939 197.943 165.567C199.135 167.204 200.407 168.78 201.528 170.465C206.114 177.037 210.205 183.937 213.877 191.036C186.829 108.991 83.4887 72.8052 82.0018 70.9322C80.5124 69.0552 128.674 32.6842 128.674 32.6842C179.112 62.8253 208.427 129.174 214.859 146.83C215.918 149.734 216.457 152.794 216.457 155.883V152.935C216.457 152.877 216.451 152.82 216.449 152.762C216.451 152.763 216.457 152.769 216.457 152.769C216.457 152.769 216.496 152.733 216.569 152.669C216.571 152.667 216.573 152.667 216.573 152.666C216.648 152.6 216.758 152.504 216.902 152.38C216.908 152.374 216.914 152.37 216.919 152.365C217.217 152.111 217.655 151.74 218.227 151.273C218.227 151.273 218.229 151.271 218.231 151.269C218.519 151.034 218.841 150.776 219.194 150.494C219.196 150.494 219.198 150.492 219.2 150.49C219.554 150.21 219.94 149.907 220.359 149.583C220.361 149.583 220.361 149.581 220.363 149.58C220.781 149.258 221.231 148.917 221.708 148.56C221.714 148.556 221.718 148.552 221.724 148.548C222.202 148.191 222.71 147.816 223.248 147.429C223.252 147.427 223.255 147.423 223.259 147.421C223.795 147.033 224.362 146.631 224.955 146.217C224.962 146.211 224.972 146.205 224.979 146.202C225.572 145.788 226.191 145.362 226.838 144.93C226.846 144.924 226.853 144.918 226.861 144.914C227.51 144.48 228.184 144.036 228.884 143.584C228.893 143.58 228.901 143.575 228.908 143.571C229.606 143.119 230.333 142.664 231.082 142.201C231.093 142.195 231.103 142.19 231.114 142.182C231.865 141.721 232.638 141.256 233.436 140.788C233.445 140.782 233.453 140.778 233.462 140.773C234.263 140.304 235.085 139.833 235.933 139.362C235.94 139.358 235.948 139.354 235.953 139.351C236.805 138.878 237.675 138.407 238.57 137.939C238.572 137.937 238.577 137.935 238.58 137.933C253.151 130.297 273.38 123.482 294.486 128.183C335.125 137.236 368.579 143.887 368.579 143.887L383.536 177.026C361.025 173.333 324.485 163.345 290.214 161.595C288.472 161.459 286.712 161.367 284.887 161.329C283.877 161.307 282.834 161.299 281.763 161.311C264.565 161.083 248.921 167.056 237.256 173.364C236.464 173.791 235.689 174.22 234.937 174.649C234.932 174.651 234.927 174.654 234.92 174.658C223.903 180.93 216.983 187.118 216.507 187.547V190.262C216.49 190.238 216.473 190.211 216.457 190.185V191.754C216.473 191.756 216.49 191.758 216.507 191.758V191.713C217.54 190.821 247.352 165.415 283.964 165.972C285.068 165.959 286.148 165.966 287.193 165.992C289.079 166.04 290.899 166.149 292.699 166.311C328.123 168.392 368.757 179.182 392.024 183.572L371.798 139.754Z" fill="url(#paint0_linear_39_1145)"/>
<path d="M207.285 181.18C206.16 179.511 205.116 177.793 203.926 176.171L200.389 171.286C197.701 167.703 194.928 164.184 192.06 160.746C144.184 115.739 74.2265 102.764 72.8111 101.46C72.025 100.737 79.9088 91.7178 88.8917 81.9363C88.6849 81.8309 88.4802 81.7218 88.273 81.6164C85.4002 80.1674 82.5145 78.7429 79.616 77.3447C67.6798 90.4683 56.6805 103.042 57.5727 103.863L57.5964 103.774C70.8399 107.161 84.0047 110.903 96.9548 115.335C109.886 119.805 122.629 124.882 134.962 130.857C141.101 133.85 147.319 136.888 153.089 140.58L161.843 145.925C164.739 147.748 167.63 149.583 170.49 151.468C176.168 155.302 181.8 159.231 187.105 163.589C192.412 167.934 197.464 172.603 202.028 177.708L201.954 177.776L201.894 177.836C201.028 177.004 200.144 176.197 199.259 175.388C187.32 168.403 170.184 161.06 151.148 161.312H151.148C150.078 161.301 149.037 161.308 148.023 161.331C146.2 161.369 144.439 161.461 142.696 161.596C108.427 163.346 71.8865 173.335 49.3773 177.027L64.3327 143.889C64.3327 143.889 93.2539 138.138 129.975 130.055C128.047 129.129 126.108 128.227 124.161 127.341C87.4866 136.201 61.115 139.755 61.115 139.755L40.8882 183.574C43.8456 182.919 66.4342 177.932 86.8089 173.914C89.9049 173.297 93.0443 172.689 96.217 172.102C96.2934 172.089 96.3718 172.074 96.448 172.059C96.7386 172.004 97.7158 171.824 99.1842 171.56C99.4028 171.523 99.6224 171.483 99.8417 171.444C100.083 171.402 100.339 171.357 100.602 171.31C106.228 170.315 111.924 169.396 117.61 168.612C118.37 168.506 119.132 168.401 119.897 168.299C122.608 167.94 126.636 167.409 131.736 166.959C132.01 166.937 132.255 166.916 132.489 166.895C135.084 166.662 137.662 166.463 140.212 166.312C140.895 166.256 141.752 166.184 142.792 166.122C142.864 166.116 142.935 166.111 143.007 166.107C143.464 166.081 143.947 166.056 144.482 166.035C144.714 166.026 145.121 166.011 145.659 165.998C145.679 165.996 145.698 165.996 145.718 165.994C145.74 165.994 145.764 165.994 145.786 165.994C146.593 165.975 147.672 165.962 148.948 165.973C151.348 165.938 153.717 166.017 156.052 166.19C157.515 166.278 159.061 166.406 160.672 166.596C166.219 167.257 170.35 168.391 173.381 169.238C173.774 169.349 174.243 169.483 174.766 169.637C183.089 172.059 190.575 175.39 196.828 178.736C198.494 179.624 200.283 180.634 202.161 181.758C202.521 181.974 202.884 182.189 203.232 182.401C203.416 182.514 203.605 182.633 203.793 182.749C206.898 184.669 209.504 186.457 211.531 187.928C211.324 187.586 211.117 187.241 210.911 186.899C209.743 184.966 208.561 183.045 207.285 181.18Z" fill="url(#paint1_linear_39_1145)"/>
<path d="M58.1655 104.122C59.7662 104.683 64.4671 105.895 71.4122 107.929C67.0105 106.614 62.5947 105.343 58.1655 104.122Z" fill="url(#paint2_linear_39_1145)"/>
<path d="M71.4146 107.93C71.9119 108.079 72.4113 108.221 72.9083 108.371C72.3989 108.22 71.9019 108.073 71.4146 107.93Z" fill="url(#paint3_linear_39_1145)"/>
<path d="M88.8945 81.9347C95.864 85.5007 102.741 89.2417 109.499 93.186C116.463 97.2374 123.311 101.487 130.008 105.958C136.694 110.446 143.227 115.157 149.587 120.087C162.29 129.971 174.157 140.899 185.023 152.73C187.452 155.33 189.786 158.014 192.062 160.744C194.93 164.182 197.704 167.701 200.391 171.284L203.929 176.169C205.118 177.791 206.163 179.509 207.288 181.178C208.564 183.043 209.746 184.965 210.914 186.897C211.119 187.24 211.326 187.584 211.533 187.927C211.548 187.953 211.563 187.979 211.58 188.004C212.269 189.152 212.956 190.298 213.658 191.44L213.682 191.479L213.707 191.498L214.211 191.88C214.315 191.871 214.422 191.871 214.525 191.863L214.021 191.459C213.974 191.316 213.923 191.178 213.876 191.035C210.205 183.937 206.114 177.037 201.528 170.465C200.406 168.779 199.134 167.204 197.943 165.567C196.739 163.939 195.534 162.312 194.236 160.759L190.41 156.042L186.402 151.48C175.587 139.409 163.331 128.719 150.474 118.933C144.029 114.053 137.418 109.398 130.66 104.97C123.891 100.561 116.979 96.3737 109.952 92.3975C102.917 88.4325 95.7647 84.6821 88.5198 81.1255C84.8898 79.3623 81.2486 77.6235 77.5779 75.9488L72.0647 73.4554L69.3078 72.2134C68.4129 71.7862 67.4279 71.3929 66.6479 70.8736L66.5757 70.9319L66.5034 70.9884C67.3873 71.615 68.3005 71.9612 69.2111 72.4204L71.9503 73.7057L77.4233 76.2799C78.1581 76.6281 78.8864 76.9894 79.6187 77.3432C82.5173 78.7413 85.403 80.1658 88.2757 81.6148C88.4829 81.7202 88.6877 81.8293 88.8945 81.9347Z" fill="#A09F9C"/>
<path d="M216.454 191.755V155.884C216.454 152.794 215.916 149.734 214.856 146.831C208.424 129.175 179.11 62.8257 128.672 32.685C128.672 32.685 80.5104 69.0563 81.9997 70.9324C83.4868 72.8067 186.827 108.991 213.874 191.036C213.921 191.179 213.972 191.316 214.019 191.459L214.523 191.864C215.163 191.813 215.805 191.762 216.454 191.755Z" fill="#DAE4DD"/>
<path d="M216.458 222.322H197.061C197.262 220.926 197.565 219.571 197.962 218.269C200.709 209.235 207.937 202.75 216.458 202.614C224.981 202.75 232.209 209.235 234.956 218.269C235.353 219.571 235.656 220.926 235.857 222.322H216.458ZM242.925 222.322C241.382 222.322 240.131 221.073 240.131 219.528C240.131 219.419 240.15 219.315 240.163 219.21C239.898 218.943 239.676 218.625 239.504 218.269C239.405 218.058 239.316 217.838 239.256 217.605C236.478 206.864 227.346 198.951 216.458 198.793C205.572 198.951 196.44 206.864 193.662 217.605C193.6 217.84 193.51 218.058 193.406 218.269C193.237 218.612 193.015 218.916 192.751 219.176C192.766 219.293 192.787 219.408 192.787 219.528C192.787 221.073 191.536 222.322 189.993 222.322H185.996C186.596 223.777 188.461 224.844 190.694 224.844H216.458H242.223C244.457 224.844 246.322 223.777 246.922 222.322H242.925Z" fill="#A09F9C"/>
<path d="M216.455 202.615C207.934 202.75 200.706 209.235 197.959 218.27C197.561 219.572 197.258 220.927 197.057 222.323H216.455H235.854C235.653 220.927 235.35 219.572 234.953 218.27C232.205 209.235 224.977 202.75 216.455 202.615Z" fill="#0C0C2D"/>
<path d="M245.604 215.785C242.08 202.055 230.413 191.939 216.504 191.758C216.487 191.758 216.47 191.756 216.454 191.754C215.804 191.762 215.163 191.813 214.523 191.864C214.419 191.871 214.312 191.871 214.209 191.88C201.281 193.036 190.641 202.785 187.305 215.785C187.224 216.103 187.199 216.417 187.203 216.726C187.203 216.728 187.205 216.731 187.205 216.733C187.233 218.559 188.656 220.132 190.472 220.132C191.334 220.132 192.143 219.772 192.747 219.176C193.01 218.916 193.232 218.611 193.402 218.269C193.505 218.058 193.595 217.84 193.658 217.605C196.435 206.863 205.567 198.95 216.454 198.792C227.342 198.95 236.474 206.863 239.251 217.605C239.312 217.838 239.4 218.058 239.5 218.269C239.671 218.624 239.893 218.942 240.158 219.21C240.719 219.78 241.457 220.132 242.275 220.132H242.437C244.253 220.132 245.676 218.559 245.704 216.733C245.704 216.731 245.706 216.728 245.706 216.726C245.71 216.417 245.685 216.103 245.604 215.785Z" fill="#2F2E41"/>
<defs>
<linearGradient id="paint0_linear_39_1145" x1="229.284" y1="191.758" x2="229.284" y2="22.4957" gradientUnits="userSpaceOnUse">
<stop stop-color="#F73E94"/>
<stop offset="0.25" stop-color="#992189"/>
<stop offset="0.5" stop-color="#6649A3"/>
<stop offset="0.75" stop-color="#239BDD"/>
<stop offset="1" stop-color="#22DCD9"/>
</linearGradient>
<linearGradient id="paint1_linear_39_1145" x1="126.209" y1="187.928" x2="126.209" y2="77.3447" gradientUnits="userSpaceOnUse">
<stop stop-color="#F73E94"/>
<stop offset="0.25" stop-color="#992189"/>
<stop offset="0.5" stop-color="#6649A3"/>
<stop offset="0.75" stop-color="#239BDD"/>
<stop offset="1" stop-color="#22DCD9"/>
</linearGradient>
<linearGradient id="paint2_linear_39_1145" x1="64.7889" y1="107.929" x2="64.7889" y2="104.122" gradientUnits="userSpaceOnUse">
<stop stop-color="#F73E94"/>
<stop offset="0.25" stop-color="#992189"/>
<stop offset="0.5" stop-color="#6649A3"/>
<stop offset="0.75" stop-color="#239BDD"/>
<stop offset="1" stop-color="#22DCD9"/>
</linearGradient>
<linearGradient id="paint3_linear_39_1145" x1="72.1614" y1="108.371" x2="72.1614" y2="107.93" gradientUnits="userSpaceOnUse">
<stop stop-color="#F73E94"/>
<stop offset="0.25" stop-color="#992189"/>
<stop offset="0.5" stop-color="#6649A3"/>
<stop offset="0.75" stop-color="#239BDD"/>
<stop offset="1" stop-color="#22DCD9"/>
</linearGradient>
</defs>
</svg>
