<svg width="390" height="298" viewBox="0 0 390 298" fill="none" xmlns="http://www.w3.org/2000/svg">
<path d="M286.431 138.527C282.034 131 278.723 128.796 273.416 129.875C269.878 130.594 268.683 131.425 255.524 143.169C239.129 157.831 236.452 159.256 229.15 157.562C219.887 155.537 218.837 149.686 222.492 120.192C225.338 97.4839 224.612 91.3419 219.226 90.2677C211.035 88.6338 195.293 101.348 160.477 137.689C136.981 162.216 120.736 174.889 110.652 176.322C98.5213 178.118 89.4761 168.357 89.8356 153.822C89.9534 147.908 92.0588 138.471 96.666 122.824C98.4042 117.055 100.387 108.84 101.119 104.474C102.618 95.2128 101.829 93.4524 95.7339 92.771C86.5141 91.9414 71.0724 100.677 55.9078 115.466C40.851 130.157 29.4605 146.114 19.6192 166.358C16.7137 172.191 14.2046 176.679 13.9714 176.395C12.4559 174.549 13.416 170.346 17.1943 162.49C24.2919 147.933 32.0875 135.713 43.8584 121.019C49.346 114.216 66.6119 99.0158 73.9109 94.5339C88.5132 85.6898 98.4033 85.0499 102.028 92.7794C105.114 99.5109 104.173 107.28 97.0335 132.873C90.232 157.048 90.2541 162.218 96.7621 168.089C102.176 172.969 111.06 172.247 121.746 165.947C128.506 161.951 147.578 144.379 165.337 125.893C175.685 114.953 184.24 106.743 192.884 99.4422C205.792 88.4193 210.369 85.6509 215.976 85.1662C218.531 84.9631 219.383 85.4301 221.468 87.6273C226.222 92.7319 226.961 103.805 224.135 125.508C222.037 141.24 221.855 148.448 223.254 150.152C225.061 152.353 229.661 153.271 234.138 152.323C237.676 151.603 239.194 150.481 253.396 138.291C267.328 126.345 269.174 125.05 272.164 124.578C274.324 124.237 276.568 124.684 278.726 125.827C281.853 127.579 282.145 127.934 284.954 133.186C288.06 138.912 289.344 143.562 286.431 138.527Z" fill="url(#paint0_linear_45_356)"/>
<path d="M383.192 17.2169C379.178 17.6985 376.802 18.7904 374.554 21.1667L372.981 22.7723V21.4557C372.981 20.7171 372.884 20.107 372.756 20.107C372.37 20.107 367.072 23.0613 365.274 24.2816C363.026 25.823 362.705 26.2083 360.971 29.259L359.526 31.7638L359.429 30.0939L359.333 28.4241L356.122 30.8967C345.749 38.9248 338.235 47.0813 335.827 52.8937C334.831 55.2058 333.836 59.3483 333.771 61.1144C333.771 61.9172 333.739 61.9494 333.482 61.3713C333.322 61.0181 333.193 59.4446 333.193 57.9032L333.161 55.0452L330.657 58.5454C329.276 60.4401 326.964 63.6192 325.519 65.6102C322.018 70.3949 318.55 75.6934 317.362 78.0376C315.724 81.2489 315.435 82.5976 315.275 87.6714C315.082 92.8736 314.986 92.9378 313.733 89.2127L313.059 87.1897L311.068 91.8138C306.315 102.893 305.127 106.939 305.063 112.591C304.999 115.93 304.87 116.861 304.292 118.178C303.425 120.137 300.664 129.225 299.925 132.5C299.058 136.482 299.058 136.418 299.508 136.289C299.732 136.193 300.888 133.624 302.077 130.541C307.536 116.412 314.022 103.182 321.858 90.1119C330.111 76.3678 342.217 60.0547 351.979 49.4898C357.599 43.3884 368.613 32.7913 370.187 31.9564C370.508 31.7638 369.577 32.7592 368.132 34.1401C363.989 38.0578 356.314 46.3749 351.722 51.8661C337.689 68.6608 325.519 87.2218 311.678 113.008C309.751 116.572 309.751 116.54 313.348 115.609C317.908 114.421 321.729 112.077 325.808 107.87C328.023 105.622 332.294 100.388 332.102 100.163C332.037 100.131 330.528 100.452 328.698 100.902C326.867 101.351 325.326 101.64 325.262 101.576C325.165 101.512 326.546 100.805 328.248 100.035C334.253 97.3372 335.955 95.7637 342.634 86.7401C346.552 81.4737 352.75 72.0005 352.75 71.2941C352.75 71.1977 352.332 71.1977 351.819 71.2619C351.305 71.3583 350.406 71.3262 349.828 71.1977C348.8 71.005 348.8 70.9729 351.851 69.1425C355.576 66.9268 356.957 65.4496 360.296 60.0868C363.218 55.3984 363.218 55.3984 362.64 55.559C362.416 55.6232 361.773 55.7838 361.228 55.8801C360.328 56.0086 360.585 55.6553 363.957 52.2835C366.333 49.9072 368.742 47.0171 370.572 44.4481C372.146 42.2003 373.527 40.1772 373.591 39.9845C373.687 39.6955 373.302 39.6634 372.306 39.7918C371.15 39.9845 370.99 39.9524 371.407 39.5992C374.137 37.4155 375.357 36.131 378.44 32.117C380.399 29.548 381.908 27.3323 381.812 27.1717C381.715 26.979 380.848 26.8506 379.949 26.8185L378.279 26.7863L380.752 25.9514C383.16 25.0844 383.257 25.0202 386.082 21.7126C387.656 19.8501 389.165 18.1481 389.454 17.8912C389.743 17.6664 390 17.3774 390 17.249C390 16.9278 385.697 16.9278 383.192 17.2169Z" fill="#DAE4DD"/>
<defs>
<linearGradient id="paint0_linear_45_356" x1="24.7423" y1="71.4631" x2="297.238" y2="154.083" gradientUnits="userSpaceOnUse">
<stop stop-color="#22DCD9"/>
<stop offset="0.2" stop-color="#219DDE"/>
<stop offset="0.4" stop-color="#5456AB"/>
<stop offset="0.6" stop-color="#97238A"/>
<stop offset="0.8" stop-color="#CB328F"/>
<stop offset="1" stop-color="#F73E94"/>
</linearGradient>
</defs>
</svg>
