<svg width="500" height="300" viewBox="0 0 500 300" fill="none" xmlns="http://www.w3.org/2000/svg">
<rect x="0.5" y="0.5" width="499" height="299" rx="29.5" fill="#FFF8F8" stroke="url(#paint0_linear_255_18)"/>
<path d="M353.795 41.7467C350.867 46.0271 347.268 50.4131 345.512 51.86L345.242 52.0786L345.163 53.1035C345.123 53.6612 345.071 54.6409 345.044 55.2739C345.025 55.9069 344.998 56.4118 344.985 56.4043C344.979 56.3892 344.867 55.5527 344.729 54.5354C344.597 53.518 344.479 52.6815 344.465 52.6664C344.459 52.6513 344.347 52.7418 344.229 52.8624C343.722 53.3597 342.294 54.6409 341.34 55.4548C338.472 57.8964 336.195 59.4338 334.38 60.1497C334.327 60.1723 334.413 60.3457 334.623 60.6471C335.597 62.0337 336.051 64.0609 335.886 66.284C335.82 67.1356 335.617 68.4921 335.505 68.8237C335.426 69.0573 338.169 66.6081 339.959 64.8447C342.873 61.9659 345.584 58.6953 347.604 55.613C348.143 54.7991 348.275 54.6785 347.814 55.4171C346.163 58.0999 344.433 60.406 342.15 62.9833C340.301 65.0708 338.334 66.9623 335.413 69.4643C333.939 70.7303 333.63 70.9941 333.761 70.9263C333.801 70.9037 333.84 70.9037 333.84 70.9263C333.84 70.9489 333.735 71.0242 333.603 71.0845C333.472 71.1448 332.34 72.0341 331.083 73.059C329.827 74.0839 327.807 75.6664 326.583 76.5783C323.623 78.7864 320.649 81.1678 317.886 83.5341C313.471 87.3172 310.32 90.7235 307.398 94.8759C307.201 95.1547 307.023 95.3808 307.01 95.3808C306.997 95.3808 307.01 95.3356 307.043 95.2828C307.076 95.2376 307.379 94.7855 307.701 94.2881C310.714 89.7288 314.543 85.6517 320.175 80.9794C321.708 79.7133 321.55 79.9997 321.8 78.0705C321.984 76.6989 322.05 74.001 321.938 72.8781C321.853 72.0039 321.675 70.9489 321.596 70.8057C321.478 70.5871 320.84 71.0016 319.405 72.2375C316.129 75.0636 311.958 79.5777 310.767 81.5898C306.793 88.2969 304.135 94.6046 302.977 100.053C302.859 100.611 302.754 101.086 302.747 101.101C302.734 101.116 302.629 100.995 302.51 100.844C302.24 100.483 301.971 100.355 301.504 100.355C301.188 100.355 300.497 100.558 300.234 100.724C300.188 100.754 300.398 100.762 300.714 100.746C301.405 100.701 301.754 100.837 302.089 101.259C302.471 101.749 302.53 102.261 302.359 103.633C302.306 104.047 302.26 104.432 302.26 104.492C302.26 104.567 302.201 104.537 302.076 104.409C301.832 104.13 301.596 104.047 301.109 104.047C300.023 104.047 299.174 104.944 299.168 106.082C299.168 106.7 299.253 106.76 299.392 106.24C299.569 105.57 299.819 105.155 300.188 104.952C300.911 104.552 301.55 105.11 301.55 106.142C301.543 106.474 301.464 106.821 301.175 107.695C300.503 109.752 300.05 111.561 299.628 113.829L299 121.11C299.309 121.796 300.694 117.305 300.714 117.275C300.74 117.244 300.694 116.979 300.734 116.708C301.326 112.54 301.707 110.227 301.971 109.202C302.898 105.517 304.319 102.005 306.319 98.4179C306.701 97.7396 307.037 97.1744 307.069 97.1443C307.109 97.1216 307.004 97.3327 306.846 97.619C305.898 99.3146 304.642 102.08 303.951 104.002C303.747 104.575 303.583 105.057 303.589 105.065C303.602 105.08 304.083 104.575 304.662 103.957C305.826 102.706 306.885 101.658 308.083 100.573C311.162 97.7848 315.958 93.9339 317.886 92.7055C318.142 92.5397 318.794 91.9971 319.34 91.4922C322.182 88.8696 325.241 86.5561 328.669 84.446L330.103 83.5642L329.722 83.4964C329.156 83.406 326.445 83.4361 325.485 83.5416C323.958 83.7074 321.484 84.1144 320.09 84.4234C319.965 84.4535 319.873 84.4535 319.892 84.4384C319.938 84.3781 323.741 83.4738 325.781 83.0292C328.768 82.3811 330.958 82.0194 332.445 81.9214L333.261 81.8686L334.978 80.6478C337.505 78.8693 342.623 75.1841 343.597 74.4531C345.4 73.0966 346.9 71.6799 348.446 69.8637C349.446 68.688 350.262 67.5953 350.196 67.52C350.031 67.3316 348.058 67.2939 346.735 67.4597C343.722 67.8214 339.347 68.9669 335.492 70.3987C335.11 70.5419 334.788 70.6474 334.774 70.6248C334.709 70.5495 335.176 70.3234 336.439 69.8109C342.215 67.4672 346.992 66.0881 350.222 65.8319C350.821 65.7791 351.347 65.7038 351.393 65.6661C351.538 65.538 352.479 63.8876 352.821 63.1642C353.492 61.7549 354.051 60.1347 354.407 58.537C354.584 57.7382 354.617 57.5121 354.551 57.4594C354.407 57.3614 352.992 57.3915 352.328 57.5121C350.374 57.8738 348.124 58.7782 345.518 60.2477C344.834 60.632 344.301 60.9184 344.334 60.8732C344.571 60.6019 348.709 58.0999 350.222 57.3162C351.354 56.7359 352.466 56.231 353.328 55.9145C354.005 55.6658 354.097 55.613 354.13 55.4397C354.15 55.3342 354.268 54.7388 354.4 54.1209C354.689 52.7116 354.992 50.6693 355.124 49.23C355.249 47.8283 355.255 45.4619 355.124 44.5124C355.045 43.8944 354.42 41.0835 354.347 41.0006C354.334 40.9855 354.084 41.3246 353.795 41.7467ZM351.446 48.8607C351.137 49.554 350.624 50.6543 350.295 51.3099C349.683 52.5308 348.604 54.5127 348.505 54.5806C348.472 54.5956 348.67 54.2188 348.933 53.729C349.531 52.6212 351.163 49.3355 351.624 48.303C351.808 47.881 351.972 47.5494 351.985 47.5645C351.999 47.5796 351.755 48.1598 351.446 48.8607ZM319.807 84.4987C319.787 84.5213 319.728 84.5289 319.682 84.5063C319.629 84.4836 319.649 84.461 319.721 84.461C319.794 84.4535 319.833 84.4761 319.807 84.4987ZM306.997 95.4863C306.997 95.5014 306.944 95.5617 306.885 95.6144C306.78 95.7124 306.773 95.7049 306.859 95.5843C306.944 95.4637 306.997 95.426 306.997 95.4863Z" fill="url(#paint1_linear_255_18)"/>
<path d="M330.41 63.2643C328.897 64.4927 326.634 66.3315 325.377 67.3489L323.081 69.1952V71.8705C323.081 74.071 323.061 74.6965 322.962 75.3974C322.739 77.0176 322.357 78.4118 321.903 79.2785C321.778 79.5121 321.686 79.708 321.706 79.708C321.719 79.708 322.179 79.3613 322.726 78.9318C323.272 78.5022 325.377 76.8744 327.41 75.322C331.45 72.2247 332.575 71.343 334.272 69.9413L335.397 69.0143L335.443 68.0497C335.542 65.9471 335.239 63.6336 334.713 62.4203C334.404 61.7194 333.667 61.0035 333.272 61.0261C333.206 61.0261 331.917 62.0359 330.41 63.2643Z" fill="url(#paint2_linear_255_18)"/>
<path d="M217.284 149.07C216.556 149.07 215.865 148.949 215.212 148.706C214.568 148.454 214.069 148.132 213.714 147.74L214.036 147.208C214.372 147.553 214.829 147.847 215.408 148.09C215.996 148.323 216.617 148.44 217.27 148.44C217.923 148.44 218.455 148.356 218.866 148.188C219.286 148.011 219.594 147.777 219.79 147.488C219.995 147.199 220.098 146.877 220.098 146.522C220.098 146.102 219.986 145.766 219.762 145.514C219.538 145.262 219.244 145.061 218.88 144.912C218.516 144.763 218.119 144.637 217.69 144.534C217.261 144.431 216.827 144.324 216.388 144.212C215.949 144.091 215.548 143.937 215.184 143.75C214.82 143.563 214.526 143.311 214.302 142.994C214.087 142.667 213.98 142.247 213.98 141.734C213.98 141.267 214.101 140.838 214.344 140.446C214.587 140.054 214.965 139.737 215.478 139.494C215.991 139.251 216.649 139.13 217.452 139.13C217.993 139.13 218.525 139.209 219.048 139.368C219.58 139.527 220.033 139.741 220.406 140.012L220.14 140.586C219.729 140.306 219.286 140.101 218.81 139.97C218.343 139.83 217.891 139.76 217.452 139.76C216.827 139.76 216.309 139.849 215.898 140.026C215.487 140.203 215.184 140.441 214.988 140.74C214.792 141.029 214.694 141.356 214.694 141.72C214.694 142.14 214.801 142.476 215.016 142.728C215.24 142.98 215.534 143.181 215.898 143.33C216.262 143.479 216.663 143.605 217.102 143.708C217.541 143.811 217.975 143.923 218.404 144.044C218.833 144.156 219.23 144.305 219.594 144.492C219.958 144.679 220.252 144.931 220.476 145.248C220.7 145.565 220.812 145.976 220.812 146.48C220.812 146.937 220.686 147.367 220.434 147.768C220.182 148.16 219.795 148.477 219.272 148.72C218.759 148.953 218.096 149.07 217.284 149.07ZM225.339 149V139.2H228.853C229.675 139.2 230.379 139.331 230.967 139.592C231.555 139.853 232.008 140.231 232.325 140.726C232.643 141.211 232.801 141.804 232.801 142.504C232.801 143.185 232.643 143.773 232.325 144.268C232.008 144.763 231.555 145.141 230.967 145.402C230.379 145.663 229.675 145.794 228.853 145.794H225.731L226.053 145.458V149H225.339ZM226.053 145.5L225.731 145.15H228.853C229.908 145.15 230.706 144.921 231.247 144.464C231.798 143.997 232.073 143.344 232.073 142.504C232.073 141.655 231.798 141.001 231.247 140.544C230.706 140.077 229.908 139.844 228.853 139.844H225.731L226.053 139.494V145.5ZM237.94 143.708H243.246V144.338H237.94V143.708ZM238.024 148.356H244.072V149H237.31V139.2H243.862V139.844H238.024V148.356ZM252.879 149.07C252.151 149.07 251.474 148.949 250.849 148.706C250.233 148.454 249.696 148.104 249.239 147.656C248.781 147.208 248.427 146.685 248.175 146.088C247.923 145.481 247.797 144.819 247.797 144.1C247.797 143.381 247.923 142.723 248.175 142.126C248.427 141.519 248.781 140.992 249.239 140.544C249.705 140.096 250.247 139.751 250.863 139.508C251.479 139.256 252.151 139.13 252.879 139.13C253.569 139.13 254.213 139.242 254.811 139.466C255.417 139.69 255.935 140.031 256.365 140.488L255.917 140.95C255.497 140.539 255.03 140.245 254.517 140.068C254.013 139.881 253.476 139.788 252.907 139.788C252.281 139.788 251.698 139.895 251.157 140.11C250.625 140.325 250.158 140.628 249.757 141.02C249.365 141.412 249.057 141.869 248.833 142.392C248.618 142.915 248.511 143.484 248.511 144.1C248.511 144.716 248.618 145.285 248.833 145.808C249.057 146.331 249.365 146.788 249.757 147.18C250.158 147.572 250.625 147.875 251.157 148.09C251.698 148.305 252.281 148.412 252.907 148.412C253.476 148.412 254.013 148.323 254.517 148.146C255.03 147.959 255.497 147.656 255.917 147.236L256.365 147.698C255.935 148.155 255.417 148.501 254.811 148.734C254.213 148.958 253.569 149.07 252.879 149.07ZM262.609 149V139.844H259.081V139.2H266.851V139.844H263.323V149H262.609ZM270.722 149V139.2H274.236C275.057 139.2 275.762 139.331 276.35 139.592C276.938 139.853 277.39 140.231 277.708 140.726C278.025 141.211 278.184 141.804 278.184 142.504C278.184 143.185 278.025 143.773 277.708 144.268C277.39 144.753 276.938 145.131 276.35 145.402C275.762 145.663 275.057 145.794 274.236 145.794H271.114L271.436 145.458V149H270.722ZM277.526 149L274.978 145.444H275.79L278.338 149H277.526ZM271.436 145.5L271.114 145.164H274.236C275.29 145.164 276.088 144.931 276.63 144.464C277.18 143.997 277.456 143.344 277.456 142.504C277.456 141.655 277.18 141.001 276.63 140.544C276.088 140.077 275.29 139.844 274.236 139.844H271.114L271.436 139.494V145.5ZM286.734 149.07C285.521 149.07 284.564 148.715 283.864 148.006C283.164 147.297 282.814 146.242 282.814 144.842V139.2H283.528V144.814C283.528 146.037 283.808 146.942 284.368 147.53C284.928 148.118 285.721 148.412 286.748 148.412C287.765 148.412 288.554 148.118 289.114 147.53C289.674 146.942 289.954 146.037 289.954 144.814V139.2H290.668V144.842C290.668 146.242 290.318 147.297 289.618 148.006C288.918 148.715 287.957 149.07 286.734 149.07ZM296.099 149V139.2H296.701L301.251 147.054H300.929L305.465 139.2H306.053L306.067 149H305.367L305.353 140.278H305.549L301.251 147.698H300.901L296.589 140.278H296.799V149H296.099ZM313.502 149L310.254 139.2H312.144L315.042 148.062H314.104L317.114 139.2H318.794L321.72 148.062H320.81L323.778 139.2H325.514L322.266 149H320.334L317.66 141.006H318.164L315.448 149H313.502ZM329.097 149V139.2H330.917V149H329.097ZM338.706 149.14C337.94 149.14 337.208 149.033 336.508 148.818C335.808 148.594 335.252 148.309 334.842 147.964L335.472 146.55C335.864 146.858 336.349 147.115 336.928 147.32C337.506 147.525 338.099 147.628 338.706 147.628C339.219 147.628 339.634 147.572 339.952 147.46C340.269 147.348 340.502 147.199 340.652 147.012C340.801 146.816 340.876 146.597 340.876 146.354C340.876 146.055 340.768 145.817 340.554 145.64C340.339 145.453 340.059 145.309 339.714 145.206C339.378 145.094 339 144.991 338.58 144.898C338.169 144.805 337.754 144.697 337.334 144.576C336.923 144.445 336.545 144.282 336.2 144.086C335.864 143.881 335.588 143.61 335.374 143.274C335.159 142.938 335.052 142.509 335.052 141.986C335.052 141.454 335.192 140.969 335.472 140.53C335.761 140.082 336.195 139.727 336.774 139.466C337.362 139.195 338.104 139.06 339 139.06C339.588 139.06 340.171 139.135 340.75 139.284C341.328 139.433 341.832 139.648 342.262 139.928L341.688 141.342C341.249 141.081 340.796 140.889 340.33 140.768C339.863 140.637 339.415 140.572 338.986 140.572C338.482 140.572 338.071 140.633 337.754 140.754C337.446 140.875 337.217 141.034 337.068 141.23C336.928 141.426 336.858 141.65 336.858 141.902C336.858 142.201 336.96 142.443 337.166 142.63C337.38 142.807 337.656 142.947 337.992 143.05C338.337 143.153 338.72 143.255 339.14 143.358C339.56 143.451 339.975 143.559 340.386 143.68C340.806 143.801 341.184 143.96 341.52 144.156C341.865 144.352 342.14 144.618 342.346 144.954C342.56 145.29 342.668 145.715 342.668 146.228C342.668 146.751 342.523 147.236 342.234 147.684C341.954 148.123 341.52 148.477 340.932 148.748C340.344 149.009 339.602 149.14 338.706 149.14ZM348.252 143.274H353.124V144.772H348.252V143.274ZM348.392 147.474H353.922V149H346.572V139.2H353.726V140.726H348.392V147.474Z" fill="black"/>
<path d="M147.51 99.705C147.835 98.86 149.07 99.445 148.68 100.095C147.055 103.475 150.89 110.495 160.705 112.25C161.81 112.445 162.98 112.575 164.15 112.575C168.44 99.9 174.94 88.265 182.22 91.06C186.64 92.815 186.51 100.875 181.57 106.27C177.085 111.145 171.365 113.16 166.425 113.55L165.255 117.32C163.37 123.69 159.86 129.67 156.155 133.635C159.275 134.155 162.72 135.065 166.36 136.17C175.2 138.835 180.985 141.175 185.925 141.37C191.385 141.5 192.685 140.005 193.01 137.34C193.14 136.3 194.7 136.69 194.44 137.535C193.465 140.655 191.06 141.825 187.68 141.955C180.92 142.28 174.485 140.85 166.295 138.25C162.07 136.885 158.105 135.715 154.79 135C153.1 136.56 151.41 137.6 149.915 138.055C147.12 138.835 144.78 137.73 144.78 135.91C144.78 132.92 148.875 132.465 154.79 133.375C157.91 129.345 161.03 122.975 162.915 116.54L163.825 113.615C162.655 113.615 161.55 113.485 160.575 113.29C150.5 111.47 145.755 103.41 147.51 99.705ZM145.43 135.91C145.43 137.405 147.315 138.185 149.785 137.47C150.955 137.145 152.255 136.17 153.62 134.74C148.68 133.765 145.43 133.895 145.43 135.91ZM166.815 112.38C171.04 111.795 175.59 109.78 179.685 105.295C184.495 99.965 185.015 92.815 181.96 91.645C176.565 89.565 170.91 100.225 166.815 112.38Z" fill="black"/>
<path d="M186.385 111.28C185.778 111.28 185.41 110.912 185.28 110.175C185.237 109.828 185.453 109.482 185.93 109.135C186.407 108.788 186.797 108.55 187.1 108.42C187.317 108.333 187.49 108.268 187.62 108.225C187.75 108.182 187.858 108.16 187.945 108.16C188.248 108.16 188.4 108.312 188.4 108.615C188.4 108.962 188.27 109.373 188.01 109.85C187.793 110.327 187.685 110.565 187.685 110.565C187.642 110.738 187.49 110.912 187.23 111.085C186.97 111.215 186.688 111.28 186.385 111.28ZM179.885 130.455C179.105 130.455 178.542 130.195 178.195 129.675C177.848 129.155 177.675 128.505 177.675 127.725C177.675 127.118 177.74 126.533 177.87 125.97C177.957 125.71 178.173 125.06 178.52 124.02C178.91 122.98 179.408 121.832 180.015 120.575C180.665 119.318 181.358 118.235 182.095 117.325C182.832 116.372 183.59 115.895 184.37 115.895C184.717 115.895 184.89 115.982 184.89 116.155C184.89 116.328 184.803 116.502 184.63 116.675C183.763 117.715 182.94 118.95 182.16 120.38C181.423 121.767 180.795 123.088 180.275 124.345C179.798 125.602 179.517 126.555 179.43 127.205C179.3 128.592 179.712 129.285 180.665 129.285C180.795 129.285 180.925 129.285 181.055 129.285C181.185 129.242 181.337 129.198 181.51 129.155C182.42 128.852 183.308 128.288 184.175 127.465C185.042 126.642 185.843 125.732 186.58 124.735C187.317 123.738 187.923 122.872 188.4 122.135C188.573 121.962 188.682 121.875 188.725 121.875C188.855 121.875 188.92 121.983 188.92 122.2C188.92 122.417 188.855 122.633 188.725 122.85C187.772 124.323 186.645 125.775 185.345 127.205C184.088 128.635 182.832 129.588 181.575 130.065C180.925 130.325 180.362 130.455 179.885 130.455ZM188.767 130.455C187.987 130.455 187.424 130.195 187.077 129.675C186.73 129.155 186.557 128.505 186.557 127.725C186.557 127.118 186.622 126.533 186.752 125.97C186.882 125.363 187.294 124.367 187.987 122.98C188.68 121.55 189.439 120.055 190.262 118.495C189.829 118.668 189.352 118.863 188.832 119.08C188.355 119.253 188.009 119.448 187.792 119.665C187.619 119.752 187.51 119.795 187.467 119.795C187.337 119.795 187.272 119.708 187.272 119.535C187.272 119.145 187.51 118.777 187.987 118.43C188.464 118.083 188.919 117.845 189.352 117.715C189.829 117.585 190.37 117.433 190.977 117.26C191.454 116.393 191.952 115.505 192.472 114.595C193.035 113.642 193.534 112.818 193.967 112.125C194.27 111.692 194.704 111.15 195.267 110.5C195.83 109.807 196.459 109.243 197.152 108.81C197.542 108.55 198.062 108.42 198.712 108.42C199.189 108.42 199.449 108.507 199.492 108.68C198.842 108.853 198.17 109.287 197.477 109.98C196.827 110.673 196.199 111.475 195.592 112.385C194.985 113.295 194.465 114.162 194.032 114.985C193.599 115.765 193.274 116.372 193.057 116.805C193.967 116.675 194.725 116.61 195.332 116.61C195.679 116.61 195.982 116.632 196.242 116.675C196.502 116.675 196.719 116.697 196.892 116.74C197.239 116.783 197.412 116.892 197.412 117.065C197.412 117.238 197.195 117.325 196.762 117.325C196.415 117.325 196.004 117.325 195.527 117.325C195.094 117.325 194.617 117.368 194.097 117.455C193.707 117.498 193.295 117.628 192.862 117.845C192.472 118.062 192.212 118.3 192.082 118.56C191.129 120.293 190.284 121.962 189.547 123.565C188.81 125.168 188.399 126.382 188.312 127.205C188.182 128.592 188.594 129.285 189.547 129.285C190.5 129.285 191.454 128.873 192.407 128.05C193.404 127.183 194.335 126.187 195.202 125.06C196.069 123.933 196.762 122.98 197.282 122.2C197.455 122.027 197.564 121.94 197.607 121.94C197.737 121.94 197.802 122.048 197.802 122.265C197.802 122.438 197.737 122.633 197.607 122.85C196.87 123.977 196.025 125.125 195.072 126.295C194.119 127.465 193.1 128.462 192.017 129.285C190.977 130.065 189.894 130.455 188.767 130.455ZM201.489 130.52C199.712 130.52 198.412 130.13 197.589 129.35C196.766 128.527 196.354 127.443 196.354 126.1C196.354 125.753 196.376 125.407 196.419 125.06C196.506 124.67 196.592 124.28 196.679 123.89C196.896 123.11 197.242 122.2 197.719 121.16C198.239 120.12 198.867 119.102 199.604 118.105C200.341 117.108 201.142 116.285 202.009 115.635C202.876 114.985 203.786 114.66 204.739 114.66C205.519 114.66 206.104 114.942 206.494 115.505C206.927 116.068 207.144 116.74 207.144 117.52C207.144 118.343 206.884 119.188 206.364 120.055C205.887 120.878 205.237 121.55 204.414 122.07C203.461 122.72 202.377 123.045 201.164 123.045C200.384 123.045 199.669 122.893 199.019 122.59C198.369 123.89 198.044 125.168 198.044 126.425C198.044 127.335 198.304 128.115 198.824 128.765C199.344 129.415 200.211 129.74 201.424 129.74C202.897 129.74 204.197 129.393 205.324 128.7C206.451 127.963 207.491 127.01 208.444 125.84C209.441 124.67 210.394 123.413 211.304 122.07C211.434 121.94 211.521 121.875 211.564 121.875C211.694 121.875 211.759 121.983 211.759 122.2C211.759 122.417 211.694 122.633 211.564 122.85C210.784 124.063 209.896 125.255 208.899 126.425C207.946 127.595 206.862 128.57 205.649 129.35C204.436 130.13 203.049 130.52 201.489 130.52ZM200.514 122.135C201.641 122.135 202.702 121.745 203.699 120.965C204.176 120.618 204.587 120.207 204.934 119.73C205.281 119.253 205.519 118.777 205.649 118.3C205.779 117.823 205.844 117.412 205.844 117.065C205.844 116.068 205.476 115.57 204.739 115.57C204.262 115.57 203.721 115.852 203.114 116.415C202.594 116.892 202.052 117.498 201.489 118.235C200.969 118.972 200.514 119.687 200.124 120.38C199.734 121.03 199.474 121.507 199.344 121.81C199.647 122.027 200.037 122.135 200.514 122.135ZM216.429 130.39C215.692 130.39 215.107 130.152 214.674 129.675C214.284 129.155 214.089 128.548 214.089 127.855C214.089 127.205 214.24 126.577 214.544 125.97C215.02 124.973 215.627 123.998 216.364 123.045C217.144 122.048 217.859 121.182 218.509 120.445C218.942 119.882 219.159 119.405 219.159 119.015C219.159 118.495 218.834 117.975 218.184 117.455C217.664 117.108 217.187 116.653 216.754 116.09C216.45 115.657 216.234 115.223 216.104 114.79C215.41 116.22 214.522 117.888 213.439 119.795C212.399 121.658 211.315 123.327 210.189 124.8C210.015 125.06 209.842 125.19 209.669 125.19C209.539 125.19 209.474 125.103 209.474 124.93C209.474 124.843 209.495 124.757 209.539 124.67C209.582 124.583 209.712 124.388 209.929 124.085C211.055 122.525 211.965 121.073 212.659 119.73C213.352 118.387 213.959 117.13 214.479 115.96L215.909 112.775C215.952 112.688 215.995 112.58 216.039 112.45C216.125 112.277 216.19 112.168 216.234 112.125C216.32 112.038 216.407 111.995 216.494 111.995C216.667 111.995 216.797 112.082 216.884 112.255C216.97 112.428 216.97 112.645 216.884 112.905C216.797 113.382 216.862 113.858 217.079 114.335C217.295 114.812 217.577 115.245 217.924 115.635C218.27 115.982 218.769 116.307 219.419 116.61C220.069 116.913 220.654 117.26 221.174 117.65C221.694 118.04 221.889 118.538 221.759 119.145C221.585 119.968 221.13 120.77 220.394 121.55C219.657 122.33 218.92 123.153 218.184 124.02C217.664 124.583 217.187 125.147 216.754 125.71C216.364 126.273 216.06 126.858 215.844 127.465C215.8 127.595 215.757 127.725 215.714 127.855C215.714 127.985 215.714 128.115 215.714 128.245C215.714 129.025 216.125 129.415 216.949 129.415C217.209 129.415 217.534 129.35 217.924 129.22C219.007 128.83 220.004 128.18 220.914 127.27C221.867 126.36 222.669 125.45 223.319 124.54C224.012 123.63 224.467 123.002 224.684 122.655C225.03 122.135 225.247 121.875 225.334 121.875C225.464 121.875 225.529 121.983 225.529 122.2C225.529 122.417 225.464 122.633 225.334 122.85C224.38 124.367 223.297 125.797 222.084 127.14C220.87 128.483 219.57 129.437 218.184 130C217.534 130.26 216.949 130.39 216.429 130.39ZM235.403 130.455C234.623 130.455 234.038 130.195 233.648 129.675C233.301 129.155 233.128 128.483 233.128 127.66C233.128 127.097 233.193 126.533 233.323 125.97C233.366 125.883 233.431 125.688 233.518 125.385C233.605 125.038 233.735 124.648 233.908 124.215C233.301 125.168 232.521 126.23 231.568 127.4C230.658 128.527 229.64 129.372 228.513 129.935C227.863 130.238 227.213 130.39 226.563 130.39C225.696 130.39 225.003 130.065 224.483 129.415C223.963 128.722 223.703 127.768 223.703 126.555C223.703 125.558 223.92 124.497 224.353 123.37C224.786 122.2 225.415 121.008 226.238 119.795C226.758 119.015 227.43 118.257 228.253 117.52C229.076 116.783 229.965 116.177 230.918 115.7C231.871 115.223 232.781 114.985 233.648 114.985C234.515 114.985 235.251 115.223 235.858 115.7C236.465 116.177 236.79 116.892 236.833 117.845C236.833 117.975 236.768 118.083 236.638 118.17C236.551 118.213 236.465 118.148 236.378 117.975C235.858 116.805 235.013 116.22 233.843 116.22C233.063 116.22 232.24 116.588 231.373 117.325C230.506 118.018 229.661 118.907 228.838 119.99C228.015 121.073 227.3 122.157 226.693 123.24C226.173 124.193 225.783 125.06 225.523 125.84C225.306 126.62 225.198 127.292 225.198 127.855C225.198 129.025 225.653 129.61 226.563 129.61C227.04 129.61 227.56 129.458 228.123 129.155C228.643 128.852 229.271 128.31 230.008 127.53C230.788 126.75 231.546 125.883 232.283 124.93C233.063 123.977 233.756 123.045 234.363 122.135C235.013 121.225 235.49 120.51 235.793 119.99C236.443 118.907 237.115 117.953 237.808 117.13C238.501 116.307 239.195 115.895 239.888 115.895C240.235 115.895 240.408 115.982 240.408 116.155C240.408 116.328 240.321 116.502 240.148 116.675C239.281 117.715 238.458 118.95 237.678 120.38C236.941 121.767 236.313 123.088 235.793 124.345C235.316 125.602 235.035 126.555 234.948 127.205C234.818 128.592 235.23 129.285 236.183 129.285C236.313 129.285 236.443 129.285 236.573 129.285C236.703 129.242 236.855 129.198 237.028 129.155C237.938 128.852 238.826 128.288 239.693 127.465C240.56 126.642 241.361 125.753 242.098 124.8C242.835 123.803 243.441 122.937 243.918 122.2C244.048 122.027 244.156 121.94 244.243 121.94C244.373 121.94 244.438 122.048 244.438 122.265C244.438 122.395 244.373 122.568 244.243 122.785C243.94 123.218 243.658 123.652 243.398 124.085C243.138 124.475 242.878 124.843 242.618 125.19C242.531 125.363 242.423 125.515 242.293 125.645C242.163 125.775 242.033 125.927 241.903 126.1C241.34 126.793 240.603 127.552 239.693 128.375C238.826 129.155 237.96 129.718 237.093 130.065C236.443 130.325 235.88 130.455 235.403 130.455ZM244.309 130.455C243.529 130.455 242.966 130.195 242.619 129.675C242.272 129.155 242.099 128.505 242.099 127.725C242.099 127.118 242.164 126.533 242.294 125.97C242.424 125.363 242.836 124.367 243.529 122.98C244.222 121.55 244.981 120.055 245.804 118.495C245.371 118.668 244.894 118.863 244.374 119.08C243.897 119.253 243.551 119.448 243.334 119.665C243.161 119.752 243.052 119.795 243.009 119.795C242.879 119.795 242.814 119.708 242.814 119.535C242.814 119.145 243.052 118.777 243.529 118.43C244.006 118.083 244.461 117.845 244.894 117.715C245.371 117.585 245.912 117.433 246.519 117.26C246.996 116.393 247.494 115.505 248.014 114.595C248.577 113.642 249.076 112.818 249.509 112.125C249.812 111.692 250.246 111.15 250.809 110.5C251.372 109.807 252.001 109.243 252.694 108.81C253.084 108.55 253.604 108.42 254.254 108.42C254.731 108.42 254.991 108.507 255.034 108.68C254.384 108.853 253.712 109.287 253.019 109.98C252.369 110.673 251.741 111.475 251.134 112.385C250.527 113.295 250.007 114.162 249.574 114.985C249.141 115.765 248.816 116.372 248.599 116.805C249.509 116.675 250.267 116.61 250.874 116.61C251.221 116.61 251.524 116.632 251.784 116.675C252.044 116.675 252.261 116.697 252.434 116.74C252.781 116.783 252.954 116.892 252.954 117.065C252.954 117.238 252.737 117.325 252.304 117.325C251.957 117.325 251.546 117.325 251.069 117.325C250.636 117.325 250.159 117.368 249.639 117.455C249.249 117.498 248.837 117.628 248.404 117.845C248.014 118.062 247.754 118.3 247.624 118.56C246.671 120.293 245.826 121.962 245.089 123.565C244.352 125.168 243.941 126.382 243.854 127.205C243.724 128.592 244.136 129.285 245.089 129.285C246.042 129.285 246.996 128.873 247.949 128.05C248.946 127.183 249.877 126.187 250.744 125.06C251.611 123.933 252.304 122.98 252.824 122.2C252.997 122.027 253.106 121.94 253.149 121.94C253.279 121.94 253.344 122.048 253.344 122.265C253.344 122.438 253.279 122.633 253.149 122.85C252.412 123.977 251.567 125.125 250.614 126.295C249.661 127.465 248.642 128.462 247.559 129.285C246.519 130.065 245.436 130.455 244.309 130.455ZM253.391 130.455C252.611 130.455 252.048 130.195 251.701 129.675C251.354 129.155 251.181 128.505 251.181 127.725C251.181 127.118 251.246 126.533 251.376 125.97C251.463 125.71 251.679 125.06 252.026 124.02C252.416 122.98 252.914 121.832 253.521 120.575C254.171 119.318 254.864 118.235 255.601 117.325C256.338 116.372 257.096 115.895 257.876 115.895C258.223 115.895 258.396 115.982 258.396 116.155C258.396 116.328 258.309 116.502 258.136 116.675C257.269 117.715 256.446 118.95 255.666 120.38C254.929 121.767 254.301 123.088 253.781 124.345C253.304 125.602 253.023 126.555 252.936 127.205C252.806 128.592 253.218 129.285 254.171 129.285C254.994 129.285 255.861 128.917 256.771 128.18C257.724 127.4 258.634 126.425 259.501 125.255C260.411 124.042 261.191 122.785 261.841 121.485C262.534 120.142 263.293 118.885 264.116 117.715C264.939 116.502 265.784 115.895 266.651 115.895C266.998 115.895 267.171 115.982 267.171 116.155C267.171 116.328 267.084 116.502 266.911 116.675C266.044 117.715 265.221 118.95 264.441 120.38C263.704 121.767 263.076 123.088 262.556 124.345C262.079 125.602 261.798 126.555 261.711 127.205C261.581 128.592 261.993 129.285 262.946 129.285C263.899 129.285 264.874 128.852 265.871 127.985C266.868 127.118 267.799 126.122 268.666 124.995C269.533 123.868 270.226 122.915 270.746 122.135C270.919 121.962 271.028 121.875 271.071 121.875C271.201 121.875 271.266 121.983 271.266 122.2C271.266 122.373 271.201 122.568 271.071 122.785C270.378 123.912 269.533 125.082 268.536 126.295C267.583 127.465 266.564 128.462 265.481 129.285C264.398 130.065 263.293 130.455 262.166 130.455C261.386 130.455 260.823 130.195 260.476 129.675C260.129 129.155 259.956 128.505 259.956 127.725C259.956 127.118 260.021 126.533 260.151 125.97L260.281 125.385C259.458 126.468 258.591 127.443 257.681 128.31C256.814 129.177 255.948 129.762 255.081 130.065C254.431 130.325 253.868 130.455 253.391 130.455ZM275.906 130.39C275.17 130.39 274.585 130.152 274.151 129.675C273.761 129.155 273.566 128.548 273.566 127.855C273.566 127.205 273.718 126.577 274.021 125.97C274.498 124.973 275.105 123.998 275.841 123.045C276.621 122.048 277.336 121.182 277.986 120.445C278.42 119.882 278.636 119.405 278.636 119.015C278.636 118.495 278.311 117.975 277.661 117.455C277.141 117.108 276.665 116.653 276.231 116.09C275.928 115.657 275.711 115.223 275.581 114.79C274.888 116.22 274 117.888 272.916 119.795C271.876 121.658 270.793 123.327 269.666 124.8C269.493 125.06 269.32 125.19 269.146 125.19C269.016 125.19 268.951 125.103 268.951 124.93C268.951 124.843 268.973 124.757 269.016 124.67C269.06 124.583 269.19 124.388 269.406 124.085C270.533 122.525 271.443 121.073 272.136 119.73C272.83 118.387 273.436 117.13 273.956 115.96L275.386 112.775C275.43 112.688 275.473 112.58 275.516 112.45C275.603 112.277 275.668 112.168 275.711 112.125C275.798 112.038 275.885 111.995 275.971 111.995C276.145 111.995 276.275 112.082 276.361 112.255C276.448 112.428 276.448 112.645 276.361 112.905C276.275 113.382 276.34 113.858 276.556 114.335C276.773 114.812 277.055 115.245 277.401 115.635C277.748 115.982 278.246 116.307 278.896 116.61C279.546 116.913 280.131 117.26 280.651 117.65C281.171 118.04 281.366 118.538 281.236 119.145C281.063 119.968 280.608 120.77 279.871 121.55C279.135 122.33 278.398 123.153 277.661 124.02C277.141 124.583 276.665 125.147 276.231 125.71C275.841 126.273 275.538 126.858 275.321 127.465C275.278 127.595 275.235 127.725 275.191 127.855C275.191 127.985 275.191 128.115 275.191 128.245C275.191 129.025 275.603 129.415 276.426 129.415C276.686 129.415 277.011 129.35 277.401 129.22C278.485 128.83 279.481 128.18 280.391 127.27C281.345 126.36 282.146 125.45 282.796 124.54C283.49 123.63 283.945 123.002 284.161 122.655C284.508 122.135 284.725 121.875 284.811 121.875C284.941 121.875 285.006 121.983 285.006 122.2C285.006 122.417 284.941 122.633 284.811 122.85C283.858 124.367 282.775 125.797 281.561 127.14C280.348 128.483 279.048 129.437 277.661 130C277.011 130.26 276.426 130.39 275.906 130.39ZM288.706 130.52C286.929 130.52 285.629 130.13 284.806 129.35C283.982 128.527 283.571 127.443 283.571 126.1C283.571 125.753 283.592 125.407 283.636 125.06C283.722 124.67 283.809 124.28 283.896 123.89C284.112 123.11 284.459 122.2 284.936 121.16C285.456 120.12 286.084 119.102 286.821 118.105C287.557 117.108 288.359 116.285 289.226 115.635C290.092 114.985 291.002 114.66 291.956 114.66C292.736 114.66 293.321 114.942 293.711 115.505C294.144 116.068 294.361 116.74 294.361 117.52C294.361 118.343 294.101 119.188 293.581 120.055C293.104 120.878 292.454 121.55 291.631 122.07C290.677 122.72 289.594 123.045 288.381 123.045C287.601 123.045 286.886 122.893 286.236 122.59C285.586 123.89 285.261 125.168 285.261 126.425C285.261 127.335 285.521 128.115 286.041 128.765C286.561 129.415 287.427 129.74 288.641 129.74C290.114 129.74 291.414 129.393 292.541 128.7C293.667 127.963 294.707 127.01 295.661 125.84C296.657 124.67 297.611 123.413 298.521 122.07C298.651 121.94 298.737 121.875 298.781 121.875C298.911 121.875 298.976 121.983 298.976 122.2C298.976 122.417 298.911 122.633 298.781 122.85C298.001 124.063 297.112 125.255 296.116 126.425C295.162 127.595 294.079 128.57 292.866 129.35C291.652 130.13 290.266 130.52 288.706 130.52ZM287.731 122.135C288.857 122.135 289.919 121.745 290.916 120.965C291.392 120.618 291.804 120.207 292.151 119.73C292.497 119.253 292.736 118.777 292.866 118.3C292.996 117.823 293.061 117.412 293.061 117.065C293.061 116.068 292.692 115.57 291.956 115.57C291.479 115.57 290.937 115.852 290.331 116.415C289.811 116.892 289.269 117.498 288.706 118.235C288.186 118.972 287.731 119.687 287.341 120.38C286.951 121.03 286.691 121.507 286.561 121.81C286.864 122.027 287.254 122.135 287.731 122.135Z" fill="black"/>
<g filter="url(#filter0_dd_255_18)">
<path d="M131.666 210V193.2H138.578C140.066 193.2 141.338 193.44 142.394 193.92C143.466 194.4 144.29 195.088 144.866 195.984C145.442 196.88 145.73 197.944 145.73 199.176C145.73 200.408 145.442 201.472 144.866 202.368C144.29 203.264 143.466 203.952 142.394 204.432C141.338 204.912 140.066 205.152 138.578 205.152H133.394L134.786 203.688V210H131.666ZM134.786 204.024L133.394 202.512H138.434C139.81 202.512 140.842 202.224 141.53 201.648C142.234 201.056 142.586 200.232 142.586 199.176C142.586 198.104 142.234 197.28 141.53 196.704C140.842 196.128 139.81 195.84 138.434 195.84H133.394L134.786 194.304V204.024ZM152.206 210V193.2H159.118C160.606 193.2 161.878 193.44 162.934 193.92C164.006 194.4 164.83 195.088 165.406 195.984C165.982 196.88 166.27 197.944 166.27 199.176C166.27 200.408 165.982 201.472 165.406 202.368C164.83 203.248 164.006 203.928 162.934 204.408C161.878 204.872 160.606 205.104 159.118 205.104H153.934L155.326 203.688V210H152.206ZM163.198 210L158.95 203.904H162.286L166.558 210H163.198ZM155.326 204.024L153.934 202.536H158.974C160.35 202.536 161.382 202.24 162.07 201.648C162.774 201.056 163.126 200.232 163.126 199.176C163.126 198.104 162.774 197.28 162.07 196.704C161.382 196.128 160.35 195.84 158.974 195.84H153.934L155.326 194.304V204.024ZM176.001 200.184H184.353V202.752H176.001V200.184ZM176.241 207.384H185.721V210H173.121V193.2H185.385V195.816H176.241V207.384ZM197.767 210.24C196.455 210.24 195.199 210.056 193.999 209.688C192.799 209.304 191.847 208.816 191.143 208.224L192.223 205.8C192.895 206.328 193.727 206.768 194.719 207.12C195.711 207.472 196.727 207.648 197.767 207.648C198.647 207.648 199.359 207.552 199.903 207.36C200.447 207.168 200.847 206.912 201.103 206.592C201.359 206.256 201.487 205.88 201.487 205.464C201.487 204.952 201.303 204.544 200.935 204.24C200.567 203.92 200.087 203.672 199.495 203.496C198.919 203.304 198.271 203.128 197.551 202.968C196.847 202.808 196.135 202.624 195.415 202.416C194.711 202.192 194.063 201.912 193.471 201.576C192.895 201.224 192.423 200.76 192.055 200.184C191.687 199.608 191.503 198.872 191.503 197.976C191.503 197.064 191.743 196.232 192.223 195.48C192.719 194.712 193.463 194.104 194.455 193.656C195.463 193.192 196.735 192.96 198.271 192.96C199.279 192.96 200.279 193.088 201.271 193.344C202.263 193.6 203.127 193.968 203.863 194.448L202.879 196.872C202.127 196.424 201.351 196.096 200.551 195.888C199.751 195.664 198.983 195.552 198.247 195.552C197.383 195.552 196.679 195.656 196.135 195.864C195.607 196.072 195.215 196.344 194.959 196.68C194.719 197.016 194.599 197.4 194.599 197.832C194.599 198.344 194.775 198.76 195.127 199.08C195.495 199.384 195.967 199.624 196.543 199.8C197.135 199.976 197.791 200.152 198.511 200.328C199.231 200.488 199.943 200.672 200.647 200.88C201.367 201.088 202.015 201.36 202.591 201.696C203.183 202.032 203.655 202.488 204.007 203.064C204.375 203.64 204.559 204.368 204.559 205.248C204.559 206.144 204.311 206.976 203.815 207.744C203.335 208.496 202.591 209.104 201.583 209.568C200.575 210.016 199.303 210.24 197.767 210.24ZM216.221 210.24C214.909 210.24 213.653 210.056 212.453 209.688C211.253 209.304 210.301 208.816 209.597 208.224L210.677 205.8C211.349 206.328 212.181 206.768 213.173 207.12C214.165 207.472 215.181 207.648 216.221 207.648C217.101 207.648 217.813 207.552 218.357 207.36C218.901 207.168 219.301 206.912 219.557 206.592C219.813 206.256 219.941 205.88 219.941 205.464C219.941 204.952 219.757 204.544 219.389 204.24C219.021 203.92 218.541 203.672 217.949 203.496C217.373 203.304 216.725 203.128 216.005 202.968C215.301 202.808 214.589 202.624 213.869 202.416C213.165 202.192 212.517 201.912 211.925 201.576C211.349 201.224 210.877 200.76 210.509 200.184C210.141 199.608 209.957 198.872 209.957 197.976C209.957 197.064 210.197 196.232 210.677 195.48C211.173 194.712 211.917 194.104 212.909 193.656C213.917 193.192 215.189 192.96 216.725 192.96C217.733 192.96 218.733 193.088 219.725 193.344C220.717 193.6 221.581 193.968 222.317 194.448L221.333 196.872C220.581 196.424 219.805 196.096 219.005 195.888C218.205 195.664 217.437 195.552 216.701 195.552C215.837 195.552 215.133 195.656 214.589 195.864C214.061 196.072 213.669 196.344 213.413 196.68C213.173 197.016 213.053 197.4 213.053 197.832C213.053 198.344 213.229 198.76 213.581 199.08C213.949 199.384 214.421 199.624 214.997 199.8C215.589 199.976 216.245 200.152 216.965 200.328C217.685 200.488 218.397 200.672 219.101 200.88C219.821 201.088 220.469 201.36 221.045 201.696C221.637 202.032 222.109 202.488 222.461 203.064C222.829 203.64 223.013 204.368 223.013 205.248C223.013 206.144 222.765 206.976 222.269 207.744C221.789 208.496 221.045 209.104 220.037 209.568C219.029 210.016 217.757 210.24 216.221 210.24ZM239.459 210V193.2H246.371C247.859 193.2 249.131 193.44 250.187 193.92C251.259 194.4 252.083 195.088 252.659 195.984C253.235 196.88 253.523 197.944 253.523 199.176C253.523 200.408 253.235 201.472 252.659 202.368C252.083 203.248 251.259 203.928 250.187 204.408C249.131 204.872 247.859 205.104 246.371 205.104H241.187L242.579 203.688V210H239.459ZM250.451 210L246.203 203.904H249.539L253.811 210H250.451ZM242.579 204.024L241.187 202.536H246.227C247.603 202.536 248.635 202.24 249.323 201.648C250.027 201.056 250.379 200.232 250.379 199.176C250.379 198.104 250.027 197.28 249.323 196.704C248.635 196.128 247.603 195.84 246.227 195.84H241.187L242.579 194.304V204.024ZM263.254 200.184H271.606V202.752H263.254V200.184ZM263.494 207.384H272.974V210H260.374V193.2H272.638V195.816H263.494V207.384ZM279.812 210V193.2H282.932V207.36H291.716V210H279.812ZM300.419 200.184H308.771V202.752H300.419V200.184ZM300.659 207.384H310.139V210H297.539V193.2H309.803V195.816H300.659V207.384ZM314.601 210L322.161 193.2H325.233L332.817 210H329.553L323.049 194.856H324.297L317.817 210H314.601ZM318.081 206.112L318.921 203.664H327.993L328.833 206.112H318.081ZM343.522 210.24C342.21 210.24 340.954 210.056 339.754 209.688C338.554 209.304 337.602 208.816 336.898 208.224L337.978 205.8C338.65 206.328 339.482 206.768 340.474 207.12C341.466 207.472 342.482 207.648 343.522 207.648C344.402 207.648 345.114 207.552 345.658 207.36C346.202 207.168 346.602 206.912 346.858 206.592C347.114 206.256 347.242 205.88 347.242 205.464C347.242 204.952 347.058 204.544 346.69 204.24C346.322 203.92 345.842 203.672 345.25 203.496C344.674 203.304 344.026 203.128 343.306 202.968C342.602 202.808 341.89 202.624 341.17 202.416C340.466 202.192 339.818 201.912 339.226 201.576C338.65 201.224 338.178 200.76 337.81 200.184C337.442 199.608 337.258 198.872 337.258 197.976C337.258 197.064 337.498 196.232 337.978 195.48C338.474 194.712 339.218 194.104 340.21 193.656C341.218 193.192 342.49 192.96 344.026 192.96C345.034 192.96 346.034 193.088 347.026 193.344C348.018 193.6 348.882 193.968 349.618 194.448L348.634 196.872C347.882 196.424 347.106 196.096 346.306 195.888C345.506 195.664 344.738 195.552 344.002 195.552C343.138 195.552 342.434 195.656 341.89 195.864C341.362 196.072 340.97 196.344 340.714 196.68C340.474 197.016 340.354 197.4 340.354 197.832C340.354 198.344 340.53 198.76 340.882 199.08C341.25 199.384 341.722 199.624 342.298 199.8C342.89 199.976 343.546 200.152 344.266 200.328C344.986 200.488 345.698 200.672 346.402 200.88C347.122 201.088 347.77 201.36 348.346 201.696C348.938 202.032 349.41 202.488 349.762 203.064C350.13 203.64 350.314 204.368 350.314 205.248C350.314 206.144 350.066 206.976 349.57 207.744C349.09 208.496 348.346 209.104 347.338 209.568C346.33 210.016 345.058 210.24 343.522 210.24ZM359.648 200.184H368V202.752H359.648V200.184ZM359.888 207.384H369.368V210H356.768V193.2H369.032V195.816H359.888V207.384Z" fill="url(#paint3_linear_255_18)"/>
</g>
<defs>
<filter id="filter0_dd_255_18" x="113.666" y="177.96" width="276.701" height="54.28" filterUnits="userSpaceOnUse" color-interpolation-filters="sRGB">
<feFlood flood-opacity="0" result="BackgroundImageFix"/>
<feColorMatrix in="SourceAlpha" type="matrix" values="0 0 0 0 0 0 0 0 0 0 0 0 0 0 0 0 0 0 127 0" result="hardAlpha"/>
<feOffset dx="-5" dy="-2"/>
<feGaussianBlur stdDeviation="6.5"/>
<feComposite in2="hardAlpha" operator="out"/>
<feColorMatrix type="matrix" values="0 0 0 0 0.878431 0 0 0 0 0.172549 0 0 0 0 0.52549 0 0 0 0.2 0"/>
<feBlend mode="normal" in2="BackgroundImageFix" result="effect1_dropShadow_255_18"/>
<feColorMatrix in="SourceAlpha" type="matrix" values="0 0 0 0 0 0 0 0 0 0 0 0 0 0 0 0 0 0 127 0" result="hardAlpha"/>
<feOffset dx="3" dy="4"/>
<feGaussianBlur stdDeviation="9"/>
<feComposite in2="hardAlpha" operator="out"/>
<feColorMatrix type="matrix" values="0 0 0 0 0.0784314 0 0 0 0 0.901961 0 0 0 0 0.862745 0 0 0 0.2 0"/>
<feBlend mode="normal" in2="effect1_dropShadow_255_18" result="effect2_dropShadow_255_18"/>
<feBlend mode="normal" in="SourceGraphic" in2="effect2_dropShadow_255_18" result="shape"/>
</filter>
<linearGradient id="paint0_linear_255_18" x1="3.48315e-06" y1="15" x2="500" y2="300" gradientUnits="userSpaceOnUse">
<stop stop-color="#CB328F"/>
<stop offset="0.2" stop-color="#CB328F"/>
<stop offset="0.4" stop-color="#97238A"/>
<stop offset="0.6" stop-color="#5456AB"/>
<stop offset="0.8" stop-color="#219DDE"/>
<stop offset="1" stop-color="#22DCD9"/>
</linearGradient>
<linearGradient id="paint1_linear_255_18" x1="366.967" y1="58.0412" x2="290.327" y2="112.807" gradientUnits="userSpaceOnUse">
<stop stop-color="#22DCD9"/>
<stop offset="0.2" stop-color="#22AFDD"/>
<stop offset="0.4" stop-color="#5259AE"/>
<stop offset="0.6" stop-color="#7A3A99"/>
<stop offset="0.8" stop-color="#C73491"/>
<stop offset="1" stop-color="#F73E94"/>
</linearGradient>
<linearGradient id="paint2_linear_255_18" x1="345.697" y1="57.8454" x2="290.78" y2="91.3572" gradientUnits="userSpaceOnUse">
<stop stop-color="#22DCD9"/>
<stop offset="0.166667" stop-color="#22ACDD"/>
<stop offset="0.333333" stop-color="#3D77C3"/>
<stop offset="0.5" stop-color="#803596"/>
<stop offset="0.666667" stop-color="#A5278C"/>
<stop offset="0.833333" stop-color="#D03390"/>
<stop offset="1" stop-color="#F73E94"/>
</linearGradient>
<linearGradient id="paint3_linear_255_18" x1="129" y1="181" x2="266.411" y2="323.122" gradientUnits="userSpaceOnUse">
<stop offset="0.109375" stop-color="#F73E94"/>
<stop offset="0.302083" stop-color="#A51883"/>
<stop offset="0.546875" stop-color="#5C4AA3"/>
<stop offset="0.734375" stop-color="#2599DB"/>
<stop offset="0.963542" stop-color="#22DCD9"/>
</linearGradient>
</defs>
</svg>
