<svg width="1100" height="528" viewBox="0 0 1100 528" fill="none" xmlns="http://www.w3.org/2000/svg">
<rect x="0.5" y="0.5" width="1099" height="527" rx="29.5" fill="white" stroke="url(#paint0_linear_407_111)"/>
<path d="M371.1 321V286H383.65C386.583 286 389.1 286.467 391.2 287.4C393.3 288.333 394.917 289.683 396.05 291.45C397.183 293.183 397.75 295.3 397.75 297.8C397.75 300.233 397.183 302.333 396.05 304.1C394.917 305.867 393.3 307.217 391.2 308.15C389.1 309.083 386.583 309.55 383.65 309.55H372.5L373.65 308.35V321H371.1ZM373.65 308.5L372.5 307.25H383.65C387.417 307.25 390.267 306.433 392.2 304.8C394.167 303.133 395.15 300.8 395.15 297.8C395.15 294.767 394.167 292.433 392.2 290.8C390.267 289.133 387.417 288.3 383.65 288.3H372.5L373.65 287.05V308.5ZM404.724 321V294.9H407.124V302.05L406.874 301.25C407.607 299.15 408.84 297.533 410.574 296.4C412.307 295.267 414.474 294.7 417.074 294.7V297.15C416.974 297.15 416.874 297.15 416.774 297.15C416.674 297.117 416.574 297.1 416.474 297.1C413.574 297.1 411.307 298.017 409.674 299.85C408.04 301.65 407.224 304.167 407.224 307.4V321H404.724ZM433.918 321.2C431.418 321.2 429.185 320.633 427.218 319.5C425.285 318.367 423.735 316.8 422.568 314.8C421.435 312.8 420.868 310.517 420.868 307.95C420.868 305.35 421.435 303.067 422.568 301.1C423.735 299.1 425.285 297.533 427.218 296.4C429.185 295.267 431.418 294.7 433.918 294.7C436.418 294.7 438.651 295.267 440.618 296.4C442.585 297.533 444.135 299.1 445.268 301.1C446.401 303.067 446.968 305.35 446.968 307.95C446.968 310.517 446.401 312.8 445.268 314.8C444.135 316.8 442.585 318.367 440.618 319.5C438.651 320.633 436.418 321.2 433.918 321.2ZM433.918 318.95C435.918 318.95 437.718 318.5 439.318 317.6C440.918 316.667 442.168 315.367 443.068 313.7C443.968 312.033 444.418 310.117 444.418 307.95C444.418 305.75 443.968 303.833 443.068 302.2C442.168 300.533 440.918 299.25 439.318 298.35C437.718 297.417 435.918 296.95 433.918 296.95C431.918 296.95 430.118 297.417 428.518 298.35C426.951 299.25 425.701 300.533 424.768 302.2C423.868 303.833 423.418 305.75 423.418 307.95C423.418 310.117 423.868 312.033 424.768 313.7C425.701 315.367 426.951 316.667 428.518 317.6C430.118 318.5 431.918 318.95 433.918 318.95ZM461.324 321.2C459.157 321.2 457.124 320.883 455.224 320.25C453.357 319.617 451.907 318.817 450.874 317.85L452.024 315.85C453.024 316.717 454.357 317.467 456.024 318.1C457.69 318.7 459.49 319 461.424 319C464.157 319 466.124 318.55 467.324 317.65C468.524 316.75 469.124 315.567 469.124 314.1C469.124 313.033 468.807 312.2 468.174 311.6C467.574 310.967 466.757 310.483 465.724 310.15C464.69 309.817 463.557 309.55 462.324 309.35C461.09 309.117 459.857 308.867 458.624 308.6C457.39 308.333 456.257 307.95 455.224 307.45C454.19 306.95 453.357 306.267 452.724 305.4C452.124 304.5 451.824 303.317 451.824 301.85C451.824 300.517 452.19 299.317 452.924 298.25C453.657 297.183 454.757 296.333 456.224 295.7C457.69 295.033 459.524 294.7 461.724 294.7C463.357 294.7 464.99 294.933 466.624 295.4C468.29 295.867 469.64 296.483 470.674 297.25L469.524 299.25C468.424 298.417 467.19 297.817 465.824 297.45C464.457 297.083 463.074 296.9 461.674 296.9C459.14 296.9 457.274 297.367 456.074 298.3C454.907 299.233 454.324 300.4 454.324 301.8C454.324 302.9 454.624 303.783 455.224 304.45C455.857 305.083 456.69 305.583 457.724 305.95C458.757 306.283 459.89 306.567 461.124 306.8C462.357 307 463.59 307.233 464.824 307.5C466.057 307.767 467.19 308.15 468.224 308.65C469.257 309.117 470.074 309.783 470.674 310.65C471.307 311.483 471.624 312.617 471.624 314.05C471.624 315.483 471.224 316.733 470.424 317.8C469.657 318.867 468.507 319.7 466.974 320.3C465.44 320.9 463.557 321.2 461.324 321.2ZM507.893 321V315.05L507.793 314.15V304.35C507.793 301.917 507.126 300.067 505.793 298.8C504.493 297.533 502.576 296.9 500.043 296.9C498.243 296.9 496.559 297.217 494.993 297.85C493.459 298.45 492.143 299.233 491.043 300.2L489.793 298.4C491.093 297.233 492.659 296.333 494.493 295.7C496.326 295.033 498.243 294.7 500.243 294.7C503.476 294.7 505.959 295.517 507.693 297.15C509.426 298.783 510.293 301.217 510.293 304.45V321H507.893ZM498.493 321.2C496.559 321.2 494.876 320.9 493.443 320.3C492.043 319.667 490.959 318.783 490.193 317.65C489.459 316.517 489.093 315.217 489.093 313.75C489.093 312.417 489.393 311.217 489.993 310.15C490.626 309.05 491.659 308.167 493.093 307.5C494.526 306.8 496.443 306.45 498.843 306.45H508.443V308.4H498.893C496.193 308.4 494.293 308.9 493.193 309.9C492.126 310.9 491.593 312.15 491.593 313.65C491.593 315.317 492.226 316.65 493.493 317.65C494.759 318.65 496.543 319.15 498.843 319.15C501.043 319.15 502.893 318.65 504.393 317.65C505.926 316.65 507.059 315.2 507.793 313.3L508.493 315C507.793 316.9 506.593 318.417 504.893 319.55C503.226 320.65 501.093 321.2 498.493 321.2ZM533.343 294.7C535.476 294.7 537.326 295.117 538.893 295.95C540.493 296.75 541.726 297.983 542.593 299.65C543.493 301.283 543.943 303.317 543.943 305.75V321H541.443V305.95C541.443 303.017 540.693 300.783 539.193 299.25C537.726 297.717 535.66 296.95 532.993 296.95C530.96 296.95 529.193 297.367 527.693 298.2C526.193 299.033 525.043 300.2 524.243 301.7C523.476 303.2 523.093 305 523.093 307.1V321H520.593V294.9H522.993V302.15L522.643 301.35C523.443 299.283 524.76 297.667 526.593 296.5C528.426 295.3 530.676 294.7 533.343 294.7ZM564.286 321.2C561.852 321.2 559.652 320.65 557.686 319.55C555.752 318.417 554.219 316.85 553.086 314.85C551.952 312.85 551.386 310.55 551.386 307.95C551.386 305.317 551.952 303.017 553.086 301.05C554.219 299.05 555.752 297.5 557.686 296.4C559.652 295.267 561.852 294.7 564.286 294.7C566.586 294.7 568.652 295.233 570.486 296.3C572.352 297.367 573.819 298.883 574.886 300.85C575.986 302.817 576.536 305.183 576.536 307.95C576.536 310.65 576.002 313 574.936 315C573.869 317 572.402 318.533 570.536 319.6C568.702 320.667 566.619 321.2 564.286 321.2ZM564.436 318.95C566.436 318.95 568.219 318.5 569.786 317.6C571.386 316.667 572.636 315.367 573.536 313.7C574.469 312.033 574.936 310.117 574.936 307.95C574.936 305.75 574.469 303.833 573.536 302.2C572.636 300.533 571.386 299.25 569.786 298.35C568.219 297.417 566.436 296.95 564.436 296.95C562.436 296.95 560.636 297.417 559.036 298.35C557.469 299.25 556.219 300.533 555.286 302.2C554.386 303.833 553.936 305.75 553.936 307.95C553.936 310.117 554.386 312.033 555.286 313.7C556.219 315.367 557.469 316.667 559.036 317.6C560.636 318.5 562.436 318.95 564.436 318.95ZM574.986 321V312.45L575.436 307.9L574.936 303.35V283.9H577.436V321H574.986ZM616.418 321.25C613.818 321.25 611.401 320.817 609.168 319.95C606.968 319.05 605.051 317.8 603.418 316.2C601.784 314.6 600.518 312.733 599.618 310.6C598.718 308.433 598.268 306.067 598.268 303.5C598.268 300.933 598.718 298.583 599.618 296.45C600.518 294.283 601.784 292.4 603.418 290.8C605.084 289.2 607.018 287.967 609.218 287.1C611.418 286.2 613.818 285.75 616.418 285.75C618.884 285.75 621.184 286.15 623.318 286.95C625.484 287.75 627.334 288.967 628.868 290.6L627.268 292.25C625.768 290.783 624.101 289.733 622.268 289.1C620.468 288.433 618.551 288.1 616.518 288.1C614.284 288.1 612.201 288.483 610.268 289.25C608.368 290.017 606.701 291.1 605.268 292.5C603.868 293.9 602.768 295.533 601.968 297.4C601.201 299.267 600.818 301.3 600.818 303.5C600.818 305.7 601.201 307.733 601.968 309.6C602.768 311.467 603.868 313.1 605.268 314.5C606.701 315.9 608.368 316.983 610.268 317.75C612.201 318.517 614.284 318.9 616.518 318.9C618.551 318.9 620.468 318.583 622.268 317.95C624.101 317.283 625.768 316.2 627.268 314.7L628.868 316.35C627.334 317.983 625.484 319.217 623.318 320.05C621.184 320.85 618.884 321.25 616.418 321.25ZM645.588 321.2C643.088 321.2 640.855 320.633 638.888 319.5C636.955 318.367 635.405 316.8 634.238 314.8C633.105 312.8 632.538 310.517 632.538 307.95C632.538 305.35 633.105 303.067 634.238 301.1C635.405 299.1 636.955 297.533 638.888 296.4C640.855 295.267 643.088 294.7 645.588 294.7C648.088 294.7 650.321 295.267 652.288 296.4C654.255 297.533 655.805 299.1 656.938 301.1C658.071 303.067 658.638 305.35 658.638 307.95C658.638 310.517 658.071 312.8 656.938 314.8C655.805 316.8 654.255 318.367 652.288 319.5C650.321 320.633 648.088 321.2 645.588 321.2ZM645.588 318.95C647.588 318.95 649.388 318.5 650.988 317.6C652.588 316.667 653.838 315.367 654.738 313.7C655.638 312.033 656.088 310.117 656.088 307.95C656.088 305.75 655.638 303.833 654.738 302.2C653.838 300.533 652.588 299.25 650.988 298.35C649.388 297.417 647.588 296.95 645.588 296.95C643.588 296.95 641.788 297.417 640.188 298.35C638.621 299.25 637.371 300.533 636.438 302.2C635.538 303.833 635.088 305.75 635.088 307.95C635.088 310.117 635.538 312.033 636.438 313.7C637.371 315.367 638.621 316.667 640.188 317.6C641.788 318.5 643.588 318.95 645.588 318.95ZM679.144 294.7C681.277 294.7 683.127 295.117 684.694 295.95C686.294 296.75 687.527 297.983 688.394 299.65C689.294 301.283 689.744 303.317 689.744 305.75V321H687.244V305.95C687.244 303.017 686.494 300.783 684.994 299.25C683.527 297.717 681.46 296.95 678.794 296.95C676.76 296.95 674.994 297.367 673.494 298.2C671.994 299.033 670.844 300.2 670.044 301.7C669.277 303.2 668.894 305 668.894 307.1V321H666.394V294.9H668.794V302.15L668.444 301.35C669.244 299.283 670.56 297.667 672.394 296.5C674.227 295.3 676.477 294.7 679.144 294.7ZM706.636 321.2C704.47 321.2 702.436 320.883 700.536 320.25C698.67 319.617 697.22 318.817 696.186 317.85L697.336 315.85C698.336 316.717 699.67 317.467 701.336 318.1C703.003 318.7 704.803 319 706.736 319C709.47 319 711.436 318.55 712.636 317.65C713.836 316.75 714.436 315.567 714.436 314.1C714.436 313.033 714.12 312.2 713.486 311.6C712.886 310.967 712.07 310.483 711.036 310.15C710.003 309.817 708.87 309.55 707.636 309.35C706.403 309.117 705.17 308.867 703.936 308.6C702.703 308.333 701.57 307.95 700.536 307.45C699.503 306.95 698.67 306.267 698.036 305.4C697.436 304.5 697.136 303.317 697.136 301.85C697.136 300.517 697.503 299.317 698.236 298.25C698.97 297.183 700.07 296.333 701.536 295.7C703.003 295.033 704.836 294.7 707.036 294.7C708.67 294.7 710.303 294.933 711.936 295.4C713.603 295.867 714.953 296.483 715.986 297.25L714.836 299.25C713.736 298.417 712.503 297.817 711.136 297.45C709.77 297.083 708.386 296.9 706.986 296.9C704.453 296.9 702.586 297.367 701.386 298.3C700.22 299.233 699.636 300.4 699.636 301.8C699.636 302.9 699.936 303.783 700.536 304.45C701.17 305.083 702.003 305.583 703.036 305.95C704.07 306.283 705.203 306.567 706.436 306.8C707.67 307 708.903 307.233 710.136 307.5C711.37 307.767 712.503 308.15 713.536 308.65C714.57 309.117 715.386 309.783 715.986 310.65C716.62 311.483 716.936 312.617 716.936 314.05C716.936 315.483 716.536 316.733 715.736 317.8C714.97 318.867 713.82 319.7 712.286 320.3C710.753 320.9 708.87 321.2 706.636 321.2Z" fill="black"/>
<g filter="url(#filter0_dd_407_111)">
<path d="M375.003 206.824H397.275V213.672H375.003V206.824ZM375.643 226.024H400.923V233H367.323V188.2H400.027V195.176H375.643V226.024ZM415.412 218.536V211.88H433.012V218.536H415.412ZM451.493 233V188.2H472.485C477.861 188.2 481.957 189.267 484.773 191.4C487.589 193.491 488.997 196.307 488.997 199.848C488.997 202.237 488.443 204.285 487.333 205.992C486.224 207.656 484.731 208.957 482.853 209.896C481.019 210.792 479.013 211.24 476.837 211.24L477.989 208.936C480.507 208.936 482.768 209.405 484.773 210.344C486.779 211.24 488.357 212.563 489.509 214.312C490.704 216.061 491.301 218.237 491.301 220.84C491.301 224.68 489.829 227.667 486.885 229.8C483.941 231.933 479.568 233 473.765 233H451.493ZM459.813 226.472H473.253C476.368 226.472 478.757 225.96 480.421 224.936C482.085 223.912 482.917 222.269 482.917 220.008C482.917 217.789 482.085 216.168 480.421 215.144C478.757 214.077 476.368 213.544 473.253 213.544H459.173V207.08H471.589C474.491 207.08 476.709 206.568 478.245 205.544C479.824 204.52 480.613 202.984 480.613 200.936C480.613 198.845 479.824 197.288 478.245 196.264C476.709 195.24 474.491 194.728 471.589 194.728H459.813V226.472ZM530.133 233.64C526.634 233.64 523.413 233.064 520.469 231.912C517.525 230.76 514.965 229.16 512.789 227.112C510.613 225.021 508.928 222.589 507.733 219.816C506.538 217 505.941 213.928 505.941 210.6C505.941 207.272 506.538 204.221 507.733 201.448C508.928 198.632 510.613 196.2 512.789 194.152C514.965 192.061 517.525 190.44 520.469 189.288C523.413 188.136 526.613 187.56 530.069 187.56C533.568 187.56 536.768 188.136 539.669 189.288C542.613 190.44 545.173 192.061 547.349 194.152C549.525 196.2 551.21 198.632 552.405 201.448C553.6 204.221 554.197 207.272 554.197 210.6C554.197 213.928 553.6 217 552.405 219.816C551.21 222.632 549.525 225.064 547.349 227.112C545.173 229.16 542.613 230.76 539.669 231.912C536.768 233.064 533.589 233.64 530.133 233.64ZM530.069 226.344C532.33 226.344 534.421 225.96 536.341 225.192C538.261 224.424 539.925 223.336 541.333 221.928C542.741 220.477 543.829 218.813 544.597 216.936C545.408 215.016 545.813 212.904 545.813 210.6C545.813 208.296 545.408 206.205 544.597 204.328C543.829 202.408 542.741 200.744 541.333 199.336C539.925 197.885 538.261 196.776 536.341 196.008C534.421 195.24 532.33 194.856 530.069 194.856C527.808 194.856 525.717 195.24 523.797 196.008C521.92 196.776 520.256 197.885 518.805 199.336C517.397 200.744 516.288 202.408 515.477 204.328C514.709 206.205 514.325 208.296 514.325 210.6C514.325 212.861 514.709 214.952 515.477 216.872C516.288 218.792 517.397 220.477 518.805 221.928C520.213 223.336 521.877 224.424 523.797 225.192C525.717 225.96 527.808 226.344 530.069 226.344ZM592.968 233.64C589.469 233.64 586.248 233.064 583.304 231.912C580.36 230.76 577.8 229.16 575.624 227.112C573.448 225.021 571.763 222.589 570.568 219.816C569.373 217 568.776 213.928 568.776 210.6C568.776 207.272 569.373 204.221 570.568 201.448C571.763 198.632 573.448 196.2 575.624 194.152C577.8 192.061 580.36 190.44 583.304 189.288C586.248 188.136 589.448 187.56 592.904 187.56C596.403 187.56 599.603 188.136 602.504 189.288C605.448 190.44 608.008 192.061 610.184 194.152C612.36 196.2 614.045 198.632 615.24 201.448C616.435 204.221 617.032 207.272 617.032 210.6C617.032 213.928 616.435 217 615.24 219.816C614.045 222.632 612.36 225.064 610.184 227.112C608.008 229.16 605.448 230.76 602.504 231.912C599.603 233.064 596.424 233.64 592.968 233.64ZM592.904 226.344C595.165 226.344 597.256 225.96 599.176 225.192C601.096 224.424 602.76 223.336 604.168 221.928C605.576 220.477 606.664 218.813 607.432 216.936C608.243 215.016 608.648 212.904 608.648 210.6C608.648 208.296 608.243 206.205 607.432 204.328C606.664 202.408 605.576 200.744 604.168 199.336C602.76 197.885 601.096 196.776 599.176 196.008C597.256 195.24 595.165 194.856 592.904 194.856C590.643 194.856 588.552 195.24 586.632 196.008C584.755 196.776 583.091 197.885 581.64 199.336C580.232 200.744 579.123 202.408 578.312 204.328C577.544 206.205 577.16 208.296 577.16 210.6C577.16 212.861 577.544 214.952 578.312 216.872C579.123 218.792 580.232 220.477 581.64 221.928C583.048 223.336 584.712 224.424 586.632 225.192C588.552 225.96 590.643 226.344 592.904 226.344ZM642.235 222.44L641.787 212.584L665.275 188.2H674.619L655.099 208.936L650.491 213.992L642.235 222.44ZM634.811 233V188.2H643.131V233H634.811ZM666.043 233L648.891 212.584L654.395 206.504L675.771 233H666.043ZM703.347 233.64C699.848 233.64 696.499 233.149 693.299 232.168C690.099 231.144 687.56 229.843 685.683 228.264L688.563 221.8C690.355 223.208 692.573 224.381 695.219 225.32C697.864 226.259 700.573 226.728 703.347 226.728C705.693 226.728 707.592 226.472 709.043 225.96C710.493 225.448 711.56 224.765 712.243 223.912C712.925 223.016 713.267 222.013 713.267 220.904C713.267 219.539 712.776 218.451 711.795 217.64C710.813 216.787 709.533 216.125 707.955 215.656C706.419 215.144 704.691 214.675 702.771 214.248C700.893 213.821 698.995 213.331 697.075 212.776C695.197 212.179 693.469 211.432 691.891 210.536C690.355 209.597 689.096 208.36 688.115 206.824C687.133 205.288 686.643 203.325 686.643 200.936C686.643 198.504 687.283 196.285 688.563 194.28C689.885 192.232 691.869 190.611 694.515 189.416C697.203 188.179 700.595 187.56 704.691 187.56C707.379 187.56 710.045 187.901 712.691 188.584C715.336 189.267 717.64 190.248 719.603 191.528L716.979 197.992C714.973 196.797 712.904 195.923 710.771 195.368C708.637 194.771 706.589 194.472 704.627 194.472C702.323 194.472 700.445 194.749 698.995 195.304C697.587 195.859 696.541 196.584 695.859 197.48C695.219 198.376 694.899 199.4 694.899 200.552C694.899 201.917 695.368 203.027 696.307 203.88C697.288 204.691 698.547 205.331 700.083 205.8C701.661 206.269 703.411 206.739 705.331 207.208C707.251 207.635 709.149 208.125 711.027 208.68C712.947 209.235 714.675 209.96 716.211 210.856C717.789 211.752 719.048 212.968 719.987 214.504C720.968 216.04 721.459 217.981 721.459 220.328C721.459 222.717 720.797 224.936 719.475 226.984C718.195 228.989 716.211 230.611 713.523 231.848C710.835 233.043 707.443 233.64 703.347 233.64Z" fill="url(#paint1_linear_407_111)"/>
</g>
<defs>
<filter id="filter0_dd_407_111" x="349.324" y="172.56" width="393.135" height="83.08" filterUnits="userSpaceOnUse" color-interpolation-filters="sRGB">
<feFlood flood-opacity="0" result="BackgroundImageFix"/>
<feColorMatrix in="SourceAlpha" type="matrix" values="0 0 0 0 0 0 0 0 0 0 0 0 0 0 0 0 0 0 127 0" result="hardAlpha"/>
<feOffset dx="-5" dy="-2"/>
<feGaussianBlur stdDeviation="6.5"/>
<feComposite in2="hardAlpha" operator="out"/>
<feColorMatrix type="matrix" values="0 0 0 0 0.878431 0 0 0 0 0.172549 0 0 0 0 0.52549 0 0 0 0.2 0"/>
<feBlend mode="normal" in2="BackgroundImageFix" result="effect1_dropShadow_407_111"/>
<feColorMatrix in="SourceAlpha" type="matrix" values="0 0 0 0 0 0 0 0 0 0 0 0 0 0 0 0 0 0 127 0" result="hardAlpha"/>
<feOffset dx="3" dy="4"/>
<feGaussianBlur stdDeviation="9"/>
<feComposite in2="hardAlpha" operator="out"/>
<feColorMatrix type="matrix" values="0 0 0 0 0.0784314 0 0 0 0 0.901961 0 0 0 0 0.862745 0 0 0 0.2 0"/>
<feBlend mode="normal" in2="effect1_dropShadow_407_111" result="effect2_dropShadow_407_111"/>
<feBlend mode="normal" in="SourceGraphic" in2="effect2_dropShadow_407_111" result="shape"/>
</filter>
<linearGradient id="paint0_linear_407_111" x1="2.91892e-06" y1="28.16" x2="967.28" y2="714.929" gradientUnits="userSpaceOnUse">
<stop stop-color="#CB328F"/>
<stop offset="0.2" stop-color="#CB328F"/>
<stop offset="0.4" stop-color="#97238A"/>
<stop offset="0.6" stop-color="#5456AB"/>
<stop offset="0.8" stop-color="#219DDE"/>
<stop offset="1" stop-color="#22DCD9"/>
</linearGradient>
<linearGradient id="paint1_linear_407_111" x1="361" y1="156" x2="677.738" y2="342.548" gradientUnits="userSpaceOnUse">
<stop offset="0.109375" stop-color="#F73E94"/>
<stop offset="0.302083" stop-color="#A51883"/>
<stop offset="0.546875" stop-color="#5C4AA3"/>
<stop offset="0.734375" stop-color="#2599DB"/>
<stop offset="0.963542" stop-color="#22DCD9"/>
</linearGradient>
</defs>
</svg>
