<svg width="1100" height="528" viewBox="0 0 1100 528" fill="none" xmlns="http://www.w3.org/2000/svg">
<rect x="0.5" y="0.5" width="1099" height="527" rx="29.5" fill="#0C0C2D" stroke="url(#paint0_linear_263_171)"/>
<g filter="url(#filter0_dd_263_171)">
<path d="M254.666 411V369H271.946C275.666 369 278.846 369.6 281.486 370.8C284.166 372 286.226 373.72 287.666 375.96C289.106 378.2 289.826 380.86 289.826 383.94C289.826 387.02 289.106 389.68 287.666 391.92C286.226 394.16 284.166 395.88 281.486 397.08C278.846 398.28 275.666 398.88 271.946 398.88H258.986L262.466 395.22V411H254.666ZM262.466 396.06L258.986 392.28H271.586C275.026 392.28 277.606 391.56 279.326 390.12C281.086 388.64 281.966 386.58 281.966 383.94C281.966 381.26 281.086 379.2 279.326 377.76C277.606 376.32 275.026 375.6 271.586 375.6H258.986L262.466 371.76V396.06ZM306.015 411V369H323.295C327.015 369 330.195 369.6 332.835 370.8C335.515 372 337.575 373.72 339.015 375.96C340.455 378.2 341.175 380.86 341.175 383.94C341.175 387.02 340.455 389.68 339.015 391.92C337.575 394.12 335.515 395.82 332.835 397.02C330.195 398.18 327.015 398.76 323.295 398.76H310.335L313.815 395.22V411H306.015ZM333.495 411L322.875 395.76H331.215L341.895 411H333.495ZM313.815 396.06L310.335 392.34H322.935C326.375 392.34 328.955 391.6 330.675 390.12C332.435 388.64 333.315 386.58 333.315 383.94C333.315 381.26 332.435 379.2 330.675 377.76C328.955 376.32 326.375 375.6 322.935 375.6H310.335L313.815 371.76V396.06ZM365.502 386.46H386.382V392.88H365.502V386.46ZM366.102 404.46H389.802V411H358.302V369H388.962V375.54H366.102V404.46ZM419.917 411.6C416.637 411.6 413.497 411.14 410.497 410.22C407.497 409.26 405.117 408.04 403.357 406.56L406.057 400.5C407.737 401.82 409.817 402.92 412.297 403.8C414.777 404.68 417.317 405.12 419.917 405.12C422.117 405.12 423.897 404.88 425.257 404.4C426.617 403.92 427.617 403.28 428.257 402.48C428.897 401.64 429.217 400.7 429.217 399.66C429.217 398.38 428.757 397.36 427.837 396.6C426.917 395.8 425.717 395.18 424.237 394.74C422.797 394.26 421.177 393.82 419.377 393.42C417.617 393.02 415.837 392.56 414.037 392.04C412.277 391.48 410.657 390.78 409.177 389.94C407.737 389.06 406.557 387.9 405.637 386.46C404.717 385.02 404.257 383.18 404.257 380.94C404.257 378.66 404.857 376.58 406.057 374.7C407.297 372.78 409.157 371.26 411.637 370.14C414.157 368.98 417.337 368.4 421.177 368.4C423.697 368.4 426.197 368.72 428.677 369.36C431.157 370 433.317 370.92 435.157 372.12L432.697 378.18C430.817 377.06 428.877 376.24 426.877 375.72C424.877 375.16 422.957 374.88 421.117 374.88C418.957 374.88 417.197 375.14 415.837 375.66C414.517 376.18 413.537 376.86 412.897 377.7C412.297 378.54 411.997 379.5 411.997 380.58C411.997 381.86 412.437 382.9 413.317 383.7C414.237 384.46 415.417 385.06 416.857 385.5C418.337 385.94 419.977 386.38 421.777 386.82C423.577 387.22 425.357 387.68 427.117 388.2C428.917 388.72 430.537 389.4 431.977 390.24C433.457 391.08 434.637 392.22 435.517 393.66C436.437 395.1 436.897 396.92 436.897 399.12C436.897 401.36 436.277 403.44 435.037 405.36C433.837 407.24 431.977 408.76 429.457 409.92C426.937 411.04 423.757 411.6 419.917 411.6ZM466.051 411.6C462.771 411.6 459.631 411.14 456.631 410.22C453.631 409.26 451.251 408.04 449.491 406.56L452.191 400.5C453.871 401.82 455.951 402.92 458.431 403.8C460.911 404.68 463.451 405.12 466.051 405.12C468.251 405.12 470.031 404.88 471.391 404.4C472.751 403.92 473.751 403.28 474.391 402.48C475.031 401.64 475.351 400.7 475.351 399.66C475.351 398.38 474.891 397.36 473.971 396.6C473.051 395.8 471.851 395.18 470.371 394.74C468.931 394.26 467.311 393.82 465.511 393.42C463.751 393.02 461.971 392.56 460.171 392.04C458.411 391.48 456.791 390.78 455.311 389.94C453.871 389.06 452.691 387.9 451.771 386.46C450.851 385.02 450.391 383.18 450.391 380.94C450.391 378.66 450.991 376.58 452.191 374.7C453.431 372.78 455.291 371.26 457.771 370.14C460.291 368.98 463.471 368.4 467.311 368.4C469.831 368.4 472.331 368.72 474.811 369.36C477.291 370 479.451 370.92 481.291 372.12L478.831 378.18C476.951 377.06 475.011 376.24 473.011 375.72C471.011 375.16 469.091 374.88 467.251 374.88C465.091 374.88 463.331 375.14 461.971 375.66C460.651 376.18 459.671 376.86 459.031 377.7C458.431 378.54 458.131 379.5 458.131 380.58C458.131 381.86 458.571 382.9 459.451 383.7C460.371 384.46 461.551 385.06 462.991 385.5C464.471 385.94 466.111 386.38 467.911 386.82C469.711 387.22 471.491 387.68 473.251 388.2C475.051 388.72 476.671 389.4 478.111 390.24C479.591 391.08 480.771 392.22 481.651 393.66C482.571 395.1 483.031 396.92 483.031 399.12C483.031 401.36 482.411 403.44 481.171 405.36C479.971 407.24 478.111 408.76 475.591 409.92C473.071 411.04 469.891 411.6 466.051 411.6ZM524.148 411V369H541.428C545.148 369 548.328 369.6 550.968 370.8C553.648 372 555.708 373.72 557.148 375.96C558.588 378.2 559.308 380.86 559.308 383.94C559.308 387.02 558.588 389.68 557.148 391.92C555.708 394.12 553.648 395.82 550.968 397.02C548.328 398.18 545.148 398.76 541.428 398.76H528.468L531.948 395.22V411H524.148ZM551.628 411L541.008 395.76H549.348L560.028 411H551.628ZM531.948 396.06L528.468 392.34H541.068C544.508 392.34 547.088 391.6 548.808 390.12C550.568 388.64 551.448 386.58 551.448 383.94C551.448 381.26 550.568 379.2 548.808 377.76C547.088 376.32 544.508 375.6 541.068 375.6H528.468L531.948 371.76V396.06ZM583.635 386.46H604.515V392.88H583.635V386.46ZM584.235 404.46H607.935V411H576.435V369H607.095V375.54H584.235V404.46ZM625.03 411V369H632.83V404.4H654.79V411H625.03ZM676.548 386.46H697.428V392.88H676.548V386.46ZM677.148 404.46H700.848V411H669.348V369H700.008V375.54H677.148V404.46ZM712.003 411L730.903 369H738.583L757.543 411H749.383L733.123 373.14H736.243L720.043 411H712.003ZM720.703 401.28L722.803 395.16H745.483L747.583 401.28H720.703ZM784.305 411.6C781.025 411.6 777.885 411.14 774.885 410.22C771.885 409.26 769.505 408.04 767.745 406.56L770.445 400.5C772.125 401.82 774.205 402.92 776.685 403.8C779.165 404.68 781.705 405.12 784.305 405.12C786.505 405.12 788.285 404.88 789.645 404.4C791.005 403.92 792.005 403.28 792.645 402.48C793.285 401.64 793.605 400.7 793.605 399.66C793.605 398.38 793.145 397.36 792.225 396.6C791.305 395.8 790.105 395.18 788.625 394.74C787.185 394.26 785.565 393.82 783.765 393.42C782.005 393.02 780.225 392.56 778.425 392.04C776.665 391.48 775.045 390.78 773.565 389.94C772.125 389.06 770.945 387.9 770.025 386.46C769.105 385.02 768.645 383.18 768.645 380.94C768.645 378.66 769.245 376.58 770.445 374.7C771.685 372.78 773.545 371.26 776.025 370.14C778.545 368.98 781.725 368.4 785.565 368.4C788.085 368.4 790.585 368.72 793.065 369.36C795.545 370 797.705 370.92 799.545 372.12L797.085 378.18C795.205 377.06 793.265 376.24 791.265 375.72C789.265 375.16 787.345 374.88 785.505 374.88C783.345 374.88 781.585 375.14 780.225 375.66C778.905 376.18 777.925 376.86 777.285 377.7C776.685 378.54 776.385 379.5 776.385 380.58C776.385 381.86 776.825 382.9 777.705 383.7C778.625 384.46 779.805 385.06 781.245 385.5C782.725 385.94 784.365 386.38 786.165 386.82C787.965 387.22 789.745 387.68 791.505 388.2C793.305 388.72 794.925 389.4 796.365 390.24C797.845 391.08 799.025 392.22 799.905 393.66C800.825 395.1 801.285 396.92 801.285 399.12C801.285 401.36 800.665 403.44 799.425 405.36C798.225 407.24 796.365 408.76 793.845 409.92C791.325 411.04 788.145 411.6 784.305 411.6ZM824.619 386.46H845.499V392.88H824.619V386.46ZM825.219 404.46H848.919V411H817.419V369H848.079V375.54H825.219V404.46Z" fill="url(#paint1_linear_263_171)"/>
</g>
<path d="M843.508 63.3966C838.031 71.4044 831.299 79.6096 828.012 82.3164L827.508 82.7253L827.36 84.6426C827.286 85.6859 827.188 87.5187 827.138 88.7029C827.101 89.8872 827.052 90.8318 827.028 90.8177C827.015 90.7895 826.806 89.2246 826.548 87.3213C826.301 85.418 826.08 83.8531 826.055 83.825C826.043 83.7968 825.834 83.9659 825.612 84.1915C824.664 85.122 821.994 87.5187 820.209 89.0413C814.843 93.6091 810.584 96.4851 807.187 97.8245C807.089 97.8668 807.249 98.191 807.642 98.7549C809.464 101.349 810.313 105.141 810.006 109.3C809.882 110.893 809.501 113.431 809.292 114.051C809.144 114.488 814.276 109.907 817.624 106.608C823.077 101.222 828.148 95.1035 831.926 89.3373C832.936 87.8147 833.182 87.5892 832.32 88.9708C829.231 93.9898 825.994 98.3038 821.723 103.125C818.264 107.031 814.584 110.569 809.119 115.25C806.362 117.618 805.784 118.112 806.03 117.985C806.104 117.943 806.178 117.943 806.178 117.985C806.178 118.027 805.981 118.168 805.735 118.281C805.488 118.394 803.372 120.057 801.021 121.975C798.67 123.892 794.891 126.853 792.602 128.559C787.063 132.689 781.5 137.144 776.331 141.571C768.072 148.648 762.176 155.021 756.712 162.789C756.342 163.311 756.01 163.734 755.985 163.734C755.961 163.734 755.985 163.649 756.047 163.55C756.108 163.466 756.675 162.62 757.278 161.689C762.915 153.16 770.078 145.533 780.614 136.792C783.482 134.423 783.186 134.959 783.654 131.35C783.999 128.784 784.122 123.737 783.912 121.636C783.752 120.001 783.42 118.027 783.272 117.759C783.051 117.35 781.857 118.126 779.174 120.438C773.044 125.725 765.241 134.17 763.013 137.934C755.579 150.481 750.607 162.281 748.441 172.474C748.219 173.518 748.022 174.406 748.01 174.434C747.985 174.462 747.788 174.237 747.567 173.955C747.062 173.278 746.557 173.038 745.683 173.038C745.093 173.038 743.8 173.419 743.308 173.729C743.222 173.786 743.616 173.8 744.207 173.772C745.499 173.687 746.151 173.941 746.779 174.73C747.493 175.647 747.604 176.605 747.284 179.171C747.185 179.947 747.099 180.666 747.099 180.778C747.099 180.919 746.988 180.863 746.754 180.623C746.299 180.102 745.856 179.947 744.945 179.947C742.914 179.947 741.326 181.624 741.314 183.753C741.314 184.909 741.474 185.022 741.733 184.049C742.065 182.794 742.533 182.019 743.222 181.638C744.576 180.891 745.77 181.934 745.77 183.866C745.757 184.486 745.61 185.135 745.068 186.77C743.813 190.619 742.963 194.002 742.176 198.246L741 211.867C741.578 213.15 744.17 204.748 744.207 204.692C744.256 204.635 744.17 204.139 744.243 203.632C745.351 195.835 746.065 191.507 746.557 189.59C748.293 182.696 750.951 176.126 754.693 169.415C755.407 168.146 756.035 167.089 756.096 167.033C756.17 166.99 755.973 167.385 755.678 167.921C753.905 171.093 751.554 176.267 750.262 179.862C749.881 180.933 749.573 181.836 749.585 181.85C749.61 181.878 750.508 180.933 751.591 179.777C753.77 177.437 755.752 175.477 757.992 173.447C763.752 168.231 772.724 161.027 776.331 158.729C776.811 158.419 778.029 157.403 779.051 156.459C784.368 151.553 790.091 147.225 796.504 143.277L799.187 141.628L798.473 141.501C797.414 141.331 792.343 141.388 790.546 141.585C787.691 141.895 783.063 142.657 780.454 143.235C780.22 143.291 780.048 143.291 780.085 143.263C780.171 143.15 787.285 141.458 791.1 140.627C796.688 139.414 800.787 138.737 803.568 138.554L805.095 138.455L808.307 136.172C813.033 132.844 822.609 125.95 824.431 124.583C827.803 122.045 830.609 119.395 833.502 115.997C835.373 113.798 836.899 111.753 836.776 111.612C836.468 111.26 832.776 111.19 830.302 111.5C824.664 112.176 816.48 114.319 809.267 116.998C808.553 117.266 807.95 117.463 807.925 117.421C807.802 117.28 808.676 116.857 811.039 115.898C821.846 111.514 830.782 108.934 836.825 108.454C837.945 108.356 838.929 108.215 839.016 108.144C839.286 107.905 841.046 104.817 841.686 103.464C842.942 100.827 843.988 97.7963 844.653 94.8075C844.985 93.313 845.047 92.8901 844.924 92.7914C844.653 92.6081 842.006 92.6645 840.763 92.8901C837.108 93.5668 832.899 95.2586 828.025 98.0077C826.745 98.7267 825.748 99.2625 825.809 99.1779C826.252 98.6703 833.994 93.9898 836.825 92.5235C838.942 91.438 841.022 90.4934 842.634 89.9013C843.902 89.436 844.074 89.3373 844.136 89.0131C844.173 88.8157 844.394 87.702 844.64 86.5459C845.182 83.9095 845.748 80.0889 845.994 77.3961C846.228 74.7739 846.24 70.347 845.994 68.5707C845.847 67.4146 844.677 62.156 844.542 62.0009C844.517 61.9727 844.05 62.6071 843.508 63.3966ZM839.114 76.7053C838.536 78.0024 837.576 80.0607 836.96 81.2873C835.816 83.5712 833.797 87.279 833.612 87.4059C833.551 87.4341 833.92 86.7292 834.412 85.8128C835.533 83.7404 838.585 77.5935 839.446 75.6621C839.791 74.8726 840.099 74.2522 840.123 74.2804C840.148 74.3086 839.693 75.3942 839.114 76.7053ZM779.925 143.376C779.888 143.418 779.777 143.432 779.691 143.39C779.592 143.348 779.629 143.305 779.765 143.305C779.9 143.291 779.974 143.333 779.925 143.376ZM755.961 163.931C755.961 163.959 755.862 164.072 755.752 164.171C755.555 164.354 755.542 164.34 755.702 164.114C755.862 163.889 755.961 163.818 755.961 163.931Z" fill="url(#paint2_linear_263_171)"/>
<path d="M799.761 103.651C796.93 105.949 792.696 109.389 790.345 111.292L786.05 114.746V119.751C786.05 123.868 786.013 125.038 785.828 126.349C785.41 129.38 784.696 131.989 783.846 133.61C783.613 134.047 783.44 134.414 783.477 134.414C783.502 134.414 784.363 133.765 785.385 132.961C786.407 132.158 790.345 129.113 794.148 126.208C801.705 120.414 803.81 118.764 806.986 116.142L809.09 114.408L809.177 112.604C809.361 108.67 808.795 104.342 807.81 102.072C807.232 100.761 805.853 99.4217 805.115 99.464C804.992 99.464 802.579 101.353 799.761 103.651Z" fill="url(#paint3_linear_263_171)"/>
<path d="M492.016 295.18C490.144 295.18 488.368 294.868 486.688 294.244C485.032 293.596 483.748 292.768 482.836 291.76L483.664 290.392C484.528 291.28 485.704 292.036 487.192 292.66C488.704 293.26 490.3 293.56 491.98 293.56C493.66 293.56 495.028 293.344 496.084 292.912C497.164 292.456 497.956 291.856 498.46 291.112C498.988 290.368 499.252 289.54 499.252 288.628C499.252 287.548 498.964 286.684 498.388 286.036C497.812 285.388 497.056 284.872 496.12 284.488C495.184 284.104 494.164 283.78 493.06 283.516C491.956 283.252 490.84 282.976 489.712 282.688C488.584 282.376 487.552 281.98 486.616 281.5C485.68 281.02 484.924 280.372 484.348 279.556C483.796 278.716 483.52 277.636 483.52 276.316C483.52 275.116 483.832 274.012 484.456 273.004C485.08 271.996 486.052 271.18 487.372 270.556C488.692 269.932 490.384 269.62 492.448 269.62C493.84 269.62 495.208 269.824 496.552 270.232C497.92 270.64 499.084 271.192 500.044 271.888L499.36 273.364C498.304 272.644 497.164 272.116 495.94 271.78C494.74 271.42 493.576 271.24 492.448 271.24C490.84 271.24 489.508 271.468 488.452 271.924C487.396 272.38 486.616 272.992 486.112 273.76C485.608 274.504 485.356 275.344 485.356 276.28C485.356 277.36 485.632 278.224 486.184 278.872C486.76 279.52 487.516 280.036 488.452 280.42C489.388 280.804 490.42 281.128 491.548 281.392C492.676 281.656 493.792 281.944 494.896 282.256C496 282.544 497.02 282.928 497.956 283.408C498.892 283.888 499.648 284.536 500.224 285.352C500.8 286.168 501.088 287.224 501.088 288.52C501.088 289.696 500.764 290.8 500.116 291.832C499.468 292.84 498.472 293.656 497.128 294.28C495.808 294.88 494.104 295.18 492.016 295.18ZM512.729 295V269.8H521.766C523.878 269.8 525.69 270.136 527.202 270.808C528.714 271.48 529.878 272.452 530.694 273.724C531.51 274.972 531.918 276.496 531.918 278.296C531.918 280.048 531.51 281.56 530.694 282.832C529.878 284.104 528.714 285.076 527.202 285.748C525.69 286.42 523.878 286.756 521.766 286.756H513.737L514.565 285.892V295H512.729ZM514.565 286L513.737 285.1H521.766C524.478 285.1 526.53 284.512 527.922 283.336C529.338 282.136 530.046 280.456 530.046 278.296C530.046 276.112 529.338 274.432 527.922 273.256C526.53 272.056 524.478 271.456 521.766 271.456H513.737L514.565 270.556V286ZM545.132 281.392H558.776V283.012H545.132V281.392ZM545.348 293.344H560.9V295H543.512V269.8H560.36V271.456H545.348V293.344ZM583.545 295.18C581.673 295.18 579.933 294.868 578.325 294.244C576.741 293.596 575.361 292.696 574.185 291.544C573.009 290.392 572.097 289.048 571.449 287.512C570.801 285.952 570.477 284.248 570.477 282.4C570.477 280.552 570.801 278.86 571.449 277.324C572.097 275.764 573.009 274.408 574.185 273.256C575.385 272.104 576.777 271.216 578.361 270.592C579.945 269.944 581.673 269.62 583.545 269.62C585.321 269.62 586.977 269.908 588.513 270.484C590.073 271.06 591.405 271.936 592.509 273.112L591.357 274.3C590.277 273.244 589.077 272.488 587.757 272.032C586.461 271.552 585.081 271.312 583.617 271.312C582.009 271.312 580.509 271.588 579.117 272.14C577.749 272.692 576.549 273.472 575.517 274.48C574.509 275.488 573.717 276.664 573.141 278.008C572.589 279.352 572.313 280.816 572.313 282.4C572.313 283.984 572.589 285.448 573.141 286.792C573.717 288.136 574.509 289.312 575.517 290.32C576.549 291.328 577.749 292.108 579.117 292.66C580.509 293.212 582.009 293.488 583.617 293.488C585.081 293.488 586.461 293.26 587.757 292.804C589.077 292.324 590.277 291.544 591.357 290.464L592.509 291.652C591.405 292.828 590.073 293.716 588.513 294.316C586.977 294.892 585.321 295.18 583.545 295.18ZM608.566 295V271.456H599.494V269.8H619.474V271.456H610.402V295H608.566ZM629.427 295V269.8H638.463C640.575 269.8 642.387 270.136 643.899 270.808C645.411 271.48 646.575 272.452 647.391 273.724C648.207 274.972 648.615 276.496 648.615 278.296C648.615 280.048 648.207 281.56 647.391 282.832C646.575 284.08 645.411 285.052 643.899 285.748C642.387 286.42 640.575 286.756 638.463 286.756H630.435L631.263 285.892V295H629.427ZM646.923 295L640.371 285.856H642.459L649.011 295H646.923ZM631.263 286L630.435 285.136H638.463C641.175 285.136 643.227 284.536 644.619 283.336C646.035 282.136 646.743 280.456 646.743 278.296C646.743 276.112 646.035 274.432 644.619 273.256C643.227 272.056 641.175 271.456 638.463 271.456H630.435L631.263 270.556V286ZM670.601 295.18C667.481 295.18 665.021 294.268 663.221 292.444C661.421 290.62 660.521 287.908 660.521 284.308V269.8H662.357V284.236C662.357 287.38 663.077 289.708 664.517 291.22C665.957 292.732 667.997 293.488 670.637 293.488C673.253 293.488 675.281 292.732 676.721 291.22C678.161 289.708 678.881 287.38 678.881 284.236V269.8H680.717V284.308C680.717 287.908 679.817 290.62 678.017 292.444C676.217 294.268 673.745 295.18 670.601 295.18ZM694.684 295V269.8H696.232L707.932 289.996H707.104L718.768 269.8H720.28L720.316 295H718.516L718.48 272.572H718.984L707.932 291.652H707.032L695.944 272.572H696.484V295H694.684ZM739.434 295L731.082 269.8H735.942L743.394 292.588H740.982L748.722 269.8H753.042L760.566 292.588H758.226L765.858 269.8H770.322L761.97 295H757.002L750.126 274.444H751.422L744.438 295H739.434ZM779.535 295V269.8H784.215V295H779.535ZM804.243 295.36C802.275 295.36 800.391 295.084 798.591 294.532C796.791 293.956 795.363 293.224 794.307 292.336L795.927 288.7C796.935 289.492 798.183 290.152 799.671 290.68C801.159 291.208 802.683 291.472 804.243 291.472C805.563 291.472 806.631 291.328 807.447 291.04C808.263 290.752 808.863 290.368 809.247 289.888C809.631 289.384 809.823 288.82 809.823 288.196C809.823 287.428 809.547 286.816 808.995 286.36C808.443 285.88 807.723 285.508 806.835 285.244C805.971 284.956 804.999 284.692 803.919 284.452C802.863 284.212 801.795 283.936 800.715 283.624C799.659 283.288 798.687 282.868 797.799 282.364C796.935 281.836 796.227 281.14 795.675 280.276C795.123 279.412 794.847 278.308 794.847 276.964C794.847 275.596 795.207 274.348 795.927 273.22C796.671 272.068 797.787 271.156 799.275 270.484C800.787 269.788 802.695 269.44 804.999 269.44C806.511 269.44 808.011 269.632 809.499 270.016C810.987 270.4 812.283 270.952 813.387 271.672L811.911 275.308C810.783 274.636 809.619 274.144 808.419 273.832C807.219 273.496 806.067 273.328 804.963 273.328C803.667 273.328 802.611 273.484 801.795 273.796C801.003 274.108 800.415 274.516 800.031 275.02C799.671 275.524 799.491 276.1 799.491 276.748C799.491 277.516 799.755 278.14 800.283 278.62C800.835 279.076 801.543 279.436 802.407 279.7C803.295 279.964 804.279 280.228 805.359 280.492C806.439 280.732 807.507 281.008 808.563 281.32C809.643 281.632 810.615 282.04 811.479 282.544C812.367 283.048 813.075 283.732 813.603 284.596C814.155 285.46 814.431 286.552 814.431 287.872C814.431 289.216 814.059 290.464 813.315 291.616C812.595 292.744 811.479 293.656 809.967 294.352C808.455 295.024 806.547 295.36 804.243 295.36ZM828.791 280.276H841.319V284.128H828.791V280.276ZM829.151 291.076H843.371V295H824.471V269.8H842.867V273.724H829.151V291.076Z" fill="#F9F6F6"/>
<path d="M264.8 145.4C265.8 142.8 269.6 144.6 268.4 146.6C263.4 157 275.2 178.6 305.4 184C308.8 184.6 312.4 185 316 185C329.2 146 349.2 110.2 371.6 118.8C385.2 124.2 384.8 149 369.6 165.6C355.8 180.6 338.2 186.8 323 188L319.4 199.6C313.6 219.2 302.8 237.6 291.4 249.8C301 251.4 311.6 254.2 322.8 257.6C350 265.8 367.8 273 383 273.6C399.8 274 403.8 269.4 404.8 261.2C405.2 258 410 259.2 409.2 261.8C406.2 271.4 398.8 275 388.4 275.4C367.6 276.4 347.8 272 322.6 264C309.6 259.8 297.4 256.2 287.2 254C282 258.8 276.8 262 272.2 263.4C263.6 265.8 256.4 262.4 256.4 256.8C256.4 247.6 269 246.2 287.2 249C296.8 236.6 306.4 217 312.2 197.2L315 188.2C311.4 188.2 308 187.8 305 187.2C274 181.6 259.4 156.8 264.8 145.4ZM258.4 256.8C258.4 261.4 264.2 263.8 271.8 261.6C275.4 260.6 279.4 257.6 283.6 253.2C268.4 250.2 258.4 250.6 258.4 256.8ZM324.2 184.4C337.2 182.6 351.2 176.4 363.8 162.6C378.6 146.2 380.2 124.2 370.8 120.6C354.2 114.2 336.8 147 324.2 184.4Z" fill="#F9F6F6"/>
<path d="M392.8 180.4C390.933 180.4 389.8 179.267 389.4 177C389.267 175.933 389.933 174.867 391.4 173.8C392.867 172.733 394.067 172 395 171.6C395.667 171.333 396.2 171.133 396.6 171C397 170.867 397.333 170.8 397.6 170.8C398.533 170.8 399 171.267 399 172.2C399 173.267 398.6 174.533 397.8 176C397.133 177.467 396.8 178.2 396.8 178.2C396.667 178.733 396.2 179.267 395.4 179.8C394.6 180.2 393.733 180.4 392.8 180.4ZM372.8 239.4C370.4 239.4 368.667 238.6 367.6 237C366.533 235.4 366 233.4 366 231C366 229.133 366.2 227.333 366.6 225.6C366.867 224.8 367.533 222.8 368.6 219.6C369.8 216.4 371.333 212.867 373.2 209C375.2 205.133 377.333 201.8 379.6 199C381.867 196.067 384.2 194.6 386.6 194.6C387.667 194.6 388.2 194.867 388.2 195.4C388.2 195.933 387.933 196.467 387.4 197C384.733 200.2 382.2 204 379.8 208.4C377.533 212.667 375.6 216.733 374 220.6C372.533 224.467 371.667 227.4 371.4 229.4C371 233.667 372.267 235.8 375.2 235.8C375.6 235.8 376 235.8 376.4 235.8C376.8 235.667 377.267 235.533 377.8 235.4C380.6 234.467 383.333 232.733 386 230.2C388.667 227.667 391.133 224.867 393.4 221.8C395.667 218.733 397.533 216.067 399 213.8C399.533 213.267 399.867 213 400 213C400.4 213 400.6 213.333 400.6 214C400.6 214.667 400.4 215.333 400 216C397.067 220.533 393.6 225 389.6 229.4C385.733 233.8 381.867 236.733 378 238.2C376 239 374.267 239.4 372.8 239.4ZM400.13 239.4C397.73 239.4 395.996 238.6 394.93 237C393.863 235.4 393.33 233.4 393.33 231C393.33 229.133 393.53 227.333 393.93 225.6C394.33 223.733 395.596 220.667 397.73 216.4C399.863 212 402.196 207.4 404.73 202.6C403.396 203.133 401.93 203.733 400.33 204.4C398.863 204.933 397.796 205.533 397.13 206.2C396.596 206.467 396.263 206.6 396.13 206.6C395.73 206.6 395.53 206.333 395.53 205.8C395.53 204.6 396.263 203.467 397.73 202.4C399.196 201.333 400.596 200.6 401.93 200.2C403.396 199.8 405.063 199.333 406.93 198.8C408.396 196.133 409.93 193.4 411.53 190.6C413.263 187.667 414.796 185.133 416.13 183C417.063 181.667 418.396 180 420.13 178C421.863 175.867 423.796 174.133 425.93 172.8C427.13 172 428.73 171.6 430.73 171.6C432.196 171.6 432.996 171.867 433.13 172.4C431.13 172.933 429.063 174.267 426.93 176.4C424.93 178.533 422.996 181 421.13 183.8C419.263 186.6 417.663 189.267 416.33 191.8C414.996 194.2 413.996 196.067 413.33 197.4C416.13 197 418.463 196.8 420.33 196.8C421.396 196.8 422.33 196.867 423.13 197C423.93 197 424.596 197.067 425.13 197.2C426.196 197.333 426.73 197.667 426.73 198.2C426.73 198.733 426.063 199 424.73 199C423.663 199 422.396 199 420.93 199C419.596 199 418.13 199.133 416.53 199.4C415.33 199.533 414.063 199.933 412.73 200.6C411.53 201.267 410.73 202 410.33 202.8C407.396 208.133 404.796 213.267 402.53 218.2C400.263 223.133 398.996 226.867 398.73 229.4C398.33 233.667 399.596 235.8 402.53 235.8C405.463 235.8 408.396 234.533 411.33 232C414.396 229.333 417.263 226.267 419.93 222.8C422.596 219.333 424.73 216.4 426.33 214C426.863 213.467 427.196 213.2 427.33 213.2C427.73 213.2 427.93 213.533 427.93 214.2C427.93 214.733 427.73 215.333 427.33 216C425.063 219.467 422.463 223 419.53 226.6C416.596 230.2 413.463 233.267 410.13 235.8C406.93 238.2 403.596 239.4 400.13 239.4ZM439.273 239.6C433.807 239.6 429.807 238.4 427.273 236C424.74 233.467 423.473 230.133 423.473 226C423.473 224.933 423.54 223.867 423.673 222.8C423.94 221.6 424.207 220.4 424.473 219.2C425.14 216.8 426.207 214 427.673 210.8C429.273 207.6 431.207 204.467 433.473 201.4C435.74 198.333 438.207 195.8 440.873 193.8C443.54 191.8 446.34 190.8 449.273 190.8C451.673 190.8 453.473 191.667 454.673 193.4C456.007 195.133 456.673 197.2 456.673 199.6C456.673 202.133 455.873 204.733 454.273 207.4C452.807 209.933 450.807 212 448.273 213.6C445.34 215.6 442.007 216.6 438.273 216.6C435.873 216.6 433.673 216.133 431.673 215.2C429.673 219.2 428.673 223.133 428.673 227C428.673 229.8 429.473 232.2 431.073 234.2C432.673 236.2 435.34 237.2 439.073 237.2C443.607 237.2 447.607 236.133 451.073 234C454.54 231.733 457.74 228.8 460.673 225.2C463.74 221.6 466.673 217.733 469.473 213.6C469.873 213.2 470.14 213 470.273 213C470.673 213 470.873 213.333 470.873 214C470.873 214.667 470.673 215.333 470.273 216C467.873 219.733 465.14 223.4 462.073 227C459.14 230.6 455.807 233.6 452.073 236C448.34 238.4 444.073 239.6 439.273 239.6ZM436.273 213.8C439.74 213.8 443.007 212.6 446.073 210.2C447.54 209.133 448.807 207.867 449.873 206.4C450.94 204.933 451.673 203.467 452.073 202C452.473 200.533 452.673 199.267 452.673 198.2C452.673 195.133 451.54 193.6 449.273 193.6C447.807 193.6 446.14 194.467 444.273 196.2C442.673 197.667 441.007 199.533 439.273 201.8C437.673 204.067 436.273 206.267 435.073 208.4C433.873 210.4 433.073 211.867 432.673 212.8C433.607 213.467 434.807 213.8 436.273 213.8ZM485.242 239.2C482.976 239.2 481.176 238.467 479.842 237C478.642 235.4 478.042 233.533 478.042 231.4C478.042 229.4 478.509 227.467 479.442 225.6C480.909 222.533 482.776 219.533 485.042 216.6C487.442 213.533 489.642 210.867 491.642 208.6C492.976 206.867 493.642 205.4 493.642 204.2C493.642 202.6 492.642 201 490.642 199.4C489.042 198.333 487.576 196.933 486.242 195.2C485.309 193.867 484.642 192.533 484.242 191.2C482.109 195.6 479.376 200.733 476.042 206.6C472.842 212.333 469.509 217.467 466.042 222C465.509 222.8 464.976 223.2 464.442 223.2C464.042 223.2 463.842 222.933 463.842 222.4C463.842 222.133 463.909 221.867 464.042 221.6C464.176 221.333 464.576 220.733 465.242 219.8C468.709 215 471.509 210.533 473.642 206.4C475.776 202.267 477.642 198.4 479.242 194.8L483.642 185C483.776 184.733 483.909 184.4 484.042 184C484.309 183.467 484.509 183.133 484.642 183C484.909 182.733 485.176 182.6 485.442 182.6C485.976 182.6 486.376 182.867 486.642 183.4C486.909 183.933 486.909 184.6 486.642 185.4C486.376 186.867 486.576 188.333 487.242 189.8C487.909 191.267 488.776 192.6 489.842 193.8C490.909 194.867 492.442 195.867 494.442 196.8C496.442 197.733 498.242 198.8 499.842 200C501.442 201.2 502.042 202.733 501.642 204.6C501.109 207.133 499.709 209.6 497.442 212C495.176 214.4 492.909 216.933 490.642 219.6C489.042 221.333 487.576 223.067 486.242 224.8C485.042 226.533 484.109 228.333 483.442 230.2C483.309 230.6 483.176 231 483.042 231.4C483.042 231.8 483.042 232.2 483.042 232.6C483.042 235 484.309 236.2 486.842 236.2C487.642 236.2 488.642 236 489.842 235.6C493.176 234.4 496.242 232.4 499.042 229.6C501.976 226.8 504.442 224 506.442 221.2C508.576 218.4 509.976 216.467 510.642 215.4C511.709 213.8 512.376 213 512.642 213C513.042 213 513.242 213.333 513.242 214C513.242 214.667 513.042 215.333 512.642 216C509.709 220.667 506.376 225.067 502.642 229.2C498.909 233.333 494.909 236.267 490.642 238C488.642 238.8 486.842 239.2 485.242 239.2ZM543.625 239.4C541.225 239.4 539.425 238.6 538.225 237C537.158 235.4 536.625 233.333 536.625 230.8C536.625 229.067 536.825 227.333 537.225 225.6C537.358 225.333 537.558 224.733 537.825 223.8C538.092 222.733 538.492 221.533 539.025 220.2C537.158 223.133 534.758 226.4 531.825 230C529.025 233.467 525.892 236.067 522.425 237.8C520.425 238.733 518.425 239.2 516.425 239.2C513.758 239.2 511.625 238.2 510.025 236.2C508.425 234.067 507.625 231.133 507.625 227.4C507.625 224.333 508.292 221.067 509.625 217.6C510.958 214 512.892 210.333 515.425 206.6C517.025 204.2 519.092 201.867 521.625 199.6C524.158 197.333 526.892 195.467 529.825 194C532.758 192.533 535.558 191.8 538.225 191.8C540.892 191.8 543.158 192.533 545.025 194C546.892 195.467 547.892 197.667 548.025 200.6C548.025 201 547.825 201.333 547.425 201.6C547.158 201.733 546.892 201.533 546.625 201C545.025 197.4 542.425 195.6 538.825 195.6C536.425 195.6 533.892 196.733 531.225 199C528.558 201.133 525.958 203.867 523.425 207.2C520.892 210.533 518.692 213.867 516.825 217.2C515.225 220.133 514.025 222.8 513.225 225.2C512.558 227.6 512.225 229.667 512.225 231.4C512.225 235 513.625 236.8 516.425 236.8C517.892 236.8 519.492 236.333 521.225 235.4C522.825 234.467 524.758 232.8 527.025 230.4C529.425 228 531.758 225.333 534.025 222.4C536.425 219.467 538.558 216.6 540.425 213.8C542.425 211 543.892 208.8 544.825 207.2C546.825 203.867 548.892 200.933 551.025 198.4C553.158 195.867 555.292 194.6 557.425 194.6C558.492 194.6 559.025 194.867 559.025 195.4C559.025 195.933 558.758 196.467 558.225 197C555.558 200.2 553.025 204 550.625 208.4C548.358 212.667 546.425 216.733 544.825 220.6C543.358 224.467 542.492 227.4 542.225 229.4C541.825 233.667 543.092 235.8 546.025 235.8C546.425 235.8 546.825 235.8 547.225 235.8C547.625 235.667 548.092 235.533 548.625 235.4C551.425 234.467 554.158 232.733 556.825 230.2C559.492 227.667 561.958 224.933 564.225 222C566.492 218.933 568.358 216.267 569.825 214C570.225 213.467 570.558 213.2 570.825 213.2C571.225 213.2 571.425 213.533 571.425 214.2C571.425 214.6 571.225 215.133 570.825 215.8C569.892 217.133 569.025 218.467 568.225 219.8C567.425 221 566.625 222.133 565.825 223.2C565.558 223.733 565.225 224.2 564.825 224.6C564.425 225 564.025 225.467 563.625 226C561.892 228.133 559.625 230.467 556.825 233C554.158 235.4 551.492 237.133 548.825 238.2C546.825 239 545.092 239.4 543.625 239.4ZM571.028 239.4C568.628 239.4 566.895 238.6 565.828 237C564.761 235.4 564.228 233.4 564.228 231C564.228 229.133 564.428 227.333 564.828 225.6C565.228 223.733 566.495 220.667 568.628 216.4C570.761 212 573.095 207.4 575.628 202.6C574.295 203.133 572.828 203.733 571.228 204.4C569.761 204.933 568.695 205.533 568.028 206.2C567.495 206.467 567.161 206.6 567.028 206.6C566.628 206.6 566.428 206.333 566.428 205.8C566.428 204.6 567.161 203.467 568.628 202.4C570.095 201.333 571.495 200.6 572.828 200.2C574.295 199.8 575.961 199.333 577.828 198.8C579.295 196.133 580.828 193.4 582.428 190.6C584.161 187.667 585.695 185.133 587.028 183C587.961 181.667 589.295 180 591.028 178C592.761 175.867 594.695 174.133 596.828 172.8C598.028 172 599.628 171.6 601.628 171.6C603.095 171.6 603.895 171.867 604.028 172.4C602.028 172.933 599.961 174.267 597.828 176.4C595.828 178.533 593.895 181 592.028 183.8C590.161 186.6 588.561 189.267 587.228 191.8C585.895 194.2 584.895 196.067 584.228 197.4C587.028 197 589.361 196.8 591.228 196.8C592.295 196.8 593.228 196.867 594.028 197C594.828 197 595.495 197.067 596.028 197.2C597.095 197.333 597.628 197.667 597.628 198.2C597.628 198.733 596.961 199 595.628 199C594.561 199 593.295 199 591.828 199C590.495 199 589.028 199.133 587.428 199.4C586.228 199.533 584.961 199.933 583.628 200.6C582.428 201.267 581.628 202 581.228 202.8C578.295 208.133 575.695 213.267 573.428 218.2C571.161 223.133 569.895 226.867 569.628 229.4C569.228 233.667 570.495 235.8 573.428 235.8C576.361 235.8 579.295 234.533 582.228 232C585.295 229.333 588.161 226.267 590.828 222.8C593.495 219.333 595.628 216.4 597.228 214C597.761 213.467 598.095 213.2 598.228 213.2C598.628 213.2 598.828 213.533 598.828 214.2C598.828 214.733 598.628 215.333 598.228 216C595.961 219.467 593.361 223 590.428 226.6C587.495 230.2 584.361 233.267 581.028 235.8C577.828 238.2 574.495 239.4 571.028 239.4ZM598.972 239.4C596.572 239.4 594.839 238.6 593.772 237C592.705 235.4 592.172 233.4 592.172 231C592.172 229.133 592.372 227.333 592.772 225.6C593.039 224.8 593.705 222.8 594.772 219.6C595.972 216.4 597.505 212.867 599.372 209C601.372 205.133 603.505 201.8 605.772 199C608.039 196.067 610.372 194.6 612.772 194.6C613.839 194.6 614.372 194.867 614.372 195.4C614.372 195.933 614.105 196.467 613.572 197C610.905 200.2 608.372 204 605.972 208.4C603.705 212.667 601.772 216.733 600.172 220.6C598.705 224.467 597.839 227.4 597.572 229.4C597.172 233.667 598.439 235.8 601.372 235.8C603.905 235.8 606.572 234.667 609.372 232.4C612.305 230 615.105 227 617.772 223.4C620.572 219.667 622.972 215.8 624.972 211.8C627.105 207.667 629.439 203.8 631.972 200.2C634.505 196.467 637.105 194.6 639.772 194.6C640.839 194.6 641.372 194.867 641.372 195.4C641.372 195.933 641.105 196.467 640.572 197C637.905 200.2 635.372 204 632.972 208.4C630.705 212.667 628.772 216.733 627.172 220.6C625.705 224.467 624.839 227.4 624.572 229.4C624.172 233.667 625.439 235.8 628.372 235.8C631.305 235.8 634.305 234.467 637.372 231.8C640.439 229.133 643.305 226.067 645.972 222.6C648.639 219.133 650.772 216.2 652.372 213.8C652.905 213.267 653.239 213 653.372 213C653.772 213 653.972 213.333 653.972 214C653.972 214.533 653.772 215.133 653.372 215.8C651.239 219.267 648.639 222.867 645.572 226.6C642.639 230.2 639.505 233.267 636.172 235.8C632.839 238.2 629.439 239.4 625.972 239.4C623.572 239.4 621.839 238.6 620.772 237C619.705 235.4 619.172 233.4 619.172 231C619.172 229.133 619.372 227.333 619.772 225.6L620.172 223.8C617.639 227.133 614.972 230.133 612.172 232.8C609.505 235.467 606.839 237.267 604.172 238.2C602.172 239 600.439 239.4 598.972 239.4ZM668.25 239.2C665.983 239.2 664.183 238.467 662.85 237C661.65 235.4 661.05 233.533 661.05 231.4C661.05 229.4 661.517 227.467 662.45 225.6C663.917 222.533 665.783 219.533 668.05 216.6C670.45 213.533 672.65 210.867 674.65 208.6C675.983 206.867 676.65 205.4 676.65 204.2C676.65 202.6 675.65 201 673.65 199.4C672.05 198.333 670.583 196.933 669.25 195.2C668.317 193.867 667.65 192.533 667.25 191.2C665.117 195.6 662.383 200.733 659.05 206.6C655.85 212.333 652.517 217.467 649.05 222C648.517 222.8 647.983 223.2 647.45 223.2C647.05 223.2 646.85 222.933 646.85 222.4C646.85 222.133 646.917 221.867 647.05 221.6C647.183 221.333 647.583 220.733 648.25 219.8C651.717 215 654.517 210.533 656.65 206.4C658.783 202.267 660.65 198.4 662.25 194.8L666.65 185C666.783 184.733 666.917 184.4 667.05 184C667.317 183.467 667.517 183.133 667.65 183C667.917 182.733 668.183 182.6 668.45 182.6C668.983 182.6 669.383 182.867 669.65 183.4C669.917 183.933 669.917 184.6 669.65 185.4C669.383 186.867 669.583 188.333 670.25 189.8C670.917 191.267 671.783 192.6 672.85 193.8C673.917 194.867 675.45 195.867 677.45 196.8C679.45 197.733 681.25 198.8 682.85 200C684.45 201.2 685.05 202.733 684.65 204.6C684.117 207.133 682.717 209.6 680.45 212C678.183 214.4 675.917 216.933 673.65 219.6C672.05 221.333 670.583 223.067 669.25 224.8C668.05 226.533 667.117 228.333 666.45 230.2C666.317 230.6 666.183 231 666.05 231.4C666.05 231.8 666.05 232.2 666.05 232.6C666.05 235 667.317 236.2 669.85 236.2C670.65 236.2 671.65 236 672.85 235.6C676.183 234.4 679.25 232.4 682.05 229.6C684.983 226.8 687.45 224 689.45 221.2C691.583 218.4 692.983 216.467 693.65 215.4C694.717 213.8 695.383 213 695.65 213C696.05 213 696.25 213.333 696.25 214C696.25 214.667 696.05 215.333 695.65 216C692.717 220.667 689.383 225.067 685.65 229.2C681.917 233.333 677.917 236.267 673.65 238C671.65 238.8 669.85 239.2 668.25 239.2ZM707.633 239.6C702.166 239.6 698.166 238.4 695.633 236C693.099 233.467 691.833 230.133 691.833 226C691.833 224.933 691.899 223.867 692.033 222.8C692.299 221.6 692.566 220.4 692.833 219.2C693.499 216.8 694.566 214 696.033 210.8C697.633 207.6 699.566 204.467 701.833 201.4C704.099 198.333 706.566 195.8 709.233 193.8C711.899 191.8 714.699 190.8 717.633 190.8C720.033 190.8 721.833 191.667 723.033 193.4C724.366 195.133 725.033 197.2 725.033 199.6C725.033 202.133 724.233 204.733 722.633 207.4C721.166 209.933 719.166 212 716.633 213.6C713.699 215.6 710.366 216.6 706.633 216.6C704.233 216.6 702.033 216.133 700.033 215.2C698.033 219.2 697.033 223.133 697.033 227C697.033 229.8 697.833 232.2 699.433 234.2C701.033 236.2 703.699 237.2 707.433 237.2C711.966 237.2 715.966 236.133 719.433 234C722.899 231.733 726.099 228.8 729.033 225.2C732.099 221.6 735.033 217.733 737.833 213.6C738.233 213.2 738.499 213 738.633 213C739.033 213 739.233 213.333 739.233 214C739.233 214.667 739.033 215.333 738.633 216C736.233 219.733 733.499 223.4 730.433 227C727.499 230.6 724.166 233.6 720.433 236C716.699 238.4 712.433 239.6 707.633 239.6ZM704.633 213.8C708.099 213.8 711.366 212.6 714.433 210.2C715.899 209.133 717.166 207.867 718.233 206.4C719.299 204.933 720.033 203.467 720.433 202C720.833 200.533 721.033 199.267 721.033 198.2C721.033 195.133 719.899 193.6 717.633 193.6C716.166 193.6 714.499 194.467 712.633 196.2C711.033 197.667 709.366 199.533 707.633 201.8C706.033 204.067 704.633 206.267 703.433 208.4C702.233 210.4 701.433 211.867 701.033 212.8C701.966 213.467 703.166 213.8 704.633 213.8Z" fill="#F9F6F6"/>
<defs>
<filter id="filter0_dd_263_171" x="236.666" y="353.4" width="633.253" height="80.2" filterUnits="userSpaceOnUse" color-interpolation-filters="sRGB">
<feFlood flood-opacity="0" result="BackgroundImageFix"/>
<feColorMatrix in="SourceAlpha" type="matrix" values="0 0 0 0 0 0 0 0 0 0 0 0 0 0 0 0 0 0 127 0" result="hardAlpha"/>
<feOffset dx="-5" dy="-2"/>
<feGaussianBlur stdDeviation="6.5"/>
<feComposite in2="hardAlpha" operator="out"/>
<feColorMatrix type="matrix" values="0 0 0 0 0.878431 0 0 0 0 0.172549 0 0 0 0 0.52549 0 0 0 0.2 0"/>
<feBlend mode="normal" in2="BackgroundImageFix" result="effect1_dropShadow_263_171"/>
<feColorMatrix in="SourceAlpha" type="matrix" values="0 0 0 0 0 0 0 0 0 0 0 0 0 0 0 0 0 0 127 0" result="hardAlpha"/>
<feOffset dx="3" dy="4"/>
<feGaussianBlur stdDeviation="9"/>
<feComposite in2="hardAlpha" operator="out"/>
<feColorMatrix type="matrix" values="0 0 0 0 0.0784314 0 0 0 0 0.901961 0 0 0 0 0.862745 0 0 0 0.2 0"/>
<feBlend mode="normal" in2="effect1_dropShadow_263_171" result="effect2_dropShadow_263_171"/>
<feBlend mode="normal" in="SourceGraphic" in2="effect2_dropShadow_263_171" result="shape"/>
</filter>
<linearGradient id="paint0_linear_263_171" x1="2.91892e-06" y1="28.16" x2="967.28" y2="714.929" gradientUnits="userSpaceOnUse">
<stop stop-color="#CB328F"/>
<stop offset="0.2" stop-color="#CB328F"/>
<stop offset="0.4" stop-color="#97238A"/>
<stop offset="0.6" stop-color="#5456AB"/>
<stop offset="0.8" stop-color="#219DDE"/>
<stop offset="1" stop-color="#22DCD9"/>
</linearGradient>
<linearGradient id="paint1_linear_263_171" x1="249" y1="339" x2="587.348" y2="692.971" gradientUnits="userSpaceOnUse">
<stop offset="0.109375" stop-color="#F73E94"/>
<stop offset="0.302083" stop-color="#A51883"/>
<stop offset="0.546875" stop-color="#5C4AA3"/>
<stop offset="0.734375" stop-color="#2599DB"/>
<stop offset="0.963542" stop-color="#22DCD9"/>
</linearGradient>
<linearGradient id="paint2_linear_263_171" x1="868.15" y1="93.8799" x2="724.774" y2="196.333" gradientUnits="userSpaceOnUse">
<stop stop-color="#22DCD9"/>
<stop offset="0.2" stop-color="#22AFDD"/>
<stop offset="0.4" stop-color="#5259AE"/>
<stop offset="0.6" stop-color="#7A3A99"/>
<stop offset="0.8" stop-color="#C73491"/>
<stop offset="1" stop-color="#F73E94"/>
</linearGradient>
<linearGradient id="paint3_linear_263_171" x1="828.359" y1="93.5137" x2="725.623" y2="156.206" gradientUnits="userSpaceOnUse">
<stop stop-color="#22DCD9"/>
<stop offset="0.166667" stop-color="#22ACDD"/>
<stop offset="0.333333" stop-color="#3D77C3"/>
<stop offset="0.5" stop-color="#803596"/>
<stop offset="0.666667" stop-color="#A5278C"/>
<stop offset="0.833333" stop-color="#D03390"/>
<stop offset="1" stop-color="#F73E94"/>
</linearGradient>
</defs>
</svg>
