<svg width="500" height="300" viewBox="0 0 500 300" fill="none" xmlns="http://www.w3.org/2000/svg">
<rect x="0.5" y="0.5" width="499" height="299" rx="29.5" fill="#0C0C2D" stroke="url(#paint0_linear_374_55)"/>
<path d="M87.1 182L93.54 168H94.56L101 182H99.9L93.82 168.64H94.26L88.2 182H87.1ZM89.46 178.06L89.8 177.2H98.18L98.52 178.06H89.46ZM107.144 182.08C106.171 182.08 105.291 181.86 104.504 181.42C103.731 180.967 103.117 180.34 102.664 179.54C102.211 178.74 101.984 177.82 101.984 176.78C101.984 175.727 102.211 174.807 102.664 174.02C103.117 173.22 103.731 172.6 104.504 172.16C105.291 171.707 106.171 171.48 107.144 171.48C108.064 171.48 108.891 171.693 109.624 172.12C110.371 172.547 110.957 173.153 111.384 173.94C111.824 174.727 112.044 175.673 112.044 176.78C112.044 177.86 111.831 178.8 111.404 179.6C110.977 180.4 110.391 181.013 109.644 181.44C108.911 181.867 108.077 182.08 107.144 182.08ZM107.204 181.18C108.004 181.18 108.717 181 109.344 180.64C109.984 180.267 110.484 179.747 110.844 179.08C111.217 178.413 111.404 177.647 111.404 176.78C111.404 175.9 111.217 175.133 110.844 174.48C110.484 173.813 109.984 173.3 109.344 172.94C108.717 172.567 108.004 172.38 107.204 172.38C106.404 172.38 105.684 172.567 105.044 172.94C104.417 173.3 103.917 173.813 103.544 174.48C103.184 175.133 103.004 175.9 103.004 176.78C103.004 177.647 103.184 178.413 103.544 179.08C103.917 179.747 104.417 180.267 105.044 180.64C105.684 181 106.404 181.18 107.204 181.18ZM111.424 182V178.58L111.604 176.76L111.404 174.94V167.16H112.404V182H111.424ZM119.26 182L114.56 171.56H115.62L120.02 181.44H119.54L123.98 171.56H125L120.28 182H119.26ZM133.454 182V179.62L133.414 179.26V175.34C133.414 174.367 133.147 173.627 132.614 173.12C132.094 172.613 131.327 172.36 130.314 172.36C129.594 172.36 128.921 172.487 128.294 172.74C127.681 172.98 127.154 173.293 126.714 173.68L126.214 172.96C126.734 172.493 127.361 172.133 128.094 171.88C128.827 171.613 129.594 171.48 130.394 171.48C131.687 171.48 132.681 171.807 133.374 172.46C134.067 173.113 134.414 174.087 134.414 175.38V182H133.454ZM129.694 182.08C128.921 182.08 128.247 181.96 127.674 181.72C127.114 181.467 126.681 181.113 126.374 180.66C126.081 180.207 125.934 179.687 125.934 179.1C125.934 178.567 126.054 178.087 126.294 177.66C126.547 177.22 126.961 176.867 127.534 176.6C128.107 176.32 128.874 176.18 129.834 176.18H133.674V176.96H129.854C128.774 176.96 128.014 177.16 127.574 177.56C127.147 177.96 126.934 178.46 126.934 179.06C126.934 179.727 127.187 180.26 127.694 180.66C128.201 181.06 128.914 181.26 129.834 181.26C130.714 181.26 131.454 181.06 132.054 180.66C132.667 180.26 133.121 179.68 133.414 178.92L133.694 179.6C133.414 180.36 132.934 180.967 132.254 181.42C131.587 181.86 130.734 182.08 129.694 182.08ZM143.634 171.48C144.487 171.48 145.227 171.647 145.854 171.98C146.494 172.3 146.987 172.793 147.334 173.46C147.694 174.113 147.874 174.927 147.874 175.9V182H146.874V175.98C146.874 174.807 146.574 173.913 145.974 173.3C145.387 172.687 144.561 172.38 143.494 172.38C142.681 172.38 141.974 172.547 141.374 172.88C140.774 173.213 140.314 173.68 139.994 174.28C139.687 174.88 139.534 175.6 139.534 176.44V182H138.534V171.56H139.494V174.46L139.354 174.14C139.674 173.313 140.201 172.667 140.934 172.2C141.667 171.72 142.567 171.48 143.634 171.48ZM155.031 182.08C154.111 182.08 153.404 181.827 152.911 181.32C152.431 180.813 152.191 180.12 152.191 179.24V169.28H153.191V179.14C153.191 179.807 153.358 180.32 153.691 180.68C154.024 181.04 154.504 181.22 155.131 181.22C155.784 181.22 156.324 181.027 156.751 180.64L157.171 181.34C156.904 181.593 156.578 181.78 156.191 181.9C155.818 182.02 155.431 182.08 155.031 182.08ZM150.271 172.42V171.56H156.511V172.42H150.271ZM166.54 182V179.62L166.5 179.26V175.34C166.5 174.367 166.233 173.627 165.7 173.12C165.18 172.613 164.413 172.36 163.4 172.36C162.68 172.36 162.007 172.487 161.38 172.74C160.767 172.98 160.24 173.293 159.8 173.68L159.3 172.96C159.82 172.493 160.447 172.133 161.18 171.88C161.913 171.613 162.68 171.48 163.48 171.48C164.773 171.48 165.767 171.807 166.46 172.46C167.153 173.113 167.5 174.087 167.5 175.38V182H166.54ZM162.78 182.08C162.007 182.08 161.333 181.96 160.76 181.72C160.2 181.467 159.767 181.113 159.46 180.66C159.167 180.207 159.02 179.687 159.02 179.1C159.02 178.567 159.14 178.087 159.38 177.66C159.633 177.22 160.047 176.867 160.62 176.6C161.193 176.32 161.96 176.18 162.92 176.18H166.76V176.96H162.94C161.86 176.96 161.1 177.16 160.66 177.56C160.233 177.96 160.02 178.46 160.02 179.06C160.02 179.727 160.273 180.26 160.78 180.66C161.287 181.06 162 181.26 162.92 181.26C163.8 181.26 164.54 181.06 165.14 180.66C165.753 180.26 166.207 179.68 166.5 178.92L166.78 179.6C166.5 180.36 166.02 180.967 165.34 181.42C164.673 181.86 163.82 182.08 162.78 182.08ZM175.96 185.96C175.013 185.96 174.113 185.813 173.26 185.52C172.407 185.227 171.713 184.82 171.18 184.3L171.72 183.54C172.24 184.02 172.86 184.393 173.58 184.66C174.313 184.927 175.1 185.06 175.94 185.06C177.34 185.06 178.367 184.733 179.02 184.08C179.687 183.427 180.02 182.4 180.02 181V178.1L180.22 176.54L180.06 174.98V171.56H181.02V180.88C181.02 182.627 180.593 183.907 179.74 184.72C178.9 185.547 177.64 185.96 175.96 185.96ZM175.68 181.62C174.693 181.62 173.807 181.407 173.02 180.98C172.247 180.54 171.627 179.94 171.16 179.18C170.707 178.407 170.48 177.527 170.48 176.54C170.48 175.54 170.707 174.66 171.16 173.9C171.627 173.14 172.247 172.547 173.02 172.12C173.807 171.693 174.693 171.48 175.68 171.48C176.627 171.48 177.473 171.687 178.22 172.1C178.98 172.5 179.58 173.08 180.02 173.84C180.46 174.587 180.68 175.487 180.68 176.54C180.68 177.58 180.46 178.48 180.02 179.24C179.58 180 178.98 180.587 178.22 181C177.473 181.413 176.627 181.62 175.68 181.62ZM175.76 180.72C176.6 180.72 177.34 180.547 177.98 180.2C178.62 179.84 179.12 179.347 179.48 178.72C179.853 178.08 180.04 177.353 180.04 176.54C180.04 175.713 179.853 174.987 179.48 174.36C179.12 173.733 178.62 173.247 177.98 172.9C177.34 172.553 176.6 172.38 175.76 172.38C174.947 172.38 174.213 172.553 173.56 172.9C172.92 173.247 172.413 173.733 172.04 174.36C171.68 174.987 171.5 175.713 171.5 176.54C171.5 177.353 171.68 178.08 172.04 178.72C172.413 179.347 172.92 179.84 173.56 180.2C174.213 180.547 174.947 180.72 175.76 180.72ZM189.493 182.08C188.439 182.08 187.506 181.853 186.693 181.4C185.893 180.947 185.259 180.32 184.793 179.52C184.339 178.72 184.113 177.807 184.113 176.78C184.113 175.74 184.326 174.827 184.753 174.04C185.193 173.24 185.793 172.613 186.553 172.16C187.313 171.707 188.166 171.48 189.113 171.48C190.059 171.48 190.906 171.7 191.653 172.14C192.413 172.58 193.006 173.2 193.433 174C193.873 174.787 194.093 175.7 194.093 176.74C194.093 176.78 194.086 176.827 194.073 176.88C194.073 176.92 194.073 176.967 194.073 177.02H184.853V176.24H193.533L193.133 176.62C193.146 175.807 192.973 175.08 192.613 174.44C192.266 173.787 191.793 173.28 191.193 172.92C190.593 172.547 189.899 172.36 189.113 172.36C188.339 172.36 187.646 172.547 187.033 172.92C186.433 173.28 185.959 173.787 185.613 174.44C185.266 175.08 185.093 175.813 185.093 176.64V176.82C185.093 177.673 185.279 178.433 185.653 179.1C186.039 179.753 186.566 180.267 187.233 180.64C187.899 181 188.659 181.18 189.513 181.18C190.179 181.18 190.799 181.06 191.373 180.82C191.959 180.58 192.453 180.213 192.853 179.72L193.433 180.38C192.979 180.94 192.406 181.367 191.713 181.66C191.033 181.94 190.293 182.08 189.493 182.08ZM199.826 182.08C198.96 182.08 198.146 181.953 197.386 181.7C196.64 181.447 196.06 181.127 195.646 180.74L196.106 179.94C196.506 180.287 197.04 180.587 197.706 180.84C198.373 181.08 199.093 181.2 199.866 181.2C200.96 181.2 201.746 181.02 202.226 180.66C202.706 180.3 202.946 179.827 202.946 179.24C202.946 178.813 202.82 178.48 202.566 178.24C202.326 177.987 202 177.793 201.586 177.66C201.173 177.527 200.72 177.42 200.226 177.34C199.733 177.247 199.24 177.147 198.746 177.04C198.253 176.933 197.8 176.78 197.386 176.58C196.973 176.38 196.64 176.107 196.386 175.76C196.146 175.4 196.026 174.927 196.026 174.34C196.026 173.807 196.173 173.327 196.466 172.9C196.76 172.473 197.2 172.133 197.786 171.88C198.373 171.613 199.106 171.48 199.986 171.48C200.64 171.48 201.293 171.573 201.946 171.76C202.613 171.947 203.153 172.193 203.566 172.5L203.106 173.3C202.666 172.967 202.173 172.727 201.626 172.58C201.08 172.433 200.526 172.36 199.966 172.36C198.953 172.36 198.206 172.547 197.726 172.92C197.26 173.293 197.026 173.76 197.026 174.32C197.026 174.76 197.146 175.113 197.386 175.38C197.64 175.633 197.973 175.833 198.386 175.98C198.8 176.113 199.253 176.227 199.746 176.32C200.24 176.4 200.733 176.493 201.226 176.6C201.72 176.707 202.173 176.86 202.586 177.06C203 177.247 203.326 177.513 203.566 177.86C203.82 178.193 203.946 178.647 203.946 179.22C203.946 179.793 203.786 180.293 203.466 180.72C203.16 181.147 202.7 181.48 202.086 181.72C201.473 181.96 200.72 182.08 199.826 182.08ZM218.454 182V179.62L218.414 179.26V175.34C218.414 174.367 218.147 173.627 217.614 173.12C217.094 172.613 216.327 172.36 215.314 172.36C214.594 172.36 213.921 172.487 213.294 172.74C212.681 172.98 212.154 173.293 211.714 173.68L211.214 172.96C211.734 172.493 212.361 172.133 213.094 171.88C213.827 171.613 214.594 171.48 215.394 171.48C216.687 171.48 217.681 171.807 218.374 172.46C219.067 173.113 219.414 174.087 219.414 175.38V182H218.454ZM214.694 182.08C213.921 182.08 213.247 181.96 212.674 181.72C212.114 181.467 211.681 181.113 211.374 180.66C211.081 180.207 210.934 179.687 210.934 179.1C210.934 178.567 211.054 178.087 211.294 177.66C211.547 177.22 211.961 176.867 212.534 176.6C213.107 176.32 213.874 176.18 214.834 176.18H218.674V176.96H214.854C213.774 176.96 213.014 177.16 212.574 177.56C212.147 177.96 211.934 178.46 211.934 179.06C211.934 179.727 212.187 180.26 212.694 180.66C213.201 181.06 213.914 181.26 214.834 181.26C215.714 181.26 216.454 181.06 217.054 180.66C217.667 180.26 218.121 179.68 218.414 178.92L218.694 179.6C218.414 180.36 217.934 180.967 217.254 181.42C216.587 181.86 215.734 182.08 214.694 182.08ZM228.634 171.48C229.487 171.48 230.227 171.647 230.854 171.98C231.494 172.3 231.987 172.793 232.334 173.46C232.694 174.113 232.874 174.927 232.874 175.9V182H231.874V175.98C231.874 174.807 231.574 173.913 230.974 173.3C230.387 172.687 229.561 172.38 228.494 172.38C227.681 172.38 226.974 172.547 226.374 172.88C225.774 173.213 225.314 173.68 224.994 174.28C224.687 174.88 224.534 175.6 224.534 176.44V182H223.534V171.56H224.494V174.46L224.354 174.14C224.674 173.313 225.201 172.667 225.934 172.2C226.667 171.72 227.567 171.48 228.634 171.48ZM241.011 182.08C240.038 182.08 239.158 181.86 238.371 181.42C237.598 180.967 236.984 180.34 236.531 179.54C236.078 178.74 235.851 177.82 235.851 176.78C235.851 175.727 236.078 174.807 236.531 174.02C236.984 173.22 237.598 172.6 238.371 172.16C239.158 171.707 240.038 171.48 241.011 171.48C241.931 171.48 242.758 171.693 243.491 172.12C244.238 172.547 244.824 173.153 245.251 173.94C245.691 174.727 245.911 175.673 245.911 176.78C245.911 177.86 245.698 178.8 245.271 179.6C244.844 180.4 244.258 181.013 243.511 181.44C242.778 181.867 241.944 182.08 241.011 182.08ZM241.071 181.18C241.871 181.18 242.584 181 243.211 180.64C243.851 180.267 244.351 179.747 244.711 179.08C245.084 178.413 245.271 177.647 245.271 176.78C245.271 175.9 245.084 175.133 244.711 174.48C244.351 173.813 243.851 173.3 243.211 172.94C242.584 172.567 241.871 172.38 241.071 172.38C240.271 172.38 239.551 172.567 238.911 172.94C238.284 173.3 237.784 173.813 237.411 174.48C237.051 175.133 236.871 175.9 236.871 176.78C236.871 177.647 237.051 178.413 237.411 179.08C237.784 179.747 238.284 180.267 238.911 180.64C239.551 181 240.271 181.18 241.071 181.18ZM245.291 182V178.58L245.471 176.76L245.271 174.94V167.16H246.271V182H245.291ZM255.944 182V168H261.484C262.964 168 264.264 168.3 265.384 168.9C266.504 169.5 267.371 170.327 267.984 171.38C268.611 172.433 268.924 173.64 268.924 175C268.924 176.36 268.611 177.567 267.984 178.62C267.371 179.673 266.504 180.5 265.384 181.1C264.264 181.7 262.964 182 261.484 182H255.944ZM256.964 181.08H261.404C262.724 181.08 263.871 180.82 264.844 180.3C265.817 179.78 266.571 179.067 267.104 178.16C267.637 177.24 267.904 176.187 267.904 175C267.904 173.813 267.637 172.767 267.104 171.86C266.571 170.94 265.817 170.22 264.844 169.7C263.871 169.18 262.724 168.92 261.404 168.92H256.964V181.08ZM272.147 182V171.56H273.147V182H272.147ZM272.647 169.02C272.421 169.02 272.227 168.94 272.067 168.78C271.907 168.62 271.827 168.433 271.827 168.22C271.827 167.993 271.907 167.8 272.067 167.64C272.227 167.48 272.421 167.4 272.647 167.4C272.887 167.4 273.081 167.48 273.227 167.64C273.387 167.787 273.467 167.973 273.467 168.2C273.467 168.427 273.387 168.62 273.227 168.78C273.081 168.94 272.887 169.02 272.647 169.02ZM280.002 182.08C279.136 182.08 278.322 181.953 277.562 181.7C276.816 181.447 276.236 181.127 275.822 180.74L276.282 179.94C276.682 180.287 277.216 180.587 277.882 180.84C278.549 181.08 279.269 181.2 280.042 181.2C281.136 181.2 281.922 181.02 282.402 180.66C282.882 180.3 283.122 179.827 283.122 179.24C283.122 178.813 282.996 178.48 282.742 178.24C282.502 177.987 282.176 177.793 281.762 177.66C281.349 177.527 280.896 177.42 280.402 177.34C279.909 177.247 279.416 177.147 278.922 177.04C278.429 176.933 277.976 176.78 277.562 176.58C277.149 176.38 276.816 176.107 276.562 175.76C276.322 175.4 276.202 174.927 276.202 174.34C276.202 173.807 276.349 173.327 276.642 172.9C276.936 172.473 277.376 172.133 277.962 171.88C278.549 171.613 279.282 171.48 280.162 171.48C280.816 171.48 281.469 171.573 282.122 171.76C282.789 171.947 283.329 172.193 283.742 172.5L283.282 173.3C282.842 172.967 282.349 172.727 281.802 172.58C281.256 172.433 280.702 172.36 280.142 172.36C279.129 172.36 278.382 172.547 277.902 172.92C277.436 173.293 277.202 173.76 277.202 174.32C277.202 174.76 277.322 175.113 277.562 175.38C277.816 175.633 278.149 175.833 278.562 175.98C278.976 176.113 279.429 176.227 279.922 176.32C280.416 176.4 280.909 176.493 281.402 176.6C281.896 176.707 282.349 176.86 282.762 177.06C283.176 177.247 283.502 177.513 283.742 177.86C283.996 178.193 284.122 178.647 284.122 179.22C284.122 179.793 283.962 180.293 283.642 180.72C283.336 181.147 282.876 181.48 282.262 181.72C281.649 181.96 280.896 182.08 280.002 182.08ZM293.493 182V179.62L293.453 179.26V175.34C293.453 174.367 293.186 173.627 292.653 173.12C292.133 172.613 291.366 172.36 290.353 172.36C289.633 172.36 288.96 172.487 288.333 172.74C287.72 172.98 287.193 173.293 286.753 173.68L286.253 172.96C286.773 172.493 287.4 172.133 288.133 171.88C288.866 171.613 289.633 171.48 290.433 171.48C291.726 171.48 292.72 171.807 293.413 172.46C294.106 173.113 294.453 174.087 294.453 175.38V182H293.493ZM289.733 182.08C288.96 182.08 288.286 181.96 287.713 181.72C287.153 181.467 286.72 181.113 286.413 180.66C286.12 180.207 285.973 179.687 285.973 179.1C285.973 178.567 286.093 178.087 286.333 177.66C286.586 177.22 287 176.867 287.573 176.6C288.146 176.32 288.913 176.18 289.873 176.18H293.713V176.96H289.893C288.813 176.96 288.053 177.16 287.613 177.56C287.186 177.96 286.973 178.46 286.973 179.06C286.973 179.727 287.226 180.26 287.733 180.66C288.24 181.06 288.953 181.26 289.873 181.26C290.753 181.26 291.493 181.06 292.093 180.66C292.706 180.26 293.16 179.68 293.453 178.92L293.733 179.6C293.453 180.36 292.973 180.967 292.293 181.42C291.626 181.86 290.773 182.08 289.733 182.08ZM302.593 182.08C301.62 182.08 300.74 181.86 299.953 181.42C299.18 180.967 298.566 180.34 298.113 179.54C297.66 178.74 297.433 177.82 297.433 176.78C297.433 175.727 297.66 174.807 298.113 174.02C298.566 173.22 299.18 172.6 299.953 172.16C300.74 171.707 301.62 171.48 302.593 171.48C303.513 171.48 304.34 171.693 305.073 172.12C305.82 172.547 306.406 173.153 306.833 173.94C307.273 174.727 307.493 175.673 307.493 176.78C307.493 177.86 307.28 178.8 306.853 179.6C306.426 180.4 305.84 181.013 305.093 181.44C304.36 181.867 303.526 182.08 302.593 182.08ZM302.653 181.18C303.453 181.18 304.166 181 304.793 180.64C305.433 180.267 305.933 179.747 306.293 179.08C306.666 178.413 306.853 177.647 306.853 176.78C306.853 175.9 306.666 175.133 306.293 174.48C305.933 173.813 305.433 173.3 304.793 172.94C304.166 172.567 303.453 172.38 302.653 172.38C301.853 172.38 301.133 172.567 300.493 172.94C299.866 173.3 299.366 173.813 298.993 174.48C298.633 175.133 298.453 175.9 298.453 176.78C298.453 177.647 298.633 178.413 298.993 179.08C299.366 179.747 299.866 180.267 300.493 180.64C301.133 181 301.853 181.18 302.653 181.18ZM306.873 182V178.58L307.053 176.76L306.853 174.94V167.16H307.853V182H306.873ZM314.709 182L310.009 171.56H311.069L315.469 181.44H314.989L319.429 171.56H320.449L315.729 182H314.709ZM328.903 182V179.62L328.863 179.26V175.34C328.863 174.367 328.596 173.627 328.063 173.12C327.543 172.613 326.776 172.36 325.763 172.36C325.043 172.36 324.37 172.487 323.743 172.74C323.13 172.98 322.603 173.293 322.163 173.68L321.663 172.96C322.183 172.493 322.81 172.133 323.543 171.88C324.276 171.613 325.043 171.48 325.843 171.48C327.136 171.48 328.13 171.807 328.823 172.46C329.516 173.113 329.863 174.087 329.863 175.38V182H328.903ZM325.143 182.08C324.37 182.08 323.696 181.96 323.123 181.72C322.563 181.467 322.13 181.113 321.823 180.66C321.53 180.207 321.383 179.687 321.383 179.1C321.383 178.567 321.503 178.087 321.743 177.66C321.996 177.22 322.41 176.867 322.983 176.6C323.556 176.32 324.323 176.18 325.283 176.18H329.123V176.96H325.303C324.223 176.96 323.463 177.16 323.023 177.56C322.596 177.96 322.383 178.46 322.383 179.06C322.383 179.727 322.636 180.26 323.143 180.66C323.65 181.06 324.363 181.26 325.283 181.26C326.163 181.26 326.903 181.06 327.503 180.66C328.116 180.26 328.57 179.68 328.863 178.92L329.143 179.6C328.863 180.36 328.383 180.967 327.703 181.42C327.036 181.86 326.183 182.08 325.143 182.08ZM339.083 171.48C339.937 171.48 340.677 171.647 341.303 171.98C341.943 172.3 342.437 172.793 342.783 173.46C343.143 174.113 343.323 174.927 343.323 175.9V182H342.323V175.98C342.323 174.807 342.023 173.913 341.423 173.3C340.837 172.687 340.01 172.38 338.943 172.38C338.13 172.38 337.423 172.547 336.823 172.88C336.223 173.213 335.763 173.68 335.443 174.28C335.137 174.88 334.983 175.6 334.983 176.44V182H333.983V171.56H334.943V174.46L334.803 174.14C335.123 173.313 335.65 172.667 336.383 172.2C337.117 171.72 338.017 171.48 339.083 171.48ZM350.48 182.08C349.56 182.08 348.854 181.827 348.36 181.32C347.88 180.813 347.64 180.12 347.64 179.24V169.28H348.64V179.14C348.64 179.807 348.807 180.32 349.14 180.68C349.474 181.04 349.954 181.22 350.58 181.22C351.234 181.22 351.774 181.027 352.2 180.64L352.62 181.34C352.354 181.593 352.027 181.78 351.64 181.9C351.267 182.02 350.88 182.08 350.48 182.08ZM345.72 172.42V171.56H351.96V172.42H345.72ZM361.989 182V179.62L361.949 179.26V175.34C361.949 174.367 361.682 173.627 361.149 173.12C360.629 172.613 359.862 172.36 358.849 172.36C358.129 172.36 357.456 172.487 356.829 172.74C356.216 172.98 355.689 173.293 355.249 173.68L354.749 172.96C355.269 172.493 355.896 172.133 356.629 171.88C357.362 171.613 358.129 171.48 358.929 171.48C360.222 171.48 361.216 171.807 361.909 172.46C362.602 173.113 362.949 174.087 362.949 175.38V182H361.989ZM358.229 182.08C357.456 182.08 356.782 181.96 356.209 181.72C355.649 181.467 355.216 181.113 354.909 180.66C354.616 180.207 354.469 179.687 354.469 179.1C354.469 178.567 354.589 178.087 354.829 177.66C355.082 177.22 355.496 176.867 356.069 176.6C356.642 176.32 357.409 176.18 358.369 176.18H362.209V176.96H358.389C357.309 176.96 356.549 177.16 356.109 177.56C355.682 177.96 355.469 178.46 355.469 179.06C355.469 179.727 355.722 180.26 356.229 180.66C356.736 181.06 357.449 181.26 358.369 181.26C359.249 181.26 359.989 181.06 360.589 180.66C361.202 180.26 361.656 179.68 361.949 178.92L362.229 179.6C361.949 180.36 361.469 180.967 360.789 181.42C360.122 181.86 359.269 182.08 358.229 182.08ZM371.409 185.96C370.463 185.96 369.563 185.813 368.709 185.52C367.856 185.227 367.163 184.82 366.629 184.3L367.169 183.54C367.689 184.02 368.309 184.393 369.029 184.66C369.763 184.927 370.549 185.06 371.389 185.06C372.789 185.06 373.816 184.733 374.469 184.08C375.136 183.427 375.469 182.4 375.469 181V178.1L375.669 176.54L375.509 174.98V171.56H376.469V180.88C376.469 182.627 376.043 183.907 375.189 184.72C374.349 185.547 373.089 185.96 371.409 185.96ZM371.129 181.62C370.143 181.62 369.256 181.407 368.469 180.98C367.696 180.54 367.076 179.94 366.609 179.18C366.156 178.407 365.929 177.527 365.929 176.54C365.929 175.54 366.156 174.66 366.609 173.9C367.076 173.14 367.696 172.547 368.469 172.12C369.256 171.693 370.143 171.48 371.129 171.48C372.076 171.48 372.923 171.687 373.669 172.1C374.429 172.5 375.029 173.08 375.469 173.84C375.909 174.587 376.129 175.487 376.129 176.54C376.129 177.58 375.909 178.48 375.469 179.24C375.029 180 374.429 180.587 373.669 181C372.923 181.413 372.076 181.62 371.129 181.62ZM371.209 180.72C372.049 180.72 372.789 180.547 373.429 180.2C374.069 179.84 374.569 179.347 374.929 178.72C375.303 178.08 375.489 177.353 375.489 176.54C375.489 175.713 375.303 174.987 374.929 174.36C374.569 173.733 374.069 173.247 373.429 172.9C372.789 172.553 372.049 172.38 371.209 172.38C370.396 172.38 369.663 172.553 369.009 172.9C368.369 173.247 367.863 173.733 367.489 174.36C367.129 174.987 366.949 175.713 366.949 176.54C366.949 177.353 367.129 178.08 367.489 178.72C367.863 179.347 368.369 179.84 369.009 180.2C369.663 180.547 370.396 180.72 371.209 180.72ZM384.942 182.08C383.889 182.08 382.955 181.853 382.142 181.4C381.342 180.947 380.709 180.32 380.242 179.52C379.789 178.72 379.562 177.807 379.562 176.78C379.562 175.74 379.775 174.827 380.202 174.04C380.642 173.24 381.242 172.613 382.002 172.16C382.762 171.707 383.615 171.48 384.562 171.48C385.509 171.48 386.355 171.7 387.102 172.14C387.862 172.58 388.455 173.2 388.882 174C389.322 174.787 389.542 175.7 389.542 176.74C389.542 176.78 389.535 176.827 389.522 176.88C389.522 176.92 389.522 176.967 389.522 177.02H380.302V176.24H388.982L388.582 176.62C388.595 175.807 388.422 175.08 388.062 174.44C387.715 173.787 387.242 173.28 386.642 172.92C386.042 172.547 385.349 172.36 384.562 172.36C383.789 172.36 383.095 172.547 382.482 172.92C381.882 173.28 381.409 173.787 381.062 174.44C380.715 175.08 380.542 175.813 380.542 176.64V176.82C380.542 177.673 380.729 178.433 381.102 179.1C381.489 179.753 382.015 180.267 382.682 180.64C383.349 181 384.109 181.18 384.962 181.18C385.629 181.18 386.249 181.06 386.822 180.82C387.409 180.58 387.902 180.213 388.302 179.72L388.882 180.38C388.429 180.94 387.855 181.367 387.162 181.66C386.482 181.94 385.742 182.08 384.942 182.08ZM395.276 182.08C394.409 182.08 393.596 181.953 392.836 181.7C392.089 181.447 391.509 181.127 391.096 180.74L391.556 179.94C391.956 180.287 392.489 180.587 393.156 180.84C393.822 181.08 394.542 181.2 395.316 181.2C396.409 181.2 397.196 181.02 397.676 180.66C398.156 180.3 398.396 179.827 398.396 179.24C398.396 178.813 398.269 178.48 398.016 178.24C397.776 177.987 397.449 177.793 397.036 177.66C396.622 177.527 396.169 177.42 395.676 177.34C395.182 177.247 394.689 177.147 394.196 177.04C393.702 176.933 393.249 176.78 392.836 176.58C392.422 176.38 392.089 176.107 391.836 175.76C391.596 175.4 391.476 174.927 391.476 174.34C391.476 173.807 391.622 173.327 391.916 172.9C392.209 172.473 392.649 172.133 393.236 171.88C393.822 171.613 394.556 171.48 395.436 171.48C396.089 171.48 396.742 171.573 397.396 171.76C398.062 171.947 398.602 172.193 399.016 172.5L398.556 173.3C398.116 172.967 397.622 172.727 397.076 172.58C396.529 172.433 395.976 172.36 395.416 172.36C394.402 172.36 393.656 172.547 393.176 172.92C392.709 173.293 392.476 173.76 392.476 174.32C392.476 174.76 392.596 175.113 392.836 175.38C393.089 175.633 393.422 175.833 393.836 175.98C394.249 176.113 394.702 176.227 395.196 176.32C395.689 176.4 396.182 176.493 396.676 176.6C397.169 176.707 397.622 176.86 398.036 177.06C398.449 177.247 398.776 177.513 399.016 177.86C399.269 178.193 399.396 178.647 399.396 179.22C399.396 179.793 399.236 180.293 398.916 180.72C398.609 181.147 398.149 181.48 397.536 181.72C396.922 181.96 396.169 182.08 395.276 182.08Z" fill="white"/>
<g filter="url(#filter0_dd_374_55)">
<path d="M120.647 136.24C119.335 136.24 118.079 136.056 116.879 135.688C115.679 135.304 114.727 134.816 114.023 134.224L115.103 131.8C115.775 132.328 116.607 132.768 117.599 133.12C118.591 133.472 119.607 133.648 120.647 133.648C121.527 133.648 122.239 133.552 122.783 133.36C123.327 133.168 123.727 132.912 123.983 132.592C124.239 132.256 124.367 131.88 124.367 131.464C124.367 130.952 124.183 130.544 123.815 130.24C123.447 129.92 122.967 129.672 122.375 129.496C121.799 129.304 121.151 129.128 120.431 128.968C119.727 128.808 119.015 128.624 118.295 128.416C117.591 128.192 116.943 127.912 116.351 127.576C115.775 127.224 115.303 126.76 114.935 126.184C114.567 125.608 114.383 124.872 114.383 123.976C114.383 123.064 114.623 122.232 115.103 121.48C115.599 120.712 116.343 120.104 117.335 119.656C118.343 119.192 119.615 118.96 121.151 118.96C122.159 118.96 123.159 119.088 124.151 119.344C125.143 119.6 126.007 119.968 126.743 120.448L125.759 122.872C125.007 122.424 124.231 122.096 123.431 121.888C122.631 121.664 121.863 121.552 121.127 121.552C120.263 121.552 119.559 121.656 119.015 121.864C118.487 122.072 118.095 122.344 117.839 122.68C117.599 123.016 117.479 123.4 117.479 123.832C117.479 124.344 117.655 124.76 118.007 125.08C118.375 125.384 118.847 125.624 119.423 125.8C120.015 125.976 120.671 126.152 121.391 126.328C122.111 126.488 122.823 126.672 123.527 126.88C124.247 127.088 124.895 127.36 125.471 127.696C126.063 128.032 126.535 128.488 126.887 129.064C127.255 129.64 127.439 130.368 127.439 131.248C127.439 132.144 127.191 132.976 126.695 133.744C126.215 134.496 125.471 135.104 124.463 135.568C123.455 136.016 122.183 136.24 120.647 136.24ZM136.773 126.184H145.125V128.752H136.773V126.184ZM137.013 133.384H146.493V136H133.893V119.2H146.157V121.816H137.013V133.384ZM153.331 136V119.2H156.451V133.36H165.235V136H153.331ZM173.914 126.928H182.29V129.568H173.914V126.928ZM174.178 136H171.058V119.2H183.322V121.816H174.178V136ZM188.763 130.576V128.08H195.363V130.576H188.763ZM202.294 136V119.2H209.206C210.694 119.2 211.966 119.44 213.022 119.92C214.094 120.4 214.918 121.088 215.494 121.984C216.07 122.88 216.358 123.944 216.358 125.176C216.358 126.408 216.07 127.472 215.494 128.368C214.918 129.264 214.094 129.952 213.022 130.432C211.966 130.912 210.694 131.152 209.206 131.152H204.022L205.414 129.688V136H202.294ZM205.414 130.024L204.022 128.512H209.062C210.438 128.512 211.47 128.224 212.158 127.648C212.862 127.056 213.214 126.232 213.214 125.176C213.214 124.104 212.862 123.28 212.158 122.704C211.47 122.128 210.438 121.84 209.062 121.84H204.022L205.414 120.304V130.024ZM230.034 136.24C227.73 136.24 225.922 135.592 224.61 134.296C223.314 133 222.666 131.128 222.666 128.68V119.2H225.786V128.56C225.786 130.288 226.154 131.544 226.89 132.328C227.642 133.112 228.698 133.504 230.058 133.504C231.418 133.504 232.466 133.112 233.202 132.328C233.938 131.544 234.306 130.288 234.306 128.56V119.2H237.378V128.68C237.378 131.128 236.722 133 235.41 134.296C234.114 135.592 232.322 136.24 230.034 136.24ZM245.108 136V119.2H252.98C254.996 119.2 256.532 119.6 257.588 120.4C258.644 121.184 259.172 122.24 259.172 123.568C259.172 124.464 258.964 125.232 258.548 125.872C258.132 126.496 257.572 126.984 256.868 127.336C256.18 127.672 255.428 127.84 254.612 127.84L255.044 126.976C255.988 126.976 256.836 127.152 257.588 127.504C258.34 127.84 258.932 128.336 259.364 128.992C259.812 129.648 260.036 130.464 260.036 131.44C260.036 132.88 259.484 134 258.38 134.8C257.276 135.6 255.636 136 253.46 136H245.108ZM248.228 133.552H253.268C254.436 133.552 255.332 133.36 255.956 132.976C256.58 132.592 256.892 131.976 256.892 131.128C256.892 130.296 256.58 129.688 255.956 129.304C255.332 128.904 254.436 128.704 253.268 128.704H247.988V126.28H252.644C253.732 126.28 254.564 126.088 255.14 125.704C255.732 125.32 256.028 124.744 256.028 123.976C256.028 123.192 255.732 122.608 255.14 122.224C254.564 121.84 253.732 121.648 252.644 121.648H248.228V133.552ZM266.725 136V119.2H269.845V133.36H278.629V136H266.725ZM284.453 136V119.2H287.573V136H284.453ZM300.685 136.24C299.373 136.24 298.117 136.056 296.917 135.688C295.717 135.304 294.765 134.816 294.061 134.224L295.141 131.8C295.813 132.328 296.645 132.768 297.637 133.12C298.629 133.472 299.645 133.648 300.685 133.648C301.565 133.648 302.277 133.552 302.821 133.36C303.365 133.168 303.765 132.912 304.021 132.592C304.277 132.256 304.405 131.88 304.405 131.464C304.405 130.952 304.221 130.544 303.853 130.24C303.485 129.92 303.005 129.672 302.413 129.496C301.837 129.304 301.189 129.128 300.469 128.968C299.765 128.808 299.053 128.624 298.333 128.416C297.629 128.192 296.981 127.912 296.389 127.576C295.813 127.224 295.341 126.76 294.973 126.184C294.605 125.608 294.421 124.872 294.421 123.976C294.421 123.064 294.661 122.232 295.141 121.48C295.637 120.712 296.381 120.104 297.373 119.656C298.381 119.192 299.653 118.96 301.189 118.96C302.197 118.96 303.197 119.088 304.189 119.344C305.181 119.6 306.045 119.968 306.781 120.448L305.797 122.872C305.045 122.424 304.269 122.096 303.469 121.888C302.669 121.664 301.901 121.552 301.165 121.552C300.301 121.552 299.597 121.656 299.053 121.864C298.525 122.072 298.133 122.344 297.877 122.68C297.637 123.016 297.517 123.4 297.517 123.832C297.517 124.344 297.693 124.76 298.045 125.08C298.413 125.384 298.885 125.624 299.461 125.8C300.053 125.976 300.709 126.152 301.429 126.328C302.149 126.488 302.861 126.672 303.565 126.88C304.285 127.088 304.933 127.36 305.509 127.696C306.101 128.032 306.573 128.488 306.925 129.064C307.293 129.64 307.477 130.368 307.477 131.248C307.477 132.144 307.229 132.976 306.733 133.744C306.253 134.496 305.509 135.104 304.501 135.568C303.493 136.016 302.221 136.24 300.685 136.24ZM325.738 119.2H328.858V136H325.738V119.2ZM317.05 136H313.93V119.2H317.05V136ZM325.978 128.8H316.786V126.136H325.978V128.8ZM336.72 136V119.2H339.84V136H336.72ZM347.744 136V119.2H350.312L360.848 132.136H359.576V119.2H362.672V136H360.104L349.568 123.064H350.84V136H347.744ZM378.382 136.24C377.07 136.24 375.862 136.032 374.758 135.616C373.67 135.184 372.718 134.584 371.902 133.816C371.086 133.032 370.454 132.112 370.006 131.056C369.558 130 369.334 128.848 369.334 127.6C369.334 126.352 369.558 125.2 370.006 124.144C370.454 123.088 371.086 122.176 371.902 121.408C372.734 120.624 373.702 120.024 374.806 119.608C375.91 119.176 377.118 118.96 378.43 118.96C379.854 118.96 381.134 119.192 382.27 119.656C383.422 120.12 384.39 120.8 385.174 121.696L383.206 123.616C382.55 122.96 381.838 122.48 381.07 122.176C380.318 121.856 379.486 121.696 378.574 121.696C377.694 121.696 376.878 121.84 376.126 122.128C375.374 122.416 374.726 122.824 374.182 123.352C373.638 123.88 373.214 124.504 372.91 125.224C372.622 125.944 372.478 126.736 372.478 127.6C372.478 128.448 372.622 129.232 372.91 129.952C373.214 130.672 373.638 131.304 374.182 131.848C374.726 132.376 375.366 132.784 376.102 133.072C376.838 133.36 377.654 133.504 378.55 133.504C379.382 133.504 380.182 133.376 380.95 133.12C381.734 132.848 382.478 132.4 383.182 131.776L384.958 134.104C384.078 134.808 383.054 135.344 381.886 135.712C380.734 136.064 379.566 136.24 378.382 136.24ZM382.006 133.696V127.408H384.958V134.104L382.006 133.696Z" fill="url(#paint1_linear_374_55)"/>
</g>
<defs>
<filter id="filter0_dd_374_55" x="96.0229" y="103.96" width="310.151" height="54.28" filterUnits="userSpaceOnUse" color-interpolation-filters="sRGB">
<feFlood flood-opacity="0" result="BackgroundImageFix"/>
<feColorMatrix in="SourceAlpha" type="matrix" values="0 0 0 0 0 0 0 0 0 0 0 0 0 0 0 0 0 0 127 0" result="hardAlpha"/>
<feOffset dx="-5" dy="-2"/>
<feGaussianBlur stdDeviation="6.5"/>
<feComposite in2="hardAlpha" operator="out"/>
<feColorMatrix type="matrix" values="0 0 0 0 0.878431 0 0 0 0 0.172549 0 0 0 0 0.52549 0 0 0 0.2 0"/>
<feBlend mode="normal" in2="BackgroundImageFix" result="effect1_dropShadow_374_55"/>
<feColorMatrix in="SourceAlpha" type="matrix" values="0 0 0 0 0 0 0 0 0 0 0 0 0 0 0 0 0 0 127 0" result="hardAlpha"/>
<feOffset dx="3" dy="4"/>
<feGaussianBlur stdDeviation="9"/>
<feComposite in2="hardAlpha" operator="out"/>
<feColorMatrix type="matrix" values="0 0 0 0 0.0784314 0 0 0 0 0.901961 0 0 0 0 0.862745 0 0 0 0.2 0"/>
<feBlend mode="normal" in2="effect1_dropShadow_374_55" result="effect2_dropShadow_374_55"/>
<feBlend mode="normal" in="SourceGraphic" in2="effect2_dropShadow_374_55" result="shape"/>
</filter>
<linearGradient id="paint0_linear_374_55" x1="2.19627e-06" y1="-9.5" x2="500" y2="285.5" gradientUnits="userSpaceOnUse">
<stop stop-color="#F73E94"/>
<stop offset="0.2" stop-color="#CD2B8B"/>
<stop offset="0.4" stop-color="#A81A84"/>
<stop offset="0.6" stop-color="#743A99"/>
<stop offset="0.8" stop-color="#18A9E6"/>
<stop offset="1" stop-color="#22DCD9"/>
</linearGradient>
<linearGradient id="paint1_linear_374_55" x1="98" y1="107" x2="222.672" y2="277.289" gradientUnits="userSpaceOnUse">
<stop offset="0.109375" stop-color="#F73E94"/>
<stop offset="0.302083" stop-color="#A51883"/>
<stop offset="0.546875" stop-color="#5C4AA3"/>
<stop offset="0.734375" stop-color="#2599DB"/>
<stop offset="0.963542" stop-color="#22DCD9"/>
</linearGradient>
</defs>
</svg>
