<svg width="500" height="300" viewBox="0 0 500 300" fill="none" xmlns="http://www.w3.org/2000/svg">
<rect x="0.5" y="0.5" width="499" height="299" rx="29.5" fill="white" stroke="url(#paint0_linear_249_2)"/>
<path d="M43.44 126.581V112.581H48.46C49.6333 112.581 50.64 112.768 51.48 113.141C52.32 113.514 52.9667 114.054 53.42 114.761C53.8733 115.454 54.1 116.301 54.1 117.301C54.1 118.274 53.8733 119.114 53.42 119.821C52.9667 120.528 52.32 121.068 51.48 121.441C50.64 121.814 49.6333 122.001 48.46 122.001H44L44.46 121.521V126.581H43.44ZM44.46 121.581L44 121.081H48.46C49.9667 121.081 51.1067 120.754 51.88 120.101C52.6667 119.434 53.06 118.501 53.06 117.301C53.06 116.088 52.6667 115.154 51.88 114.501C51.1067 113.834 49.9667 113.501 48.46 113.501H44L44.46 113.001V121.581ZM56.8895 126.581V116.141H57.8495V119.001L57.7495 118.681C58.0429 117.841 58.5362 117.194 59.2295 116.741C59.9229 116.288 60.7895 116.061 61.8295 116.061V117.041C61.7895 117.041 61.7495 117.041 61.7095 117.041C61.6695 117.028 61.6295 117.021 61.5895 117.021C60.4295 117.021 59.5229 117.388 58.8695 118.121C58.2162 118.841 57.8895 119.848 57.8895 121.141V126.581H56.8895ZM68.5672 126.661C67.5672 126.661 66.6739 126.434 65.8872 125.981C65.1139 125.528 64.4939 124.901 64.0272 124.101C63.5739 123.301 63.3472 122.388 63.3472 121.361C63.3472 120.321 63.5739 119.408 64.0272 118.621C64.4939 117.821 65.1139 117.194 65.8872 116.741C66.6739 116.288 67.5672 116.061 68.5672 116.061C69.5672 116.061 70.4605 116.288 71.2472 116.741C72.0339 117.194 72.6539 117.821 73.1072 118.621C73.5605 119.408 73.7872 120.321 73.7872 121.361C73.7872 122.388 73.5605 123.301 73.1072 124.101C72.6539 124.901 72.0339 125.528 71.2472 125.981C70.4605 126.434 69.5672 126.661 68.5672 126.661ZM68.5672 125.761C69.3672 125.761 70.0872 125.581 70.7272 125.221C71.3672 124.848 71.8672 124.328 72.2272 123.661C72.5872 122.994 72.7672 122.228 72.7672 121.361C72.7672 120.481 72.5872 119.714 72.2272 119.061C71.8672 118.394 71.3672 117.881 70.7272 117.521C70.0872 117.148 69.3672 116.961 68.5672 116.961C67.7672 116.961 67.0472 117.148 66.4072 117.521C65.7805 117.881 65.2805 118.394 64.9072 119.061C64.5472 119.714 64.3672 120.481 64.3672 121.361C64.3672 122.228 64.5472 122.994 64.9072 123.661C65.2805 124.328 65.7805 124.848 66.4072 125.221C67.0472 125.581 67.7672 125.761 68.5672 125.761ZM82.1295 126.661C81.2095 126.661 80.3762 126.448 79.6295 126.021C78.8962 125.594 78.3095 124.981 77.8695 124.181C77.4429 123.381 77.2295 122.441 77.2295 121.361C77.2295 120.254 77.4429 119.308 77.8695 118.521C78.3095 117.734 78.8962 117.128 79.6295 116.701C80.3762 116.274 81.2095 116.061 82.1295 116.061C83.1162 116.061 83.9962 116.288 84.7695 116.741C85.5562 117.181 86.1695 117.801 86.6095 118.601C87.0629 119.388 87.2895 120.308 87.2895 121.361C87.2895 122.401 87.0629 123.321 86.6095 124.121C86.1695 124.921 85.5562 125.548 84.7695 126.001C83.9962 126.441 83.1162 126.661 82.1295 126.661ZM76.8895 126.581V111.741H77.8895V119.521L77.6895 121.341L77.8495 123.161V126.581H76.8895ZM82.0695 125.761C82.8695 125.761 83.5895 125.581 84.2295 125.221C84.8695 124.848 85.3695 124.328 85.7295 123.661C86.1029 122.994 86.2895 122.228 86.2895 121.361C86.2895 120.481 86.1029 119.714 85.7295 119.061C85.3695 118.394 84.8695 117.881 84.2295 117.521C83.5895 117.148 82.8695 116.961 82.0695 116.961C81.2695 116.961 80.5495 117.148 79.9095 117.521C79.2829 117.881 78.7829 118.394 78.4095 119.061C78.0495 119.714 77.8695 120.481 77.8695 121.361C77.8695 122.228 78.0495 122.994 78.4095 123.661C78.7829 124.328 79.2829 124.848 79.9095 125.221C80.5495 125.581 81.2695 125.761 82.0695 125.761ZM90.3856 126.581V111.741H91.3856V126.581H90.3856ZM99.8405 126.661C98.7871 126.661 97.8538 126.434 97.0405 125.981C96.2405 125.528 95.6071 124.901 95.1405 124.101C94.6871 123.301 94.4605 122.388 94.4605 121.361C94.4605 120.321 94.6738 119.408 95.1005 118.621C95.5405 117.821 96.1405 117.194 96.9005 116.741C97.6605 116.288 98.5138 116.061 99.4605 116.061C100.407 116.061 101.254 116.281 102 116.721C102.76 117.161 103.354 117.781 103.78 118.581C104.22 119.368 104.44 120.281 104.44 121.321C104.44 121.361 104.434 121.408 104.42 121.461C104.42 121.501 104.42 121.548 104.42 121.601H95.2005V120.821H103.88L103.48 121.201C103.494 120.388 103.32 119.661 102.96 119.021C102.614 118.368 102.14 117.861 101.54 117.501C100.94 117.128 100.247 116.941 99.4605 116.941C98.6871 116.941 97.9938 117.128 97.3805 117.501C96.7805 117.861 96.3071 118.368 95.9605 119.021C95.6138 119.661 95.4405 120.394 95.4405 121.221V121.401C95.4405 122.254 95.6271 123.014 96.0005 123.681C96.3871 124.334 96.9138 124.848 97.5805 125.221C98.2471 125.581 99.0071 125.761 99.8605 125.761C100.527 125.761 101.147 125.641 101.72 125.401C102.307 125.161 102.8 124.794 103.2 124.301L103.78 124.961C103.327 125.521 102.754 125.948 102.06 126.241C101.38 126.521 100.64 126.661 99.8405 126.661ZM120.534 116.061C121.374 116.061 122.101 116.228 122.714 116.561C123.341 116.881 123.827 117.374 124.174 118.041C124.521 118.694 124.694 119.508 124.694 120.481V126.581H123.694V120.561C123.694 119.388 123.407 118.494 122.834 117.881C122.261 117.268 121.461 116.961 120.434 116.961C119.647 116.961 118.967 117.128 118.394 117.461C117.821 117.794 117.381 118.261 117.074 118.861C116.767 119.461 116.614 120.181 116.614 121.021V126.581H115.614V120.561C115.614 119.388 115.327 118.494 114.754 117.881C114.181 117.268 113.381 116.961 112.354 116.961C111.567 116.961 110.887 117.128 110.314 117.461C109.741 117.794 109.301 118.261 108.994 118.861C108.687 119.461 108.534 120.181 108.534 121.021V126.581H107.534V116.141H108.494V119.021L108.354 118.701C108.661 117.888 109.174 117.248 109.894 116.781C110.614 116.301 111.481 116.061 112.494 116.061C113.534 116.061 114.407 116.328 115.114 116.861C115.834 117.381 116.287 118.161 116.474 119.201L116.134 119.061C116.414 118.168 116.941 117.448 117.714 116.901C118.487 116.341 119.427 116.061 120.534 116.061ZM131.463 126.661C130.596 126.661 129.783 126.534 129.023 126.281C128.276 126.028 127.696 125.708 127.283 125.321L127.743 124.521C128.143 124.868 128.676 125.168 129.343 125.421C130.01 125.661 130.73 125.781 131.503 125.781C132.596 125.781 133.383 125.601 133.863 125.241C134.343 124.881 134.583 124.408 134.583 123.821C134.583 123.394 134.456 123.061 134.203 122.821C133.963 122.568 133.636 122.374 133.223 122.241C132.81 122.108 132.356 122.001 131.863 121.921C131.37 121.828 130.876 121.728 130.383 121.621C129.89 121.514 129.436 121.361 129.023 121.161C128.61 120.961 128.276 120.688 128.023 120.341C127.783 119.981 127.663 119.508 127.663 118.921C127.663 118.388 127.81 117.908 128.103 117.481C128.396 117.054 128.836 116.714 129.423 116.461C130.01 116.194 130.743 116.061 131.623 116.061C132.276 116.061 132.93 116.154 133.583 116.341C134.25 116.528 134.79 116.774 135.203 117.081L134.743 117.881C134.303 117.548 133.81 117.308 133.263 117.161C132.716 117.014 132.163 116.941 131.603 116.941C130.59 116.941 129.843 117.128 129.363 117.501C128.896 117.874 128.663 118.341 128.663 118.901C128.663 119.341 128.783 119.694 129.023 119.961C129.276 120.214 129.61 120.414 130.023 120.561C130.436 120.694 130.89 120.808 131.383 120.901C131.876 120.981 132.37 121.074 132.863 121.181C133.356 121.288 133.81 121.441 134.223 121.641C134.636 121.828 134.963 122.094 135.203 122.441C135.456 122.774 135.583 123.228 135.583 123.801C135.583 124.374 135.423 124.874 135.103 125.301C134.796 125.728 134.336 126.061 133.723 126.301C133.11 126.541 132.356 126.661 131.463 126.661ZM146.951 126.581L142.191 112.581H143.271L147.791 125.961H147.251L151.911 112.581H152.891L157.511 125.961H156.991L161.551 112.581H162.551L157.811 126.581H156.731L152.251 113.641H152.511L148.031 126.581H146.951ZM164.761 126.581V116.141H165.721V119.001L165.621 118.681C165.914 117.841 166.407 117.194 167.101 116.741C167.794 116.288 168.661 116.061 169.701 116.061V117.041C169.661 117.041 169.621 117.041 169.581 117.041C169.541 117.028 169.501 117.021 169.461 117.021C168.301 117.021 167.394 117.388 166.741 118.121C166.087 118.841 165.761 119.848 165.761 121.141V126.581H164.761ZM172.456 126.581V116.141H173.456V126.581H172.456ZM172.956 113.601C172.729 113.601 172.536 113.521 172.376 113.361C172.216 113.201 172.136 113.014 172.136 112.801C172.136 112.574 172.216 112.381 172.376 112.221C172.536 112.061 172.729 111.981 172.956 111.981C173.196 111.981 173.389 112.061 173.536 112.221C173.696 112.368 173.776 112.554 173.776 112.781C173.776 113.008 173.696 113.201 173.536 113.361C173.389 113.521 173.196 113.601 172.956 113.601ZM180.711 126.661C179.791 126.661 179.084 126.408 178.591 125.901C178.111 125.394 177.871 124.701 177.871 123.821V113.861H178.871V123.721C178.871 124.388 179.037 124.901 179.371 125.261C179.704 125.621 180.184 125.801 180.811 125.801C181.464 125.801 182.004 125.608 182.431 125.221L182.851 125.921C182.584 126.174 182.257 126.361 181.871 126.481C181.497 126.601 181.111 126.661 180.711 126.661ZM175.951 117.001V116.141H182.191V117.001H175.951ZM189.508 126.661C188.455 126.661 187.522 126.434 186.708 125.981C185.908 125.528 185.275 124.901 184.808 124.101C184.355 123.301 184.128 122.388 184.128 121.361C184.128 120.321 184.342 119.408 184.768 118.621C185.208 117.821 185.808 117.194 186.568 116.741C187.328 116.288 188.182 116.061 189.128 116.061C190.075 116.061 190.922 116.281 191.668 116.721C192.428 117.161 193.022 117.781 193.448 118.581C193.888 119.368 194.108 120.281 194.108 121.321C194.108 121.361 194.102 121.408 194.088 121.461C194.088 121.501 194.088 121.548 194.088 121.601H184.868V120.821H193.548L193.148 121.201C193.162 120.388 192.988 119.661 192.628 119.021C192.282 118.368 191.808 117.861 191.208 117.501C190.608 117.128 189.915 116.941 189.128 116.941C188.355 116.941 187.662 117.128 187.048 117.501C186.448 117.861 185.975 118.368 185.628 119.021C185.282 119.661 185.108 120.394 185.108 121.221V121.401C185.108 122.254 185.295 123.014 185.668 123.681C186.055 124.334 186.582 124.848 187.248 125.221C187.915 125.581 188.675 125.761 189.528 125.761C190.195 125.761 190.815 125.641 191.388 125.401C191.975 125.161 192.468 124.794 192.868 124.301L193.448 124.961C192.995 125.521 192.422 125.948 191.728 126.241C191.048 126.521 190.308 126.661 189.508 126.661ZM197.202 126.581V116.141H198.162V119.001L198.062 118.681C198.355 117.841 198.849 117.194 199.542 116.741C200.235 116.288 201.102 116.061 202.142 116.061V117.041C202.102 117.041 202.062 117.041 202.022 117.041C201.982 117.028 201.942 117.021 201.902 117.021C200.742 117.021 199.835 117.388 199.182 118.121C198.529 118.841 198.202 119.848 198.202 121.141V126.581H197.202ZM207.655 126.661C206.788 126.661 205.975 126.534 205.215 126.281C204.468 126.028 203.888 125.708 203.475 125.321L203.935 124.521C204.335 124.868 204.868 125.168 205.535 125.421C206.201 125.661 206.921 125.781 207.695 125.781C208.788 125.781 209.575 125.601 210.055 125.241C210.535 124.881 210.775 124.408 210.775 123.821C210.775 123.394 210.648 123.061 210.395 122.821C210.155 122.568 209.828 122.374 209.415 122.241C209.001 122.108 208.548 122.001 208.055 121.921C207.561 121.828 207.068 121.728 206.575 121.621C206.081 121.514 205.628 121.361 205.215 121.161C204.801 120.961 204.468 120.688 204.215 120.341C203.975 119.981 203.855 119.508 203.855 118.921C203.855 118.388 204.001 117.908 204.295 117.481C204.588 117.054 205.028 116.714 205.615 116.461C206.201 116.194 206.935 116.061 207.815 116.061C208.468 116.061 209.121 116.154 209.775 116.341C210.441 116.528 210.981 116.774 211.395 117.081L210.935 117.881C210.495 117.548 210.001 117.308 209.455 117.161C208.908 117.014 208.355 116.941 207.795 116.941C206.781 116.941 206.035 117.128 205.555 117.501C205.088 117.874 204.855 118.341 204.855 118.901C204.855 119.341 204.975 119.694 205.215 119.961C205.468 120.214 205.801 120.414 206.215 120.561C206.628 120.694 207.081 120.808 207.575 120.901C208.068 120.981 208.561 121.074 209.055 121.181C209.548 121.288 210.001 121.441 210.415 121.641C210.828 121.828 211.155 122.094 211.395 122.441C211.648 122.774 211.775 123.228 211.775 123.801C211.775 124.374 211.615 124.874 211.295 125.301C210.988 125.728 210.528 126.061 209.915 126.301C209.301 126.541 208.548 126.661 207.655 126.661ZM220.922 119.481H228.502V120.401H220.922V119.481ZM221.042 126.581H220.022V112.581H229.382V113.501H221.042V126.581ZM238.43 126.581V124.201L238.39 123.841V119.921C238.39 118.948 238.124 118.208 237.59 117.701C237.07 117.194 236.304 116.941 235.29 116.941C234.57 116.941 233.897 117.068 233.27 117.321C232.657 117.561 232.13 117.874 231.69 118.261L231.19 117.541C231.71 117.074 232.337 116.714 233.07 116.461C233.804 116.194 234.57 116.061 235.37 116.061C236.664 116.061 237.657 116.388 238.35 117.041C239.044 117.694 239.39 118.668 239.39 119.961V126.581H238.43ZM234.67 126.661C233.897 126.661 233.224 126.541 232.65 126.301C232.09 126.048 231.657 125.694 231.35 125.241C231.057 124.788 230.91 124.268 230.91 123.681C230.91 123.148 231.03 122.668 231.27 122.241C231.524 121.801 231.937 121.448 232.51 121.181C233.084 120.901 233.85 120.761 234.81 120.761H238.65V121.541H234.83C233.75 121.541 232.99 121.741 232.55 122.141C232.124 122.541 231.91 123.041 231.91 123.641C231.91 124.308 232.164 124.841 232.67 125.241C233.177 125.641 233.89 125.841 234.81 125.841C235.69 125.841 236.43 125.641 237.03 125.241C237.644 124.841 238.097 124.261 238.39 123.501L238.67 124.181C238.39 124.941 237.91 125.548 237.23 126.001C236.564 126.441 235.71 126.661 234.67 126.661ZM247.651 126.661C246.637 126.661 245.731 126.434 244.931 125.981C244.144 125.528 243.517 124.901 243.051 124.101C242.597 123.301 242.371 122.388 242.371 121.361C242.371 120.321 242.597 119.401 243.051 118.601C243.517 117.801 244.144 117.181 244.931 116.741C245.731 116.288 246.637 116.061 247.651 116.061C248.491 116.061 249.251 116.221 249.931 116.541C250.624 116.861 251.184 117.341 251.611 117.981L250.871 118.521C250.497 117.988 250.031 117.594 249.471 117.341C248.911 117.088 248.304 116.961 247.651 116.961C246.837 116.961 246.104 117.148 245.451 117.521C244.811 117.881 244.304 118.394 243.931 119.061C243.571 119.714 243.391 120.481 243.391 121.361C243.391 122.241 243.571 123.014 243.931 123.681C244.304 124.334 244.811 124.848 245.451 125.221C246.104 125.581 246.837 125.761 247.651 125.761C248.304 125.761 248.911 125.634 249.471 125.381C250.031 125.128 250.497 124.734 250.871 124.201L251.611 124.741C251.184 125.381 250.624 125.861 249.931 126.181C249.251 126.501 248.491 126.661 247.651 126.661ZM258.669 126.661C257.615 126.661 256.682 126.434 255.869 125.981C255.069 125.528 254.435 124.901 253.969 124.101C253.515 123.301 253.289 122.388 253.289 121.361C253.289 120.321 253.502 119.408 253.929 118.621C254.369 117.821 254.969 117.194 255.729 116.741C256.489 116.288 257.342 116.061 258.289 116.061C259.235 116.061 260.082 116.281 260.829 116.721C261.589 117.161 262.182 117.781 262.609 118.581C263.049 119.368 263.269 120.281 263.269 121.321C263.269 121.361 263.262 121.408 263.249 121.461C263.249 121.501 263.249 121.548 263.249 121.601H254.029V120.821H262.709L262.309 121.201C262.322 120.388 262.149 119.661 261.789 119.021C261.442 118.368 260.969 117.861 260.369 117.501C259.769 117.128 259.075 116.941 258.289 116.941C257.515 116.941 256.822 117.128 256.209 117.501C255.609 117.861 255.135 118.368 254.789 119.021C254.442 119.661 254.269 120.394 254.269 121.221V121.401C254.269 122.254 254.455 123.014 254.829 123.681C255.215 124.334 255.742 124.848 256.409 125.221C257.075 125.581 257.835 125.761 258.689 125.761C259.355 125.761 259.975 125.641 260.549 125.401C261.135 125.161 261.629 124.794 262.029 124.301L262.609 124.961C262.155 125.521 261.582 125.948 260.889 126.241C260.209 126.521 259.469 126.661 258.669 126.661ZM274.939 126.581L270.179 112.581H271.259L275.779 125.961H275.239L279.899 112.581H280.879L285.499 125.961H284.979L289.539 112.581H290.539L285.799 126.581H284.719L280.239 113.641H280.499L276.019 126.581H274.939ZM293.022 126.581V116.141H294.022V126.581H293.022ZM293.522 113.601C293.296 113.601 293.102 113.521 292.942 113.361C292.782 113.201 292.702 113.014 292.702 112.801C292.702 112.574 292.782 112.381 292.942 112.221C293.102 112.061 293.296 111.981 293.522 111.981C293.762 111.981 293.956 112.061 294.102 112.221C294.262 112.368 294.342 112.554 294.342 112.781C294.342 113.008 294.262 113.201 294.102 113.361C293.956 113.521 293.762 113.601 293.522 113.601ZM301.277 126.661C300.357 126.661 299.651 126.408 299.157 125.901C298.677 125.394 298.437 124.701 298.437 123.821V113.861H299.437V123.721C299.437 124.388 299.604 124.901 299.937 125.261C300.271 125.621 300.751 125.801 301.377 125.801C302.031 125.801 302.571 125.608 302.997 125.221L303.417 125.921C303.151 126.174 302.824 126.361 302.437 126.481C302.064 126.601 301.677 126.661 301.277 126.661ZM296.517 117.001V116.141H302.757V117.001H296.517ZM311.306 116.061C312.159 116.061 312.899 116.228 313.526 116.561C314.166 116.881 314.659 117.374 315.006 118.041C315.366 118.694 315.546 119.508 315.546 120.481V126.581H314.546V120.561C314.546 119.388 314.246 118.494 313.646 117.881C313.059 117.268 312.233 116.961 311.166 116.961C310.353 116.961 309.646 117.128 309.046 117.461C308.446 117.794 307.986 118.261 307.666 118.861C307.359 119.461 307.206 120.181 307.206 121.021V126.581H306.206V111.741H307.206V119.041L307.026 118.721C307.346 117.894 307.873 117.248 308.606 116.781C309.339 116.301 310.239 116.061 311.306 116.061ZM319.663 126.581V116.141H320.663V126.581H319.663ZM320.163 113.601C319.936 113.601 319.743 113.521 319.583 113.361C319.423 113.201 319.343 113.014 319.343 112.801C319.343 112.574 319.423 112.381 319.583 112.221C319.743 112.061 319.936 111.981 320.163 111.981C320.403 111.981 320.596 112.061 320.743 112.221C320.903 112.368 320.983 112.554 320.983 112.781C320.983 113.008 320.903 113.201 320.743 113.361C320.596 113.521 320.403 113.601 320.163 113.601ZM329.978 116.061C330.831 116.061 331.571 116.228 332.198 116.561C332.838 116.881 333.331 117.374 333.678 118.041C334.038 118.694 334.218 119.508 334.218 120.481V126.581H333.218V120.561C333.218 119.388 332.918 118.494 332.318 117.881C331.731 117.268 330.904 116.961 329.838 116.961C329.024 116.961 328.318 117.128 327.718 117.461C327.118 117.794 326.658 118.261 326.338 118.861C326.031 119.461 325.878 120.181 325.878 121.021V126.581H324.878V116.141H325.838V119.041L325.698 118.721C326.018 117.894 326.544 117.248 327.278 116.781C328.011 116.301 328.911 116.061 329.978 116.061Z" fill="black"/>
<g filter="url(#filter0_dd_249_2)">
<path d="M114.258 171.321V154.521H121.17C122.658 154.521 123.93 154.761 124.986 155.241C126.058 155.721 126.882 156.409 127.458 157.305C128.034 158.201 128.322 159.265 128.322 160.497C128.322 161.729 128.034 162.793 127.458 163.689C126.882 164.585 126.058 165.273 124.986 165.753C123.93 166.233 122.658 166.473 121.17 166.473H115.986L117.378 165.009V171.321H114.258ZM117.378 165.345L115.986 163.833H121.026C122.402 163.833 123.434 163.545 124.122 162.969C124.826 162.377 125.178 161.553 125.178 160.497C125.178 159.425 124.826 158.601 124.122 158.025C123.434 157.449 122.402 157.161 121.026 157.161H115.986L117.378 155.625V165.345ZM141.998 171.561C139.694 171.561 137.886 170.913 136.574 169.617C135.278 168.321 134.63 166.449 134.63 164.001V154.521H137.75V163.881C137.75 165.609 138.118 166.865 138.854 167.649C139.606 168.433 140.662 168.825 142.022 168.825C143.382 168.825 144.43 168.433 145.166 167.649C145.902 166.865 146.27 165.609 146.27 163.881V154.521H149.342V164.001C149.342 166.449 148.686 168.321 147.374 169.617C146.078 170.913 144.286 171.561 141.998 171.561ZM157.072 171.321V154.521H164.944C166.96 154.521 168.496 154.921 169.552 155.721C170.608 156.505 171.136 157.561 171.136 158.889C171.136 159.785 170.928 160.553 170.512 161.193C170.096 161.817 169.536 162.305 168.832 162.657C168.144 162.993 167.392 163.161 166.576 163.161L167.008 162.297C167.952 162.297 168.8 162.473 169.552 162.825C170.304 163.161 170.896 163.657 171.328 164.313C171.776 164.969 172 165.785 172 166.761C172 168.201 171.448 169.321 170.344 170.121C169.24 170.921 167.6 171.321 165.424 171.321H157.072ZM160.192 168.873H165.232C166.4 168.873 167.296 168.681 167.92 168.297C168.544 167.913 168.856 167.297 168.856 166.449C168.856 165.617 168.544 165.009 167.92 164.625C167.296 164.225 166.4 164.025 165.232 164.025H159.952V161.601H164.608C165.696 161.601 166.528 161.409 167.104 161.025C167.696 160.641 167.992 160.065 167.992 159.297C167.992 158.513 167.696 157.929 167.104 157.545C166.528 157.161 165.696 156.969 164.608 156.969H160.192V168.873ZM178.69 171.321V154.521H181.81V168.681H190.594V171.321H178.69ZM196.417 171.321V154.521H199.537V171.321H196.417ZM212.649 171.561C211.337 171.561 210.081 171.377 208.881 171.009C207.681 170.625 206.729 170.137 206.025 169.545L207.105 167.121C207.777 167.649 208.609 168.089 209.601 168.441C210.593 168.793 211.609 168.969 212.649 168.969C213.529 168.969 214.241 168.873 214.785 168.681C215.329 168.489 215.729 168.233 215.985 167.913C216.241 167.577 216.369 167.201 216.369 166.785C216.369 166.273 216.185 165.865 215.817 165.561C215.449 165.241 214.969 164.993 214.377 164.817C213.801 164.625 213.153 164.449 212.433 164.289C211.729 164.129 211.017 163.945 210.297 163.737C209.593 163.513 208.945 163.233 208.353 162.897C207.777 162.545 207.305 162.081 206.937 161.505C206.569 160.929 206.385 160.193 206.385 159.297C206.385 158.385 206.625 157.553 207.105 156.801C207.601 156.033 208.345 155.425 209.337 154.977C210.345 154.513 211.617 154.281 213.153 154.281C214.161 154.281 215.161 154.409 216.153 154.665C217.145 154.921 218.009 155.289 218.745 155.769L217.761 158.193C217.009 157.745 216.233 157.417 215.433 157.209C214.633 156.985 213.865 156.873 213.129 156.873C212.265 156.873 211.561 156.977 211.017 157.185C210.489 157.393 210.097 157.665 209.841 158.001C209.601 158.337 209.481 158.721 209.481 159.153C209.481 159.665 209.657 160.081 210.009 160.401C210.377 160.705 210.849 160.945 211.425 161.121C212.017 161.297 212.673 161.473 213.393 161.649C214.113 161.809 214.825 161.993 215.529 162.201C216.249 162.409 216.897 162.681 217.473 163.017C218.065 163.353 218.537 163.809 218.889 164.385C219.257 164.961 219.441 165.689 219.441 166.569C219.441 167.465 219.193 168.297 218.697 169.065C218.217 169.817 217.473 170.425 216.465 170.889C215.457 171.337 214.185 171.561 212.649 171.561ZM237.703 154.521H240.823V171.321H237.703V154.521ZM229.015 171.321H225.895V154.521H229.015V171.321ZM237.943 164.121H228.751V161.457H237.943V164.121ZM248.684 171.321V154.521H251.804V171.321H248.684ZM259.708 171.321V154.521H262.276L272.813 167.457H271.54V154.521H274.636V171.321H272.069L261.532 158.385H262.804V171.321H259.708ZM290.346 171.561C289.034 171.561 287.826 171.353 286.722 170.937C285.634 170.505 284.682 169.905 283.866 169.137C283.05 168.353 282.418 167.433 281.97 166.377C281.522 165.321 281.298 164.169 281.298 162.921C281.298 161.673 281.522 160.521 281.97 159.465C282.418 158.409 283.05 157.497 283.866 156.729C284.698 155.945 285.666 155.345 286.77 154.929C287.874 154.497 289.082 154.281 290.394 154.281C291.818 154.281 293.098 154.513 294.234 154.977C295.386 155.441 296.354 156.121 297.138 157.017L295.17 158.937C294.514 158.281 293.802 157.801 293.034 157.497C292.282 157.177 291.45 157.017 290.538 157.017C289.658 157.017 288.842 157.161 288.09 157.449C287.338 157.737 286.69 158.145 286.146 158.673C285.602 159.201 285.178 159.825 284.874 160.545C284.586 161.265 284.442 162.057 284.442 162.921C284.442 163.769 284.586 164.553 284.874 165.273C285.178 165.993 285.602 166.625 286.146 167.169C286.69 167.697 287.33 168.105 288.066 168.393C288.802 168.681 289.618 168.825 290.514 168.825C291.346 168.825 292.146 168.697 292.914 168.441C293.698 168.169 294.442 167.721 295.146 167.097L296.922 169.425C296.042 170.129 295.018 170.665 293.85 171.033C292.698 171.385 291.53 171.561 290.346 171.561ZM293.97 169.017V162.729H296.922V169.425L293.97 169.017ZM314.39 171.321V154.521H317.51V171.321H314.39ZM325.414 171.321V154.521H327.982L338.518 167.457H337.246V154.521H340.342V171.321H337.774L327.238 158.385H328.51V171.321H325.414ZM348.204 171.321V154.521H355.548C357.372 154.521 358.972 154.873 360.348 155.577C361.724 156.281 362.796 157.257 363.564 158.505C364.332 159.753 364.716 161.225 364.716 162.921C364.716 164.601 364.332 166.073 363.564 167.337C362.796 168.585 361.724 169.561 360.348 170.265C358.972 170.969 357.372 171.321 355.548 171.321H348.204ZM351.324 168.681H355.404C356.668 168.681 357.756 168.441 358.668 167.961C359.596 167.481 360.308 166.809 360.804 165.945C361.316 165.081 361.572 164.073 361.572 162.921C361.572 161.753 361.316 160.745 360.804 159.897C360.308 159.033 359.596 158.361 358.668 157.881C357.756 157.401 356.668 157.161 355.404 157.161H351.324V168.681ZM378.616 171.561C376.312 171.561 374.504 170.913 373.192 169.617C371.896 168.321 371.248 166.449 371.248 164.001V154.521H374.368V163.881C374.368 165.609 374.736 166.865 375.472 167.649C376.224 168.433 377.28 168.825 378.64 168.825C380 168.825 381.048 168.433 381.784 167.649C382.52 166.865 382.888 165.609 382.888 163.881V154.521H385.96V164.001C385.96 166.449 385.304 168.321 383.992 169.617C382.696 170.913 380.904 171.561 378.616 171.561ZM398.897 171.561C397.585 171.561 396.329 171.377 395.129 171.009C393.929 170.625 392.977 170.137 392.273 169.545L393.353 167.121C394.025 167.649 394.857 168.089 395.849 168.441C396.841 168.793 397.857 168.969 398.897 168.969C399.777 168.969 400.489 168.873 401.033 168.681C401.577 168.489 401.977 168.233 402.233 167.913C402.489 167.577 402.617 167.201 402.617 166.785C402.617 166.273 402.433 165.865 402.065 165.561C401.697 165.241 401.217 164.993 400.625 164.817C400.049 164.625 399.401 164.449 398.681 164.289C397.977 164.129 397.265 163.945 396.545 163.737C395.841 163.513 395.193 163.233 394.601 162.897C394.025 162.545 393.553 162.081 393.185 161.505C392.817 160.929 392.633 160.193 392.633 159.297C392.633 158.385 392.873 157.553 393.353 156.801C393.849 156.033 394.593 155.425 395.585 154.977C396.593 154.513 397.865 154.281 399.401 154.281C400.409 154.281 401.409 154.409 402.401 154.665C403.393 154.921 404.257 155.289 404.993 155.769L404.009 158.193C403.257 157.745 402.481 157.417 401.681 157.209C400.881 156.985 400.113 156.873 399.377 156.873C398.513 156.873 397.809 156.977 397.265 157.185C396.737 157.393 396.345 157.665 396.089 158.001C395.849 158.337 395.729 158.721 395.729 159.153C395.729 159.665 395.905 160.081 396.257 160.401C396.625 160.705 397.097 160.945 397.673 161.121C398.265 161.297 398.921 161.473 399.641 161.649C400.361 161.809 401.073 161.993 401.777 162.201C402.497 162.409 403.145 162.681 403.721 163.017C404.313 163.353 404.785 163.809 405.137 164.385C405.505 164.961 405.689 165.689 405.689 166.569C405.689 167.465 405.441 168.297 404.945 169.065C404.465 169.817 403.721 170.425 402.713 170.889C401.705 171.337 400.433 171.561 398.897 171.561ZM415.317 171.321V157.161H409.749V154.521H424.005V157.161H418.437V171.321H415.317ZM429.706 171.321V154.521H436.618C438.106 154.521 439.378 154.761 440.434 155.241C441.506 155.721 442.33 156.409 442.906 157.305C443.482 158.201 443.77 159.265 443.77 160.497C443.77 161.729 443.482 162.793 442.906 163.689C442.33 164.569 441.506 165.249 440.434 165.729C439.378 166.193 438.106 166.425 436.618 166.425H431.434L432.826 165.009V171.321H429.706ZM440.698 171.321L436.45 165.225H439.786L444.058 171.321H440.698ZM432.826 165.345L431.434 163.857H436.474C437.85 163.857 438.882 163.561 439.57 162.969C440.274 162.377 440.626 161.553 440.626 160.497C440.626 159.425 440.274 158.601 439.57 158.025C438.882 157.449 437.85 157.161 436.474 157.161H431.434L432.826 155.625V165.345ZM454.515 171.321V164.673L455.211 166.593L447.915 154.521H451.251L457.107 164.241H455.235L461.139 154.521H464.211L456.915 166.593L457.635 164.673V171.321H454.515Z" fill="url(#paint1_linear_249_2)"/>
</g>
<defs>
<filter id="filter0_dd_249_2" x="96.2582" y="139.281" width="388.952" height="54.28" filterUnits="userSpaceOnUse" color-interpolation-filters="sRGB">
<feFlood flood-opacity="0" result="BackgroundImageFix"/>
<feColorMatrix in="SourceAlpha" type="matrix" values="0 0 0 0 0 0 0 0 0 0 0 0 0 0 0 0 0 0 127 0" result="hardAlpha"/>
<feOffset dx="-5" dy="-2"/>
<feGaussianBlur stdDeviation="6.5"/>
<feComposite in2="hardAlpha" operator="out"/>
<feColorMatrix type="matrix" values="0 0 0 0 0.878431 0 0 0 0 0.172549 0 0 0 0 0.52549 0 0 0 0.2 0"/>
<feBlend mode="normal" in2="BackgroundImageFix" result="effect1_dropShadow_249_2"/>
<feColorMatrix in="SourceAlpha" type="matrix" values="0 0 0 0 0 0 0 0 0 0 0 0 0 0 0 0 0 0 127 0" result="hardAlpha"/>
<feOffset dx="3" dy="4"/>
<feGaussianBlur stdDeviation="9"/>
<feComposite in2="hardAlpha" operator="out"/>
<feColorMatrix type="matrix" values="0 0 0 0 0.0784314 0 0 0 0 0.901961 0 0 0 0 0.862745 0 0 0 0.2 0"/>
<feBlend mode="normal" in2="effect1_dropShadow_249_2" result="effect2_dropShadow_249_2"/>
<feBlend mode="normal" in="SourceGraphic" in2="effect2_dropShadow_249_2" result="shape"/>
</filter>
<linearGradient id="paint0_linear_249_2" x1="1.32678e-06" y1="16" x2="500" y2="300" gradientUnits="userSpaceOnUse">
<stop stop-color="#CB328F"/>
<stop offset="0.2" stop-color="#CB328F"/>
<stop offset="0.4" stop-color="#97238A"/>
<stop offset="0.6" stop-color="#5456AB"/>
<stop offset="0.8" stop-color="#219DDE"/>
<stop offset="1" stop-color="#22DCD9"/>
</linearGradient>
<linearGradient id="paint1_linear_249_2" x1="112" y1="142.321" x2="259.627" y2="340.504" gradientUnits="userSpaceOnUse">
<stop offset="0.109375" stop-color="#F73E94"/>
<stop offset="0.302083" stop-color="#A51883"/>
<stop offset="0.546875" stop-color="#5C4AA3"/>
<stop offset="0.734375" stop-color="#2599DB"/>
<stop offset="0.963542" stop-color="#22DCD9"/>
</linearGradient>
</defs>
</svg>
