<svg width="23" height="27" viewBox="0 0 23 27" fill="none" xmlns="http://www.w3.org/2000/svg">
<path d="M11.2818 0.763062C11.2635 1.0032 11.1995 1.45177 11.1401 1.75988C10.7971 3.41823 10.0471 4.61441 9.05473 5.06751C8.67059 5.24422 8.07151 5.28953 7.65536 5.16719C7.07458 5.00408 6.39776 4.4966 5.90844 3.8532C5.79411 3.70368 5.68436 3.56322 5.66149 3.54056C5.6432 3.51338 5.69808 3.67196 5.78497 3.88492C6.03649 4.49207 6.13252 4.92252 6.13252 5.43905C6.13252 6.39962 5.74381 7.03849 4.91608 7.43269C4.42676 7.6683 3.94658 7.74533 3.20117 7.71361C2.28655 7.67283 1.38565 7.44175 0.379567 6.97506C-0.114327 6.74851 -0.1189 6.75304 0.342982 7.07021C1.90698 8.14406 2.91306 9.53054 3.00452 10.7403C3.08684 11.8731 2.40088 12.7158 1.07468 13.0964C0.850596 13.1599 0.51676 13.2233 0.333836 13.2414C0.150912 13.255 0 13.2822 0 13.3003C0 13.3185 0.150912 13.3456 0.333836 13.3592C1.10669 13.4272 1.93899 13.7716 2.40545 14.2292C2.86276 14.6732 3.05025 15.1943 3.00452 15.8603C2.91306 17.0701 1.90698 18.4566 0.342982 19.5305C-0.114327 19.8431 -0.114327 19.8522 0.342982 19.6392C1.39937 19.1544 2.27283 18.9278 3.20117 18.8871C3.94658 18.8553 4.42676 18.9369 4.91608 19.168C5.74381 19.5622 6.13252 20.201 6.13252 21.1616C6.13252 21.6782 6.03649 22.1086 5.78497 22.7157C5.69808 22.9287 5.6432 23.0873 5.66149 23.0601C5.68436 23.0375 5.79411 22.897 5.90844 22.7475C6.39776 22.1041 7.07458 21.5966 7.65536 21.4335C8.07151 21.3111 8.67059 21.3565 9.05473 21.5332C10.0471 21.9863 10.7971 23.1824 11.1401 24.8408C11.1995 25.1489 11.2635 25.5975 11.2818 25.8376C11.3138 26.3315 11.3596 26.2907 11.4053 25.7243C11.5654 23.7669 12.4205 22.1222 13.5775 21.5558C13.8748 21.4108 13.9617 21.3882 14.3412 21.3746C14.6796 21.3565 14.8305 21.3746 15.0775 21.4471C15.6446 21.6192 16.3077 22.1313 16.7924 22.7792C16.9205 22.9514 17.0302 23.0873 17.0439 23.0873C17.0531 23.0873 17.0211 23.0103 16.9708 22.9196C16.8107 22.5979 16.6049 21.9138 16.55 21.5105C16.3808 20.192 17.1034 19.2133 18.4524 18.9369C18.736 18.878 18.9601 18.8689 19.4585 18.8871C20.3914 18.9233 21.1551 19.1181 22.2207 19.5939C22.4996 19.7162 22.7283 19.8114 22.7283 19.8023C22.7283 19.7933 22.6185 19.7208 22.4905 19.6392C22.0606 19.3673 21.3746 18.7964 20.9814 18.3796C19.7649 17.1018 19.3625 15.7335 19.893 14.7049C20.0439 14.4059 20.5058 13.98 20.8762 13.7897C21.2786 13.5813 21.9143 13.3955 22.3487 13.3592C22.5316 13.3456 22.6826 13.3185 22.6826 13.3003C22.6826 13.2822 22.5316 13.255 22.3487 13.2414C21.9143 13.2052 21.2786 13.0194 20.8762 12.811C20.5058 12.6207 20.0439 12.1948 19.893 11.8957C19.3625 10.8672 19.7649 9.49883 20.9814 8.22108C21.3746 7.80423 22.0606 7.23333 22.4905 6.96147C22.6185 6.87991 22.7283 6.80741 22.7283 6.79835C22.7283 6.78929 22.4996 6.88444 22.2207 7.00678C21.1414 7.48706 20.3914 7.67736 19.4357 7.71361C18.8594 7.73627 18.7177 7.72268 18.3656 7.64112C17.0576 7.32848 16.3854 6.38603 16.55 5.09017C16.6049 4.68691 16.8107 4.00273 16.9708 3.68102C17.0211 3.5904 17.0531 3.51338 17.0439 3.51338C17.0302 3.51338 16.9205 3.64931 16.7924 3.81695C16.3077 4.46942 15.6446 4.98142 15.0775 5.1536C14.8305 5.2261 14.6796 5.24422 14.3412 5.2261C13.9617 5.2125 13.8748 5.18985 13.5775 5.04486C12.4205 4.47848 11.5654 2.83373 11.4053 0.876337C11.3596 0.309961 11.3138 0.269182 11.2818 0.763062ZM12.3245 7.0249C12.9693 7.12458 13.5089 7.29676 14.108 7.58675C15.4525 8.23921 16.4631 9.24056 17.108 10.5591C17.5653 11.4925 17.7436 12.2809 17.7436 13.3456C17.7436 14.415 17.5607 15.2079 17.108 16.1322C16.2116 17.9446 14.5836 19.1997 12.5669 19.6301C12.0227 19.7479 10.5639 19.7434 10.0151 19.6256C9.56692 19.5305 8.81693 19.2767 8.48767 19.1136C6.95568 18.3524 5.76667 17.0429 5.21333 15.4979C4.9801 14.8363 4.88864 14.347 4.8612 13.5722C4.82919 12.7022 4.9115 12.1087 5.17217 11.3293C5.51058 10.328 5.95417 9.61663 6.74532 8.8373C7.75597 7.83142 8.87181 7.25145 10.2437 7.0249C10.7239 6.94334 11.826 6.94334 12.3245 7.0249Z" fill="url(#paint0_linear_39_497)"/>
<defs>
<linearGradient id="paint0_linear_39_497" x1="23.4385" y1="22.939" x2="2.31437" y2="3.03994" gradientUnits="userSpaceOnUse">
<stop stop-color="#CB328F"/>
<stop offset="0.2" stop-color="#CB328F"/>
<stop offset="0.4" stop-color="#97238A"/>
<stop offset="0.6" stop-color="#5456AB"/>
<stop offset="0.8" stop-color="#219DDE"/>
<stop offset="1" stop-color="#22DCD9"/>
</linearGradient>
</defs>
</svg>
