<svg width="212" height="109" viewBox="0 0 212 109" fill="none" xmlns="http://www.w3.org/2000/svg">
<path d="M42.385 70.28C41.7783 70.28 41.41 69.9117 41.28 69.175C41.2367 68.8283 41.4533 68.4817 41.93 68.135C42.4067 67.7883 42.7967 67.55 43.1 67.42C43.3167 67.3333 43.49 67.2683 43.62 67.225C43.75 67.1817 43.8583 67.16 43.945 67.16C44.2483 67.16 44.4 67.3117 44.4 67.615C44.4 67.9617 44.27 68.3733 44.01 68.85C43.7933 69.3267 43.685 69.565 43.685 69.565C43.6417 69.7383 43.49 69.9117 43.23 70.085C42.97 70.215 42.6883 70.28 42.385 70.28ZM35.885 89.455C35.105 89.455 34.5417 89.195 34.195 88.675C33.8483 88.155 33.675 87.505 33.675 86.725C33.675 86.1183 33.74 85.5333 33.87 84.97C33.9567 84.71 34.1733 84.06 34.52 83.02C34.91 81.98 35.4083 80.8317 36.015 79.575C36.665 78.3183 37.3583 77.235 38.095 76.325C38.8317 75.3717 39.59 74.895 40.37 74.895C40.7167 74.895 40.89 74.9817 40.89 75.155C40.89 75.3283 40.8033 75.5017 40.63 75.675C39.7633 76.715 38.94 77.95 38.16 79.38C37.4233 80.7667 36.795 82.0883 36.275 83.345C35.7983 84.6017 35.5167 85.555 35.43 86.205C35.3 87.5917 35.7117 88.285 36.665 88.285C36.795 88.285 36.925 88.285 37.055 88.285C37.185 88.2417 37.3367 88.1983 37.51 88.155C38.42 87.8517 39.3083 87.2883 40.175 86.465C41.0417 85.6417 41.8433 84.7317 42.58 83.735C43.3167 82.7383 43.9233 81.8717 44.4 81.135C44.5733 80.9617 44.6817 80.875 44.725 80.875C44.855 80.875 44.92 80.9833 44.92 81.2C44.92 81.4167 44.855 81.6333 44.725 81.85C43.7717 83.3233 42.645 84.775 41.345 86.205C40.0883 87.635 38.8317 88.5883 37.575 89.065C36.925 89.325 36.3617 89.455 35.885 89.455ZM44.7671 89.455C43.9871 89.455 43.4238 89.195 43.0771 88.675C42.7305 88.155 42.5571 87.505 42.5571 86.725C42.5571 86.1183 42.6221 85.5333 42.7521 84.97C42.8821 84.3633 43.2938 83.3667 43.9871 81.98C44.6805 80.55 45.4388 79.055 46.2621 77.495C45.8288 77.6683 45.3521 77.8633 44.8321 78.08C44.3555 78.2533 44.0088 78.4483 43.7921 78.665C43.6188 78.7517 43.5105 78.795 43.4671 78.795C43.3371 78.795 43.2721 78.7083 43.2721 78.535C43.2721 78.145 43.5105 77.7767 43.9871 77.43C44.4638 77.0833 44.9188 76.845 45.3521 76.715C45.8288 76.585 46.3705 76.4333 46.9771 76.26C47.4538 75.3933 47.9521 74.505 48.4721 73.595C49.0355 72.6417 49.5338 71.8183 49.9671 71.125C50.2705 70.6917 50.7038 70.15 51.2671 69.5C51.8305 68.8067 52.4588 68.2433 53.1521 67.81C53.5421 67.55 54.0621 67.42 54.7121 67.42C55.1888 67.42 55.4488 67.5067 55.4921 67.68C54.8421 67.8533 54.1705 68.2867 53.4771 68.98C52.8271 69.6733 52.1988 70.475 51.5921 71.385C50.9855 72.295 50.4655 73.1617 50.0321 73.985C49.5988 74.765 49.2738 75.3717 49.0571 75.805C49.9671 75.675 50.7255 75.61 51.3321 75.61C51.6788 75.61 51.9821 75.6317 52.2421 75.675C52.5021 75.675 52.7188 75.6967 52.8921 75.74C53.2388 75.7833 53.4121 75.8917 53.4121 76.065C53.4121 76.2383 53.1955 76.325 52.7621 76.325C52.4155 76.325 52.0038 76.325 51.5271 76.325C51.0938 76.325 50.6171 76.3683 50.0971 76.455C49.7071 76.4983 49.2955 76.6283 48.8621 76.845C48.4721 77.0617 48.2121 77.3 48.0821 77.56C47.1288 79.2933 46.2838 80.9617 45.5471 82.565C44.8105 84.1683 44.3988 85.3817 44.3121 86.205C44.1821 87.5917 44.5938 88.285 45.5471 88.285C46.5005 88.285 47.4538 87.8733 48.4071 87.05C49.4038 86.1833 50.3355 85.1867 51.2021 84.06C52.0688 82.9333 52.7621 81.98 53.2821 81.2C53.4555 81.0267 53.5638 80.94 53.6071 80.94C53.7371 80.94 53.8021 81.0483 53.8021 81.265C53.8021 81.4383 53.7371 81.6333 53.6071 81.85C52.8705 82.9767 52.0255 84.125 51.0721 85.295C50.1188 86.465 49.1005 87.4617 48.0171 88.285C46.9771 89.065 45.8938 89.455 44.7671 89.455ZM57.4889 89.52C55.7122 89.52 54.4122 89.13 53.5889 88.35C52.7655 87.5267 52.3539 86.4433 52.3539 85.1C52.3539 84.7533 52.3755 84.4067 52.4189 84.06C52.5055 83.67 52.5922 83.28 52.6789 82.89C52.8955 82.11 53.2422 81.2 53.7189 80.16C54.2389 79.12 54.8672 78.1017 55.6039 77.105C56.3405 76.1083 57.1422 75.285 58.0089 74.635C58.8755 73.985 59.7855 73.66 60.7389 73.66C61.5189 73.66 62.1039 73.9417 62.4939 74.505C62.9272 75.0683 63.1439 75.74 63.1439 76.52C63.1439 77.3433 62.8839 78.1883 62.3639 79.055C61.8872 79.8783 61.2372 80.55 60.4139 81.07C59.4605 81.72 58.3772 82.045 57.1639 82.045C56.3839 82.045 55.6689 81.8933 55.0189 81.59C54.3689 82.89 54.0439 84.1683 54.0439 85.425C54.0439 86.335 54.3039 87.115 54.8239 87.765C55.3439 88.415 56.2105 88.74 57.4239 88.74C58.8972 88.74 60.1972 88.3933 61.3239 87.7C62.4505 86.9633 63.4905 86.01 64.4439 84.84C65.4405 83.67 66.3939 82.4133 67.3039 81.07C67.4339 80.94 67.5205 80.875 67.5639 80.875C67.6939 80.875 67.7589 80.9833 67.7589 81.2C67.7589 81.4167 67.6939 81.6333 67.5639 81.85C66.7839 83.0633 65.8955 84.255 64.8989 85.425C63.9455 86.595 62.8622 87.57 61.6489 88.35C60.4355 89.13 59.0489 89.52 57.4889 89.52ZM56.5139 81.135C57.6405 81.135 58.7022 80.745 59.6989 79.965C60.1755 79.6183 60.5872 79.2067 60.9339 78.73C61.2805 78.2533 61.5189 77.7767 61.6489 77.3C61.7789 76.8233 61.8439 76.4117 61.8439 76.065C61.8439 75.0683 61.4755 74.57 60.7389 74.57C60.2622 74.57 59.7205 74.8517 59.1139 75.415C58.5939 75.8917 58.0522 76.4983 57.4889 77.235C56.9689 77.9717 56.5139 78.6867 56.1239 79.38C55.7339 80.03 55.4739 80.5067 55.3439 80.81C55.6472 81.0267 56.0372 81.135 56.5139 81.135ZM72.4287 89.39C71.692 89.39 71.107 89.1517 70.6737 88.675C70.2837 88.155 70.0887 87.5483 70.0887 86.855C70.0887 86.205 70.2404 85.5767 70.5437 84.97C71.0204 83.9733 71.627 82.9983 72.3637 82.045C73.1437 81.0483 73.8587 80.1817 74.5087 79.445C74.942 78.8817 75.1587 78.405 75.1587 78.015C75.1587 77.495 74.8337 76.975 74.1837 76.455C73.6637 76.1083 73.187 75.6533 72.7537 75.09C72.4504 74.6567 72.2337 74.2233 72.1037 73.79C71.4104 75.22 70.522 76.8883 69.4387 78.795C68.3987 80.6583 67.3154 82.3267 66.1887 83.8C66.0154 84.06 65.842 84.19 65.6687 84.19C65.5387 84.19 65.4737 84.1033 65.4737 83.93C65.4737 83.8433 65.4954 83.7567 65.5387 83.67C65.582 83.5833 65.712 83.3883 65.9287 83.085C67.0554 81.525 67.9654 80.0733 68.6587 78.73C69.352 77.3867 69.9587 76.13 70.4787 74.96L71.9087 71.775C71.952 71.6883 71.9954 71.58 72.0387 71.45C72.1254 71.2767 72.1904 71.1683 72.2337 71.125C72.3204 71.0383 72.407 70.995 72.4937 70.995C72.667 70.995 72.797 71.0817 72.8837 71.255C72.9704 71.4283 72.9704 71.645 72.8837 71.905C72.797 72.3817 72.862 72.8583 73.0787 73.335C73.2954 73.8117 73.577 74.245 73.9237 74.635C74.2704 74.9817 74.7687 75.3067 75.4187 75.61C76.0687 75.9133 76.6537 76.26 77.1737 76.65C77.6937 77.04 77.8887 77.5383 77.7587 78.145C77.5854 78.9683 77.1304 79.77 76.3937 80.55C75.657 81.33 74.9204 82.1533 74.1837 83.02C73.6637 83.5833 73.187 84.1467 72.7537 84.71C72.3637 85.2733 72.0604 85.8583 71.8437 86.465C71.8004 86.595 71.757 86.725 71.7137 86.855C71.7137 86.985 71.7137 87.115 71.7137 87.245C71.7137 88.025 72.1254 88.415 72.9487 88.415C73.2087 88.415 73.5337 88.35 73.9237 88.22C75.007 87.83 76.0037 87.18 76.9137 86.27C77.867 85.36 78.6687 84.45 79.3187 83.54C80.012 82.63 80.467 82.0017 80.6837 81.655C81.0304 81.135 81.247 80.875 81.3337 80.875C81.4637 80.875 81.5287 80.9833 81.5287 81.2C81.5287 81.4167 81.4637 81.6333 81.3337 81.85C80.3804 83.3667 79.297 84.7967 78.0837 86.14C76.8704 87.4833 75.5704 88.4367 74.1837 89C73.5337 89.26 72.9487 89.39 72.4287 89.39ZM91.4031 89.455C90.6231 89.455 90.0381 89.195 89.6481 88.675C89.3015 88.155 89.1281 87.4833 89.1281 86.66C89.1281 86.0967 89.1931 85.5333 89.3231 84.97C89.3665 84.8833 89.4315 84.6883 89.5181 84.385C89.6048 84.0383 89.7348 83.6483 89.9081 83.215C89.3015 84.1683 88.5215 85.23 87.5681 86.4C86.6581 87.5267 85.6398 88.3717 84.5131 88.935C83.8631 89.2383 83.2131 89.39 82.5631 89.39C81.6965 89.39 81.0031 89.065 80.4831 88.415C79.9631 87.7217 79.7031 86.7683 79.7031 85.555C79.7031 84.5583 79.9198 83.4967 80.3531 82.37C80.7865 81.2 81.4148 80.0083 82.2381 78.795C82.7581 78.015 83.4298 77.2567 84.2531 76.52C85.0765 75.7833 85.9648 75.1767 86.9181 74.7C87.8715 74.2233 88.7815 73.985 89.6481 73.985C90.5148 73.985 91.2515 74.2233 91.8581 74.7C92.4648 75.1767 92.7898 75.8917 92.8331 76.845C92.8331 76.975 92.7681 77.0833 92.6381 77.17C92.5515 77.2133 92.4648 77.1483 92.3781 76.975C91.8581 75.805 91.0131 75.22 89.8431 75.22C89.0631 75.22 88.2398 75.5883 87.3731 76.325C86.5065 77.0183 85.6615 77.9067 84.8381 78.99C84.0148 80.0733 83.2998 81.1567 82.6931 82.24C82.1731 83.1933 81.7831 84.06 81.5231 84.84C81.3065 85.62 81.1981 86.2917 81.1981 86.855C81.1981 88.025 81.6531 88.61 82.5631 88.61C83.0398 88.61 83.5598 88.4583 84.1231 88.155C84.6431 87.8517 85.2715 87.31 86.0081 86.53C86.7881 85.75 87.5465 84.8833 88.2831 83.93C89.0631 82.9767 89.7565 82.045 90.3631 81.135C91.0131 80.225 91.4898 79.51 91.7931 78.99C92.4431 77.9067 93.1148 76.9533 93.8081 76.13C94.5015 75.3067 95.1948 74.895 95.8881 74.895C96.2348 74.895 96.4081 74.9817 96.4081 75.155C96.4081 75.3283 96.3215 75.5017 96.1481 75.675C95.2815 76.715 94.4581 77.95 93.6781 79.38C92.9415 80.7667 92.3131 82.0883 91.7931 83.345C91.3165 84.6017 91.0348 85.555 90.9481 86.205C90.8181 87.5917 91.2298 88.285 92.1831 88.285C92.3131 88.285 92.4431 88.285 92.5731 88.285C92.7031 88.2417 92.8548 88.1983 93.0281 88.155C93.9381 87.8517 94.8265 87.2883 95.6931 86.465C96.5598 85.6417 97.3615 84.7533 98.0981 83.8C98.8348 82.8033 99.4415 81.9367 99.9181 81.2C100.048 81.0267 100.156 80.94 100.243 80.94C100.373 80.94 100.438 81.0483 100.438 81.265C100.438 81.395 100.373 81.5683 100.243 81.785C99.9398 82.2183 99.6581 82.6517 99.3981 83.085C99.1381 83.475 98.8781 83.8433 98.6181 84.19C98.5315 84.3633 98.4231 84.515 98.2931 84.645C98.1631 84.775 98.0331 84.9267 97.9031 85.1C97.3398 85.7933 96.6031 86.5517 95.6931 87.375C94.8265 88.155 93.9598 88.7183 93.0931 89.065C92.4431 89.325 91.8798 89.455 91.4031 89.455ZM100.309 89.455C99.5291 89.455 98.9658 89.195 98.6191 88.675C98.2725 88.155 98.0991 87.505 98.0991 86.725C98.0991 86.1183 98.1641 85.5333 98.2941 84.97C98.4241 84.3633 98.8358 83.3667 99.5291 81.98C100.222 80.55 100.981 79.055 101.804 77.495C101.371 77.6683 100.894 77.8633 100.374 78.08C99.8975 78.2533 99.5508 78.4483 99.3341 78.665C99.1608 78.7517 99.0525 78.795 99.0091 78.795C98.8791 78.795 98.8141 78.7083 98.8141 78.535C98.8141 78.145 99.0525 77.7767 99.5291 77.43C100.006 77.0833 100.461 76.845 100.894 76.715C101.371 76.585 101.912 76.4333 102.519 76.26C102.996 75.3933 103.494 74.505 104.014 73.595C104.577 72.6417 105.076 71.8183 105.509 71.125C105.812 70.6917 106.246 70.15 106.809 69.5C107.372 68.8067 108.001 68.2433 108.694 67.81C109.084 67.55 109.604 67.42 110.254 67.42C110.731 67.42 110.991 67.5067 111.034 67.68C110.384 67.8533 109.712 68.2867 109.019 68.98C108.369 69.6733 107.741 70.475 107.134 71.385C106.527 72.295 106.007 73.1617 105.574 73.985C105.141 74.765 104.816 75.3717 104.599 75.805C105.509 75.675 106.267 75.61 106.874 75.61C107.221 75.61 107.524 75.6317 107.784 75.675C108.044 75.675 108.261 75.6967 108.434 75.74C108.781 75.7833 108.954 75.8917 108.954 76.065C108.954 76.2383 108.737 76.325 108.304 76.325C107.957 76.325 107.546 76.325 107.069 76.325C106.636 76.325 106.159 76.3683 105.639 76.455C105.249 76.4983 104.837 76.6283 104.404 76.845C104.014 77.0617 103.754 77.3 103.624 77.56C102.671 79.2933 101.826 80.9617 101.089 82.565C100.352 84.1683 99.9408 85.3817 99.8541 86.205C99.7241 87.5917 100.136 88.285 101.089 88.285C102.042 88.285 102.996 87.8733 103.949 87.05C104.946 86.1833 105.877 85.1867 106.744 84.06C107.611 82.9333 108.304 81.98 108.824 81.2C108.997 81.0267 109.106 80.94 109.149 80.94C109.279 80.94 109.344 81.0483 109.344 81.265C109.344 81.4383 109.279 81.6333 109.149 81.85C108.412 82.9767 107.567 84.125 106.614 85.295C105.661 86.465 104.642 87.4617 103.559 88.285C102.519 89.065 101.436 89.455 100.309 89.455ZM109.391 89.455C108.611 89.455 108.048 89.195 107.701 88.675C107.354 88.155 107.181 87.505 107.181 86.725C107.181 86.1183 107.246 85.5333 107.376 84.97C107.463 84.71 107.679 84.06 108.026 83.02C108.416 81.98 108.914 80.8317 109.521 79.575C110.171 78.3183 110.864 77.235 111.601 76.325C112.338 75.3717 113.096 74.895 113.876 74.895C114.223 74.895 114.396 74.9817 114.396 75.155C114.396 75.3283 114.309 75.5017 114.136 75.675C113.269 76.715 112.446 77.95 111.666 79.38C110.929 80.7667 110.301 82.0883 109.781 83.345C109.304 84.6017 109.023 85.555 108.936 86.205C108.806 87.5917 109.218 88.285 110.171 88.285C110.994 88.285 111.861 87.9167 112.771 87.18C113.724 86.4 114.634 85.425 115.501 84.255C116.411 83.0417 117.191 81.785 117.841 80.485C118.534 79.1417 119.293 77.885 120.116 76.715C120.939 75.5017 121.784 74.895 122.651 74.895C122.998 74.895 123.171 74.9817 123.171 75.155C123.171 75.3283 123.084 75.5017 122.911 75.675C122.044 76.715 121.221 77.95 120.441 79.38C119.704 80.7667 119.076 82.0883 118.556 83.345C118.079 84.6017 117.798 85.555 117.711 86.205C117.581 87.5917 117.993 88.285 118.946 88.285C119.899 88.285 120.874 87.8517 121.871 86.985C122.868 86.1183 123.799 85.1217 124.666 83.995C125.533 82.8683 126.226 81.915 126.746 81.135C126.919 80.9617 127.028 80.875 127.071 80.875C127.201 80.875 127.266 80.9833 127.266 81.2C127.266 81.3733 127.201 81.5683 127.071 81.785C126.378 82.9117 125.533 84.0817 124.536 85.295C123.583 86.465 122.564 87.4617 121.481 88.285C120.398 89.065 119.293 89.455 118.166 89.455C117.386 89.455 116.823 89.195 116.476 88.675C116.129 88.155 115.956 87.505 115.956 86.725C115.956 86.1183 116.021 85.5333 116.151 84.97L116.281 84.385C115.458 85.4683 114.591 86.4433 113.681 87.31C112.814 88.1767 111.948 88.7617 111.081 89.065C110.431 89.325 109.868 89.455 109.391 89.455ZM131.906 89.39C131.17 89.39 130.585 89.1517 130.151 88.675C129.761 88.155 129.566 87.5483 129.566 86.855C129.566 86.205 129.718 85.5767 130.021 84.97C130.498 83.9733 131.105 82.9983 131.841 82.045C132.621 81.0483 133.336 80.1817 133.986 79.445C134.42 78.8817 134.636 78.405 134.636 78.015C134.636 77.495 134.311 76.975 133.661 76.455C133.141 76.1083 132.665 75.6533 132.231 75.09C131.928 74.6567 131.711 74.2233 131.581 73.79C130.888 75.22 130 76.8883 128.916 78.795C127.876 80.6583 126.793 82.3267 125.666 83.8C125.493 84.06 125.32 84.19 125.146 84.19C125.016 84.19 124.951 84.1033 124.951 83.93C124.951 83.8433 124.973 83.7567 125.016 83.67C125.06 83.5833 125.19 83.3883 125.406 83.085C126.533 81.525 127.443 80.0733 128.136 78.73C128.83 77.3867 129.436 76.13 129.956 74.96L131.386 71.775C131.43 71.6883 131.473 71.58 131.516 71.45C131.603 71.2767 131.668 71.1683 131.711 71.125C131.798 71.0383 131.885 70.995 131.971 70.995C132.145 70.995 132.275 71.0817 132.361 71.255C132.448 71.4283 132.448 71.645 132.361 71.905C132.275 72.3817 132.34 72.8583 132.556 73.335C132.773 73.8117 133.055 74.245 133.401 74.635C133.748 74.9817 134.246 75.3067 134.896 75.61C135.546 75.9133 136.131 76.26 136.651 76.65C137.171 77.04 137.366 77.5383 137.236 78.145C137.063 78.9683 136.608 79.77 135.871 80.55C135.135 81.33 134.398 82.1533 133.661 83.02C133.141 83.5833 132.665 84.1467 132.231 84.71C131.841 85.2733 131.538 85.8583 131.321 86.465C131.278 86.595 131.235 86.725 131.191 86.855C131.191 86.985 131.191 87.115 131.191 87.245C131.191 88.025 131.603 88.415 132.426 88.415C132.686 88.415 133.011 88.35 133.401 88.22C134.485 87.83 135.481 87.18 136.391 86.27C137.345 85.36 138.146 84.45 138.796 83.54C139.49 82.63 139.945 82.0017 140.161 81.655C140.508 81.135 140.725 80.875 140.811 80.875C140.941 80.875 141.006 80.9833 141.006 81.2C141.006 81.4167 140.941 81.6333 140.811 81.85C139.858 83.3667 138.775 84.7967 137.561 86.14C136.348 87.4833 135.048 88.4367 133.661 89C133.011 89.26 132.426 89.39 131.906 89.39ZM144.706 89.52C142.929 89.52 141.629 89.13 140.806 88.35C139.982 87.5267 139.571 86.4433 139.571 85.1C139.571 84.7533 139.592 84.4067 139.636 84.06C139.722 83.67 139.809 83.28 139.896 82.89C140.112 82.11 140.459 81.2 140.936 80.16C141.456 79.12 142.084 78.1017 142.821 77.105C143.557 76.1083 144.359 75.285 145.226 74.635C146.092 73.985 147.002 73.66 147.956 73.66C148.736 73.66 149.321 73.9417 149.711 74.505C150.144 75.0683 150.361 75.74 150.361 76.52C150.361 77.3433 150.101 78.1883 149.581 79.055C149.104 79.8783 148.454 80.55 147.631 81.07C146.677 81.72 145.594 82.045 144.381 82.045C143.601 82.045 142.886 81.8933 142.236 81.59C141.586 82.89 141.261 84.1683 141.261 85.425C141.261 86.335 141.521 87.115 142.041 87.765C142.561 88.415 143.427 88.74 144.641 88.74C146.114 88.74 147.414 88.3933 148.541 87.7C149.667 86.9633 150.707 86.01 151.661 84.84C152.657 83.67 153.611 82.4133 154.521 81.07C154.651 80.94 154.737 80.875 154.781 80.875C154.911 80.875 154.976 80.9833 154.976 81.2C154.976 81.4167 154.911 81.6333 154.781 81.85C154.001 83.0633 153.112 84.255 152.116 85.425C151.162 86.595 150.079 87.57 148.866 88.35C147.652 89.13 146.266 89.52 144.706 89.52ZM143.731 81.135C144.857 81.135 145.919 80.745 146.916 79.965C147.392 79.6183 147.804 79.2067 148.151 78.73C148.497 78.2533 148.736 77.7767 148.866 77.3C148.996 76.8233 149.061 76.4117 149.061 76.065C149.061 75.0683 148.692 74.57 147.956 74.57C147.479 74.57 146.937 74.8517 146.331 75.415C145.811 75.8917 145.269 76.4983 144.706 77.235C144.186 77.9717 143.731 78.6867 143.341 79.38C142.951 80.03 142.691 80.5067 142.561 80.81C142.864 81.0267 143.254 81.135 143.731 81.135Z" fill="black"/>
<path d="M209.795 0.746529C206.867 5.02702 203.268 9.413 201.512 10.8599L201.242 11.0785L201.163 12.1034C201.123 12.661 201.071 13.6407 201.044 14.2738C201.025 14.9068 200.998 15.4117 200.985 15.4042C200.979 15.3891 200.867 14.5526 200.729 13.5352C200.597 12.5179 200.479 11.6814 200.465 11.6663C200.459 11.6512 200.347 11.7417 200.229 11.8622C199.722 12.3596 198.294 13.6407 197.34 14.4546C194.472 16.8963 192.195 18.4337 190.38 19.1496C190.327 19.1722 190.413 19.3455 190.623 19.647C191.597 21.0336 192.051 23.0608 191.886 25.2839C191.82 26.1355 191.617 27.492 191.505 27.8236C191.426 28.0572 194.169 25.608 195.959 23.8445C198.873 20.9658 201.584 17.6951 203.604 14.6129C204.143 13.799 204.275 13.6784 203.814 14.417C202.163 17.0998 200.433 19.4058 198.15 21.9832C196.301 24.0707 194.334 25.9622 191.413 28.4641C189.939 29.7302 189.63 29.994 189.761 29.9261C189.801 29.9035 189.84 29.9035 189.84 29.9261C189.84 29.9487 189.735 30.0241 189.603 30.0844C189.472 30.1447 188.34 31.0339 187.083 32.0588C185.827 33.0837 183.807 34.6663 182.583 35.5782C179.623 37.7863 176.649 40.1677 173.886 42.534C169.471 46.3171 166.32 49.7234 163.398 53.8758C163.201 54.1546 163.023 54.3807 163.01 54.3807C162.997 54.3807 163.01 54.3355 163.043 54.2827C163.076 54.2375 163.379 53.7853 163.701 53.288C166.714 48.7286 170.543 44.6516 176.175 39.9793C177.708 38.7132 177.55 38.9996 177.8 37.0703C177.984 35.6988 178.05 33.0009 177.938 31.878C177.853 31.0038 177.675 29.9487 177.596 29.8056C177.478 29.587 176.84 30.0015 175.405 31.2374C172.129 34.0634 167.958 38.5775 166.767 40.5897C162.793 47.2968 160.135 53.6045 158.977 59.0531C158.859 59.6107 158.754 60.0855 158.747 60.1006C158.734 60.1156 158.629 59.9951 158.51 59.8443C158.24 59.4826 157.971 59.3545 157.504 59.3545C157.188 59.3545 156.497 59.558 156.234 59.7238C156.188 59.7539 156.398 59.7614 156.714 59.7464C157.405 59.7012 157.754 59.8368 158.089 60.2588C158.471 60.7487 158.53 61.2611 158.359 62.6327C158.306 63.0472 158.26 63.4315 158.26 63.4918C158.26 63.5672 158.201 63.537 158.076 63.4089C157.832 63.1301 157.596 63.0472 157.109 63.0472C156.023 63.0472 155.174 63.944 155.168 65.0819C155.168 65.6999 155.253 65.7602 155.392 65.2402C155.569 64.5695 155.819 64.155 156.188 63.9515C156.911 63.5521 157.55 64.1098 157.55 65.1422C157.543 65.4738 157.464 65.8204 157.175 66.6946C156.503 68.752 156.05 70.5606 155.628 72.829L155 80.1098C155.309 80.7956 156.694 76.3045 156.714 76.2744C156.74 76.2442 156.694 75.9791 156.734 75.7078C157.326 71.5403 157.707 69.2267 157.971 68.2018C158.898 64.5167 160.319 61.0049 162.319 57.4177C162.701 56.7395 163.037 56.1743 163.069 56.1441C163.109 56.1215 163.004 56.3325 162.846 56.6189C161.898 58.3145 160.642 61.0803 159.951 63.002C159.747 63.5747 159.583 64.057 159.589 64.0645C159.602 64.0796 160.083 63.5747 160.662 62.9567C161.826 61.7057 162.885 60.6582 164.083 59.573C167.162 56.7847 171.958 52.9338 173.886 51.7054C174.142 51.5396 174.794 50.997 175.34 50.4921C178.182 47.8695 181.241 45.5559 184.669 43.4458L186.103 42.5641L185.722 42.4963C185.156 42.4059 182.445 42.436 181.485 42.5415C179.958 42.7073 177.484 43.1143 176.09 43.4232C175.965 43.4534 175.873 43.4534 175.892 43.4383C175.938 43.378 179.741 42.4737 181.781 42.0291C184.768 41.381 186.958 41.0192 188.445 40.9213L189.261 40.8685L190.978 39.6477C193.505 37.8692 198.623 34.184 199.597 33.453C201.4 32.0965 202.9 30.6797 204.446 28.8636C205.446 27.6879 206.262 26.5952 206.196 26.5198C206.031 26.3314 204.058 26.2938 202.735 26.4595C199.722 26.8213 195.347 27.9668 191.492 29.3986C191.11 29.5418 190.788 29.6473 190.774 29.6247C190.709 29.5493 191.176 29.3233 192.439 28.8108C198.215 26.4671 202.992 25.088 206.222 24.8318C206.821 24.779 207.347 24.7036 207.393 24.666C207.538 24.5378 208.479 22.8875 208.821 22.164C209.492 20.7548 210.051 19.1345 210.407 17.5369C210.584 16.7381 210.617 16.512 210.551 16.4592C210.407 16.3613 208.992 16.3914 208.328 16.512C206.374 16.8737 204.124 17.778 201.518 19.2476C200.834 19.6319 200.301 19.9183 200.334 19.8731C200.571 19.6018 204.709 17.0998 206.222 16.316C207.354 15.7358 208.466 15.2309 209.328 14.9143C210.005 14.6656 210.097 14.6129 210.13 14.4396C210.15 14.3341 210.268 13.7387 210.4 13.1208C210.689 11.7115 210.992 9.66923 211.124 8.22984C211.249 6.82813 211.255 4.46181 211.124 3.51226C211.045 2.8943 210.42 0.0833511 210.347 0.000457764C210.334 -0.0146179 210.084 0.324509 209.795 0.746529ZM207.446 7.86057C207.137 8.55389 206.624 9.65416 206.295 10.3098C205.683 11.5306 204.604 13.5126 204.505 13.5805C204.472 13.5955 204.67 13.2187 204.933 12.7289C205.531 11.6211 207.163 8.33534 207.624 7.3029C207.808 6.88088 207.972 6.5493 207.985 6.56437C207.999 6.57944 207.755 7.15972 207.446 7.86057ZM175.807 43.4986C175.787 43.5212 175.728 43.5287 175.682 43.5061C175.629 43.4835 175.649 43.4609 175.721 43.4609C175.794 43.4534 175.833 43.476 175.807 43.4986ZM162.997 54.4862C162.997 54.5013 162.944 54.5616 162.885 54.6143C162.78 54.7123 162.773 54.7047 162.859 54.5842C162.944 54.4636 162.997 54.4259 162.997 54.4862Z" fill="url(#paint0_linear_263_47)"/>
<path d="M186.41 22.2642C184.897 23.4926 182.634 25.3314 181.377 26.3487L179.081 28.1951V30.8704C179.081 33.0709 179.061 33.6964 178.962 34.3973C178.739 36.0175 178.357 37.4117 177.903 38.2783C177.778 38.5119 177.686 38.7079 177.706 38.7079C177.719 38.7079 178.179 38.3612 178.726 37.9317C179.272 37.5021 181.377 35.8743 183.41 34.3219C187.45 31.2246 188.575 30.3429 190.272 28.9411L191.397 28.0142L191.443 27.0496C191.542 24.947 191.239 22.6335 190.713 21.4201C190.404 20.7193 189.667 20.0034 189.272 20.026C189.206 20.026 187.917 21.0358 186.41 22.2642Z" fill="url(#paint1_linear_263_47)"/>
<path d="M73.284 108.07C72.556 108.07 71.8653 107.949 71.212 107.706C70.568 107.454 70.0687 107.132 69.714 106.74L70.036 106.208C70.372 106.553 70.8293 106.847 71.408 107.09C71.996 107.323 72.6167 107.44 73.27 107.44C73.9233 107.44 74.4553 107.356 74.866 107.188C75.286 107.011 75.594 106.777 75.79 106.488C75.9953 106.199 76.098 105.877 76.098 105.522C76.098 105.102 75.986 104.766 75.762 104.514C75.538 104.262 75.244 104.061 74.88 103.912C74.516 103.763 74.1193 103.637 73.69 103.534C73.2607 103.431 72.8267 103.324 72.388 103.212C71.9493 103.091 71.548 102.937 71.184 102.75C70.82 102.563 70.526 102.311 70.302 101.994C70.0873 101.667 69.98 101.247 69.98 100.734C69.98 100.267 70.1013 99.838 70.344 99.446C70.5867 99.054 70.9647 98.7367 71.478 98.494C71.9913 98.2513 72.6493 98.13 73.452 98.13C73.9933 98.13 74.5253 98.2093 75.048 98.368C75.58 98.5267 76.0327 98.7413 76.406 99.012L76.14 99.586C75.7293 99.306 75.286 99.1007 74.81 98.97C74.3433 98.83 73.8907 98.76 73.452 98.76C72.8267 98.76 72.3087 98.8487 71.898 99.026C71.4873 99.2033 71.184 99.4413 70.988 99.74C70.792 100.029 70.694 100.356 70.694 100.72C70.694 101.14 70.8013 101.476 71.016 101.728C71.24 101.98 71.534 102.181 71.898 102.33C72.262 102.479 72.6633 102.605 73.102 102.708C73.5407 102.811 73.9747 102.923 74.404 103.044C74.8333 103.156 75.23 103.305 75.594 103.492C75.958 103.679 76.252 103.931 76.476 104.248C76.7 104.565 76.812 104.976 76.812 105.48C76.812 105.937 76.686 106.367 76.434 106.768C76.182 107.16 75.7947 107.477 75.272 107.72C74.7587 107.953 74.096 108.07 73.284 108.07ZM81.3393 108V98.2H84.8533C85.6746 98.2 86.3793 98.3307 86.9673 98.592C87.5553 98.8533 88.0079 99.2313 88.3253 99.726C88.6426 100.211 88.8013 100.804 88.8013 101.504C88.8013 102.185 88.6426 102.773 88.3253 103.268C88.0079 103.763 87.5553 104.141 86.9673 104.402C86.3793 104.663 85.6746 104.794 84.8533 104.794H81.7313L82.0533 104.458V108H81.3393ZM82.0533 104.5L81.7313 104.15H84.8533C85.9079 104.15 86.7059 103.921 87.2473 103.464C87.7979 102.997 88.0733 102.344 88.0733 101.504C88.0733 100.655 87.7979 100.001 87.2473 99.544C86.7059 99.0773 85.9079 98.844 84.8533 98.844H81.7313L82.0533 98.494V104.5ZM93.9403 102.708H99.2463V103.338H93.9403V102.708ZM94.0243 107.356H100.072V108H93.3103V98.2H99.8623V98.844H94.0243V107.356ZM108.879 108.07C108.151 108.07 107.474 107.949 106.849 107.706C106.233 107.454 105.696 107.104 105.239 106.656C104.781 106.208 104.427 105.685 104.175 105.088C103.923 104.481 103.797 103.819 103.797 103.1C103.797 102.381 103.923 101.723 104.175 101.126C104.427 100.519 104.781 99.992 105.239 99.544C105.705 99.096 106.247 98.7507 106.863 98.508C107.479 98.256 108.151 98.13 108.879 98.13C109.569 98.13 110.213 98.242 110.811 98.466C111.417 98.69 111.935 99.0307 112.365 99.488L111.917 99.95C111.497 99.5393 111.03 99.2453 110.517 99.068C110.013 98.8813 109.476 98.788 108.907 98.788C108.281 98.788 107.698 98.8953 107.157 99.11C106.625 99.3247 106.158 99.628 105.757 100.02C105.365 100.412 105.057 100.869 104.833 101.392C104.618 101.915 104.511 102.484 104.511 103.1C104.511 103.716 104.618 104.285 104.833 104.808C105.057 105.331 105.365 105.788 105.757 106.18C106.158 106.572 106.625 106.875 107.157 107.09C107.698 107.305 108.281 107.412 108.907 107.412C109.476 107.412 110.013 107.323 110.517 107.146C111.03 106.959 111.497 106.656 111.917 106.236L112.365 106.698C111.935 107.155 111.417 107.501 110.811 107.734C110.213 107.958 109.569 108.07 108.879 108.07ZM118.609 108V98.844H115.081V98.2H122.851V98.844H119.323V108H118.609ZM126.722 108V98.2H130.236C131.057 98.2 131.762 98.3307 132.35 98.592C132.938 98.8533 133.39 99.2313 133.708 99.726C134.025 100.211 134.184 100.804 134.184 101.504C134.184 102.185 134.025 102.773 133.708 103.268C133.39 103.753 132.938 104.131 132.35 104.402C131.762 104.663 131.057 104.794 130.236 104.794H127.114L127.436 104.458V108H126.722ZM133.526 108L130.978 104.444H131.79L134.338 108H133.526ZM127.436 104.5L127.114 104.164H130.236C131.29 104.164 132.088 103.931 132.63 103.464C133.18 102.997 133.456 102.344 133.456 101.504C133.456 100.655 133.18 100.001 132.63 99.544C132.088 99.0773 131.29 98.844 130.236 98.844H127.114L127.436 98.494V104.5ZM142.734 108.07C141.521 108.07 140.564 107.715 139.864 107.006C139.164 106.297 138.814 105.242 138.814 103.842V98.2H139.528V103.814C139.528 105.037 139.808 105.942 140.368 106.53C140.928 107.118 141.721 107.412 142.748 107.412C143.765 107.412 144.554 107.118 145.114 106.53C145.674 105.942 145.954 105.037 145.954 103.814V98.2H146.668V103.842C146.668 105.242 146.318 106.297 145.618 107.006C144.918 107.715 143.957 108.07 142.734 108.07ZM152.099 108V98.2H152.701L157.251 106.054H156.929L161.465 98.2H162.053L162.067 108H161.367L161.353 99.278H161.549L157.251 106.698H156.901L152.589 99.278H152.799V108H152.099ZM169.502 108L166.254 98.2H168.144L171.042 107.062H170.104L173.114 98.2H174.794L177.72 107.062H176.81L179.778 98.2H181.514L178.266 108H176.334L173.66 100.006H174.164L171.448 108H169.502ZM185.097 108V98.2H186.917V108H185.097ZM194.706 108.14C193.94 108.14 193.208 108.033 192.508 107.818C191.808 107.594 191.252 107.309 190.842 106.964L191.472 105.55C191.864 105.858 192.349 106.115 192.928 106.32C193.506 106.525 194.099 106.628 194.706 106.628C195.219 106.628 195.634 106.572 195.952 106.46C196.269 106.348 196.502 106.199 196.652 106.012C196.801 105.816 196.876 105.597 196.876 105.354C196.876 105.055 196.768 104.817 196.554 104.64C196.339 104.453 196.059 104.309 195.714 104.206C195.378 104.094 195 103.991 194.58 103.898C194.169 103.805 193.754 103.697 193.334 103.576C192.923 103.445 192.545 103.282 192.2 103.086C191.864 102.881 191.588 102.61 191.374 102.274C191.159 101.938 191.052 101.509 191.052 100.986C191.052 100.454 191.192 99.9687 191.472 99.53C191.761 99.082 192.195 98.7273 192.774 98.466C193.362 98.1953 194.104 98.06 195 98.06C195.588 98.06 196.171 98.1347 196.75 98.284C197.328 98.4333 197.832 98.648 198.262 98.928L197.688 100.342C197.249 100.081 196.796 99.8893 196.33 99.768C195.863 99.6373 195.415 99.572 194.986 99.572C194.482 99.572 194.071 99.6327 193.754 99.754C193.446 99.8753 193.217 100.034 193.068 100.23C192.928 100.426 192.858 100.65 192.858 100.902C192.858 101.201 192.96 101.443 193.166 101.63C193.38 101.807 193.656 101.947 193.992 102.05C194.337 102.153 194.72 102.255 195.14 102.358C195.56 102.451 195.975 102.559 196.386 102.68C196.806 102.801 197.184 102.96 197.52 103.156C197.865 103.352 198.14 103.618 198.346 103.954C198.56 104.29 198.668 104.715 198.668 105.228C198.668 105.751 198.523 106.236 198.234 106.684C197.954 107.123 197.52 107.477 196.932 107.748C196.344 108.009 195.602 108.14 194.706 108.14ZM204.252 102.274H209.124V103.772H204.252V102.274ZM204.392 106.474H209.922V108H202.572V98.2H209.726V99.726H204.392V106.474Z" fill="black"/>
<path d="M3.51 58.705C3.835 57.86 5.07 58.445 4.68 59.095C3.055 62.475 6.89 69.495 16.705 71.25C17.81 71.445 18.98 71.575 20.15 71.575C24.44 58.9 30.94 47.265 38.22 50.06C42.64 51.815 42.51 59.875 37.57 65.27C33.085 70.145 27.365 72.16 22.425 72.55L21.255 76.32C19.37 82.69 15.86 88.67 12.155 92.635C15.275 93.155 18.72 94.065 22.36 95.17C31.2 97.835 36.985 100.175 41.925 100.37C47.385 100.5 48.685 99.005 49.01 96.34C49.14 95.3 50.7 95.69 50.44 96.535C49.465 99.655 47.06 100.825 43.68 100.955C36.92 101.28 30.485 99.85 22.295 97.25C18.07 95.885 14.105 94.715 10.79 94C9.1 95.56 7.41 96.6 5.915 97.055C3.12 97.835 0.78 96.73 0.78 94.91C0.78 91.92 4.875 91.465 10.79 92.375C13.91 88.345 17.03 81.975 18.915 75.54L19.825 72.615C18.655 72.615 17.55 72.485 16.575 72.29C6.5 70.47 1.755 62.41 3.51 58.705ZM1.43 94.91C1.43 96.405 3.315 97.185 5.785 96.47C6.955 96.145 8.255 95.17 9.62 93.74C4.68 92.765 1.43 92.895 1.43 94.91ZM22.815 71.38C27.04 70.795 31.59 68.78 35.685 64.295C40.495 58.965 41.015 51.815 37.96 50.645C32.565 48.565 26.91 59.225 22.815 71.38Z" fill="black"/>
<defs>
<linearGradient id="paint0_linear_263_47" x1="222.967" y1="17.0411" x2="146.327" y2="71.8064" gradientUnits="userSpaceOnUse">
<stop stop-color="#22DCD9"/>
<stop offset="0.2" stop-color="#22AFDD"/>
<stop offset="0.4" stop-color="#5259AE"/>
<stop offset="0.6" stop-color="#7A3A99"/>
<stop offset="0.8" stop-color="#C73491"/>
<stop offset="1" stop-color="#F73E94"/>
</linearGradient>
<linearGradient id="paint1_linear_263_47" x1="201.697" y1="16.8453" x2="146.78" y2="50.3571" gradientUnits="userSpaceOnUse">
<stop stop-color="#22DCD9"/>
<stop offset="0.166667" stop-color="#22ACDD"/>
<stop offset="0.333333" stop-color="#3D77C3"/>
<stop offset="0.5" stop-color="#803596"/>
<stop offset="0.666667" stop-color="#A5278C"/>
<stop offset="0.833333" stop-color="#D03390"/>
<stop offset="1" stop-color="#F73E94"/>
</linearGradient>
</defs>
</svg>
