<svg width="20" height="20" viewBox="0 0 20 20" fill="none" xmlns="http://www.w3.org/2000/svg">
<path d="M10 0C4.48602 0 0 4.48594 0 10C0 15.5141 4.48602 20 10 20C15.514 20 20 15.5141 20 10C20 4.48594 15.514 0 10 0ZM12.5869 17.639C11.7745 17.9148 10.9045 18.0645 10 18.0645C5.55324 18.0645 1.93547 14.4468 1.93547 10C1.93547 5.5532 5.55324 1.93547 10 1.93547C10.9045 1.93547 11.7746 2.08516 12.587 2.36102C10.4145 4.19684 9.03227 6.93973 9.03227 10C9.03227 13.0603 10.4145 15.8032 12.5869 17.639Z" fill="url(#paint0_linear_337_9)"/>
<defs>
<linearGradient id="paint0_linear_337_9" x1="5.2" y1="0.4" x2="18" y2="20" gradientUnits="userSpaceOnUse">
<stop stop-color="#CB328F"/>
<stop offset="0.2" stop-color="#CB328F"/>
<stop offset="0.4" stop-color="#97238A"/>
<stop offset="0.6" stop-color="#5456AB"/>
<stop offset="0.8" stop-color="#219DDE"/>
<stop offset="1" stop-color="#22DCD9"/>
</linearGradient>
</defs>
</svg>
