<svg width="26" height="26" viewBox="0 0 26 26" fill="none" xmlns="http://www.w3.org/2000/svg">
<path d="M8.52228 0.0775604C6.08607 1.02156 3.95343 2.69737 2.43429 4.86106C0.545527 7.55329 -0.287713 10.8528 0.0882609 14.1536C0.42613 17.1101 1.74331 19.8748 3.82895 22.0042C5.95143 24.1704 8.6874 25.5311 11.6723 25.9047C12.2553 25.9784 12.6453 26.0012 13.3172 26C14.2864 26 15.0269 25.9288 15.9338 25.7471C19.1461 25.103 21.9964 23.2899 23.9842 20.6269C24.7438 19.608 25.3814 18.4302 25.8158 17.2385C25.8946 17.0263 26 16.7137 26 16.6972C26 16.6934 25.9276 16.7976 25.8374 16.931C24.8733 18.3616 23.6629 19.5406 22.2212 20.4554C19.4916 22.1859 16.1726 22.7601 12.9997 22.0486C10.1621 21.4134 7.6268 19.7617 5.87141 17.4062C4.57328 15.6643 3.76798 13.6187 3.52411 11.4474C3.44155 10.7054 3.43138 9.75129 3.49997 8.98898C3.63207 7.5012 4.03472 6.05281 4.68505 4.72004C5.45987 3.13316 6.56112 1.73813 7.93164 0.609909C8.10947 0.463799 8.52863 0.144899 8.66581 0.0521507C8.71535 0.0178471 8.73694 -0.00121117 8.72297 5.91278e-05C8.72043 5.91278e-05 8.63024 0.0356331 8.52228 0.0775604Z" fill="url(#paint0_linear_43_316)"/>
<defs>
<linearGradient id="paint0_linear_43_316" x1="28" y1="26" x2="-1.60933e-06" y2="5.96047e-08" gradientUnits="userSpaceOnUse">
<stop stop-color="#CB328F"/>
<stop offset="0.2" stop-color="#CB328F"/>
<stop offset="0.4" stop-color="#97238A"/>
<stop offset="0.6" stop-color="#5456AB"/>
<stop offset="0.8" stop-color="#219DDE"/>
<stop offset="1" stop-color="#22DCD9"/>
</linearGradient>
</defs>
</svg>
