<svg width="408" height="391" viewBox="0 0 408 391" fill="none" xmlns="http://www.w3.org/2000/svg">
<g filter="url(#filter0_d_26_426)">
<path d="M295.25 214.037C295.25 214.037 302.53 200.441 297.523 194.063C292.515 187.687 288.866 182.54 288.866 182.54C288.866 182.54 269.13 199.53 295.25 214.037Z" fill="#675421"/>
<path d="M296.651 220.632C295.647 217.111 294.857 213.577 293.99 210.061C293.576 208.298 293.132 206.545 292.666 204.799C292.18 203.056 291.725 201.305 291.062 199.594C292.108 201.137 292.851 202.849 293.478 204.573C294.117 206.299 294.612 208.063 295.047 209.836C295.889 213.388 296.491 216.988 296.651 220.632Z" fill="#1F1F1F"/>
<path d="M298.34 195.392C292.316 192.133 288.568 188.638 286.395 185.161C287.744 183.502 288.861 182.54 288.861 182.54C288.861 182.54 292.509 187.686 297.517 194.062C297.842 194.477 298.113 194.923 298.34 195.392Z" fill="#1F1F1F"/>
<path d="M300.812 195.715C300.812 195.715 310.74 180.01 305.456 171.93C300.173 163.85 296.371 157.364 296.371 157.364C296.371 157.364 271.409 176.089 300.812 195.715Z" fill="#675421"/>
<path d="M323.353 188.307C323.353 188.307 305.898 196.439 304.571 206.406C303.244 216.374 301.855 224.13 301.855 224.13C301.855 224.13 332.336 221.739 323.353 188.307Z" fill="#675421"/>
<path d="M14.6798 240.382L12.4627 224.671C12.251 222.928 13.6408 221.374 15.5115 221.262L185.229 211.214L206.336 218.904L14.6798 240.382Z" fill="url(#paint0_linear_26_426)"/>
<path d="M190.962 218.663L24.1914 232.698" stroke="#2F2E41" stroke-width="2.66667" stroke-miterlimit="10"/>
<path d="M14.3965 221.533C13.1272 222.06 12.2955 223.303 12.4627 224.674L14.5354 239.366L20.2812 238.676C18.4343 229.28 16.9599 220.797 14.3965 221.533Z" fill="#A1519D"/>
<path d="M49.8555 226.875L51.2376 233.459L60.6869 232.596L59.3036 226.227L49.8555 226.875Z" fill="#2F2E41"/>
<path d="M42.9523 141.29C78.782 204.344 55.243 238.719 55.243 238.719L202.427 222.447C202.427 222.447 215.933 192.954 183.361 148.205C150.789 103.457 159.214 66.1534 151.614 46.8303C149.962 42.631 116.026 19.9518 116.026 19.9518C44.2216 -19.1327 7.9989 79.7782 42.9523 141.29Z" fill="#A5ABA7"/>
<path d="M20.1507 288.511C20.5589 290.54 21.4134 292.476 22.6587 294.18C32.8528 308.127 81.8059 374.886 86.4713 377.07C91.6829 379.512 100.543 389.274 150.574 373.653C200.605 358.032 302.232 331.183 303.794 329.23C305.359 327.278 318.908 314.097 283.99 303.359C283.99 303.359 285.554 279.927 260.538 265.769C260.538 265.769 249.073 221.346 211.029 219.394C211.029 219.394 46.3421 233.063 41.1306 233.551C36.008 234.031 8.22375 229.322 20.1507 288.511Z" fill="url(#paint1_linear_26_426)"/>
<mask id="mask0_26_426" style="mask-type:luminance" maskUnits="userSpaceOnUse" x="52" y="274" width="111" height="27">
<path d="M52.6133 274.175H162.957V300.743H52.6133V274.175Z" fill="white"/>
</mask>
<g mask="url(#mask0_26_426)">
<g opacity="0.100006">
<path d="M162.957 280.779C162.945 280.695 149.018 282.322 146.54 282.61C113.98 286.394 97.6989 288.287 87.9098 287.369C79.4442 286.575 67.0961 283.791 52.6133 274.175C54.5318 281.426 56.1669 289.929 57.2918 299.94C57.2918 299.94 57.5339 300.214 57.9475 300.743C64.3046 297.338 77.0784 294.953 98.0724 291.396C130.039 285.98 162.975 280.909 162.957 280.779Z" fill="#000467"/>
</g>
</g>
<path d="M75.6562 307.627L259.495 274.066C259.495 274.066 273.045 279.925 275.651 302.868C275.651 302.868 307.963 309.702 298.582 315.561C289.202 321.419 136.612 361.178 122.951 364.377C108.359 367.793 97.6752 369.99 87.252 351.929C87.252 351.929 90.6395 337.161 75.6562 307.627Z" fill="#2F2E41"/>
<path d="M96.9844 306.158L97.0419 310.308C97.0593 311.555 99.6097 312.535 102.74 312.496C105.87 312.459 108.393 311.417 108.376 310.171L108.318 306.021L96.9844 306.158Z" fill="#A5ABA7"/>
<path d="M108.315 305.652C108.332 306.899 105.809 307.94 102.679 307.977C99.5494 308.016 96.9979 307.036 96.9806 305.789C96.9632 304.542 99.4865 303.501 102.617 303.463C105.747 303.425 108.297 304.405 108.315 305.652Z" fill="#DAE4DD"/>
<path d="M113.168 302.847L113.226 306.996C113.242 308.243 115.793 309.224 118.924 309.185C122.054 309.147 124.577 308.106 124.56 306.859L124.502 302.71L113.168 302.847Z" fill="#A5ABA7"/>
<path d="M124.49 302.348C124.508 303.595 121.985 304.636 118.854 304.674C115.724 304.711 113.174 303.731 113.156 302.485C113.139 301.237 115.662 300.197 118.791 300.159C121.922 300.121 124.473 301.1 124.49 302.348Z" fill="#DAE4DD"/>
<path d="M129.34 299.54L129.396 303.689C129.414 304.936 131.965 305.916 135.095 305.877C138.226 305.84 140.748 304.798 140.731 303.551L140.674 299.402L129.34 299.54Z" fill="#A5ABA7"/>
<path d="M140.662 299.04C140.68 300.287 138.156 301.328 135.026 301.366C131.897 301.403 129.346 300.423 129.328 299.177C129.311 297.93 131.834 296.889 134.964 296.851C138.095 296.814 140.645 297.792 140.662 299.04Z" fill="#DAE4DD"/>
<path d="M145.516 296.233L145.573 300.381C145.591 301.629 148.141 302.609 151.271 302.57C154.401 302.532 156.925 301.492 156.907 300.244L156.85 296.095L145.516 296.233Z" fill="#A5ABA7"/>
<path d="M156.846 295.729C156.863 296.977 154.34 298.017 151.21 298.055C148.08 298.092 145.529 297.113 145.512 295.866C145.494 294.619 148.018 293.578 151.148 293.54C154.277 293.503 156.829 294.482 156.846 295.729Z" fill="#DAE4DD"/>
<path d="M161.691 292.928L161.749 297.077C161.765 298.324 164.317 299.304 167.447 299.265C170.577 299.227 173.1 298.186 173.083 296.939L173.026 292.79L161.691 292.928Z" fill="#A5ABA7"/>
<path d="M173.022 292.421C173.039 293.669 170.516 294.709 167.386 294.747C164.255 294.786 161.705 293.805 161.688 292.558C161.67 291.311 164.193 290.27 167.323 290.232C170.453 290.195 173.004 291.174 173.022 292.421Z" fill="#DAE4DD"/>
<path d="M177.871 289.616L177.929 293.766C177.946 295.013 180.496 295.993 183.627 295.954C186.757 295.917 189.28 294.875 189.263 293.629L189.205 289.479L177.871 289.616Z" fill="#A5ABA7"/>
<path d="M189.194 289.113C189.211 290.36 186.688 291.402 183.557 291.439C180.428 291.477 177.877 290.497 177.859 289.251C177.842 288.003 180.365 286.963 183.496 286.925C186.626 286.886 189.176 287.866 189.194 289.113Z" fill="#DAE4DD"/>
<path d="M194.047 286.308L194.104 290.458C194.121 291.705 196.672 292.685 199.802 292.646C202.933 292.609 205.456 291.567 205.439 290.32L205.381 286.171L194.047 286.308Z" fill="#A5ABA7"/>
<path d="M205.377 285.809C205.395 287.056 202.871 288.098 199.741 288.135C196.611 288.173 194.06 287.192 194.043 285.947C194.026 284.7 196.549 283.658 199.679 283.621C202.808 283.583 205.36 284.561 205.377 285.809Z" fill="#DAE4DD"/>
<path d="M210.223 283L210.28 287.149C210.298 288.397 212.849 289.376 215.979 289.337C219.108 289.3 221.632 288.259 221.614 287.011L221.557 282.863L210.223 283Z" fill="#A5ABA7"/>
<path d="M221.556 282.498C221.573 283.745 219.05 284.786 215.921 284.824C212.791 284.861 210.239 283.882 210.223 282.635C210.204 281.388 212.728 280.347 215.858 280.309C218.988 280.272 221.538 281.251 221.556 282.498Z" fill="#DAE4DD"/>
<path d="M226.402 279.691L226.46 283.841C226.476 285.087 229.028 286.068 232.158 286.029C235.288 285.991 237.811 284.95 237.794 283.702L237.736 279.554L226.402 279.691Z" fill="#A5ABA7"/>
<path d="M237.725 279.19C237.742 280.438 235.218 281.478 232.09 281.516C228.96 281.555 226.408 280.574 226.391 279.327C226.373 278.081 228.897 277.039 232.027 277.002C235.157 276.964 237.707 277.943 237.725 279.19Z" fill="#DAE4DD"/>
<path d="M242.578 276.386L242.636 280.535C242.652 281.782 245.203 282.762 248.334 282.724C251.464 282.686 253.987 281.644 253.97 280.398L253.912 276.248L242.578 276.386Z" fill="#A5ABA7"/>
<path d="M253.912 275.881C253.93 277.127 251.405 278.169 248.276 278.206C245.147 278.244 242.595 277.264 242.578 276.018C242.561 274.77 245.084 273.73 248.214 273.691C251.345 273.653 253.895 274.633 253.912 275.881Z" fill="#DAE4DD"/>
<path d="M95.582 317.892L95.6396 322.04C95.6569 323.288 98.2074 324.268 101.338 324.229C104.468 324.191 106.991 323.15 106.974 321.903L106.916 317.755L95.582 317.892Z" fill="#A5ABA7"/>
<path d="M106.912 317.388C106.93 318.635 104.406 319.676 101.276 319.714C98.146 319.751 95.5956 318.771 95.5782 317.525C95.5608 316.278 98.0841 315.237 101.214 315.199C104.343 315.162 106.895 316.14 106.912 317.388Z" fill="#DAE4DD"/>
<path d="M111.766 314.584L111.823 318.732C111.839 319.98 114.391 320.96 117.521 320.921C120.651 320.883 123.175 319.843 123.157 318.595L123.1 314.446L111.766 314.584Z" fill="#A5ABA7"/>
<path d="M123.096 314.078C123.113 315.326 120.589 316.367 117.46 316.404C114.33 316.442 111.779 315.462 111.762 314.216C111.744 312.969 114.268 311.927 117.397 311.89C120.527 311.852 123.079 312.831 123.096 314.078Z" fill="#DAE4DD"/>
<path d="M127.938 311.275L127.995 315.425C128.012 316.671 130.563 317.652 133.693 317.613C136.823 317.576 139.347 316.534 139.329 315.287L139.272 311.138L127.938 311.275Z" fill="#A5ABA7"/>
<path d="M139.268 310.771C139.285 312.019 136.762 313.059 133.632 313.098C130.501 313.136 127.951 312.155 127.934 310.909C127.916 309.662 130.44 308.621 133.57 308.583C136.7 308.545 139.25 309.524 139.268 310.771Z" fill="#DAE4DD"/>
<path d="M144.113 307.968L144.171 312.117C144.187 313.364 146.739 314.344 149.869 314.306C152.999 314.268 155.522 313.226 155.505 311.98L155.447 307.83L144.113 307.968Z" fill="#A5ABA7"/>
<path d="M155.444 307.465C155.461 308.711 152.938 309.753 149.807 309.79C146.677 309.828 144.127 308.848 144.109 307.602C144.092 306.354 146.615 305.314 149.744 305.276C152.875 305.237 155.426 306.217 155.444 307.465Z" fill="#DAE4DD"/>
<path d="M160.293 304.661L160.351 308.809C160.367 310.057 162.918 311.037 166.049 310.998C169.179 310.96 171.701 309.919 171.685 308.672L171.627 304.523L160.293 304.661Z" fill="#A5ABA7"/>
<path d="M171.627 304.155C171.645 305.402 169.12 306.443 165.991 306.481C162.861 306.519 160.31 305.538 160.293 304.292C160.276 303.045 162.799 302.004 165.928 301.966C169.058 301.929 171.61 302.908 171.627 304.155Z" fill="#DAE4DD"/>
<path d="M176.469 301.351L176.526 305.5C176.544 306.748 179.094 307.728 182.224 307.688C185.354 307.651 187.878 306.61 187.86 305.362L187.803 301.214L176.469 301.351Z" fill="#A5ABA7"/>
<path d="M187.799 300.847C187.816 302.095 185.293 303.136 182.163 303.173C179.033 303.211 176.482 302.232 176.465 300.985C176.448 299.738 178.971 298.696 182.101 298.659C185.231 298.621 187.782 299.601 187.799 300.847Z" fill="#DAE4DD"/>
<path d="M192.645 298.045L192.702 302.194C192.718 303.441 195.27 304.421 198.4 304.383C201.53 304.344 204.054 303.304 204.036 302.057L203.979 297.907L192.645 298.045Z" fill="#A5ABA7"/>
<path d="M203.975 297.541C203.992 298.789 201.468 299.829 198.339 299.868C195.209 299.905 192.658 298.925 192.641 297.678C192.623 296.431 195.147 295.39 198.276 295.352C201.406 295.314 203.957 296.294 203.975 297.541Z" fill="#DAE4DD"/>
<path d="M208.824 294.737L208.882 298.886C208.898 300.133 211.451 301.114 214.581 301.075C217.71 301.037 220.233 299.996 220.216 298.749L220.158 294.6L208.824 294.737Z" fill="#A5ABA7"/>
<path d="M220.15 294.234C220.167 295.481 217.644 296.522 214.515 296.56C211.384 296.598 208.833 295.617 208.817 294.371C208.798 293.124 211.321 292.083 214.452 292.044C217.582 292.007 220.132 292.986 220.15 294.234Z" fill="#DAE4DD"/>
<path d="M225 291.428L225.058 295.577C225.074 296.825 227.625 297.804 230.756 297.765C233.886 297.728 236.409 296.686 236.392 295.44L236.334 291.29L225 291.428Z" fill="#A5ABA7"/>
<path d="M236.33 290.925C236.348 292.171 233.823 293.213 230.695 293.25C227.565 293.288 225.014 292.308 224.996 291.062C224.979 289.815 227.502 288.774 230.632 288.736C233.762 288.698 236.313 289.677 236.33 290.925Z" fill="#DAE4DD"/>
<path d="M241.172 288.121L241.229 292.269C241.246 293.517 243.797 294.497 246.927 294.458C250.058 294.42 252.581 293.38 252.564 292.132L252.506 287.984L241.172 288.121Z" fill="#A5ABA7"/>
<path d="M252.506 287.617C252.523 288.864 249.999 289.905 246.87 289.943C243.741 289.98 241.188 289.001 241.172 287.754C241.155 286.507 243.678 285.466 246.808 285.428C249.937 285.391 252.489 286.37 252.506 287.617Z" fill="#DAE4DD"/>
<path d="M257.254 284.72L257.311 288.87C257.329 290.117 259.88 291.097 263.011 291.058C266.14 291.02 268.663 289.979 268.646 288.733L268.588 284.583L257.254 284.72Z" fill="#A5ABA7"/>
<path d="M268.583 284.216C268.602 285.464 266.077 286.505 262.948 286.543C259.818 286.581 257.266 285.601 257.25 284.354C257.232 283.107 259.755 282.066 262.885 282.028C266.015 281.99 268.566 282.97 268.583 284.216Z" fill="#DAE4DD"/>
<path d="M124.363 323.85L124.421 327.999C124.438 329.247 126.99 330.226 130.12 330.187C133.25 330.149 135.772 329.107 135.755 327.86L135.697 323.711L124.363 323.85Z" fill="#A5ABA7"/>
<path d="M135.697 323.343C135.715 324.591 133.192 325.633 130.062 325.67C126.932 325.709 124.381 324.73 124.363 323.483C124.346 322.236 126.869 321.194 129.998 321.156C133.129 321.118 135.68 322.097 135.697 323.343Z" fill="#DAE4DD"/>
<path d="M107.027 326.828L107.085 330.977C107.102 332.225 109.654 333.204 112.784 333.165C115.914 333.127 118.436 332.085 118.419 330.838L118.361 326.689L107.027 326.828Z" fill="#A5ABA7"/>
<path d="M118.362 326.322C118.379 327.57 115.856 328.611 112.727 328.649C109.596 328.687 107.045 327.708 107.027 326.461C107.01 325.214 109.533 324.173 112.662 324.134C115.793 324.097 118.344 325.075 118.362 326.322Z" fill="#DAE4DD"/>
<path d="M140.547 320.542L140.604 324.69C140.622 325.938 143.173 326.917 146.304 326.878C149.434 326.84 151.957 325.799 151.94 324.552L151.881 320.402L140.547 320.542Z" fill="#A5ABA7"/>
<path d="M151.877 320.036C151.895 321.284 149.371 322.325 146.242 322.363C143.112 322.401 140.56 321.421 140.543 320.175C140.526 318.928 143.049 317.887 146.178 317.848C149.308 317.811 151.86 318.789 151.877 320.036Z" fill="#DAE4DD"/>
<path d="M156.719 317.232L156.776 321.381C156.794 322.628 159.345 323.608 162.475 323.568C165.606 323.531 168.128 322.489 168.11 321.241L168.053 317.093L156.719 317.232Z" fill="#A5ABA7"/>
<path d="M168.053 316.723C168.07 317.971 165.547 319.012 162.418 319.05C159.288 319.088 156.736 318.108 156.719 316.862C156.701 315.615 159.225 314.574 162.354 314.535C165.484 314.497 168.036 315.476 168.053 316.723Z" fill="#DAE4DD"/>
<path d="M172.902 313.918L172.961 318.068C172.977 319.314 175.529 320.295 178.659 320.255C181.789 320.218 184.312 319.176 184.295 317.928L184.236 313.78L172.902 313.918Z" fill="#A5ABA7"/>
<path d="M184.225 313.413C184.242 314.66 181.719 315.701 178.59 315.74C175.46 315.779 172.908 314.798 172.891 313.553C172.873 312.305 175.397 311.263 178.526 311.226C181.656 311.187 184.207 312.166 184.225 313.413Z" fill="#DAE4DD"/>
<path d="M189.074 310.611L189.132 314.76C189.149 316.007 191.701 316.987 194.831 316.948C197.961 316.909 200.483 315.868 200.466 314.621L200.408 310.471L189.074 310.611Z" fill="#A5ABA7"/>
<path d="M200.401 310.104C200.418 311.351 197.895 312.392 194.764 312.431C191.635 312.468 189.084 311.489 189.066 310.243C189.049 308.995 191.572 307.954 194.702 307.916C197.832 307.877 200.383 308.856 200.401 310.104Z" fill="#DAE4DD"/>
<path d="M205.25 307.297L205.309 311.447C205.326 312.693 207.878 313.673 211.007 313.634C214.137 313.596 216.66 312.554 216.643 311.307L216.584 307.158L205.25 307.297Z" fill="#A5ABA7"/>
<path d="M216.58 306.796C216.599 308.043 214.074 309.084 210.945 309.123C207.815 309.161 205.264 308.181 205.246 306.934C205.229 305.688 207.752 304.646 210.882 304.608C214.011 304.57 216.563 305.548 216.58 306.796Z" fill="#DAE4DD"/>
<path d="M221.422 303.988L221.481 308.137C221.498 309.384 224.049 310.363 227.18 310.325C230.31 310.286 232.832 309.245 232.815 307.998L232.756 303.848L221.422 303.988Z" fill="#A5ABA7"/>
<path d="M232.755 303.484C232.773 304.73 230.249 305.772 227.12 305.809C223.99 305.848 221.438 304.869 221.422 303.622C221.404 302.375 223.927 301.334 227.057 301.295C230.187 301.257 232.738 302.236 232.755 303.484Z" fill="#DAE4DD"/>
<path d="M237.605 300.678L237.663 304.826C237.68 306.074 240.232 307.054 243.362 307.015C246.492 306.976 249.014 305.935 248.997 304.688L248.94 300.539L237.605 300.678Z" fill="#A5ABA7"/>
<path d="M248.932 300.173C248.949 301.421 246.425 302.462 243.297 302.5C240.167 302.539 237.614 301.559 237.598 300.312C237.58 299.065 240.103 298.024 243.233 297.985C246.363 297.948 248.913 298.926 248.932 300.173Z" fill="#DAE4DD"/>
<path d="M253.777 297.366L253.836 301.514C253.852 302.762 256.404 303.742 259.534 303.702C262.664 303.664 265.187 302.623 265.169 301.375L265.111 297.227L253.777 297.366Z" fill="#A5ABA7"/>
<path d="M265.112 296.862C265.129 298.11 262.606 299.151 259.477 299.189C256.346 299.227 253.795 298.247 253.777 297.001C253.76 295.754 256.283 294.713 259.412 294.674C262.543 294.636 265.094 295.615 265.112 296.862Z" fill="#DAE4DD"/>
<path d="M282.756 318.429L120.61 362.425C118.2 362.669 116.306 360.659 116.246 360.289C115.861 357.962 117.027 351.807 117.027 351.807L280.256 311.826C280.543 311.756 280.846 311.797 281.099 311.941L283.114 313.274C283.342 313.731 283.688 318.195 282.756 318.429Z" fill="#A5ABA7"/>
<path d="M282.415 314.725L122.738 354.856C121.793 355.093 120.783 354.959 119.947 354.481L117.48 353.075C116.652 352.602 116.837 351.43 117.776 351.202L280.252 311.828C280.537 311.759 280.841 311.801 281.093 311.944L282.698 312.853C283.525 313.321 283.348 314.491 282.415 314.725Z" fill="#DAE4DD"/>
<path d="M118.004 335.415L102.912 338.567L97.918 335.72L113.01 332.567L118.004 335.415Z" fill="#DAE4DD"/>
<path d="M102.91 338.566V348.227L117.893 344.312L118.002 335.413L102.91 338.566Z" fill="#A5ABA7"/>
<path d="M102.904 338.566V348.227L97.8008 344.617L97.9094 335.718L102.904 338.566Z" fill="#A09F9C"/>
<path d="M291.809 298.342L278.276 301.169L273.797 298.616L287.331 295.788L291.809 298.342Z" fill="#DAE4DD"/>
<path d="M278.27 301.17V309.833L291.706 306.322L291.803 298.342L278.27 301.17Z" fill="#A5ABA7"/>
<path d="M278.276 301.17V309.833L273.699 306.595L273.797 298.615L278.276 301.17Z" fill="#A09F9C"/>
<path d="M139.145 332.277L139.202 336.426C139.219 337.673 141.771 338.653 144.901 338.614C148.031 338.576 150.554 337.535 150.536 336.287L150.479 332.138L139.145 332.277Z" fill="#A5ABA7"/>
<path d="M150.475 331.768C150.492 333.016 147.969 334.056 144.84 334.095C141.71 334.134 139.158 333.153 139.141 331.908C139.123 330.66 141.647 329.618 144.776 329.581C147.906 329.542 150.457 330.521 150.475 331.768Z" fill="#DAE4DD"/>
<path d="M122.859 334.959L122.917 339.107C122.934 340.355 125.486 341.334 128.616 341.296C131.746 341.257 134.268 340.216 134.251 338.969L134.193 334.819L122.859 334.959Z" fill="#A5ABA7"/>
<path d="M134.194 334.454C134.211 335.702 131.688 336.743 128.559 336.781C125.428 336.819 122.877 335.84 122.859 334.593C122.842 333.346 125.365 332.305 128.494 332.266C131.625 332.229 134.176 333.207 134.194 334.454Z" fill="#DAE4DD"/>
<path d="M155.324 328.966L155.382 333.115C155.399 334.362 157.951 335.342 161.081 335.303C164.211 335.264 166.734 334.224 166.717 332.976L166.658 328.827L155.324 328.966Z" fill="#A5ABA7"/>
<path d="M166.647 328.459C166.664 329.706 164.141 330.747 161.012 330.786C157.881 330.823 155.33 329.844 155.313 328.598C155.295 327.35 157.818 326.309 160.948 326.271C164.078 326.232 166.629 327.212 166.647 328.459Z" fill="#DAE4DD"/>
<path d="M171.5 325.654L171.558 329.803C171.575 331.05 174.126 332.031 177.257 331.991C180.387 331.952 182.909 330.911 182.892 329.664L182.834 325.515L171.5 325.654Z" fill="#A5ABA7"/>
<path d="M182.83 325.151C182.848 326.398 180.324 327.439 177.194 327.478C174.065 327.516 171.514 326.536 171.496 325.29C171.478 324.043 174.002 323.001 177.131 322.963C180.261 322.925 182.813 323.903 182.83 325.151Z" fill="#DAE4DD"/>
<path d="M187.672 322.343L187.731 326.492C187.748 327.739 190.298 328.718 193.429 328.68C196.559 328.641 199.082 327.599 199.065 326.353L199.006 322.203L187.672 322.343Z" fill="#A5ABA7"/>
<path d="M199.002 321.838C199.02 323.084 196.496 324.126 193.367 324.164C190.237 324.202 187.685 323.223 187.668 321.976C187.651 320.729 190.174 319.688 193.303 319.649C196.433 319.611 198.985 320.59 199.002 321.838Z" fill="#DAE4DD"/>
<path d="M203.855 319.034L203.913 323.182C203.93 324.43 206.482 325.409 209.612 325.37C212.742 325.332 215.266 324.29 215.247 323.044L215.19 318.894L203.855 319.034Z" fill="#A5ABA7"/>
<path d="M215.178 318.527C215.195 319.774 212.672 320.816 209.543 320.853C206.413 320.892 203.861 319.913 203.844 318.666C203.826 317.419 206.349 316.378 209.479 316.339C212.609 316.301 215.159 317.28 215.178 318.527Z" fill="#DAE4DD"/>
<path d="M220.027 315.721L220.086 319.869C220.102 321.117 222.655 322.097 225.784 322.057C228.914 322.019 231.437 320.978 231.42 319.731L231.361 315.582L220.027 315.721Z" fill="#A5ABA7"/>
<path d="M231.349 315.215C231.367 316.463 228.843 317.504 225.714 317.542C222.584 317.581 220.032 316.6 220.016 315.354C219.997 314.107 222.521 313.066 225.651 313.027C228.78 312.99 231.331 313.968 231.349 315.215Z" fill="#DAE4DD"/>
<path d="M236.203 312.412L236.261 316.562C236.278 317.81 238.83 318.789 241.96 318.749C245.09 318.712 247.612 317.67 247.595 316.422L247.536 312.274L236.203 312.412Z" fill="#A5ABA7"/>
<path d="M247.532 311.905C247.551 313.153 245.026 314.195 241.897 314.232C238.767 314.271 236.216 313.291 236.199 312.045C236.181 310.798 238.704 309.756 241.834 309.718C244.965 309.679 247.515 310.659 247.532 311.905Z" fill="#DAE4DD"/>
<path d="M252.379 309.101L252.436 313.25C252.454 314.497 255.005 315.477 258.136 315.438C261.266 315.399 263.789 314.359 263.771 313.111L263.713 308.963L252.379 309.101Z" fill="#A5ABA7"/>
<path d="M263.709 308.596C263.727 309.843 261.203 310.884 258.074 310.923C254.944 310.961 252.391 309.981 252.375 308.735C252.358 307.487 254.88 306.446 258.01 306.408C261.14 306.37 263.691 307.349 263.709 308.596Z" fill="#DAE4DD"/>
<path d="M268.457 305.7L268.515 309.849C268.532 311.096 271.083 312.077 274.214 312.037C277.344 311.998 279.866 310.957 279.849 309.71L279.791 305.562L268.457 305.7Z" fill="#A5ABA7"/>
<path d="M279.787 305.195C279.805 306.442 277.28 307.483 274.152 307.522C271.022 307.56 268.47 306.58 268.453 305.334C268.436 304.086 270.958 303.045 274.088 303.007C277.218 302.969 279.769 303.948 279.787 305.195Z" fill="#DAE4DD"/>
<path d="M57.2862 299.942C51.8369 251.451 34.5192 237.802 30.1534 235.091C21.462 238.518 12.3819 249.957 20.1504 288.513C20.5587 290.542 21.4132 292.477 22.6585 294.181C30.4867 304.891 61.1732 346.746 77.1054 366.584C77.1087 366.19 77.1054 365.784 77.0902 365.355C75.5268 320.445 57.2862 299.942 57.2862 299.942Z" fill="url(#paint2_linear_26_426)"/>
<path d="M26.5261 237.054C22.1473 240.185 18.3135 246.185 17.4102 257.692L26.0201 264.547L26.5261 237.054Z" fill="#2F2E41"/>
<path d="M20.6719 221.349C21.4037 222.117 21.8868 223.059 22.282 224.005C22.6827 224.958 22.9389 225.95 23.1419 226.948C23.333 227.949 23.4318 228.961 23.4546 229.973C23.4731 230.987 23.408 232 23.2125 233.003C22.9552 232.009 22.7858 231.025 22.611 230.046C22.4188 229.07 22.2777 228.092 22.0747 227.128C21.8988 226.158 21.6968 225.195 21.4742 224.234C21.2397 223.275 21.0052 222.316 20.6719 221.349Z" fill="#A1519D"/>
<path d="M27.0773 236.664C26.6842 232.995 25.8113 230.071 25.1273 230.135L17.9961 230.448L19.4195 243.741L26.5518 243.426C27.2347 243.363 27.4703 240.335 27.0773 236.664Z" fill="url(#paint3_linear_26_426)"/>
<path d="M19.9441 236.978C20.3372 240.647 20.1016 243.676 19.4176 243.74C18.7346 243.804 17.8617 240.881 17.4676 237.211C17.0745 233.539 17.3101 230.513 17.9941 230.447C18.6782 230.383 19.5511 233.307 19.9441 236.978Z" fill="#2F2E41"/>
<path d="M43.7379 244.168C54.1611 256.737 58.3304 264.792 59.7635 277.485C60.365 282.816 68.2107 273.941 78.9161 265.768C84.5783 261.446 90.4011 259.242 122.303 253.686C142.647 250.144 152.82 248.374 156.699 248.196C184.294 246.931 191.45 254.464 207.903 248.196C217.947 244.368 220.548 239.553 228.619 240.141C241.692 241.093 250.335 254.857 250.898 254.42C252.652 253.061 237.78 229.569 223.147 225.129C221.705 224.693 227.854 229.482 220.411 229.89C204.643 230.755 192.784 235.259 191.486 235.747C169.175 244.133 158.729 233.863 123.866 240.873C96.0492 246.467 73.4461 258.886 64.8448 250.757C63.2683 249.27 59.2891 244.373 52.7279 243.435C51.1796 243.215 42.2646 242.391 43.7379 244.168Z" fill="#22DCD9" fill-opacity="0.2"/>
<path d="M96.5039 368.098C100.087 370.721 107.59 374.017 115.266 373.04C172.375 365.779 236.624 339.79 266.271 332.646C273.186 330.979 279.779 327.979 286.857 327.093C292.136 326.431 297.335 326.359 300.537 322.698C302.778 320.138 303.536 316.398 302.687 315.925C301.801 315.432 299.236 318.535 297.02 320.502C289.201 327.446 277.723 327.388 272.981 327.642C257.433 328.475 252.728 335.972 208.879 348.51C198.431 351.498 179.568 355.749 141.845 364.254C138.579 364.99 132.718 366.304 124.842 367.732C113.411 369.804 109.207 373.407 96.5039 368.098Z" fill="#F73E94" fill-opacity="0.2"/>
<path d="M21.1896 246.344C20.5002 239.907 18.9693 234.779 17.7695 234.891L5.26172 235.44L7.75894 258.755L20.2667 258.206C21.4654 258.094 21.8791 252.783 21.1896 246.344Z" fill="url(#paint4_linear_26_426)"/>
<path d="M8.6766 246.892C9.36604 253.33 8.95237 258.641 7.75371 258.753C6.55396 258.866 5.02306 253.738 4.33361 247.3C3.64416 240.862 4.05783 235.552 5.25649 235.438C6.45624 235.326 7.98715 240.454 8.6766 246.892Z" fill="#2F2E41"/>
<path d="M8.40644 236.066C8.17518 236.125 10.5508 239.924 10.8982 242.781C11.0633 244.141 10.9514 245.06 11.1914 245.081C11.4813 245.109 12.2076 243.815 12.364 242.421C12.4682 241.489 12.2467 241.151 12.6571 240.838C13.1023 240.497 13.6604 240.669 15.5887 240.479C17.0631 240.332 17.0512 240.201 17.4453 240.263C19.4973 240.585 19.8784 244.181 20.1814 244.146C20.4126 244.12 20.3692 241.995 19.3996 239.328C18.7362 237.502 17.8318 235.955 17.3476 236.02C16.8915 236.082 17.3769 237.49 16.175 238.249C15.7819 238.497 15.0664 238.582 13.6343 238.753C12.1099 238.934 11.3347 239.019 10.7028 238.753C9.82117 238.379 8.53565 236.033 8.40644 236.066Z" fill="#A5ABA7"/>
<mask id="mask1_26_426" style="mask-type:luminance" maskUnits="userSpaceOnUse" x="59" y="11" width="202" height="264">
<path d="M59.1055 11.0756H260.433V274.066H59.1055V11.0756Z" fill="white"/>
</mask>
<g mask="url(#mask1_26_426)">
<g opacity="0.100006">
<path d="M59.1055 19.1557C74.4872 27.6832 90.4933 41.7159 104.714 65.6216C130.725 109.342 162.042 223.542 162.042 223.542C162.042 223.542 203.214 248.681 204.777 274.066L260.434 265.378C260.398 265.251 260.352 265.088 260.296 264.902C260.289 264.879 260.282 264.856 260.275 264.833C260.22 264.652 260.159 264.444 260.086 264.213C260.075 264.177 260.062 264.136 260.05 264.098C259.977 263.862 259.895 263.607 259.804 263.328C259.789 263.287 259.774 263.241 259.761 263.198C259.665 262.908 259.561 262.599 259.447 262.268C259.432 262.227 259.417 262.183 259.403 262.143C259.292 261.824 259.174 261.489 259.046 261.139C259.026 261.083 259.007 261.029 258.986 260.971C258.855 260.612 258.711 260.231 258.56 259.839C258.532 259.763 258.504 259.69 258.475 259.612C258.324 259.223 258.163 258.816 257.996 258.4C257.956 258.3 257.915 258.202 257.873 258.1C257.705 257.686 257.525 257.257 257.338 256.819C257.29 256.706 257.242 256.594 257.192 256.479C257.003 256.041 256.804 255.589 256.596 255.13C256.54 255.006 256.482 254.88 256.425 254.754C256.213 254.291 255.991 253.819 255.761 253.34C255.699 253.213 255.637 253.085 255.575 252.957C255.337 252.466 255.09 251.969 254.833 251.465C254.77 251.343 254.705 251.219 254.642 251.095C254.374 250.577 254.098 250.054 253.81 249.526C253.748 249.414 253.685 249.301 253.623 249.189C253.323 248.639 253.012 248.088 252.688 247.529C252.638 247.444 252.585 247.357 252.536 247.272C252.217 246.73 251.889 246.183 251.549 245.635C251.494 245.546 251.441 245.46 251.386 245.371C251.034 244.808 250.668 244.241 250.291 243.675C250.224 243.574 250.161 243.473 250.093 243.374C249.715 242.808 249.321 242.243 248.919 241.678C248.835 241.561 248.753 241.443 248.668 241.325C248.269 240.771 247.854 240.218 247.43 239.666C247.335 239.542 247.239 239.418 247.143 239.294C246.716 238.745 246.276 238.2 245.825 237.658C245.722 237.536 245.62 237.413 245.517 237.292C245.059 236.749 244.588 236.211 244.105 235.676C244 235.562 243.894 235.447 243.79 235.332C243.295 234.794 242.789 234.262 242.268 233.738C242.167 233.636 242.065 233.536 241.963 233.435C241.426 232.902 240.877 232.374 240.312 231.858C240.223 231.775 240.131 231.695 240.041 231.614C239.453 231.083 238.854 230.559 238.235 230.049C238.172 229.997 238.106 229.947 238.043 229.895C237.412 229.379 236.765 228.873 236.103 228.383C236.064 228.356 236.028 228.327 235.99 228.299C235.313 227.801 234.617 227.322 233.907 226.855C233.834 226.806 233.76 226.754 233.685 226.705C232.991 226.254 232.279 225.822 231.553 225.403C231.451 225.344 231.352 225.284 231.248 225.225C230.533 224.821 229.8 224.434 229.053 224.062C228.932 224.002 228.812 223.94 228.688 223.881C227.944 223.519 227.184 223.176 226.408 222.852C226.276 222.796 226.143 222.742 226.011 222.687C225.229 222.368 224.433 222.07 223.619 221.791C223.484 221.745 223.348 221.7 223.213 221.656C222.389 221.382 221.547 221.129 220.688 220.899C220.56 220.865 220.431 220.834 220.303 220.799C219.422 220.573 218.529 220.369 217.615 220.192C217.506 220.17 217.395 220.152 217.286 220.132C216.341 219.956 215.38 219.804 214.396 219.685C214.326 219.675 214.253 219.669 214.182 219.661C213.151 219.541 212.103 219.447 211.032 219.393C211.032 219.393 208.194 219.628 203.286 220.035C205.66 212.157 210.497 185.474 183.366 148.202C150.793 103.454 159.219 66.1505 151.619 46.8273C149.967 42.6281 116.032 19.9489 116.032 19.9489C110.792 17.0972 98.9589 13.9537 84.6922 11.0766C75.029 11.1223 66.4516 14.0676 59.1055 19.1557Z" fill="#000467"/>
</g>
</g>
<path d="M77.4062 307.154L77.4638 311.303C77.4801 312.55 80.0316 313.53 83.1618 313.492C86.292 313.454 88.8142 312.413 88.7979 311.166L88.7404 307.016L77.4062 307.154Z" fill="#A5ABA7"/>
<path d="M88.7404 306.646C88.7578 307.894 86.2335 308.934 83.1043 308.973C79.9741 309.01 77.4237 308.03 77.4063 306.784C77.389 305.536 79.9122 304.496 83.0414 304.457C86.1716 304.419 88.7231 305.399 88.7404 306.646Z" fill="#DAE4DD"/>
<path d="M79.9531 320.333L80.0107 324.483C80.027 325.73 82.5785 326.71 85.7087 326.671C88.8389 326.634 91.3621 325.592 91.3448 324.345L91.2872 320.196L79.9531 320.333Z" fill="#A5ABA7"/>
<path d="M91.2834 319.83C91.3008 321.077 88.7764 322.119 85.6473 322.156C82.5171 322.194 79.9667 321.213 79.9493 319.968C79.9319 318.72 82.4552 317.679 85.5843 317.641C88.7145 317.603 91.266 318.582 91.2834 319.83Z" fill="#DAE4DD"/>
<path d="M304.055 110.532C285.684 43.532 271.621 10.7051 220.409 1.42799C200.273 -2.22 185.231 2.16025 165.337 3.11115L91.8131 9.66574C87.8447 10.0095 75.744 11.4445 72.0742 12.8998C79.7939 12.4422 95.8054 18.0306 113.311 33.6467C162.56 77.5813 166.421 159.991 201.256 221.101C223.796 260.643 263.404 235.746 368.939 213.78C360.4 206.793 318.928 164.778 304.055 110.532Z" fill="#DAE4DD"/>
<path d="M402.943 183.026L272.393 212.682C272.393 212.682 273.566 231.598 243.973 241.677C256.954 240.69 293.054 232.711 300.927 230.804L365.145 215.759C413.497 207.19 403.128 183.525 402.943 183.026Z" fill="#A5ABA7"/>
<path d="M116.031 19.9492C125.492 18.9902 134.963 18.142 144.437 17.3111L172.866 14.9425L201.317 12.8088L215.55 11.8244L229.791 10.9477L215.594 12.3217L201.387 13.5879L172.957 15.9544L144.507 18.0861C135.019 18.7563 125.53 19.4082 116.031 19.9492Z" fill="url(#paint5_linear_26_426)"/>
<path d="M130.879 27.2705C140.34 26.3115 149.811 25.4633 159.284 24.6324L187.713 22.2638L216.164 20.1301L230.397 19.1457L244.64 18.269L230.442 19.643L216.235 20.9091L187.805 23.2757L159.354 25.4084C149.866 26.0776 140.378 26.7295 130.879 27.2705Z" fill="url(#paint6_linear_26_426)"/>
<path d="M145.734 34.5957C155.196 33.6367 164.667 32.7885 174.14 31.9576L202.569 29.589L231.02 27.4553L245.252 26.4709L259.495 25.5942L245.297 26.9682L231.089 28.2343L202.66 30.6009L174.209 32.7336C164.722 33.4028 155.234 34.0547 145.734 34.5957Z" fill="url(#paint7_linear_26_426)"/>
<path d="M151.203 44.1128C160.664 43.1538 170.135 42.3056 179.608 41.4747L208.038 39.1061L236.489 36.9724L250.722 35.9879L264.964 35.1113L250.767 36.4853L236.559 37.7514L208.129 40.118L179.679 42.2507C170.191 42.9198 160.702 43.5717 151.203 44.1128Z" fill="url(#paint8_linear_26_426)"/>
<path d="M160.59 54.3669C167.076 53.6316 173.572 53.0072 180.069 52.4001C186.567 51.7899 193.072 51.2712 199.574 50.7027C206.083 50.2155 212.587 49.6857 219.101 49.2392L228.871 48.5914C232.132 48.4124 235.388 48.1988 238.651 48.0503C235.409 48.4287 232.161 48.7409 228.917 49.0887L219.171 50.0192C212.674 50.6264 206.168 51.1481 199.667 51.7146C193.158 52.1987 186.654 52.7326 180.141 53.176C173.629 53.6215 167.114 54.0496 160.59 54.3669Z" fill="url(#paint9_linear_26_426)"/>
<path d="M173.324 84.2146C181.617 82.9708 189.926 81.8379 198.237 80.7212L223.187 77.4973L248.171 74.5063L260.675 73.0937L273.192 71.7868L260.745 73.5879L248.281 75.2822L223.33 78.5041L198.346 81.4941C190.012 82.4491 181.676 83.3868 173.324 84.2146Z" fill="url(#paint10_linear_26_426)"/>
<path d="M178.691 92.9192C186.984 91.6754 195.292 90.5424 203.604 89.4258L228.554 86.2019L253.537 83.2109L266.042 81.7982L278.561 80.4914L266.111 82.2925L253.648 83.9858L228.697 87.2087L203.714 90.1987C195.379 91.1537 187.043 92.0913 178.691 92.9192Z" fill="url(#paint11_linear_26_426)"/>
<path d="M184.066 101.62C192.359 100.376 200.669 99.2434 208.979 98.1267L233.929 94.9028L258.913 91.9118L271.417 90.4982L283.936 89.1923L271.486 90.9934L259.023 92.6867L234.072 95.9096L209.087 98.8986C200.754 99.8536 192.418 100.792 184.066 101.62Z" fill="url(#paint12_linear_26_426)"/>
<path d="M186.313 110.373C194.605 109.129 202.915 107.996 211.225 106.879L236.175 103.655L261.16 100.664L273.663 99.2516L286.181 97.9448L273.734 99.7459L261.269 101.439L236.319 104.662L211.335 107.652C203 108.607 194.664 109.545 186.313 110.373Z" fill="url(#paint13_linear_26_426)"/>
<path d="M189.723 119.108C198.016 117.864 206.325 116.731 214.635 115.615L239.586 112.391L264.569 109.4L277.073 107.987L289.592 106.681L277.143 108.481L264.679 110.176L239.728 113.398L214.744 116.388C206.411 117.343 198.074 118.28 189.723 119.108Z" fill="url(#paint14_linear_26_426)"/>
<path d="M192.359 127.853C196.651 127.07 200.961 126.398 205.272 125.742C209.584 125.084 213.908 124.516 218.226 123.899C222.555 123.364 226.879 122.784 231.215 122.29L237.722 121.567C239.897 121.364 242.066 121.125 244.245 120.952C242.1 121.353 239.947 121.69 237.797 122.061L231.332 123.064C227.02 123.72 222.696 124.29 218.378 124.906C214.048 125.438 209.726 126.021 205.388 126.514C201.053 127.008 196.714 127.486 192.359 127.853Z" fill="url(#paint15_linear_26_426)"/>
<path d="M202.359 159.807C210.587 158.229 218.836 156.762 227.088 155.31L251.866 151.082L276.688 147.084L289.116 145.167L301.563 143.357L289.209 145.658L276.835 147.855L252.056 152.081L227.233 156.077C218.951 157.369 210.665 158.642 202.359 159.807Z" fill="url(#paint16_linear_26_426)"/>
<path d="M208.137 168.284C216.365 166.707 224.613 165.239 232.865 163.789L257.645 159.559L282.467 155.561L294.893 153.645L307.34 151.834L294.986 154.136L282.612 156.332L257.832 160.559L233.01 164.555C224.728 165.846 216.442 167.12 208.137 168.284Z" fill="url(#paint17_linear_26_426)"/>
<path d="M213.895 176.76C222.122 175.183 230.372 173.715 238.622 172.264L263.402 168.035L288.225 164.038L300.651 162.12L313.098 160.31L300.744 162.612L288.37 164.808L263.59 169.035L238.768 173.031C230.486 174.322 222.2 175.596 213.895 176.76Z" fill="url(#paint18_linear_26_426)"/>
<path d="M216.543 185.415C224.771 183.838 233.019 182.37 241.271 180.919L266.051 176.69L290.873 172.692L303.3 170.775L315.747 168.965L303.392 171.267L291.019 173.463L266.239 177.69L241.416 181.686C233.133 182.977 224.848 184.251 216.543 185.415Z" fill="url(#paint19_linear_26_426)"/>
<path d="M220.359 194.001C228.587 192.423 236.837 190.956 245.087 189.505L269.867 185.276L294.69 181.278L307.116 179.361L319.563 177.551L307.209 179.852L294.835 182.048L270.055 186.276L245.233 190.272C236.951 191.563 228.665 192.835 220.359 194.001Z" fill="url(#paint20_linear_26_426)"/>
<path d="M223.391 202.636C227.642 201.681 231.917 200.835 236.194 200.005C240.471 199.174 244.766 198.432 249.051 197.642C253.352 196.932 257.645 196.177 261.954 195.508L268.422 194.524C270.585 194.232 272.74 193.906 274.909 193.645C272.786 194.133 270.649 194.557 268.519 195.014L262.106 196.277C257.829 197.107 253.535 197.851 249.249 198.639C244.947 199.347 240.656 200.104 236.347 200.771C232.038 201.44 227.725 202.093 223.391 202.636Z" fill="url(#paint21_linear_26_426)"/>
</g>
<defs>
<filter id="filter0_d_26_426" x="0" y="0" width="407.999" height="390.326" filterUnits="userSpaceOnUse" color-interpolation-filters="sRGB">
<feFlood flood-opacity="0" result="BackgroundImageFix"/>
<feColorMatrix in="SourceAlpha" type="matrix" values="0 0 0 0 0 0 0 0 0 0 0 0 0 0 0 0 0 0 127 0" result="hardAlpha"/>
<feOffset dy="4"/>
<feGaussianBlur stdDeviation="2"/>
<feComposite in2="hardAlpha" operator="out"/>
<feColorMatrix type="matrix" values="0 0 0 0 0 0 0 0 0 0 0 0 0 0 0 0 0 0 0.25 0"/>
<feBlend mode="normal" in2="BackgroundImageFix" result="effect1_dropShadow_26_426"/>
<feBlend mode="normal" in="SourceGraphic" in2="effect1_dropShadow_26_426" result="shape"/>
</filter>
<linearGradient id="paint0_linear_26_426" x1="-11.4291" y1="222.664" x2="132.419" y2="209.257" gradientUnits="userSpaceOnUse">
<stop stop-color="#F73E94"/>
<stop offset="0.166667" stop-color="#BF2D8E"/>
<stop offset="0.333333" stop-color="#94268C"/>
<stop offset="0.5" stop-color="#73409D"/>
<stop offset="0.666667" stop-color="#5262B5"/>
<stop offset="0.833333" stop-color="#47C1CD"/>
<stop offset="1" stop-color="#22DCD9"/>
</linearGradient>
<linearGradient id="paint1_linear_26_426" x1="162.441" y1="382.326" x2="162.441" y2="219.394" gradientUnits="userSpaceOnUse">
<stop stop-color="#22DCD9"/>
<stop offset="0.2" stop-color="#23A4DD"/>
<stop offset="0.4" stop-color="#634DA6"/>
<stop offset="0.6" stop-color="#9E238A"/>
<stop offset="0.8" stop-color="#C42F8E"/>
<stop offset="1" stop-color="#F73E94"/>
</linearGradient>
<linearGradient id="paint2_linear_26_426" x1="74" y1="363.904" x2="23.1235" y2="228.592" gradientUnits="userSpaceOnUse">
<stop stop-color="#22DCD9"/>
<stop offset="0.2" stop-color="#228FDB"/>
<stop offset="0.4" stop-color="#73429F"/>
<stop offset="0.6" stop-color="#91288E"/>
<stop offset="0.8" stop-color="#BE2D8E"/>
<stop offset="1" stop-color="#F73E94"/>
</linearGradient>
<linearGradient id="paint3_linear_26_426" x1="22.6318" y1="243.741" x2="22.6318" y2="230.134" gradientUnits="userSpaceOnUse">
<stop stop-color="#22DCD9"/>
<stop offset="0.5" stop-color="#2266DC"/>
<stop offset="1" stop-color="#555FB2"/>
</linearGradient>
<linearGradient id="paint4_linear_26_426" x1="13.3925" y1="258.755" x2="13.3925" y2="234.889" gradientUnits="userSpaceOnUse">
<stop stop-color="#22DCD9"/>
<stop offset="0.5" stop-color="#2266DC"/>
<stop offset="1" stop-color="#555FB2"/>
</linearGradient>
<linearGradient id="paint5_linear_26_426" x1="172.911" y1="19.9492" x2="172.911" y2="10.9477" gradientUnits="userSpaceOnUse">
<stop stop-color="#F73E94"/>
<stop offset="0.2" stop-color="#C8308F"/>
<stop offset="0.4" stop-color="#99228A"/>
<stop offset="0.6" stop-color="#743F9D"/>
<stop offset="0.8" stop-color="#249CDE"/>
<stop offset="1" stop-color="#22DCD9"/>
</linearGradient>
<linearGradient id="paint6_linear_26_426" x1="187.76" y1="27.2705" x2="187.76" y2="18.269" gradientUnits="userSpaceOnUse">
<stop stop-color="#F73E94"/>
<stop offset="0.2" stop-color="#C8308F"/>
<stop offset="0.4" stop-color="#99228A"/>
<stop offset="0.6" stop-color="#743F9D"/>
<stop offset="0.8" stop-color="#249CDE"/>
<stop offset="1" stop-color="#22DCD9"/>
</linearGradient>
<linearGradient id="paint7_linear_26_426" x1="202.614" y1="34.5957" x2="202.614" y2="25.5942" gradientUnits="userSpaceOnUse">
<stop stop-color="#F73E94"/>
<stop offset="0.2" stop-color="#C8308F"/>
<stop offset="0.4" stop-color="#99228A"/>
<stop offset="0.6" stop-color="#743F9D"/>
<stop offset="0.8" stop-color="#249CDE"/>
<stop offset="1" stop-color="#22DCD9"/>
</linearGradient>
<linearGradient id="paint8_linear_26_426" x1="208.084" y1="44.1128" x2="208.084" y2="35.1113" gradientUnits="userSpaceOnUse">
<stop stop-color="#F73E94"/>
<stop offset="0.2" stop-color="#C8308F"/>
<stop offset="0.4" stop-color="#99228A"/>
<stop offset="0.6" stop-color="#743F9D"/>
<stop offset="0.8" stop-color="#249CDE"/>
<stop offset="1" stop-color="#22DCD9"/>
</linearGradient>
<linearGradient id="paint9_linear_26_426" x1="199.62" y1="54.3669" x2="199.62" y2="48.0503" gradientUnits="userSpaceOnUse">
<stop stop-color="#F73E94"/>
<stop offset="0.2" stop-color="#C8308F"/>
<stop offset="0.4" stop-color="#99228A"/>
<stop offset="0.6" stop-color="#743F9D"/>
<stop offset="0.8" stop-color="#249CDE"/>
<stop offset="1" stop-color="#22DCD9"/>
</linearGradient>
<linearGradient id="paint10_linear_26_426" x1="223.258" y1="84.2146" x2="223.258" y2="71.7868" gradientUnits="userSpaceOnUse">
<stop stop-color="#F73E94"/>
<stop offset="0.2" stop-color="#C8308F"/>
<stop offset="0.4" stop-color="#99228A"/>
<stop offset="0.6" stop-color="#743F9D"/>
<stop offset="0.8" stop-color="#249CDE"/>
<stop offset="1" stop-color="#22DCD9"/>
</linearGradient>
<linearGradient id="paint11_linear_26_426" x1="228.626" y1="92.9192" x2="228.626" y2="80.4914" gradientUnits="userSpaceOnUse">
<stop stop-color="#F73E94"/>
<stop offset="0.2" stop-color="#C8308F"/>
<stop offset="0.4" stop-color="#99228A"/>
<stop offset="0.6" stop-color="#743F9D"/>
<stop offset="0.8" stop-color="#249CDE"/>
<stop offset="1" stop-color="#22DCD9"/>
</linearGradient>
<linearGradient id="paint12_linear_26_426" x1="234.001" y1="101.62" x2="234.001" y2="89.1923" gradientUnits="userSpaceOnUse">
<stop stop-color="#F73E94"/>
<stop offset="0.2" stop-color="#C8308F"/>
<stop offset="0.4" stop-color="#99228A"/>
<stop offset="0.6" stop-color="#743F9D"/>
<stop offset="0.8" stop-color="#249CDE"/>
<stop offset="1" stop-color="#22DCD9"/>
</linearGradient>
<linearGradient id="paint13_linear_26_426" x1="236.247" y1="110.373" x2="236.247" y2="97.9448" gradientUnits="userSpaceOnUse">
<stop stop-color="#F73E94"/>
<stop offset="0.2" stop-color="#C8308F"/>
<stop offset="0.4" stop-color="#99228A"/>
<stop offset="0.6" stop-color="#743F9D"/>
<stop offset="0.8" stop-color="#249CDE"/>
<stop offset="1" stop-color="#22DCD9"/>
</linearGradient>
<linearGradient id="paint14_linear_26_426" x1="239.657" y1="119.108" x2="239.657" y2="106.681" gradientUnits="userSpaceOnUse">
<stop stop-color="#F73E94"/>
<stop offset="0.2" stop-color="#C8308F"/>
<stop offset="0.4" stop-color="#99228A"/>
<stop offset="0.6" stop-color="#743F9D"/>
<stop offset="0.8" stop-color="#249CDE"/>
<stop offset="1" stop-color="#22DCD9"/>
</linearGradient>
<linearGradient id="paint15_linear_26_426" x1="218.302" y1="127.853" x2="218.302" y2="120.952" gradientUnits="userSpaceOnUse">
<stop stop-color="#F73E94"/>
<stop offset="0.2" stop-color="#C8308F"/>
<stop offset="0.4" stop-color="#99228A"/>
<stop offset="0.6" stop-color="#743F9D"/>
<stop offset="0.8" stop-color="#249CDE"/>
<stop offset="1" stop-color="#22DCD9"/>
</linearGradient>
<linearGradient id="paint16_linear_26_426" x1="251.961" y1="159.807" x2="251.961" y2="143.357" gradientUnits="userSpaceOnUse">
<stop stop-color="#F73E94"/>
<stop offset="0.2" stop-color="#C8308F"/>
<stop offset="0.4" stop-color="#99228A"/>
<stop offset="0.6" stop-color="#743F9D"/>
<stop offset="0.8" stop-color="#249CDE"/>
<stop offset="1" stop-color="#22DCD9"/>
</linearGradient>
<linearGradient id="paint17_linear_26_426" x1="257.738" y1="168.284" x2="257.738" y2="151.834" gradientUnits="userSpaceOnUse">
<stop stop-color="#F73E94"/>
<stop offset="0.2" stop-color="#C8308F"/>
<stop offset="0.4" stop-color="#99228A"/>
<stop offset="0.6" stop-color="#743F9D"/>
<stop offset="0.8" stop-color="#249CDE"/>
<stop offset="1" stop-color="#22DCD9"/>
</linearGradient>
<linearGradient id="paint18_linear_26_426" x1="263.496" y1="176.76" x2="263.496" y2="160.31" gradientUnits="userSpaceOnUse">
<stop stop-color="#F73E94"/>
<stop offset="0.2" stop-color="#C8308F"/>
<stop offset="0.4" stop-color="#99228A"/>
<stop offset="0.6" stop-color="#743F9D"/>
<stop offset="0.8" stop-color="#249CDE"/>
<stop offset="1" stop-color="#22DCD9"/>
</linearGradient>
<linearGradient id="paint19_linear_26_426" x1="266.145" y1="185.415" x2="266.145" y2="168.965" gradientUnits="userSpaceOnUse">
<stop stop-color="#F73E94"/>
<stop offset="0.2" stop-color="#C8308F"/>
<stop offset="0.4" stop-color="#99228A"/>
<stop offset="0.6" stop-color="#743F9D"/>
<stop offset="0.8" stop-color="#249CDE"/>
<stop offset="1" stop-color="#22DCD9"/>
</linearGradient>
<linearGradient id="paint20_linear_26_426" x1="269.961" y1="194.001" x2="269.961" y2="177.551" gradientUnits="userSpaceOnUse">
<stop stop-color="#F73E94"/>
<stop offset="0.2" stop-color="#C8308F"/>
<stop offset="0.4" stop-color="#99228A"/>
<stop offset="0.6" stop-color="#743F9D"/>
<stop offset="0.8" stop-color="#249CDE"/>
<stop offset="1" stop-color="#22DCD9"/>
</linearGradient>
<linearGradient id="paint21_linear_26_426" x1="249.15" y1="202.636" x2="249.15" y2="193.645" gradientUnits="userSpaceOnUse">
<stop stop-color="#F73E94"/>
<stop offset="0.2" stop-color="#C8308F"/>
<stop offset="0.4" stop-color="#99228A"/>
<stop offset="0.6" stop-color="#743F9D"/>
<stop offset="0.8" stop-color="#249CDE"/>
<stop offset="1" stop-color="#22DCD9"/>
</linearGradient>
</defs>
</svg>
